<svg xmlns="http://www.w3.org/2000/svg" viewBox="0 0 121.13 121.76"><defs><style>.cls-1{fill:#bd6706;}.cls-2{fill:#aa5907;}.cls-3{fill:#fcb519;}.cls-4{fill:#a70411;}.cls-5{fill:#f22128;}.cls-6{fill:#fcd147;}.cls-7{fill:#f9b63b;}.cls-8{fill:#ffa329;}.cls-9{fill:#fc9317;}.cls-10{fill:#fbfaf0;}.cls-11{fill:#ffbc2e;}.cls-12{fill:#ffda31;}.cls-13{fill:#b60006;}.cls-14{fill:#d2171f;}.cls-15{fill:#ff3109;}.cls-16{fill:#f94e38;}.cls-17{fill:#f2f2f2;}.cls-18{fill:#acc357;}.cls-19{fill:#cedb6b;}.cls-20{fill:#879846;}.cls-21{fill:#597100;}.cls-22{fill:#617701;}.cls-23{fill:#708203;}.cls-24,.cls-25{fill:none;stroke:#3c5904;stroke-linecap:round;stroke-linejoin:round;}.cls-24{stroke-width:0.7px;}.cls-25{stroke-width:0.74px;}</style></defs><title>Ресурс 5</title><g id="Слой_2" data-name="Слой 2"><g id="OBJECTS"><path class="cls-1" d="M22.47,16.29C41,.63,57.67-5.12,78,5.18,84.86,8.63,99.87,17,105.11,23.24A58.52,58.52,0,0,1,115,39.94c3.85,10,7.4,26.43,5.65,36.73-2.23,13.18-11.51,19.91-22.52,29.21-24.73,20.9-54.12,23.67-82.63-7C-9.41,72.14-2.27,37.19,22.47,16.29Z"/><path class="cls-2" d="M111.4,51.8c2.75,7.43,3.56,15.73,1.34,23.34a44.05,44.05,0,0,1-4.46,9.9,45.74,45.74,0,0,1-5,7.09c-3.15,3.56-7,6.38-10.89,9.17a102.13,102.13,0,0,1-11,7.24,51,51,0,0,1-25.49,6.1c-2.13-.06-4.58-.14-6,1.41,2,3.16,5.91,4.74,9.66,4.82s7.4-1.11,10.89-2.47a110.14,110.14,0,0,0,34.74-21.76c3.69-3.41,7.18-7.13,9.47-11.6,2.87-5.58,3.68-12,4.1-18.24.56-8.53.29-17.72-4.61-24.72a28.75,28.75,0,0,1-2.89-4.23c-.57-1.23-.45-3.29-1.2-4.34-1.43-2-3.7-1.54-4.31.58C104.25,39.11,109.72,47.27,111.4,51.8Z"/><path class="cls-3" d="M25.4,19.76C42.51,5.32,57.88,0,76.7,9.55c6.3,3.19,20.17,11,25,16.7a54.35,54.35,0,0,1,9.17,15.43c3.56,9.2,6.85,24.42,5.25,33.94C114.07,87.78,105.51,94,95.36,102.57c-22.83,19.28-50,21.83-76.31-6.49C-4,71.32,2.58,39.05,25.4,19.76Z"/><path class="cls-4" d="M28,22.83C43.83,9.45,58.07,4.55,75.49,13.37c5.84,3,18.68,10.16,23.16,15.47a49.93,49.93,0,0,1,8.49,14.29c3.3,8.51,6.35,22.61,4.86,31.42-1.9,11.27-9.83,17-19.23,25-21.14,17.86-46.26,20.21-70.66-6C.77,70.57,6.85,40.68,28,22.83Z"/><path class="cls-5" d="M29.47,24.58c15.11-12.77,28.7-17.45,45.33-9,5.57,2.81,17.82,9.69,22.1,14.76A48,48,0,0,1,105,44c3.14,8.13,6,21.58,4.63,30-1.81,10.75-9.38,16.24-18.35,23.82-20.17,17-44.15,19.29-67.43-5.73C3.49,70.14,9.3,41.62,29.47,24.58Z"/><path class="cls-6" d="M16,65.39c.39,4,1.57,8.2,4.75,10.6,1.08.81,2.58,1.36,3.76.71S26,74.4,26.14,73a34.78,34.78,0,0,0,.24-7.76C25.89,61.12,23.94,57,25.12,53c.73-2.45,2.54-4.38,4-6.49a23.94,23.94,0,0,0,4.16-12.35c.51-10.31-11.27,5.65-12.6,8.14A41.12,41.12,0,0,0,16,65.39Z"/><path class="cls-6" d="M19,27.48c-.82.87-1.67,2-1.39,3.13a4.45,4.45,0,0,0,2.88-1.74c2.91-3.07,5.57-6.44,9-8.86,2.51-1.76,6.09-3,7.9-5.51C33.71,11.62,21.48,24.86,19,27.48Z"/><path class="cls-6" d="M53.59,6.37a1.06,1.06,0,0,0-.57.36c-.27.39.07,1,.53,1.1a2.39,2.39,0,0,0,1.39-.14,21.53,21.53,0,0,1,5.34-.83,10.45,10.45,0,0,1,4.27.6c1.07.44,2,1.13,3,1.64a7.79,7.79,0,0,0,3.62.87C70.53,3.88,57.53,5,53.59,6.37Z"/><path class="cls-7" d="M101,43c-.59-2.22-5.26-10.15-6.87-11.13-1.8-1.08-4.49-.88-5.55-2.7-.49-.85-.46-1.94-1-2.74-.77-1.06-2.34-1.17-3.6-.8s-2.39,1.1-3.66,1.42c-2.43.81-3.56-.8-3.74-2.8a7,7,0,0,0-5.61-6.44c-1.39-.26-2.81-.5-4.29-.71-24.33-3.45-47.6,11.3-53.28,38.54-2,9.74,9.81,5.84,8.32,10.29a34.88,34.88,0,0,1-2.36,4.79A9.87,9.87,0,0,0,18,75.77a4.43,4.43,0,0,0,2.95,4c1.29.34,3,.06,3.66,1.24a2.71,2.71,0,0,1,.25,1.29L25,88.12c0,.31-.37,3.81,3.66,6.84a73.54,73.54,0,0,0,10.76,7.23,2.6,2.6,0,0,0,2.63-.19c.48-.3,1.12-.24,1.9.48a1.82,1.82,0,0,1,.44,1A2.46,2.46,0,0,0,46,105.27,40.9,40.9,0,0,0,51.38,107a2.36,2.36,0,0,0,2.48-.87h0a21.73,21.73,0,0,0,1.28-2.82c1.32-2.56,4.49-3.63,7.36-3.57s5.66,1,8.51,1.41c8.65,1.19,17.08-2.76,24.9-6.71a2,2,0,0,0,.39-.25c3.38-2.55,6.31-5.35,7.85-8.36,2.2-4.3,1.54-10,2.25-15C107.28,64.7,102.5,48.56,101,43Z"/><path class="cls-8" d="M25.39,51.82C23.62,58.34,25.16,66.27,30.8,70c2.14,1.43,4.74,2.17,6.6,4,2.53,2.42,3.33,6.42,6.28,8.3,3.81,2.44,8.82,0,13.33.45,2.56.24,4.92,1.4,7.38,2.12,6.16,1.77,13.26.47,18-3.86S89,69.26,86.32,63.43a14.16,14.16,0,0,1-1.47-3.68c-.37-2.62,1.44-5,2.41-7.44,1.75-4.39.78-9.41-.92-13.82-1.31-3.41-3.3-6.9-6.67-8.28a12.52,12.52,0,0,0-5.61-.66A29.51,29.51,0,0,0,59.17,34.8a8.8,8.8,0,0,1-2.52,1.44c-3.61,1.08-6.86-2.82-10.09-3.8-2.85-.86-6.39-.92-9,.61C31.94,36.33,27,45.87,25.39,51.82Z"/><path class="cls-9" d="M32.77,64a15.25,15.25,0,0,0,2.74,6C39.67,75,47.31,75,53.87,74.54a26.59,26.59,0,0,0,8.18-1.44c6-2.41,9.44-8.78,11.13-15a27.5,27.5,0,0,0,.73-13.41C70.84,31.5,55.72,31.4,45.22,35.47S30.17,53.75,32.77,64Z"/><path class="cls-10" d="M77.33,38.84c-3.24.41-13.21,1.78-14.48,6.85S62,54.82,69,60.39s-8,11,3.62,16.6,9.6-8.32,14.66-7.79,19.46-3.8,15.15-16.3c-3.39-9.82-8-9.11-9.59-9.16s-3.94-8.65-8.46-7.15S81.06,38.36,77.33,38.84Z"/><circle class="cls-11" cx="84.27" cy="54.42" r="8.57"/><path class="cls-12" d="M81.69,48.8a10.79,10.79,0,0,1,9.47,5.62v-.11a7,7,0,0,0-7-6.94A6.87,6.87,0,0,0,79.77,49,10.08,10.08,0,0,1,81.69,48.8Z"/><path class="cls-10" d="M52.21,104.33c3.26.11,13.32.33,15.38-4.47S69.93,91,63.84,84.37s9.6-9.59-.94-17S52.11,74.1,47.2,72.78s-19.83.66-17.54,13.69c1.79,10.23,6.41,10.26,8,10.56s2.52,9.17,7.22,8.4S48.45,104.21,52.21,104.33Z"/><path class="cls-11" d="M39.36,86.49a8.57,8.57,0,1,1,7.11,9.82A8.57,8.57,0,0,1,39.36,86.49Z"/><path class="cls-12" d="M49.48,93.8a10.8,10.8,0,0,1-8.46-7,.44.44,0,0,1,0,.1,7,7,0,0,0,5.76,8,6.87,6.87,0,0,0,4.65-.89A9.69,9.69,0,0,1,49.48,93.8Z"/><path class="cls-10" d="M37.59,60c3,1.16,12.5,4.62,16,.75s5.09-7.64,1.47-15.87,12.19-6,4.6-16.36-12.38,2.84-16.6,0-19-5.78-21,7.28C20.42,46,24.79,47.55,26.2,48.36s-.59,9.49,4.11,10.28S34.08,58.64,37.59,60Z"/><circle class="cls-11" cx="38.78" cy="42.96" r="8.57" transform="translate(-17.87 54.79) rotate(-59.73)"/><path class="cls-12" d="M38.42,49.13a10.8,10.8,0,0,1-5.73-9.41.41.41,0,0,1,0,.09A6.95,6.95,0,0,0,40.2,49.87,11,11,0,0,1,38.42,49.13Z"/><path class="cls-13" d="M74.78,29.46a8.63,8.63,0,0,1-3.87,7.77,9.23,9.23,0,0,1-8.71.58,9.94,9.94,0,0,1-5.47-6.88,6.6,6.6,0,0,1,.44-4.51,9.18,9.18,0,0,1,3.76-3.26c2.34-1.33,5.06-2.57,7.65-1.82C71.88,22.3,74.49,26.13,74.78,29.46Z"/><path class="cls-14" d="M73,28.68a7.35,7.35,0,0,1-3.3,6.63,7.87,7.87,0,0,1-7.43.49,8.44,8.44,0,0,1-4.66-5.87A5.64,5.64,0,0,1,58,26.09a7.77,7.77,0,0,1,3.21-2.78c2-1.14,4.31-2.2,6.52-1.55C70.56,22.57,72.78,25.84,73,28.68Z"/><path class="cls-15" d="M69.39,31.82a6,6,0,0,1-4,3.29c-2.21.3-4.23-1.36-5.51-3.18a6.1,6.1,0,0,1-1.15-2.54,5.15,5.15,0,0,1,1.53-4.16A15.38,15.38,0,0,1,64,22.6a2.34,2.34,0,0,1,.9-.36,2.49,2.49,0,0,1,1.21.27c1.65.69,4.41,1.24,4.78,3.29C71.16,27.61,70.24,30.29,69.39,31.82Z"/><path class="cls-16" d="M59,28.8a2.26,2.26,0,0,1,.05-.86,1,1,0,0,1,.59-.78c.57-.21,1.12.41,1.24,1A7,7,0,0,0,61.23,30c.32.62,1.1,1.09,1,1.78a1,1,0,0,1-1.32.72c-.55-.15-.75-.58-1-1.07A5.29,5.29,0,0,1,59,28.8"/><path class="cls-17" d="M62.58,24.52c-1,.5-.84,1.27-1.32,2.25s0,2.45,1.07,2.56c1.32.13,2-1.62,3.17-2.19.65-.32,1.45-.26,2.1-.6s.69-2.33,0-2.55c-1.52-1-3.37-.28-5,.53"/><path class="cls-13" d="M104.86,73.13A8.6,8.6,0,0,1,101,80.9a9.24,9.24,0,0,1-8.72.59,10,10,0,0,1-5.46-6.89,6.54,6.54,0,0,1,.44-4.51A9.16,9.16,0,0,1,91,66.84c2.34-1.34,5.06-2.58,7.65-1.83C102,66,104.58,69.8,104.86,73.13Z"/><path class="cls-14" d="M103.11,72.36A7.34,7.34,0,0,1,99.82,79a7.89,7.89,0,0,1-7.44.5,8.53,8.53,0,0,1-4.66-5.87,5.6,5.6,0,0,1,.38-3.85A7.71,7.71,0,0,1,91.3,67c2-1.14,4.32-2.2,6.53-1.56C100.64,66.25,102.87,69.51,103.11,72.36Z"/><path class="cls-15" d="M99.48,75.49a6,6,0,0,1-4,3.29c-2.21.3-4.23-1.35-5.51-3.18a6.14,6.14,0,0,1-1.16-2.53,5.17,5.17,0,0,1,1.54-4.16A15,15,0,0,1,94,66.27a1.86,1.86,0,0,1,2.1-.09c1.65.69,4.42,1.24,4.79,3.29C101.25,71.28,100.33,74,99.48,75.49Z"/><path class="cls-16" d="M89.13,72.47a2.22,2.22,0,0,1,.05-.85,1.07,1.07,0,0,1,.58-.79c.57-.21,1.12.41,1.25,1a6.58,6.58,0,0,0,.31,1.78c.32.62,1.09,1.09,1,1.78a1.05,1.05,0,0,1-1.32.72c-.55-.15-.76-.58-1-1.06a5.33,5.33,0,0,1-.82-2.59"/><path class="cls-17" d="M92.67,68.2c-1,.5-.84,1.26-1.32,2.24s0,2.45,1.07,2.56c1.32.13,2-1.62,3.16-2.19.66-.32,1.46-.25,2.11-.59s.69-2.34,0-2.56c-1.53-1-3.38-.28-5,.54"/><path class="cls-13" d="M70.86,97.24a8.62,8.62,0,0,1-8.6-1.2A9.24,9.24,0,0,1,59,88a9.94,9.94,0,0,1,4.8-7.37,6.53,6.53,0,0,1,4.41-1,9.1,9.1,0,0,1,4.28,2.53c2,1.8,4,4,4.16,6.68C76.73,92.23,73.93,95.91,70.86,97.24Z"/><path class="cls-14" d="M71,95.33a7.35,7.35,0,0,1-7.33-1,7.89,7.89,0,0,1-2.82-6.89A8.51,8.51,0,0,1,65,81.13a5.66,5.66,0,0,1,3.76-.86,7.78,7.78,0,0,1,3.65,2.16c1.71,1.54,3.46,3.4,3.55,5.7C76.05,91.06,73.66,94.2,71,95.33Z"/><path class="cls-15" d="M66.91,92.88a5.93,5.93,0,0,1-4.4-2.8c-1-2-.06-4.44,1.27-6.23a6.17,6.17,0,0,1,2-1.9,5.14,5.14,0,0,1,4.43.14,15.2,15.2,0,0,1,3.69,2.71,2.31,2.31,0,0,1,.62.74,2.42,2.42,0,0,1,.13,1.23c-.13,1.78.22,4.58-1.61,5.58C71.47,93.23,68.63,93.2,66.91,92.88Z"/><path class="cls-16" d="M66.5,82.11a2.39,2.39,0,0,1,.83-.23,1.08,1.08,0,0,1,.93.31c.38.47,0,1.19-.56,1.5a6.83,6.83,0,0,0-1.6.86c-.49.5-.68,1.38-1.37,1.51a1,1,0,0,1-1.1-1c0-.57.31-.9.68-1.33a5.17,5.17,0,0,1,2.19-1.6"/><path class="cls-17" d="M71.68,84.11c-.78-.75-1.47-.4-2.55-.54S66.8,84.34,67,85.4c.29,1.29,2.16,1.35,3.08,2.3.51.53.7,1.31,1.23,1.81s2.44-.09,2.42-.82c.48-1.76-.8-3.29-2.09-4.58"/><path class="cls-13" d="M35.27,67.57a8.62,8.62,0,0,1-3.18,8.08A9.26,9.26,0,0,1,23.46,77a10,10,0,0,1-6-6.39,6.53,6.53,0,0,1,0-4.53,9.19,9.19,0,0,1,3.46-3.57c2.22-1.53,4.82-3,7.47-2.47C31.77,60.69,34.7,64.27,35.27,67.57Z"/><path class="cls-14" d="M33.46,67a7.35,7.35,0,0,1-2.71,6.88A7.89,7.89,0,0,1,23.39,75a8.53,8.53,0,0,1-5.16-5.45,5.63,5.63,0,0,1,.05-3.86,7.69,7.69,0,0,1,2.95-3c1.89-1.31,4.11-2.57,6.37-2.12C30.47,61.08,33,64.13,33.46,67Z"/><path class="cls-15" d="M30.11,70.39A6,6,0,0,1,26.36,74c-2.18.49-4.33-1-5.77-2.69a6.17,6.17,0,0,1-1.36-2.43,5.14,5.14,0,0,1,1.17-4.27,15,15,0,0,1,3.49-3,2.47,2.47,0,0,1,.87-.44A2.47,2.47,0,0,1,26,61.4c1.71.54,4.51.85,5.05,2.86C31.51,66,30.82,68.79,30.11,70.39Z"/><path class="cls-16" d="M19.54,68.27a2.48,2.48,0,0,1,0-.86,1.08,1.08,0,0,1,.52-.83c.55-.26,1.15.32,1.32.9a7.29,7.29,0,0,0,.47,1.75c.37.59,1.18,1,1.14,1.68a1,1,0,0,1-1.25.84c-.55-.11-.8-.52-1.13-1a5.28,5.28,0,0,1-1-2.5"/><path class="cls-17" d="M22.7,63.71c-.92.58-.74,1.33-1.12,2.34s.2,2.45,1.28,2.46c1.33,0,1.83-1.78,3-2.45.63-.38,1.43-.38,2.05-.78s.48-2.38-.23-2.54c-1.61-.88-3.39,0-4.94,1"/><path class="cls-18" d="M50.13,47.11s1.18,1,2,.54a3.52,3.52,0,0,0,1.22-1.87s.35-1.37,3,2.25,2.7,3.62,4.07,4a39.2,39.2,0,0,0,4.95.57s.8,5.3-2.46,6.64-10.62,1.6-10.62,1.6a11.22,11.22,0,0,0,.92-6.31A32,32,0,0,0,50.13,47.11Z"/><path class="cls-19" d="M54.31,54.77a1.35,1.35,0,0,0,.26-1.08l1,.71a.38.38,0,0,0,.35.09c.2-.08.12-.38,0-.57-.37-.63-.74-1.27-1.1-1.91a2.7,2.7,0,0,0,1,.53,1.47,1.47,0,0,0-.51-1.12C54.7,50.6,54,49.77,53.27,49c-.07-.08-.2-.16-.27-.08a1.29,1.29,0,0,1,.14,1c-.11.25-.55.38-.78.44A27.46,27.46,0,0,0,54.31,54.77Z"/><path class="cls-20" d="M57.45,53c0-.28.39-.4.64-.27s.46.38.75.43a.26.26,0,0,0,.21,0c.19-.13,0-.43-.13-.59-1.4-1.3-3.1-2.37-4.07-4a3.33,3.33,0,0,0-.91-1.23.64.64,0,0,0,.14,1c-.48.63.73,1.92,1.13,2.44S57.38,52.57,57.45,53Z"/><path class="cls-21" d="M50,58.24c0,.47.28.9.3,1.36s-.19.85-.16,1.28.46.89.83.68a3.14,3.14,0,0,0,.53,3,2.2,2.2,0,0,0,2.87.37c-.24-.2-.34.36-.13.59a3.46,3.46,0,0,0,4.85,0,1.32,1.32,0,0,0,2-1,3.25,3.25,0,0,0,2.23.17A1.61,1.61,0,0,0,64.37,63a1.88,1.88,0,0,0,1.8-2.61h-.73a3.45,3.45,0,0,0,1.75-1.42c.33-.69-.07-1.74-.84-1.73a1.78,1.78,0,0,0,.83-2A1.8,1.8,0,0,0,65.39,54a1.11,1.11,0,0,0-.09-1.74,1.57,1.57,0,0,0-1.88.24,2.67,2.67,0,0,0-.73,1.86,3.32,3.32,0,0,0-1.76-.84c-.66,0-1.38.52-1.28,1.17A1.33,1.33,0,0,0,58.82,56a1.57,1.57,0,0,0-3,.48,1.08,1.08,0,0,0-1.42.13A3.16,3.16,0,0,0,53.68,58C54.1,56.7,49.92,56.61,50,58.24Z"/><path class="cls-22" d="M57.84,65.41c.25-.22.46-.55.79-.58s.68.29,1,.12.21-.3.31-.46c.32-.49,1-.5,1.61-.49a2.82,2.82,0,0,0,1.29-.22,1.1,1.1,0,0,0,.64-1.06,2,2,0,0,1-.11-.64c.08-.36.56-.46.83-.72a1.32,1.32,0,0,0-.09-1.66,2.38,2.38,0,0,0-1.9-1.06A2.52,2.52,0,0,0,60,60.46c0,.13-.1.28-.23.32a.5.5,0,0,1-.27,0,3.36,3.36,0,0,0-3.4,1,1.59,1.59,0,0,0-.47,1,.85.85,0,0,0,.55.85C55.27,64.89,56.39,66.68,57.84,65.41Z"/><path class="cls-23" d="M58.93,63.74c.5-1.09-.76-2.53-1.83-2.67-.42,0-.86.14-1.27,0s-.9-.71-1.44-.9a1.75,1.75,0,0,0-1.91.87,2.39,2.39,0,0,0-.27,2.37,1.52,1.52,0,0,0,2.1.64,1.17,1.17,0,0,1,.44-.26c.37,0,.55.43.79.72a1.77,1.77,0,0,0,1.8.27A2.65,2.65,0,0,0,58.81,64,1.13,1.13,0,0,0,58.93,63.74Z"/><path class="cls-24" d="M60.49,61.61a.8.8,0,0,0,.94-.1"/><path class="cls-24" d="M56.35,60a.74.74,0,0,1,1.15-.34"/><path class="cls-24" d="M52,59.52a.61.61,0,0,1,.68-.51"/><path class="cls-24" d="M54.56,59.12a.38.38,0,0,0,.65-.15"/><path class="cls-24" d="M57.39,57.38a.48.48,0,0,1,.73-.43"/><path class="cls-24" d="M58.46,58.47a.6.6,0,0,0,.88-.31"/><path class="cls-24" d="M59.8,56.54a.35.35,0,0,1,.24-.4.36.36,0,0,1,.42.22"/><path class="cls-24" d="M55.62,57.18a.87.87,0,0,0,.86.54"/><path class="cls-24" d="M60.87,55.12c-.15-.2.1-.5.35-.49a.87.87,0,0,1,.59.44"/><path class="cls-24" d="M60.39,57.42a.63.63,0,0,0,.67.38.61.61,0,0,0,.47-.62"/><path class="cls-24" d="M59.36,59.91a.52.52,0,0,0,.53-.33"/><path class="cls-24" d="M64,54.09a.45.45,0,0,1,.46-.39.46.46,0,0,1,.41.44"/><path class="cls-24" d="M63,55.93a.38.38,0,0,0,.65-.37"/><path class="cls-24" d="M62.25,59.64a.39.39,0,0,0,.42-.53"/><path class="cls-24" d="M64.94,59.09a.36.36,0,0,0,.4-.53"/><path class="cls-24" d="M63,58a.32.32,0,0,0,.51-.21"/><path class="cls-24" d="M65.51,56.6a.38.38,0,0,0,.13-.6"/><path class="cls-18" d="M80.39,59.61s-.69,1.42,0,2.12a3.48,3.48,0,0,0,2.12.69s1.41,0-1.38,3.53-2.8,3.55-2.79,5a39.51,39.51,0,0,0,.74,4.92s-4.92,2.16-7-.65-4.3-9.83-4.3-9.83a11.27,11.27,0,0,0,6.34-.76A31.88,31.88,0,0,0,80.39,59.61Z"/><path class="cls-19" d="M74.08,65.64a1.37,1.37,0,0,0,1.12,0l-.42,1.19a.38.38,0,0,0,0,.36c.13.17.4,0,.55-.13l1.56-1.56a2.81,2.81,0,0,0-.24,1.14c.43,0,.72-.42,1-.77l1.82-2.71c.06-.09.11-.24,0-.28a1.26,1.26,0,0,1-.89.38c-.28,0-.52-.43-.63-.64A27.35,27.35,0,0,0,74.08,65.64Z"/><path class="cls-20" d="M76.56,68.22c.27-.11.5.27.44.56s-.25.54-.23.83a.3.3,0,0,0,.08.19c.17.16.42-.07.53-.27.9-1.7,1.49-3.61,2.83-5a3.6,3.6,0,0,0,1-1.21.65.65,0,0,0-.9.39c-.73-.3-1.67,1.2-2.06,1.72S77,68,76.56,68.22Z"/><path class="cls-21" d="M69.6,62.34c-.44.13-.79.5-1.24.64s-.86,0-1.27.17-.74.68-.44,1a3.14,3.14,0,0,0-2.75,1.29,2.18,2.18,0,0,0,.39,2.86c.13-.28-.44-.23-.6,0A3.44,3.44,0,0,0,64.91,73a1.32,1.32,0,0,0,1.45,1.67,3.28,3.28,0,0,0,.42,2.2,1.61,1.61,0,0,0,2,.6,1.88,1.88,0,0,0,3,1.07c-.06-.24-.13-.48-.19-.71a3.47,3.47,0,0,0,1.83,1.32c.75.14,1.66-.52,1.45-1.26a1.77,1.77,0,0,0,2.15.28,1.79,1.79,0,0,0,.73-2,1.11,1.11,0,0,0,1.65-.54,1.56,1.56,0,0,0-.71-1.76,2.66,2.66,0,0,0-2-.22A3.31,3.31,0,0,0,77,71.7c-.14-.64-.85-1.2-1.45-.93a1.33,1.33,0,0,0-1.51-.46,1.57,1.57,0,0,0-1.24-2.77,1.09,1.09,0,0,0-.5-1.34,3.1,3.1,0,0,0-1.51-.33C72.17,65.94,71.17,61.88,69.6,62.34Z"/><path class="cls-22" d="M64.73,71.81c.27.18.64.3.75.61s-.1.74.14,1a1.09,1.09,0,0,0,.53.19c.56.18.75.85.89,1.42a2.75,2.75,0,0,0,.55,1.2,1.11,1.11,0,0,0,1.19.34c.2-.09.37-.26.59-.27s.59.42.91.61c.51.32,1.19,0,1.57-.52a2.34,2.34,0,0,0,.54-2.11,2.52,2.52,0,0,0-2.32-1.6.46.46,0,0,1-.37-.14.47.47,0,0,1,0-.27,3.38,3.38,0,0,0-1.83-3A1.65,1.65,0,0,0,66.77,69a.82.82,0,0,0-.68.74C64.56,69.19,63.12,70.74,64.73,71.81Z"/><path class="cls-23" d="M66.62,72.43c1.18.2,2.24-1.39,2.1-2.46-.06-.42-.35-.79-.37-1.22s.44-1,.49-1.62a1.75,1.75,0,0,0-1.33-1.62,2.4,2.4,0,0,0-2.36.35,1.51,1.51,0,0,0-.07,2.2c.13.11.29.2.35.35.14.35-.27.65-.48,1a1.75,1.75,0,0,0,.21,1.81,2.58,2.58,0,0,0,1.23,1.19Z"/><path class="cls-24" d="M69.08,73.38a.82.82,0,0,0,.34.89"/><path class="cls-24" d="M69.54,69a.74.74,0,0,1,.62,1"/><path class="cls-24" d="M68.89,64.63a.61.61,0,0,1,.67.53"/><path class="cls-24" d="M69.94,67a.39.39,0,0,0,.32.59"/><path class="cls-24" d="M72.36,69.29a.49.49,0,0,1,.61.59"/><path class="cls-24" d="M71.59,70.61a.6.6,0,0,0,.52.77"/><path class="cls-24" d="M73.8,71.4a.35.35,0,0,1,.45.13.35.35,0,0,1-.11.46"/><path class="cls-24" d="M72.09,67.53a.86.86,0,0,0-.29,1"/><path class="cls-24" d="M75.45,72.07c.15-.2.51,0,.56.21a.83.83,0,0,1-.27.68"/><path class="cls-24" d="M73.1,72.2a.62.62,0,0,0-.19.75.61.61,0,0,0,.71.29"/><path class="cls-24" d="M70.43,71.85a.5.5,0,0,0,.45.42"/><path class="cls-24" d="M77.25,74.8a.44.44,0,0,1,.17.86"/><path class="cls-24" d="M75.22,74.37a.38.38,0,0,0,.54.53"/><path class="cls-24" d="M71.44,74.57a.39.39,0,0,0,.61.27"/><path class="cls-24" d="M72.67,77a.35.35,0,0,0,.61.24"/><path class="cls-24" d="M73.21,74.83a.32.32,0,0,0,.34.43"/><path class="cls-24" d="M75.22,76.93a.37.37,0,0,0,.61,0"/><path class="cls-18" d="M76.58,76.51s1.19,1,2,.53a3.47,3.47,0,0,0,1.22-1.86s.35-1.37,3.05,2.25,2.7,3.62,4.06,4a38.84,38.84,0,0,0,5,.56s.81,5.31-2.45,6.65-10.62,1.6-10.62,1.6a11.24,11.24,0,0,0,.92-6.32A31.88,31.88,0,0,0,76.58,76.51Z"/><path class="cls-19" d="M80.76,84.17A1.37,1.37,0,0,0,81,83.08l1,.71a.36.36,0,0,0,.35.1c.2-.08.12-.38,0-.57l-1.09-1.91a2.66,2.66,0,0,0,1,.53,1.43,1.43,0,0,0-.5-1.12c-.71-.83-1.43-1.65-2.14-2.47-.07-.08-.2-.16-.27-.08a1.27,1.27,0,0,1,.14,1c-.11.26-.55.39-.78.45A27.79,27.79,0,0,0,80.76,84.17Z"/><path class="cls-20" d="M83.9,82.44c0-.28.39-.4.65-.27s.46.38.74.43a.28.28,0,0,0,.22,0c.19-.12,0-.42-.14-.58-1.4-1.3-3.09-2.37-4.06-4a3.45,3.45,0,0,0-.91-1.24.65.65,0,0,0,.13,1c-.47.63.73,1.92,1.13,2.44S83.84,82,83.9,82.44Z"/><path class="cls-21" d="M76.42,87.64c0,.46.28.9.29,1.36s-.18.85-.16,1.28.46.89.84.68a3.14,3.14,0,0,0,.53,3,2.19,2.19,0,0,0,2.87.36c-.24-.19-.34.37-.13.59a3.43,3.43,0,0,0,4.84,0,1.33,1.33,0,0,0,2-1,3.31,3.31,0,0,0,2.23.17,1.62,1.62,0,0,0,1.1-1.78,1.87,1.87,0,0,0,1.8-2.6H91.9a3.53,3.53,0,0,0,1.75-1.42c.33-.7-.08-1.74-.84-1.73a1.73,1.73,0,0,0-1-3.24,1.11,1.11,0,0,0-.09-1.74,1.55,1.55,0,0,0-1.88.24,2.62,2.62,0,0,0-.73,1.85,3.38,3.38,0,0,0-1.76-.83c-.66,0-1.39.51-1.28,1.17a1.34,1.34,0,0,0-.84,1.34,1.56,1.56,0,0,0-3,.48,1.08,1.08,0,0,0-1.42.13,3.12,3.12,0,0,0-.72,1.37C80.56,86.1,76.38,86,76.42,87.64Z"/><path class="cls-22" d="M84.3,94.8c.25-.21.45-.54.78-.57s.69.29,1,.12.22-.3.32-.46c.31-.5,1-.5,1.61-.49a2.84,2.84,0,0,0,1.29-.22,1.1,1.1,0,0,0,.64-1.06,1.84,1.84,0,0,1-.11-.64c.08-.37.55-.46.83-.72a1.32,1.32,0,0,0-.09-1.66A2.38,2.38,0,0,0,88.64,88a2.53,2.53,0,0,0-2.15,1.82c0,.13-.09.28-.22.32a.42.42,0,0,1-.27,0,3.38,3.38,0,0,0-3.41,1,1.64,1.64,0,0,0-.46,1,.83.83,0,0,0,.55.85C81.73,94.29,82.85,96.08,84.3,94.8Z"/><path class="cls-23" d="M85.39,93.14c.5-1.09-.77-2.53-1.83-2.67-.43,0-.86.14-1.28,0s-.9-.71-1.43-.9a1.74,1.74,0,0,0-1.91.87,2.39,2.39,0,0,0-.28,2.37,1.53,1.53,0,0,0,2.11.64,1.08,1.08,0,0,1,.43-.26c.37,0,.55.43.8.71a1.75,1.75,0,0,0,1.8.28,2.61,2.61,0,0,0,1.47-.89Z"/><path class="cls-24" d="M87,91a.82.82,0,0,0,.94-.1"/><path class="cls-24" d="M82.81,89.42A.74.74,0,0,1,84,89.09"/><path class="cls-24" d="M78.44,88.92a.63.63,0,0,1,.69-.51"/><path class="cls-24" d="M81,88.52a.39.39,0,0,0,.66-.15"/><path class="cls-24" d="M83.85,86.77a.49.49,0,0,1,.73-.43"/><path class="cls-24" d="M84.92,87.86a.59.59,0,0,0,.88-.3"/><path class="cls-24" d="M86.26,85.94a.36.36,0,0,1,.24-.41.36.36,0,0,1,.42.23"/><path class="cls-24" d="M82.08,86.58a.86.86,0,0,0,.85.54"/><path class="cls-24" d="M87.33,84.52c-.15-.2.1-.51.35-.49a.91.91,0,0,1,.59.43"/><path class="cls-24" d="M86.85,86.82A.58.58,0,0,0,88,86.58"/><path class="cls-24" d="M85.81,89.31a.52.52,0,0,0,.53-.33"/><path class="cls-24" d="M90.44,83.49a.44.44,0,0,1,.87.05"/><path class="cls-24" d="M89.5,85.33a.38.38,0,0,0,.48.09.4.4,0,0,0,.17-.47"/><path class="cls-24" d="M88.7,89a.39.39,0,0,0,.42-.53"/><path class="cls-24" d="M91.4,88.49c.27.12.58-.3.39-.53"/><path class="cls-24" d="M89.42,87.39a.31.31,0,0,0,.5-.21"/><path class="cls-24" d="M92,86a.37.37,0,0,0,.14-.59"/><path class="cls-18" d="M57.09,35.41S55.84,34.46,55,35a3.5,3.5,0,0,0-1.1,2s-.26,1.38-3.19-2.06-2.92-3.43-4.31-3.7a39.43,39.43,0,0,0-5-.25s-1.14-5.24,2-6.78S54,21.89,54,21.89a11.16,11.16,0,0,0-.52,6.36A31.93,31.93,0,0,0,57.09,35.41Z"/><path class="cls-19" d="M52.43,28a1.34,1.34,0,0,0-.19,1.1l-1.08-.64a.41.41,0,0,0-.36-.08c-.19.1-.1.39,0,.57L52,30.83A2.68,2.68,0,0,0,51,30.37a1.45,1.45,0,0,0,.57,1.09l2.3,2.32c.07.08.21.15.27.06a1.25,1.25,0,0,1-.2-1c.09-.26.53-.42.75-.49A27.15,27.15,0,0,0,52.43,28Z"/><path class="cls-20" d="M49.41,30c.06.28-.36.42-.63.31s-.48-.35-.77-.39a.27.27,0,0,0-.21.05c-.18.13,0,.42.17.57,1.48,1.21,3.24,2.17,4.32,3.75a3.35,3.35,0,0,0,1,1.18.65.65,0,0,0-.2-1c.43-.66-.86-1.87-1.29-2.36S49.51,30.43,49.41,30Z"/><path class="cls-21" d="M56.54,24.3c0-.46-.33-.88-.37-1.34s.12-.86.07-1.29-.51-.85-.87-.62a3.15,3.15,0,0,0-.73-2.95,2.18,2.18,0,0,0-2.88-.18c.25.18.31-.39.09-.6a3.45,3.45,0,0,0-4.84.27,1.32,1.32,0,0,0-1.92,1.1,3.2,3.2,0,0,0-2.24,0,1.61,1.61,0,0,0-1,1.84,1.87,1.87,0,0,0-1.63,2.71l.74,0a3.43,3.43,0,0,0-1.66,1.52c-.28.72.18,1.74.95,1.68a1.72,1.72,0,0,0,1.16,3.16,1.13,1.13,0,0,0,.2,1.74,1.55,1.55,0,0,0,1.86-.36,2.6,2.6,0,0,0,.61-1.9,3.39,3.39,0,0,0,1.81.72c.66,0,1.35-.6,1.21-1.24a1.35,1.35,0,0,0,.74-1.39,1.57,1.57,0,0,0,3-.68,1.07,1.07,0,0,0,1.41-.22,3.11,3.11,0,0,0,.63-1.42C52.52,26.1,56.69,25.93,56.54,24.3Z"/><path class="cls-22" d="M48.22,17.65c-.23.24-.42.58-.74.62s-.71-.24-1-.05-.19.31-.29.48c-.28.51-1,.57-1.56.59a2.9,2.9,0,0,0-1.28.3,1.1,1.1,0,0,0-.57,1.1,1.81,1.81,0,0,1,.15.63c-.06.37-.53.5-.78.78a1.31,1.31,0,0,0,.19,1.64,2.4,2.4,0,0,0,2,1,2.53,2.53,0,0,0,2-2,.48.48,0,0,1,.2-.34.53.53,0,0,1,.28,0,3.35,3.35,0,0,0,3.33-1.2,1.67,1.67,0,0,0,.4-1,.83.83,0,0,0-.6-.82C50.82,18,49.59,16.29,48.22,17.65Z"/><path class="cls-23" d="M47.25,19.38c-.44,1.12.92,2.48,2,2.55.43,0,.85-.19,1.27-.13s.94.65,1.49.81a1.75,1.75,0,0,0,1.85-1A2.39,2.39,0,0,0,54,19.24a1.51,1.51,0,0,0-2.14-.51,1,1,0,0,1-.42.28c-.36.07-.57-.39-.84-.66a1.74,1.74,0,0,0-1.81-.15,2.62,2.62,0,0,0-1.41,1A1,1,0,0,0,47.25,19.38Z"/><path class="cls-24" d="M45.82,21.61a.79.79,0,0,0-.93.16"/><path class="cls-24" d="M50.05,22.93a.74.74,0,0,1-1.12.41"/><path class="cls-24" d="M54.44,23.15a.6.6,0,0,1-.65.55"/><path class="cls-24" d="M51.91,23.71a.39.39,0,0,0-.65.2"/><path class="cls-24" d="M49.19,25.64a.48.48,0,0,1-.7.47"/><path class="cls-24" d="M48.05,24.62a.59.59,0,0,0-.86.36"/><path class="cls-24" d="M46.84,26.62a.37.37,0,0,1-.22.43.36.36,0,0,1-.43-.2"/><path class="cls-24" d="M51,25.72a.86.86,0,0,0-.89-.48"/><path class="cls-24" d="M45.86,28.11c.16.19-.07.51-.32.51a.9.9,0,0,1-.62-.39"/><path class="cls-24" d="M46.19,25.79a.61.61,0,0,0-.69-.34.61.61,0,0,0-.43.64"/><path class="cls-24" d="M47.06,23.24a.49.49,0,0,0-.5.36"/><path class="cls-24" d="M42.82,29.34a.44.44,0,0,1-.87,0"/><path class="cls-24" d="M43.64,27.44a.39.39,0,0,0-.49-.06.39.39,0,0,0-.13.48"/><path class="cls-24" d="M44.2,23.69a.39.39,0,0,0-.39.55"/><path class="cls-24" d="M41.54,24.41c-.28-.1-.56.33-.36.55"/><path class="cls-24" d="M43.59,25.38a.31.31,0,0,0-.49.24"/><path class="cls-24" d="M41.14,26.94a.37.37,0,0,0-.1.6"/><path class="cls-18" d="M40.57,58.65s-1.54-.35-2.06.5a3.45,3.45,0,0,0-.18,2.22s.33,1.37-3.76-.53-4.09-1.91-5.46-1.58a41.16,41.16,0,0,0-4.63,1.85s-3.22-4.29-1-7,8.59-6.44,8.59-6.44a11.22,11.22,0,0,0,2.18,6A32,32,0,0,0,40.57,58.65Z"/><path class="cls-19" d="M33.26,53.89A1.36,1.36,0,0,0,33.54,55l-1.25-.13a.38.38,0,0,0-.36.08c-.13.17.07.39.26.51l1.87,1.16a2.53,2.53,0,0,0-1.16,0c.13.4.57.6,1,.75l3.06,1.15c.1,0,.25,0,.27-.06a1.25,1.25,0,0,1-.58-.78c0-.28.31-.6.48-.76A27.52,27.52,0,0,0,33.26,53.89Z"/><path class="cls-20" d="M31.31,56.9c.17.23-.15.54-.44.55a3.12,3.12,0,0,0-.86,0,.33.33,0,0,0-.17.13c-.11.2.17.39.39.45,1.85.49,3.85.62,5.48,1.62a3.53,3.53,0,0,0,1.39.65.64.64,0,0,0-.58-.78c.12-.78-1.55-1.35-2.15-1.62S31.59,57.28,31.31,56.9Z"/><path class="cls-21" d="M35.44,48.78c-.23-.41-.67-.66-.91-1.07s-.24-.83-.46-1.2-.83-.56-1-.2a3.17,3.17,0,0,0-1.89-2.38,2.19,2.19,0,0,0-2.7,1c.3.06.13-.48-.16-.59A3.46,3.46,0,0,0,24,46.65a1.33,1.33,0,0,0-1.3,1.8,3.25,3.25,0,0,0-2,.91,1.61,1.61,0,0,0-.13,2.08,1.88,1.88,0,0,0-.35,3.15l.65-.35a3.41,3.41,0,0,0-.87,2.08c0,.77.89,1.5,1.56,1.13a1.72,1.72,0,0,0,2.37,2.39,1.11,1.11,0,0,0,.91,1.49,1.55,1.55,0,0,0,1.54-1.1,2.6,2.6,0,0,0-.24-2,3.31,3.31,0,0,0,2-.1,1.15,1.15,0,0,0,.57-1.63A1.34,1.34,0,0,0,28.71,55a1.56,1.56,0,0,0,2.4-1.85,1.07,1.07,0,0,0,1.19-.78,3.17,3.17,0,0,0,0-1.56C32.53,52.09,36.25,50.19,35.44,48.78Z"/><path class="cls-22" d="M25.1,46.2c-.11.31-.14.69-.41.87s-.75.08-.92.37a1.12,1.12,0,0,0-.06.55c-.05.58-.66.92-1.18,1.2a2.65,2.65,0,0,0-1,.8,1.09,1.09,0,0,0-.06,1.23c.13.18.34.31.4.52s-.27.67-.39,1c-.19.58.32,1.15.86,1.42a2.42,2.42,0,0,0,2.19,0,2.55,2.55,0,0,0,1-2.63.44.44,0,0,1,0-.39.51.51,0,0,1,.25-.1,3.38,3.38,0,0,0,2.53-2.48,1.57,1.57,0,0,0-.05-1.07.84.84,0,0,0-.88-.5C27.61,45.43,25.78,44.39,25.1,46.2Z"/><path class="cls-23" d="M24.94,48.18c.07,1.2,1.87,1.87,2.87,1.48.4-.15.69-.52,1.1-.64s1.13.19,1.69.11a1.74,1.74,0,0,0,1.27-1.67A2.41,2.41,0,0,0,31,45.24a1.52,1.52,0,0,0-2.16.44,1,1,0,0,1-.26.43c-.3.21-.69-.12-1-.25a1.75,1.75,0,0,0-1.71.61,2.69,2.69,0,0,0-.88,1.47A1,1,0,0,0,24.94,48.18Z"/><path class="cls-24" d="M24.57,50.8a.8.8,0,0,0-.78.53"/><path class="cls-24" d="M29,50.23a.73.73,0,0,1-.84.84"/><path class="cls-24" d="M33.05,48.6a.62.62,0,0,1-.36.78"/><path class="cls-24" d="M31,50.17a.39.39,0,0,0-.51.45"/><path class="cls-24" d="M29.31,53.05a.49.49,0,0,1-.44.73"/><path class="cls-24" d="M27.85,52.6a.6.6,0,0,0-.63.69"/><path class="cls-24" d="M27.58,54.93a.38.38,0,0,1,0,.48.37.37,0,0,1-.48,0"/><path class="cls-24" d="M31,52.39a.86.86,0,0,0-1-.07"/><path class="cls-24" d="M27.31,56.69c.23.11.15.49-.08.6a.85.85,0,0,1-.72-.11"/><path class="cls-24" d="M26.64,54.44a.6.6,0,0,0-.77,0,.59.59,0,0,0-.11.75"/><path class="cls-24" d="M26.38,51.76a.52.52,0,0,0-.32.54"/><path class="cls-24" d="M25.06,59.07a.44.44,0,0,1-.79.37"/><path class="cls-24" d="M25,57a.38.38,0,0,0-.4.64"/><path class="cls-24" d="M24,53.36a.38.38,0,0,0-.12.66"/><path class="cls-24" d="M21.85,55.13a.35.35,0,0,0-.1.64"/><path class="cls-24" d="M24.11,55.15a.32.32,0,0,0-.35.43"/><path class="cls-24" d="M22.53,57.59a.37.37,0,0,0,.16.58"/><path class="cls-18" d="M57.69,70.06s-1.57.17-1.78,1.14a3.5,3.5,0,0,0,.54,2.16s.76,1.19-3.72.71-4.49-.47-5.68.29a39.72,39.72,0,0,0-3.78,3.25s-4.43-3-3.2-6.32,6-8.88,6-8.88a11.2,11.2,0,0,0,4,5A32.11,32.11,0,0,0,57.69,70.06Z"/><path class="cls-19" d="M49.23,67.93a1.34,1.34,0,0,0,.62.93l-1.23.28c-.12,0-.26.07-.31.19s.2.35.41.4l2.15.49a2.49,2.49,0,0,0-1.09.41,1.46,1.46,0,0,0,1.16.39l3.26.1c.11,0,.26,0,.25-.14a1.24,1.24,0,0,1-.8-.56c-.12-.25.09-.66.2-.87A27.49,27.49,0,0,0,49.23,67.93Z"/><path class="cls-20" d="M48.37,71.41c.23.16,0,.56-.24.66a3.32,3.32,0,0,0-.83.25.3.3,0,0,0-.12.17c0,.23.29.32.52.3,1.91-.14,3.84-.66,5.71-.25a3.51,3.51,0,0,0,1.53.17.64.64,0,0,0-.8-.55c-.14-.78-1.91-.77-2.56-.83S48.76,71.68,48.37,71.41Z"/><path class="cls-21" d="M49.64,62.38c-.35-.3-.85-.4-1.2-.71s-.5-.71-.83-1-1-.27-1.06.15A3.14,3.14,0,0,0,44,59.2a2.18,2.18,0,0,0-2.21,1.85c.31,0,0-.49-.34-.49a3.43,3.43,0,0,0-3.32,3.53,1.32,1.32,0,0,0-.64,2.12,3.23,3.23,0,0,0-1.64,1.53,1.61,1.61,0,0,0,.55,2,1.88,1.88,0,0,0,.68,3.09l.51-.54a3.44,3.44,0,0,0-.15,2.25c.29.71,1.33,1.13,1.84.56a1.73,1.73,0,0,0,3,1.49,1.11,1.11,0,0,0,1.34,1.12,1.57,1.57,0,0,0,1.1-1.54,2.62,2.62,0,0,0-.87-1.79,3.47,3.47,0,0,0,1.81-.73,1.17,1.17,0,0,0,0-1.73,1.32,1.32,0,0,0-.41-1.52A1.57,1.57,0,0,0,47,67.88a1.08,1.08,0,0,0,.87-1.13,3.14,3.14,0,0,0-.52-1.46C48,66.47,50.86,63.46,49.64,62.38Z"/><path class="cls-22" d="M39,63.3c0,.33.1.7-.11,1s-.67.31-.75.64a1.22,1.22,0,0,0,.12.55c.15.56-.32,1.09-.72,1.51a2.7,2.7,0,0,0-.72,1.09,1.09,1.09,0,0,0,.34,1.19c.18.13.42.18.54.36s0,.72,0,1.1c0,.6.68,1,1.28,1.06A2.38,2.38,0,0,0,41,71.08a2.5,2.5,0,0,0,.12-2.81.5.5,0,0,1-.08-.39.58.58,0,0,1,.2-.18,3.39,3.39,0,0,0,1.6-3.16,1.68,1.68,0,0,0-.4-1,.85.85,0,0,0-1-.18C41.15,61.76,39.08,61.37,39,63.3Z"/><path class="cls-23" d="M39.51,65.23c.45,1.11,2.37,1.16,3.2.47.33-.28.48-.72.83-1s1.13-.18,1.64-.44a1.77,1.77,0,0,0,.66-2,2.39,2.39,0,0,0-1.56-1.8,1.51,1.51,0,0,0-1.9,1.11,1,1,0,0,1-.11.49c-.21.3-.68.11-1.06.1-.64,0-1.13.56-1.42,1.14A2.54,2.54,0,0,0,39.44,65,1.55,1.55,0,0,0,39.51,65.23Z"/><path class="cls-24" d="M40,67.82a.8.8,0,0,0-.56.76"/><path class="cls-24" d="M44,65.86a.73.73,0,0,1-.53,1.07"/><path class="cls-24" d="M47.32,63a.61.61,0,0,1-.09.85"/><path class="cls-24" d="M45.87,65.15a.38.38,0,0,0-.33.59"/><path class="cls-24" d="M45.23,68.42a.49.49,0,0,1-.19.83"/><path class="cls-24" d="M43.7,68.47a.59.59,0,0,0-.38.85"/><path class="cls-24" d="M44.2,70.76a.35.35,0,0,1,.13.45.34.34,0,0,1-.45.15"/><path class="cls-24" d="M46.57,67.25a.87.87,0,0,0-1,.27"/><path class="cls-24" d="M44.52,72.51c.25,0,.3.42.11.59a.87.87,0,0,1-.71.14"/><path class="cls-24" d="M43.15,70.6a.6.6,0,0,0-.73.23.61.61,0,0,0,.14.76"/><path class="cls-24" d="M42,68.14a.54.54,0,0,0-.12.62"/><path class="cls-24" d="M43.16,75.49a.44.44,0,0,1-.63.61"/><path class="cls-24" d="M42.45,73.55a.38.38,0,0,0-.17.73"/><path class="cls-24" d="M40.26,70.45a.39.39,0,0,0,.11.66"/><path class="cls-24" d="M38.84,72.8a.36.36,0,0,0,.12.65"/><path class="cls-24" d="M41,72.09a.32.32,0,0,0-.19.52"/><path class="cls-24" d="M40.28,74.91a.38.38,0,0,0,.35.5"/><path class="cls-18" d="M74.11,43.14s1.4-.86,1.16-1.87a3.56,3.56,0,0,0-1.48-1.79S72.54,38.7,77,37.13s4.45-1.56,5.22-2.81a41.29,41.29,0,0,0,2.1-4.76s5.54.85,5.86,4.51-1.7,11.08-1.7,11.08a11.76,11.76,0,0,0-6-2.88A33.26,33.26,0,0,0,74.11,43.14Z"/><path class="cls-19" d="M83,41.35a1.42,1.42,0,0,0-1-.59l1-.82a.42.42,0,0,0,.2-.32c0-.22-.34-.24-.56-.19l-2.25.5a2.82,2.82,0,0,0,.85-.87,1.48,1.48,0,0,0-1.27.15l-3.12,1.37c-.11,0-.23.15-.17.24a1.3,1.3,0,0,1,1,.17c.22.18.21.66.19.91A29.14,29.14,0,0,0,83,41.35Z"/><path class="cls-20" d="M82.29,37.69c-.3,0-.28-.52-.07-.73s.52-.34.66-.61a.28.28,0,0,0,0-.22c-.07-.23-.41-.17-.62-.05-1.74,1-3.33,2.35-5.27,2.8a3.73,3.73,0,0,0-1.52.53.68.68,0,0,0,1,.16c.48.67,2.14-.13,2.78-.36S81.8,37.61,82.29,37.69Z"/><path class="cls-21" d="M85.14,46.76c.47.13,1,0,1.45.13s.79.45,1.22.56,1-.19.94-.62a3.27,3.27,0,0,0,3.15.39,2.27,2.27,0,0,0,1.25-2.74c-.27.18.26.45.55.32A3.6,3.6,0,0,0,95.24,40a1.38,1.38,0,0,0-.35-2.29,3.34,3.34,0,0,0,.86-2.17,1.67,1.67,0,0,0-1.42-1.65,2,2,0,0,0-2-2.61l-.24.74a3.57,3.57,0,0,0-.87-2.19c-.59-.54-1.76-.47-2,.3a1.81,1.81,0,0,0-3.53-.05,1.16,1.16,0,0,0-1.76-.45,1.63,1.63,0,0,0-.35,1.95,2.76,2.76,0,0,0,1.63,1.3,3.44,3.44,0,0,0-1.38,1.5A1.21,1.21,0,0,0,84.58,36a1.4,1.4,0,0,0,1.08,1.25,1.63,1.63,0,0,0-.45,3.13,1.14,1.14,0,0,0-.32,1.46A3.42,3.42,0,0,0,86,43C84.89,42.16,83.5,46.29,85.14,46.76Z"/><path class="cls-22" d="M94.73,41.13c-.14-.31-.4-.62-.32-1s.49-.6.42-.94-.24-.31-.36-.46c-.4-.47-.19-1.17,0-1.76a2.73,2.73,0,0,0,.19-1.35,1.16,1.16,0,0,0-.86-1,1.87,1.87,0,0,1-.67-.09c-.34-.19-.29-.7-.46-1-.28-.56-1.08-.62-1.68-.42a2.46,2.46,0,0,0-1.65,1.56,2.63,2.63,0,0,0,1.14,2.71.48.48,0,0,1,.26.33.54.54,0,0,1-.11.26,3.5,3.5,0,0,0-.08,3.7,1.73,1.73,0,0,0,.82.76.88.88,0,0,0,1-.28C93.42,43.54,95.55,43,94.73,41.13Z"/><path class="cls-23" d="M93.41,39.53c-.93-.84-2.76,0-3.22,1-.19.4-.14.89-.36,1.28s-1,.68-1.34,1.15a1.85,1.85,0,0,0,.27,2.18,2.53,2.53,0,0,0,2.28,1,1.58,1.58,0,0,0,1.29-1.91,1.11,1.11,0,0,1-.12-.5c.07-.39.6-.42,1-.58A1.81,1.81,0,0,0,94,41.45a2.72,2.72,0,0,0-.42-1.73A1.54,1.54,0,0,0,93.41,39.53Z"/><path class="cls-25" d="M91.77,37.32a.83.83,0,0,0,.19-1"/><path class="cls-25" d="M88.91,41a.77.77,0,0,1,0-1.25"/><path class="cls-25" d="M87.05,45.14a.64.64,0,0,1-.3-.84"/><path class="cls-25" d="M87.45,42.46a.4.4,0,0,0,0-.7"/><path class="cls-25" d="M86.59,39.09a.51.51,0,0,1-.2-.86"/><path class="cls-25" d="M88,38.36a.62.62,0,0,0,0-1"/><path class="cls-25" d="M86.51,36.43a.37.37,0,0,1-.33-.37.36.36,0,0,1,.35-.34"/><path class="cls-25" d="M85.85,40.79a.89.89,0,0,0,.8-.68"/><path class="cls-25" d="M85.42,34.92c-.25.09-.47-.26-.37-.5a.87.87,0,0,1,.61-.45"/><path class="cls-25" d="M87.57,36.11a.61.61,0,0,0,.11-1.2"/><path class="cls-25" d="M89.73,37.92a.54.54,0,0,0-.17-.63"/><path class="cls-25" d="M85.36,31.5a.45.45,0,0,1,.32-.85"/><path class="cls-25" d="M86.91,33a.41.41,0,0,0,.24-.45.4.4,0,0,0-.42-.31"/><path class="cls-25" d="M90.36,35a.41.41,0,0,0-.4-.58"/><path class="cls-25" d="M90.64,32.1c.2-.24-.11-.68-.4-.56"/><path class="cls-25" d="M88.94,33.73a.33.33,0,0,0-.06-.57"/><path class="cls-25" d="M88.33,30.76a.39.39,0,0,0-.55-.32"/></g></g></svg>