<svg xmlns="http://www.w3.org/2000/svg" viewBox="0 0 117.3 117.35"><defs><style>.cls-1{fill:#bd6706;}.cls-2{fill:#aa5907;}.cls-3{fill:#fcb519;}.cls-4{fill:#a70411;}.cls-5{fill:#f22128;}.cls-6{fill:#f9b63b;}.cls-7{fill:#fcd147;}.cls-8{fill:#ffa329;}.cls-9{fill:#fc9317;}.cls-10{fill:#ffe3a2;}.cls-11{fill:#ffedb1;}.cls-12{fill:#aa1120;}.cls-13{fill:#960c20;}.cls-14{fill:#840b22;}.cls-15{fill:#77071d;}.cls-16{fill:#fe9aa0;}.cls-17{fill:#ffc6cf;}.cls-18{fill:#fff;}.cls-19{fill:#407200;}.cls-20{fill:#3a6003;}.cls-21{fill:#406807;}.cls-22{fill:#4f8403;}.cls-23{fill:#6fa200;}.cls-24{fill:#cb1018;}.cls-25{fill:#a7030b;}.cls-26{fill:#ff6540;}.cls-27{fill:#ff7957;}.cls-28{fill:#ff9580;}.cls-29{fill:#fcb1a4;}</style></defs><title>Ресурс 1</title><g id="Слой_2" data-name="Слой 2"><g id="OBJECTS"><path class="cls-1" d="M0,58.64C0,34.37,6.36,17.94,27.37,9c7-3,23.15-9,31.27-9A58.65,58.65,0,0,1,77.79,3.2c10.09,3.48,25,11.4,31.71,19.39,8.62,10.21,7.78,21.64,7.78,36.05,0,32.38-16.85,56.63-58.64,58.64C22.09,119,0,91,0,58.64Z"/><path class="cls-2" d="M84.51,13.62c7.46,2.7,14.32,7.44,18.71,14a44.1,44.1,0,0,1,4.67,9.8,45.24,45.24,0,0,1,2.19,8.39,64.48,64.48,0,0,1,0,14.23,102.17,102.17,0,0,1-1.56,13.08,51.07,51.07,0,0,1-11.79,23.4c-1.43,1.6-3.06,3.41-2.83,5.54,3.72.49,7.44-1.46,9.92-4.27s3.92-6.37,5.14-9.91a110.18,110.18,0,0,0,5.8-40.59c-.23-5-.82-10.09-2.75-14.72-2.42-5.79-6.78-10.54-11.3-14.9C94.54,11.78,87.35,6.06,78.83,5.28a29.88,29.88,0,0,1-5.09-.52c-1.31-.37-2.8-1.78-4.09-1.88-2.43-.19-3.56,1.83-2.34,3.66C70.21,10.89,80,12,84.51,13.62Z"/><path class="cls-3" d="M4.55,58.64c0-22.39,5.88-37.55,25.3-45.78,6.5-2.75,21.39-8.32,28.9-8.32a54.27,54.27,0,0,1,17.7,3C85.77,10.71,99.52,18,105.76,25.38c8,9.42,7.19,20,7.19,33.26,0,29.88-15.57,52.25-54.2,54.1C25,114.36,4.55,88.52,4.55,58.64Z"/><path class="cls-4" d="M8.56,58.64C8.56,37.91,14,23.87,32,16.25,38,13.7,51.8,8.54,58.75,8.54a50.23,50.23,0,0,1,16.39,2.74c8.63,3,21.37,9.74,27.14,16.56,7.38,8.73,6.66,18.49,6.66,30.8,0,27.67-14.42,48.39-50.19,50.1C27.46,110.25,8.56,86.31,8.56,58.64Z"/><path class="cls-5" d="M10.85,58.65c0-19.79,5.19-33.19,22.36-40.46,5.74-2.43,18.91-7.36,25.54-7.36a47.87,47.87,0,0,1,15.64,2.61c8.24,2.84,20.4,9.3,25.9,15.81,7,8.33,6.36,17.65,6.36,29.4,0,26.4-13.76,46.17-47.9,47.81C28.89,107.89,10.85,85.05,10.85,58.65Z"/><path class="cls-6" d="M29.1,25.38C42.84,13.12,55.37,8.43,71.05,15.85,76.3,18.33,91.71,25.1,95.82,29.7c3.4,3.81,8.16,7,10,11.42,3.13,7.48.19,20.32-.92,28.18-1.42,10-6.31,16.53-14.47,23.81-18.34,16.36-46,18.59-66.31-2.16C4.67,71.08,10.76,41.74,29.1,25.38Z"/><path class="cls-7" d="M33.31,95.29c3.28,2.27,7.28,4.1,11.16,3.21,1.32-.3,2.71-1.09,3-2.41s-.78-2.64-1.75-3.65a34.34,34.34,0,0,0-5.78-5.2C36.45,85,32,83.77,29.74,80.3c-1.39-2.14-1.7-4.77-2.38-7.23a24.09,24.09,0,0,0-6.75-11.15c-7.56-7-3,12.26-1.92,14.88A41.14,41.14,0,0,0,33.31,95.29Z"/><path class="cls-7" d="M6.33,68.48c.14,1.19.43,2.55,1.5,3.09a4.53,4.53,0,0,0,.53-3.33C7.89,64,7,59.84,7.41,55.63,7.68,52.58,9,49,8.3,46,3.68,47,5.91,64.93,6.33,68.48Z"/><path class="cls-7" d="M12.5,28.47a1.12,1.12,0,0,0-.09.67c.12.46.78.56,1.18.3a2.5,2.5,0,0,0,.8-1.15,21.37,21.37,0,0,1,2.81-4.62,10.48,10.48,0,0,1,3.21-2.87c1-.53,2.16-.81,3.22-1.27a8,8,0,0,0,3-2.21C21.53,13.92,14,24.55,12.5,28.47Z"/><path class="cls-8" d="M24.31,48.79c-1.77,6.53-.23,14.46,5.41,18.19,2.14,1.42,4.75,2.17,6.61,4,2.52,2.41,3.32,6.41,6.27,8.29,3.81,2.44,8.82,0,13.33.45,2.56.24,4.92,1.41,7.39,2.12,6.15,1.77,13.25.47,18-3.85s6.59-11.71,3.95-17.54a14.13,14.13,0,0,1-1.46-3.68c-.38-2.61,1.43-5,2.41-7.43,1.74-4.4.77-9.42-.92-13.83C84,32.05,82,28.57,78.59,27.18A12.52,12.52,0,0,0,73,26.52,29.44,29.44,0,0,0,58.1,31.77a9.13,9.13,0,0,1-2.53,1.45c-3.61,1.07-6.86-2.83-10.09-3.81-2.84-.86-6.38-.91-9,.62C30.86,33.31,25.92,42.85,24.31,48.79Z"/><path class="cls-9" d="M31.69,60.94a15.08,15.08,0,0,0,2.75,6C38.59,72,46.24,72,52.79,71.51A26.83,26.83,0,0,0,61,70.08c6-2.41,9.44-8.79,11.13-15,1.19-4.36,1.77-9,.74-13.4-3.08-13.18-18.2-13.27-28.7-9.21S29.09,50.73,31.69,60.94Z"/><path class="cls-10" d="M33.54,78A7.19,7.19,0,0,0,36,81.4a7.77,7.77,0,0,0,2.45,1.47,10.73,10.73,0,0,0,3.62.36c2.78,0,5.66-.12,8.18-1.3s4.6-3.77,4.26-6.53C53.3,65.84,31,69.31,33.54,78Z"/><path class="cls-11" d="M39.68,72.31a5.52,5.52,0,0,0-2.48,1c-1.78,1.47-1,4.59,1,5.86s4.39,1.2,6.69,1.06c.68,0,1.51-.19,1.74-.84.28-.81-.67-1.79-.18-2.5a3.06,3.06,0,0,1,.65-.54,1.92,1.92,0,0,0-.31-2.82,5.54,5.54,0,0,0-3.07-.92c-1.67-.16-2.2-.65-4-.25"/><path class="cls-10" d="M48.4,20.06a7.19,7.19,0,0,0,2.43,3.36,7.69,7.69,0,0,0,2.45,1.48,10.71,10.71,0,0,0,3.62.35c2.78-.05,5.65-.12,8.18-1.29s4.6-3.78,4.26-6.54C68.16,7.86,45.87,11.33,48.4,20.06Z"/><path class="cls-11" d="M54.54,14.33a5.57,5.57,0,0,0-2.49,1c-1.77,1.46-1,4.59,1,5.85s4.4,1.21,6.69,1.07c.69-.05,1.52-.2,1.74-.84.29-.82-.67-1.8-.17-2.51a3.07,3.07,0,0,1,.65-.53,1.94,1.94,0,0,0-.32-2.83,5.52,5.52,0,0,0-3.07-.92c-1.66-.16-2.2-.64-4-.25"/><path class="cls-10" d="M78.09,71.79a7.17,7.17,0,0,0-1.32,3.93A7.59,7.59,0,0,0,77,78.57a10.48,10.48,0,0,0,1.82,3.15c1.66,2.24,3.38,4.53,5.81,5.9s5.75,1.55,7.79-.34C99.5,80.77,83.72,64.66,78.09,71.79Z"/><path class="cls-11" d="M80.46,75.08a6.83,6.83,0,0,0,2.79,7.32c1.14.73,2.86,1,3.68-.07a8.46,8.46,0,0,0,1.51-3.8c.13-2.38-1.75-4.38-3.71-5.73a5.26,5.26,0,0,0-2.58-1.08A2.08,2.08,0,0,0,80,73.16c-.2,1,.51,2,.11,2.89"/><path class="cls-10" d="M72.92,43.68a7.17,7.17,0,0,0-1.32,3.93,7.61,7.61,0,0,0,.22,2.85,10.61,10.61,0,0,0,1.82,3.15c1.66,2.23,3.39,4.53,5.81,5.9s5.75,1.54,7.79-.34C94.33,52.65,78.55,36.54,72.92,43.68Z"/><path class="cls-11" d="M78.07,55.33c1.11,1.47,2.71,2.79,4.55,2.72,2.33-.08,4-2.52,4.06-4.85A10.2,10.2,0,0,0,84,46.92a7.41,7.41,0,0,0-4.21-3C73.28,42.84,76.18,52.83,78.07,55.33Z"/><path class="cls-10" d="M46,31.37a7.17,7.17,0,0,0-1.32,3.93A7.82,7.82,0,0,0,45,38.15a10.79,10.79,0,0,0,1.81,3.15c1.66,2.23,3.39,4.53,5.81,5.9s5.75,1.54,7.8-.34C67.46,40.34,51.67,24.23,46,31.37Z"/><path class="cls-11" d="M51.19,43c1.11,1.47,2.71,2.8,4.55,2.73,2.33-.09,4-2.53,4.06-4.86s-1.25-4.48-2.72-6.28a7.51,7.51,0,0,0-4.22-3C46.41,30.53,49.3,40.52,51.19,43Z"/><path class="cls-10" d="M18.44,53.77a7.23,7.23,0,0,0-1.32,3.93,7.58,7.58,0,0,0,.22,2.85,10.36,10.36,0,0,0,1.82,3.15c1.66,2.24,3.39,4.54,5.81,5.9s5.75,1.55,7.79-.33C39.85,62.75,24.07,46.64,18.44,53.77Z"/><path class="cls-11" d="M23.59,65.43c1.11,1.46,2.71,2.79,4.55,2.72,2.32-.09,4-2.52,4.06-4.85A10.2,10.2,0,0,0,29.47,57a7.37,7.37,0,0,0-4.21-3C18.8,52.94,21.7,62.93,23.59,65.43Z"/><path class="cls-10" d="M71.67,73.56a5.36,5.36,0,0,0-.6-4.93A7.51,7.51,0,0,0,68.88,67a16.14,16.14,0,0,0-6.09-2.49c-2.3-.29-5.07.47-6.34,2.3C52.06,73.11,68.62,80,71.67,73.56Z"/><path class="cls-11" d="M64.85,67a5.3,5.3,0,0,0-4.35-.65,3.68,3.68,0,0,0-2.27,4.4c.51,1.6,2,2.74,3.64,3.58a6.54,6.54,0,0,0,4.13.91C71.56,74.23,67,68.16,64.85,67Z"/><path class="cls-12" d="M43.45,41.76A11.77,11.77,0,1,1,29,33.52,11.78,11.78,0,0,1,43.45,41.76Z"/><path class="cls-13" d="M42.14,42.12a10.42,10.42,0,1,1-12.8-7.29A10.42,10.42,0,0,1,42.14,42.12Z"/><path class="cls-13" d="M42.14,42.12a10.42,10.42,0,1,1-12.8-7.29A10.42,10.42,0,0,1,42.14,42.12Z"/><path class="cls-14" d="M23,45.57a8.59,8.59,0,0,0,1.67,5.18,6.52,6.52,0,0,0,4.7,2.58A3.5,3.5,0,0,0,31.22,53c.41-.24.75-.59,1.15-.86,1-.65,2.26-.73,3.25-1.38,1.47-1,1.92-2.91,2.08-4.67a13.45,13.45,0,0,0-.31-4.94,6.5,6.5,0,0,0-2.88-3.92,7.56,7.56,0,0,0-4.81-.63,6.47,6.47,0,0,0-4.8,3.06A10.27,10.27,0,0,0,23,45.57Z"/><path class="cls-15" d="M42.14,42.12a10.42,10.42,0,0,0-10.33-7.65A10.41,10.41,0,0,1,34.2,54.92a10.63,10.63,0,0,1-2.47.37,10.53,10.53,0,0,0,3.12-.37A10.42,10.42,0,0,0,42.14,42.12Z"/><path class="cls-16" d="M27.89,38.2c-.88,1.66.24,2.18.78,2.08a1.15,1.15,0,0,0,.85-.89,1.69,1.69,0,0,0-.28-1.25,1,1,0,0,0-.59-.46c-.26,0-.51.06-.76.52"/><path class="cls-16" d="M28.29,49.2c-1.88,0-1.84,1.2-1.5,1.64a1.15,1.15,0,0,0,1.18.35,1.71,1.71,0,0,0,1-.81,1,1,0,0,0,.14-.74c-.07-.25-.28-.43-.8-.44"/><path class="cls-16" d="M24.84,46.06c-1.29-1.36-2.14-.48-2.21.07a1.13,1.13,0,0,0,.57,1.09,1.69,1.69,0,0,0,1.27.14,1,1,0,0,0,.62-.42c.13-.22.11-.49-.25-.88"/><path class="cls-16" d="M29.22,46.52c-.63-.68-1-.24-1.09,0a.57.57,0,0,0,.28.54.81.81,0,0,0,.63.06.47.47,0,0,0,.31-.2c.06-.11,0-.24-.13-.43"/><path class="cls-16" d="M32.93,41.33c-.51-.54-.84-.19-.87,0a.46.46,0,0,0,.23.43.69.69,0,0,0,.49.05.44.44,0,0,0,.25-.16c0-.09,0-.2-.1-.35"/><path class="cls-16" d="M30.78,50.92c.29-.87-.29-1-.54-1a.57.57,0,0,0-.35.5.86.86,0,0,0,.23.59.49.49,0,0,0,.33.17c.13,0,.24-.06.33-.31"/><path class="cls-16" d="M36.89,37.76c.3-.88-.28-1-.54-.95a.56.56,0,0,0-.34.5.82.82,0,0,0,.23.58.46.46,0,0,0,.33.18c.12,0,.24-.07.32-.31"/><path class="cls-16" d="M40.69,44.42c.3-.88-.28-1-.54-1a.56.56,0,0,0-.34.5.82.82,0,0,0,.23.58.46.46,0,0,0,.33.18c.12,0,.24-.06.32-.31"/><path class="cls-16" d="M24.77,40.62c.3-.88-.28-1-.53-.95a.55.55,0,0,0-.35.5.82.82,0,0,0,.23.58.46.46,0,0,0,.33.18c.13,0,.24-.06.32-.31"/><path class="cls-16" d="M35.89,52c.24-.7-.22-.83-.43-.76a.45.45,0,0,0-.27.4.66.66,0,0,0,.19.47.35.35,0,0,0,.25.14c.11,0,.2,0,.26-.25"/><path class="cls-16" d="M39,47.18c-1.88,0-1.83,1.2-1.49,1.63a1.15,1.15,0,0,0,1.18.35,1.67,1.67,0,0,0,1-.81,1,1,0,0,0,.14-.74c-.07-.25-.28-.42-.81-.43"/><path class="cls-17" d="M29.69,42.25a.91.91,0,0,0-.28,1.09,1,1,0,0,0,1,.52,1.05,1.05,0,0,0,.85-.78A1,1,0,0,0,30.84,42a.83.83,0,0,0-1.12.29"/><path class="cls-17" d="M32.09,50.61a.89.89,0,0,0-.28,1.09,1,1,0,0,0,1,.52,1.08,1.08,0,0,0,.85-.78,1,1,0,0,0-.44-1.11.83.83,0,0,0-1.12.29"/><path class="cls-18" d="M25.65,42.76A1.36,1.36,0,0,0,24.48,44a1.47,1.47,0,0,0,.94,1.43A1.59,1.59,0,0,0,27.1,45a1.52,1.52,0,0,0,.26-1.78c-.34-.56-.79-.63-1.71-.47"/><path class="cls-18" d="M31.49,45.68a1.36,1.36,0,0,0-1.17,1.22,1.47,1.47,0,0,0,.94,1.42,1.6,1.6,0,0,0,1.68-.39,1.5,1.5,0,0,0,.25-1.78c-.33-.55-.78-.63-1.7-.47"/><path class="cls-18" d="M32.81,38.08a1,1,0,0,0-.23-1.26,1.11,1.11,0,0,0-1.3-.06,1.23,1.23,0,0,0-.5,1.21,1.15,1.15,0,0,0,1,1c.49,0,.73-.21,1-.84"/><path class="cls-18" d="M36.37,47.34a1,1,0,0,0-.23-1.26,1.11,1.11,0,0,0-1.3-.06,1.22,1.22,0,0,0-.51,1.21,1.16,1.16,0,0,0,1,1c.49,0,.74-.2,1-.84"/><path class="cls-18" d="M35.75,43.77a1,1,0,0,0-.23-1.26,1.13,1.13,0,0,0-1.3-.06,1.25,1.25,0,0,0-.5,1.22,1.16,1.16,0,0,0,1,.95c.49,0,.73-.21,1-.85"/><path class="cls-18" d="M37.16,39.8A1.35,1.35,0,0,0,36,41a1.47,1.47,0,0,0,.94,1.43,1.62,1.62,0,0,0,1.68-.39,1.51,1.51,0,0,0,.25-1.78c-.33-.56-.78-.63-1.7-.47"/><path class="cls-12" d="M71.22,44.65a11.77,11.77,0,1,1-14.46-8.24A11.78,11.78,0,0,1,71.22,44.65Z"/><path class="cls-13" d="M69.91,45a10.41,10.41,0,1,1-12.79-7.29A10.41,10.41,0,0,1,69.91,45Z"/><path class="cls-13" d="M69.91,45a10.41,10.41,0,1,1-12.79-7.29A10.41,10.41,0,0,1,69.91,45Z"/><path class="cls-14" d="M50.74,48.46a8.65,8.65,0,0,0,1.66,5.18,6.51,6.51,0,0,0,4.71,2.57A3.51,3.51,0,0,0,59,55.84c.41-.24.75-.59,1.15-.86,1-.66,2.26-.73,3.25-1.38,1.47-1,1.92-2.91,2.08-4.67a13.51,13.51,0,0,0-.31-5,6.5,6.5,0,0,0-2.88-3.91,7.49,7.49,0,0,0-4.81-.63,6.49,6.49,0,0,0-4.8,3.05A10.25,10.25,0,0,0,50.74,48.46Z"/><path class="cls-15" d="M69.91,45a10.42,10.42,0,0,0-10.32-7.66A10.42,10.42,0,0,1,62,57.81a10.68,10.68,0,0,1-2.47.36A10.4,10.4,0,0,0,69.91,45Z"/><path class="cls-16" d="M55.67,41.09c-.88,1.66.23,2.18.77,2.08a1.16,1.16,0,0,0,.86-.9A1.67,1.67,0,0,0,57,41a.92.92,0,0,0-.6-.46c-.25,0-.5,0-.75.52"/><path class="cls-16" d="M56.07,52.09c-1.88,0-1.84,1.2-1.5,1.63a1.11,1.11,0,0,0,1.18.35,1.67,1.67,0,0,0,1-.81.93.93,0,0,0,.14-.74c-.07-.25-.28-.42-.8-.43"/><path class="cls-16" d="M52.62,49c-1.29-1.37-2.14-.48-2.22.07A1.15,1.15,0,0,0,51,50.11a1.67,1.67,0,0,0,1.26.13,1,1,0,0,0,.63-.41c.13-.23.11-.5-.25-.88"/><path class="cls-16" d="M57,49.4c-.63-.67-1-.23-1.09,0a.55.55,0,0,0,.28.53.81.81,0,0,0,.63.07.5.5,0,0,0,.31-.2c.06-.11,0-.25-.13-.44"/><path class="cls-16" d="M60.71,44.22c-.51-.54-.84-.19-.87,0a.46.46,0,0,0,.22.43.67.67,0,0,0,.5.06.41.41,0,0,0,.25-.17c0-.09,0-.19-.1-.34"/><path class="cls-16" d="M58.55,53.81c.3-.88-.28-1-.53-1a.54.54,0,0,0-.35.5.85.85,0,0,0,.23.58.46.46,0,0,0,.33.18c.13,0,.24-.07.32-.31"/><path class="cls-16" d="M64.67,40.65c.3-.88-.28-1-.54-.95a.55.55,0,0,0-.34.5.81.81,0,0,0,.23.58.5.5,0,0,0,.33.18c.12,0,.24-.07.32-.31"/><path class="cls-16" d="M68.47,47.31c.3-.88-.28-1-.54-1a.55.55,0,0,0-.34.5.81.81,0,0,0,.23.58.44.44,0,0,0,.32.18c.13,0,.25-.07.33-.31"/><path class="cls-16" d="M52.55,43.51c.3-.88-.28-1-.53-.95a.54.54,0,0,0-.35.5.85.85,0,0,0,.23.58.46.46,0,0,0,.33.18c.13,0,.24-.07.32-.31"/><path class="cls-16" d="M63.67,54.9c.24-.7-.22-.83-.43-.76a.45.45,0,0,0-.27.4.65.65,0,0,0,.18.46.41.41,0,0,0,.26.15c.11,0,.2-.06.26-.25"/><path class="cls-16" d="M66.75,50.06c-1.88,0-1.83,1.2-1.5,1.64a1.17,1.17,0,0,0,1.19.35,1.74,1.74,0,0,0,1-.81,1,1,0,0,0,.14-.74c-.08-.25-.28-.43-.81-.44"/><path class="cls-17" d="M57.47,45.14a.91.91,0,0,0-.28,1.09,1,1,0,0,0,1,.52,1.08,1.08,0,0,0,.85-.78,1,1,0,0,0-.43-1.12.84.84,0,0,0-1.12.3"/><path class="cls-17" d="M59.87,53.5a.88.88,0,0,0-.28,1.09,1,1,0,0,0,1,.52,1.07,1.07,0,0,0,.84-.78A1,1,0,0,0,61,53.21a.84.84,0,0,0-1.12.3"/><path class="cls-18" d="M53.43,45.65a1.34,1.34,0,0,0-1.17,1.21,1.48,1.48,0,0,0,.94,1.43,1.63,1.63,0,0,0,1.68-.39,1.52,1.52,0,0,0,.25-1.79c-.33-.55-.78-.62-1.7-.46"/><path class="cls-18" d="M59.27,48.57a1.36,1.36,0,0,0-1.17,1.21A1.47,1.47,0,0,0,59,51.21a1.6,1.6,0,0,0,1.68-.39A1.52,1.52,0,0,0,61,49c-.33-.56-.79-.63-1.7-.47"/><path class="cls-18" d="M60.59,41a1,1,0,0,0-.23-1.26,1.13,1.13,0,0,0-1.3-.06,1.25,1.25,0,0,0-.5,1.22,1.15,1.15,0,0,0,1,1c.49,0,.74-.21,1.05-.85"/><path class="cls-18" d="M64.15,50.22A1,1,0,0,0,63.91,49a1.11,1.11,0,0,0-1.29-.06,1.24,1.24,0,0,0-.51,1.22,1.16,1.16,0,0,0,1,1c.49,0,.74-.21,1.05-.85"/><path class="cls-18" d="M63.53,46.66a1,1,0,0,0-.23-1.26,1.11,1.11,0,0,0-1.3-.06,1.21,1.21,0,0,0-.5,1.22,1.16,1.16,0,0,0,1,.95c.49,0,.74-.21,1.05-.85"/><path class="cls-18" d="M64.94,42.69a1.34,1.34,0,0,0-1.17,1.21,1.47,1.47,0,0,0,.94,1.43,1.62,1.62,0,0,0,1.68-.4,1.52,1.52,0,0,0,.25-1.78c-.33-.55-.79-.62-1.7-.46"/><path class="cls-12" d="M88.34,65.26A11.77,11.77,0,1,1,73.88,57,11.78,11.78,0,0,1,88.34,65.26Z"/><path class="cls-13" d="M87,65.62a10.41,10.41,0,1,1-12.79-7.29A10.41,10.41,0,0,1,87,65.62Z"/><path class="cls-13" d="M87,65.62a10.41,10.41,0,1,1-12.79-7.29A10.41,10.41,0,0,1,87,65.62Z"/><path class="cls-14" d="M67.86,69.07a8.58,8.58,0,0,0,1.66,5.18,6.51,6.51,0,0,0,4.71,2.57,3.42,3.42,0,0,0,1.89-.37c.41-.24.75-.59,1.14-.86,1-.65,2.27-.73,3.26-1.38,1.47-1,1.92-2.91,2.08-4.67a13.45,13.45,0,0,0-.31-4.94,6.5,6.5,0,0,0-2.88-3.92,7.49,7.49,0,0,0-4.81-.63,6.47,6.47,0,0,0-4.8,3.06A10.2,10.2,0,0,0,67.86,69.07Z"/><path class="cls-15" d="M87,65.62A10.41,10.41,0,0,0,76.71,58,10.41,10.41,0,0,1,79.1,78.42a10.71,10.71,0,0,1-2.47.37,10.76,10.76,0,0,0,3.11-.37A10.41,10.41,0,0,0,87,65.62Z"/><path class="cls-16" d="M72.79,61.7c-.88,1.66.23,2.18.77,2.08a1.17,1.17,0,0,0,.86-.9,1.68,1.68,0,0,0-.28-1.24,1,1,0,0,0-.6-.46c-.25,0-.5.06-.75.52"/><path class="cls-16" d="M73.19,72.7c-1.89,0-1.84,1.2-1.5,1.64a1.15,1.15,0,0,0,1.18.35,1.74,1.74,0,0,0,1-.81,1,1,0,0,0,.14-.75c-.07-.24-.28-.42-.8-.43"/><path class="cls-16" d="M69.74,69.56c-1.29-1.37-2.14-.48-2.22.07a1.15,1.15,0,0,0,.58,1.09,1.67,1.67,0,0,0,1.26.14,1,1,0,0,0,.63-.42c.13-.22.11-.5-.25-.88"/><path class="cls-16" d="M74.12,70c-.63-.68-1.05-.24-1.09,0a.57.57,0,0,0,.28.54.81.81,0,0,0,.63.06.5.5,0,0,0,.31-.2c.06-.11,0-.25-.13-.43"/><path class="cls-16" d="M77.83,64.83c-.51-.54-.84-.19-.87,0a.44.44,0,0,0,.22.42.67.67,0,0,0,.5.06.44.44,0,0,0,.25-.16c0-.09,0-.2-.1-.35"/><path class="cls-16" d="M75.67,74.42c.3-.88-.28-1-.53-1a.55.55,0,0,0-.35.5.82.82,0,0,0,.23.58.46.46,0,0,0,.33.18c.13,0,.24-.06.32-.31"/><path class="cls-16" d="M81.79,61.26c.3-.88-.28-1-.54-.95a.56.56,0,0,0-.34.5.81.81,0,0,0,.23.58.44.44,0,0,0,.32.18c.13,0,.25-.07.33-.31"/><path class="cls-16" d="M85.59,67.92c.3-.88-.28-1-.54-1a.56.56,0,0,0-.34.5.78.78,0,0,0,.23.58.44.44,0,0,0,.32.18c.13,0,.24-.06.33-.31"/><path class="cls-16" d="M69.67,64.12c.3-.88-.28-1-.54-1a.56.56,0,0,0-.34.5.82.82,0,0,0,.23.58.46.46,0,0,0,.33.18c.13,0,.24-.06.32-.31"/><path class="cls-16" d="M80.79,75.51c.24-.7-.22-.83-.43-.76a.45.45,0,0,0-.27.4.69.69,0,0,0,.18.47.4.4,0,0,0,.26.14c.1,0,.2-.06.26-.25"/><path class="cls-16" d="M83.87,70.68c-1.88,0-1.83,1.2-1.5,1.63a1.17,1.17,0,0,0,1.19.35,1.67,1.67,0,0,0,1-.81,1,1,0,0,0,.14-.74c-.08-.25-.28-.43-.81-.43"/><path class="cls-17" d="M74.59,65.75a.91.91,0,0,0-.28,1.09,1,1,0,0,0,1,.52,1.06,1.06,0,0,0,.85-.78,1,1,0,0,0-.44-1.11.82.82,0,0,0-1.11.29"/><path class="cls-17" d="M77,74.11a.89.89,0,0,0-.28,1.09,1,1,0,0,0,1,.52,1.05,1.05,0,0,0,.84-.78,1,1,0,0,0-.43-1.11.83.83,0,0,0-1.12.29"/><path class="cls-18" d="M70.55,66.26a1.36,1.36,0,0,0-1.17,1.21,1.47,1.47,0,0,0,.94,1.43A1.6,1.6,0,0,0,72,68.51a1.5,1.5,0,0,0,.25-1.78c-.33-.56-.78-.63-1.7-.47"/><path class="cls-18" d="M76.39,69.18a1.36,1.36,0,0,0-1.17,1.22,1.46,1.46,0,0,0,.94,1.42,1.6,1.6,0,0,0,1.68-.39,1.52,1.52,0,0,0,.25-1.78c-.33-.56-.79-.63-1.7-.47"/><path class="cls-18" d="M77.71,61.58a1,1,0,0,0-.23-1.26,1.11,1.11,0,0,0-1.3-.06,1.19,1.19,0,0,0-.5,1.21,1.13,1.13,0,0,0,1,1c.49,0,.74-.21,1-.84"/><path class="cls-18" d="M81.27,70.84A1,1,0,0,0,81,69.58a1.11,1.11,0,0,0-1.3-.06,1.23,1.23,0,0,0-.5,1.21,1.15,1.15,0,0,0,1,1c.49,0,.73-.21,1-.84"/><path class="cls-18" d="M80.65,67.27A1,1,0,0,0,80.42,66a1.11,1.11,0,0,0-1.3-.06,1.24,1.24,0,0,0-.51,1.22,1.17,1.17,0,0,0,1,1c.49,0,.74-.21,1.05-.85"/><path class="cls-18" d="M82.06,63.3a1.34,1.34,0,0,0-1.17,1.21,1.47,1.47,0,0,0,.94,1.43,1.62,1.62,0,0,0,1.68-.39,1.53,1.53,0,0,0,.25-1.79c-.33-.55-.79-.62-1.7-.46"/><path class="cls-12" d="M86.34,26.48a11.77,11.77,0,1,1-14.47-8.24A11.77,11.77,0,0,1,86.34,26.48Z"/><path class="cls-13" d="M85,26.84a10.41,10.41,0,1,1-12.8-7.29A10.42,10.42,0,0,1,85,26.84Z"/><path class="cls-13" d="M85,26.84a10.41,10.41,0,1,1-12.8-7.29A10.42,10.42,0,0,1,85,26.84Z"/><path class="cls-14" d="M65.85,30.28a8.55,8.55,0,0,0,1.67,5.18A6.45,6.45,0,0,0,72.23,38a3.39,3.39,0,0,0,1.88-.38c.42-.23.75-.59,1.15-.85,1-.66,2.26-.74,3.25-1.39,1.48-1,1.92-2.91,2.08-4.66a13.5,13.5,0,0,0-.3-5A6.5,6.5,0,0,0,77.4,21.9a7.55,7.55,0,0,0-4.81-.64,6.51,6.51,0,0,0-4.8,3.06A10.39,10.39,0,0,0,65.85,30.28Z"/><path class="cls-15" d="M85,26.84A10.43,10.43,0,0,0,74.7,19.18a10.41,10.41,0,0,1,2.39,20.45,10,10,0,0,1-2.47.37,10.14,10.14,0,0,0,3.12-.37A10.42,10.42,0,0,0,85,26.84Z"/><path class="cls-16" d="M70.79,22.91c-.89,1.66.23,2.19.77,2.08a1.13,1.13,0,0,0,.85-.89,1.66,1.66,0,0,0-.28-1.24,1,1,0,0,0-.59-.47c-.26,0-.51.06-.75.52"/><path class="cls-16" d="M71.18,33.92c-1.88,0-1.84,1.2-1.5,1.63a1.13,1.13,0,0,0,1.18.35,1.64,1.64,0,0,0,1-.81.94.94,0,0,0,.14-.74c-.07-.25-.28-.42-.8-.43"/><path class="cls-16" d="M67.73,30.78c-1.29-1.37-2.14-.48-2.21.06a1.14,1.14,0,0,0,.57,1.09,1.65,1.65,0,0,0,1.27.14,1,1,0,0,0,.63-.41c.12-.23.1-.5-.26-.88"/><path class="cls-16" d="M72.12,31.23c-.64-.67-1.06-.23-1.1,0a.56.56,0,0,0,.29.54.83.83,0,0,0,.62.07.45.45,0,0,0,.31-.21c.06-.11.05-.24-.12-.43"/><path class="cls-16" d="M75.82,26c-.5-.53-.84-.18-.87,0a.46.46,0,0,0,.23.43.62.62,0,0,0,.5.05.36.36,0,0,0,.24-.16c0-.09,0-.2-.1-.35"/><path class="cls-16" d="M73.67,35.64c.3-.88-.29-1-.54-1a.55.55,0,0,0-.34.5.77.77,0,0,0,.23.58.48.48,0,0,0,.32.18c.13,0,.24-.07.33-.31"/><path class="cls-16" d="M79.78,22.47c.3-.87-.28-1-.53-.95a.57.57,0,0,0-.35.5.86.86,0,0,0,.23.59.54.54,0,0,0,.33.18c.13,0,.24-.07.32-.32"/><path class="cls-16" d="M83.58,29.14c.3-.88-.28-1.05-.53-1a.57.57,0,0,0-.35.51.85.85,0,0,0,.23.58.54.54,0,0,0,.33.18c.13,0,.24-.07.32-.31"/><path class="cls-16" d="M67.67,25.34c.3-.88-.29-1.05-.54-1a.6.6,0,0,0-.35.51.82.82,0,0,0,.24.58.49.49,0,0,0,.32.18c.13,0,.24-.07.33-.31"/><path class="cls-16" d="M78.79,36.72c.23-.69-.23-.83-.43-.75a.44.44,0,0,0-.28.4.63.63,0,0,0,.19.46.36.36,0,0,0,.26.14c.1,0,.19,0,.26-.25"/><path class="cls-16" d="M81.87,31.89c-1.88,0-1.84,1.2-1.5,1.63a1.12,1.12,0,0,0,1.18.35,1.64,1.64,0,0,0,1-.81.93.93,0,0,0,.14-.74c-.07-.25-.28-.42-.8-.43"/><path class="cls-17" d="M72.59,27a.87.87,0,0,0-.28,1.08,1,1,0,0,0,1,.53,1.07,1.07,0,0,0,.84-.78,1,1,0,0,0-.43-1.12.85.85,0,0,0-1.12.3"/><path class="cls-17" d="M75,35.33a.9.9,0,0,0-.28,1.08,1,1,0,0,0,1,.53,1.09,1.09,0,0,0,.85-.78A1,1,0,0,0,76.12,35a.83.83,0,0,0-1.11.3"/><path class="cls-18" d="M68.54,27.47a1.35,1.35,0,0,0-1.16,1.22,1.46,1.46,0,0,0,.93,1.43,1.62,1.62,0,0,0,1.68-.4,1.52,1.52,0,0,0,.26-1.78c-.33-.55-.79-.62-1.71-.47"/><path class="cls-18" d="M74.38,30.4a1.32,1.32,0,0,0-1.16,1.21A1.46,1.46,0,0,0,74.15,33a1.63,1.63,0,0,0,1.68-.39,1.54,1.54,0,0,0,.26-1.79c-.34-.55-.79-.62-1.71-.46"/><path class="cls-18" d="M75.71,22.79a1,1,0,0,0-.23-1.26,1.11,1.11,0,0,0-1.3-.06,1.24,1.24,0,0,0-.51,1.22,1.17,1.17,0,0,0,1,.95c.49,0,.74-.21,1-.85"/><path class="cls-18" d="M79.26,32.05A1,1,0,0,0,79,30.79a1.11,1.11,0,0,0-1.3-.06A1.24,1.24,0,0,0,77.22,32a1.17,1.17,0,0,0,1,.95c.49,0,.74-.21,1.05-.85"/><path class="cls-18" d="M78.65,28.49a1,1,0,0,0-.24-1.26,1.1,1.1,0,0,0-1.29-.06,1.21,1.21,0,0,0-.51,1.21,1.15,1.15,0,0,0,1,.95c.49,0,.74-.21,1.05-.84"/><path class="cls-18" d="M80.05,24.51a1.34,1.34,0,0,0-1.16,1.22,1.45,1.45,0,0,0,.93,1.42,1.59,1.59,0,0,0,1.68-.39A1.52,1.52,0,0,0,81.76,25c-.34-.55-.79-.63-1.71-.47"/><circle class="cls-12" cx="94.21" cy="51.37" r="11.77" transform="translate(3.22 108.24) rotate(-60.61)"/><circle class="cls-13" cx="94.21" cy="51.37" r="10.41" transform="translate(2.68 107.37) rotate(-60.06)"/><circle class="cls-13" cx="94.21" cy="51.37" r="10.41" transform="translate(2.68 107.37) rotate(-60.06)"/><path class="cls-14" d="M85.08,52.06a8.54,8.54,0,0,0,1.66,5.18,6.55,6.55,0,0,0,4.71,2.58,3.52,3.52,0,0,0,1.89-.38c.41-.24.75-.59,1.14-.85,1-.66,2.27-.74,3.25-1.39,1.48-1,1.92-2.91,2.09-4.66a13.49,13.49,0,0,0-.31-4.95,6.54,6.54,0,0,0-2.88-3.92A7.56,7.56,0,0,0,91.82,43,6.5,6.5,0,0,0,87,46.1,10.2,10.2,0,0,0,85.08,52.06Z"/><path class="cls-15" d="M104.25,48.61A10.41,10.41,0,0,0,93.93,41a10.41,10.41,0,0,1,2.39,20.45,10.19,10.19,0,0,1-2.47.37,10.43,10.43,0,0,0,10.4-13.17Z"/><path class="cls-16" d="M90,44.69c-.88,1.66.23,2.18.77,2.08a1.14,1.14,0,0,0,.85-.89,1.69,1.69,0,0,0-.27-1.25,1,1,0,0,0-.6-.46c-.25-.05-.5.06-.75.52"/><path class="cls-16" d="M90.4,55.69c-1.88,0-1.83,1.2-1.5,1.64a1.17,1.17,0,0,0,1.19.35,1.67,1.67,0,0,0,1-.81,1,1,0,0,0,.14-.74c-.07-.25-.28-.43-.81-.44"/><path class="cls-16" d="M87,52.55c-1.29-1.36-2.14-.47-2.22.07a1.13,1.13,0,0,0,.58,1.09,1.67,1.67,0,0,0,1.26.14,1,1,0,0,0,.63-.42c.13-.22.11-.49-.25-.88"/><path class="cls-16" d="M91.34,53c-.64-.68-1-.24-1.09,0a.57.57,0,0,0,.28.54.84.84,0,0,0,.62.07.55.55,0,0,0,.32-.21c.06-.11,0-.24-.13-.43"/><path class="cls-16" d="M95.05,47.82c-.51-.54-.84-.19-.87,0a.47.47,0,0,0,.22.43.72.72,0,0,0,.5,0,.39.39,0,0,0,.25-.16c0-.09,0-.2-.1-.35"/><path class="cls-16" d="M92.89,57.41c.3-.87-.28-1-.54-.95A.57.57,0,0,0,92,57a.86.86,0,0,0,.23.59.54.54,0,0,0,.33.18c.13,0,.24-.07.32-.32"/><path class="cls-16" d="M99,44.25c.3-.87-.28-1-.54-1a.56.56,0,0,0-.34.5.81.81,0,0,0,.23.59.46.46,0,0,0,.32.17c.13,0,.24-.06.33-.31"/><path class="cls-16" d="M102.81,50.91c.3-.87-.29-1-.54-.95a.57.57,0,0,0-.34.5.81.81,0,0,0,.23.59.52.52,0,0,0,.32.18c.13,0,.24-.07.33-.32"/><path class="cls-16" d="M86.89,47.11c.3-.87-.28-1-.54-1a.57.57,0,0,0-.34.5.86.86,0,0,0,.23.59.54.54,0,0,0,.33.18c.12,0,.24-.07.32-.32"/><path class="cls-16" d="M98,58.5c.24-.7-.22-.83-.43-.76a.45.45,0,0,0-.27.4.69.69,0,0,0,.18.47.4.4,0,0,0,.26.14c.1,0,.19,0,.26-.25"/><path class="cls-16" d="M101.09,53.67c-1.88,0-1.84,1.2-1.5,1.63a1.15,1.15,0,0,0,1.19.35,1.67,1.67,0,0,0,1-.81,1,1,0,0,0,.14-.74c-.08-.25-.28-.42-.81-.43"/><path class="cls-17" d="M91.81,48.75a.9.9,0,0,0-.28,1.08,1,1,0,0,0,1,.53,1.09,1.09,0,0,0,.85-.78A1,1,0,0,0,93,48.46a.82.82,0,0,0-1.11.3"/><path class="cls-17" d="M94.2,57.11a.88.88,0,0,0-.27,1.08,1,1,0,0,0,1,.53,1.08,1.08,0,0,0,.85-.78,1,1,0,0,0-.43-1.12.83.83,0,0,0-1.12.29"/><path class="cls-18" d="M87.77,49.25a1.36,1.36,0,0,0-1.17,1.22,1.47,1.47,0,0,0,.94,1.42,1.6,1.6,0,0,0,1.68-.39,1.52,1.52,0,0,0,.25-1.78c-.33-.56-.79-.63-1.7-.47"/><path class="cls-18" d="M93.61,52.17a1.36,1.36,0,0,0-1.17,1.22,1.48,1.48,0,0,0,.93,1.43,1.63,1.63,0,0,0,1.69-.4,1.52,1.52,0,0,0,.25-1.78c-.33-.55-.79-.62-1.7-.47"/><path class="cls-18" d="M94.93,44.57a1,1,0,0,0-.23-1.26,1.11,1.11,0,0,0-1.3-.06,1.23,1.23,0,0,0-.51,1.21,1.18,1.18,0,0,0,1,1c.49,0,.74-.21,1.05-.85"/><path class="cls-18" d="M98.48,53.83a1,1,0,0,0-.23-1.26,1.11,1.11,0,0,0-1.3-.06,1.24,1.24,0,0,0-.5,1.21,1.17,1.17,0,0,0,1,1c.49,0,.73-.21,1-.85"/><path class="cls-18" d="M97.87,50.26A1,1,0,0,0,97.64,49a1.13,1.13,0,0,0-1.3-.06,1.24,1.24,0,0,0-.51,1.22,1.17,1.17,0,0,0,1,1c.49,0,.74-.21,1.05-.85"/><path class="cls-18" d="M99.28,46.29a1.35,1.35,0,0,0-1.17,1.21A1.47,1.47,0,0,0,99,48.93a1.61,1.61,0,0,0,1.69-.39,1.52,1.52,0,0,0,.25-1.78c-.33-.56-.79-.63-1.7-.47"/><path class="cls-12" d="M43.89,76.44A11.77,11.77,0,1,1,29.42,68.2,11.78,11.78,0,0,1,43.89,76.44Z"/><path class="cls-13" d="M42.58,76.8a10.42,10.42,0,1,1-12.8-7.29A10.42,10.42,0,0,1,42.58,76.8Z"/><path class="cls-13" d="M42.58,76.8a10.42,10.42,0,1,1-12.8-7.29A10.42,10.42,0,0,1,42.58,76.8Z"/><path class="cls-14" d="M23.4,80.25a8.57,8.57,0,0,0,1.67,5.18A6.52,6.52,0,0,0,29.77,88a3.5,3.5,0,0,0,1.89-.38c.41-.24.75-.59,1.15-.86,1-.65,2.26-.73,3.25-1.38,1.47-1,1.92-2.91,2.08-4.67a13.23,13.23,0,0,0-.31-4.94A6.5,6.5,0,0,0,35,71.86a7.55,7.55,0,0,0-4.81-.63,6.47,6.47,0,0,0-4.8,3.06A10.34,10.34,0,0,0,23.4,80.25Z"/><path class="cls-15" d="M42.58,76.8a10.42,10.42,0,0,0-10.33-7.65A10.41,10.41,0,0,1,34.64,89.6a10.55,10.55,0,0,1-2.47.37A10.43,10.43,0,0,0,42.58,76.8Z"/><path class="cls-16" d="M28.33,72.88c-.88,1.66.24,2.18.78,2.08a1.15,1.15,0,0,0,.85-.89,1.69,1.69,0,0,0-.28-1.25,1,1,0,0,0-.59-.46c-.26,0-.51.06-.76.52"/><path class="cls-16" d="M28.73,83.88c-1.88,0-1.84,1.2-1.5,1.64a1.15,1.15,0,0,0,1.18.35,1.71,1.71,0,0,0,1-.81,1,1,0,0,0,.14-.74c-.07-.25-.28-.43-.8-.44"/><path class="cls-16" d="M25.28,80.74c-1.29-1.36-2.14-.48-2.21.07a1.13,1.13,0,0,0,.57,1.09,1.69,1.69,0,0,0,1.27.14,1,1,0,0,0,.63-.42c.12-.22.1-.49-.26-.88"/><path class="cls-16" d="M29.66,81.2c-.63-.68-1.05-.24-1.09,0a.57.57,0,0,0,.28.54.81.81,0,0,0,.63.06.47.47,0,0,0,.31-.2c.06-.11.05-.24-.13-.43"/><path class="cls-16" d="M33.37,76c-.5-.54-.84-.19-.87,0a.46.46,0,0,0,.23.43.69.69,0,0,0,.49,0,.44.44,0,0,0,.25-.16c.05-.09,0-.2-.1-.35"/><path class="cls-16" d="M31.22,85.6c.3-.87-.29-1-.54-.95a.57.57,0,0,0-.35.5.82.82,0,0,0,.24.59.44.44,0,0,0,.32.17c.13,0,.24-.06.33-.31"/><path class="cls-16" d="M37.33,72.44c.3-.88-.28-1-.54-1a.56.56,0,0,0-.34.5.82.82,0,0,0,.23.58.46.46,0,0,0,.33.18c.12,0,.24-.07.32-.31"/><path class="cls-16" d="M41.13,79.1c.3-.88-.28-1-.54-.95a.56.56,0,0,0-.34.5.82.82,0,0,0,.23.58.46.46,0,0,0,.33.18c.12,0,.24-.06.32-.31"/><path class="cls-16" d="M25.22,75.3c.29-.88-.29-1-.54-1a.57.57,0,0,0-.35.5.82.82,0,0,0,.23.58.46.46,0,0,0,.33.18c.13,0,.24-.06.33-.31"/><path class="cls-16" d="M36.33,86.69c.24-.7-.22-.83-.42-.76a.45.45,0,0,0-.28.4.66.66,0,0,0,.19.47.36.36,0,0,0,.26.14c.1,0,.19,0,.25-.25"/><path class="cls-16" d="M39.42,81.86c-1.88,0-1.84,1.2-1.5,1.63a1.15,1.15,0,0,0,1.18.35,1.67,1.67,0,0,0,1-.81.94.94,0,0,0,.14-.74c-.07-.25-.28-.42-.8-.43"/><path class="cls-17" d="M30.13,76.93A.91.91,0,0,0,29.85,78a1,1,0,0,0,1,.52,1.05,1.05,0,0,0,.85-.78,1,1,0,0,0-.43-1.11.83.83,0,0,0-1.12.29"/><path class="cls-17" d="M32.53,85.29a.89.89,0,0,0-.28,1.09,1,1,0,0,0,1,.52,1.08,1.08,0,0,0,.85-.78A1,1,0,0,0,33.67,85a.83.83,0,0,0-1.12.29"/><path class="cls-18" d="M26.09,77.44a1.34,1.34,0,0,0-1.16,1.21,1.45,1.45,0,0,0,.93,1.43,1.59,1.59,0,0,0,1.68-.39,1.52,1.52,0,0,0,.26-1.78c-.34-.56-.79-.63-1.71-.47"/><path class="cls-18" d="M31.93,80.36a1.36,1.36,0,0,0-1.17,1.22A1.47,1.47,0,0,0,31.7,83a1.59,1.59,0,0,0,1.68-.39,1.5,1.5,0,0,0,.25-1.78c-.33-.55-.78-.63-1.7-.47"/><path class="cls-18" d="M33.25,72.76A1,1,0,0,0,33,71.5a1.11,1.11,0,0,0-1.3-.06,1.23,1.23,0,0,0-.5,1.21,1.15,1.15,0,0,0,1,.95c.49.05.73-.21,1-.84"/><path class="cls-18" d="M36.81,82a1,1,0,0,0-.23-1.26,1.11,1.11,0,0,0-1.3-.06,1.22,1.22,0,0,0-.51,1.21,1.16,1.16,0,0,0,1,1c.49,0,.74-.2,1.05-.84"/><path class="cls-18" d="M36.19,78.45A1,1,0,0,0,36,77.19a1.13,1.13,0,0,0-1.3-.06,1.25,1.25,0,0,0-.5,1.22,1.16,1.16,0,0,0,1,1c.49,0,.73-.21,1-.85"/><path class="cls-18" d="M37.6,74.48a1.35,1.35,0,0,0-1.17,1.21,1.47,1.47,0,0,0,.94,1.43,1.61,1.61,0,0,0,1.68-.39A1.51,1.51,0,0,0,39.3,75c-.33-.56-.78-.63-1.7-.47"/><path class="cls-19" d="M63.78,54.82c2.69-.76,5.65-1.32,8.21-.2,3.2,1.39,4.87,5,7.84,6.85a14.3,14.3,0,0,0-3.71,3.69,8.14,8.14,0,0,1-7.19,2.16,1.71,1.71,0,0,1-1.22-.69.59.59,0,0,1,0,.56A19.17,19.17,0,0,1,63.75,65c0,.18-.24.2-.41.14a6.8,6.8,0,0,1-4.26-5.47C58.7,56.71,61.32,55.52,63.78,54.82Z"/><path class="cls-20" d="M64.5,59.83a15.57,15.57,0,0,0,2.16,0A24.78,24.78,0,0,1,79,62c-2-.48-4-.92-6-1.24-.77-.12-1.55-.24-2.33-.3-1.82-.15-3.65,0-5.48,0a17,17,0,0,1-2.85-.2c-.57-.1-3.36-.47-3.51-1.11-.24-1,2.34.18,2.66.3A10.67,10.67,0,0,0,64.5,59.83Z"/><path class="cls-21" d="M63.24,64.05a24.21,24.21,0,0,0,3.57,2.13l0-.45a10.22,10.22,0,0,0,2.24.7L69,66a7.6,7.6,0,0,0,2.68.23A3.55,3.55,0,0,0,74,65l-.39-.26a29.85,29.85,0,0,1,3.67-2.15,5.77,5.77,0,0,0-2.06-1.23A9.13,9.13,0,0,0,73.3,61c-2.91-.31-5.87,0-8.74-.54a13.76,13.76,0,0,0-2-.31c-1,0-2.15.19-1.59,1.34A7.66,7.66,0,0,0,63.24,64.05Z"/><path class="cls-22" d="M66.6,55c1.09-.35,2.33-.69,3.31-.11.23.14.44.33.66.48.89.61,2.13.74,2.75,1.62a5.34,5.34,0,0,1-2.86,1.13c-1,.13-2.08.11-3.11.25s-6,1.79-6.26,0c-.1-.87,1.63-1.76,2.26-2.09A19.77,19.77,0,0,1,66.6,55Z"/><path class="cls-23" d="M56,58.76c.22.37,2.13.67,2.57.81,1,.32,2,.63,3,.86a6,6,0,0,0,.53,1A18.56,18.56,0,0,0,63.27,64a5.57,5.57,0,0,0,3.26,2.34,9.5,9.5,0,0,1-4.48-5.75h0a12.29,12.29,0,0,0,1.92.24c.39,0,.77,0,1.16,0a11,11,0,0,0,1.5,1.39,17.9,17.9,0,0,0,3.75,3.09,6,6,0,0,0,4.69.67,7.41,7.41,0,0,1-4.92-1.13A15.36,15.36,0,0,1,66.4,61.3a4.81,4.81,0,0,0-.54-.57l.82,0a40,40,0,0,1,6,.22c0,.23.21.51.23.67a3,3,0,0,0,.09.68,4.21,4.21,0,0,0,.29.51c.18.34.19.76.43,1.06a1.42,1.42,0,0,0,.6.39,4.78,4.78,0,0,0,1.94.33l-1.4-.66A3.43,3.43,0,0,1,74,63.4a3,3,0,0,1-.75-2.18,1.48,1.48,0,0,0,0-.24c1.93.23,3.86.57,5.76,1a23.87,23.87,0,0,0-8-1.84l-.53,0c.16-.26.29-.65.45-.87a4.61,4.61,0,0,1,1.85-1.45,4.28,4.28,0,0,1,.93-.26h-.1a4,4,0,0,0-1,.08,4.09,4.09,0,0,0-2.2,1.7,4.2,4.2,0,0,1-.66.79c-.79,0-1.59,0-2.39,0l0,0a11.82,11.82,0,0,0,.48-1.14A9.67,9.67,0,0,1,69.49,57a5.47,5.47,0,0,1,1.4-1.14A4.34,4.34,0,0,0,69,57.09l-.83.77a4.1,4.1,0,0,0-.61.64,5,5,0,0,0-.36.64c-.13.27-.26.55-.4.82a.5.5,0,0,0,0,.13,25.49,25.49,0,0,1-4.65-.29l.12-.14c.38-.49.52-1.26.88-1.8a6.83,6.83,0,0,1,1.34-1.5,12.8,12.8,0,0,1,4-1.92L66,55.3a7.75,7.75,0,0,0-1,.41,6.32,6.32,0,0,0-2.16,2.11,7.58,7.58,0,0,0-1.19,1.86A10.66,10.66,0,0,1,59.5,59a11.75,11.75,0,0,0-2-.88C57.06,58,55.49,57.92,56,58.76Z"/><path class="cls-23" d="M73.71,57.51a11.41,11.41,0,0,1,1.65.18A3,3,0,0,0,73.71,57.51Z"/><path class="cls-22" d="M47.9,54.76a4.12,4.12,0,0,1,1.42,1.33,10.57,10.57,0,0,1,.56,1.58c.7,1.94,3.29,1.45,2.64-.58S49.84,53.75,47.9,54.76Z"/><path class="cls-23" d="M54.6,66.1a2.58,2.58,0,0,0-.27,1.64,5.87,5.87,0,0,1,.56-2c.08-.17.17-.34.24-.52.14-.41.15-.86.31-1.27.05-.13.12-.26.17-.39a1.89,1.89,0,0,0-.2-1.84c-.12.21,0,.73,0,1a6.23,6.23,0,0,1-.14,1.14A12.83,12.83,0,0,1,54.6,66.1Z"/><path class="cls-22" d="M54.27,50.19l.27.26a2.28,2.28,0,0,1,.69-1,.66.66,0,0,0,.18.34,4.68,4.68,0,0,1,2.88-2.34l.09.14a20.06,20.06,0,0,1,4.19-1.41,9.61,9.61,0,0,1-1.21,4l.31.1a16.12,16.12,0,0,1-1.55,3.11,9.34,9.34,0,0,1-2.6,3.2,9.26,9.26,0,0,1-3.35,1.15,2.83,2.83,0,0,1-1.08.09c-1.4-.25-1.1-2.79-.91-3.79A7.08,7.08,0,0,1,54.27,50.19Z"/><path class="cls-19" d="M53.67,55.71a1.91,1.91,0,0,0-.38.7.74.74,0,0,0,.18.74,1,1,0,0,0,.81.15,4.24,4.24,0,0,0,2.45-1.1c.2-.2.38-.42.58-.61s.48-.4.71-.61a9.3,9.3,0,0,0,1.59-2.14,24.12,24.12,0,0,0,1.26-2.12c-1.4-.17-2.78.85-3.83,1.63A16.26,16.26,0,0,0,53.67,55.71Z"/><path class="cls-23" d="M60.27,48.74c.53-.45,1.38-1.06,1.46-1.81-.42.1-.9.86-1.21,1.17-.48.48-1,.94-1.48,1.39l-1.08,1h0c.24-.74.61-1.41.9-2.11a4.59,4.59,0,0,0-1.36,2.52c-.45.42-.9.84-1.34,1.28l-.17.18a2.78,2.78,0,0,0,.11-.5c.1-.66.51-1.24.59-1.88a9.06,9.06,0,0,0-1.1,2.76l.06,0A22.13,22.13,0,0,0,53.78,55a21.37,21.37,0,0,0,0-2.65,8.31,8.31,0,0,0-.29,1.58,10.18,10.18,0,0,1-.08,1.53l0,0A22.51,22.51,0,0,0,51.54,59c.25-.06.4-.3.53-.52a35.24,35.24,0,0,1,2.19-3.32,4.59,4.59,0,0,0,1.42-.4,8,8,0,0,0,.92-.47,23.65,23.65,0,0,0,2.29-1.43c.13-.09.27-.23.24-.39.07.38-2.5,1.45-2.83,1.59s-1.07.32-1.62.53c.67-.88,1.39-1.73,2.14-2.55a.16.16,0,0,0,0,.09,8.94,8.94,0,0,0,3-1.32,10.43,10.43,0,0,0,1.2-.9,6.7,6.7,0,0,0-1.8.93,21.33,21.33,0,0,0-2.07.94A33.81,33.81,0,0,1,60.27,48.74Z"/><path class="cls-21" d="M50.38,56.29a14.8,14.8,0,0,0,.7,1.63.32.32,0,0,0,.14.14.33.33,0,0,0,.36-.08.78.78,0,0,0,.16-.36,2,2,0,0,0-.22-1.35,3.52,3.52,0,0,0-.91-1.05c-.24-.18-2-.64-1.53-.36A7.65,7.65,0,0,1,50.38,56.29Z"/><path class="cls-22" d="M57,58.4a4,4,0,0,0,1.23.65.21.21,0,0,0,.19,0,.2.2,0,0,0,0-.17A3.94,3.94,0,0,0,57.24,57a1.45,1.45,0,0,0-.5-.31,1.84,1.84,0,0,0-.47-.06c-.68,0-4,.09-3.43,1.59.26.79,1.34.13,1.79,0A2.89,2.89,0,0,1,57,58.4Z"/><path class="cls-21" d="M54.85,57.67a3,3,0,0,1,2.44.92,2.6,2.6,0,0,0-2-1.51c-.54-.08-1.73,0-1.92.67S54.46,57.73,54.85,57.67Z"/><path class="cls-22" d="M49.57,60.48a4.13,4.13,0,0,0,.14,2.06,8.46,8.46,0,0,0,4.52,5.75,23.22,23.22,0,0,0,2.5.74,12.15,12.15,0,0,1,4.16,2.16c.94-.57.93-1.92.74-3a23.65,23.65,0,0,0-1.81-5.68A9.23,9.23,0,0,0,57.27,59a4.18,4.18,0,0,0-4.12-.68C52,58.84,49.92,59.05,49.57,60.48Z"/><path class="cls-21" d="M55.19,61.75c.63,1.83,2.17,3.16,3.66,4.41a9,9,0,0,0,2,1.38,7.54,7.54,0,0,0-.67-3.18A14,14,0,0,0,58.6,61c-.5-.71-1.7-2.06-2.7-2S55,61,55.19,61.75Z"/><path class="cls-23" d="M60.73,70.87c-.25-1.74-1.48-3.15-2.43-4.64-.57-.9-1-1.86-1.57-2.8a11.85,11.85,0,0,1,1.42,1.12,8.48,8.48,0,0,1,2,2.5,8.75,8.75,0,0,0-3.25-4.2,7.18,7.18,0,0,0-.86-.63c-.1-.16-.21-.32-.32-.47a12,12,0,0,0-1-1.15h0a3.65,3.65,0,0,1,1.83.57,6.77,6.77,0,0,1,1.82,1.64,2.11,2.11,0,0,0-.67-1.36,4.86,4.86,0,0,0-2.8-1.5,1.41,1.41,0,0,0-.58,0,.49.49,0,0,0-.2.11c-.83-.75-1.78-1.35-2.41-.94.52.51,1,1,1.55,1.46,0,.24.08.63.07.85a5.46,5.46,0,0,1-.13,1.14,13.77,13.77,0,0,1-.71,2.2,2.58,2.58,0,0,0-.27,1.64,5.87,5.87,0,0,1,.56-2,4.83,4.83,0,0,0,.23-.52c.15-.41.16-.87.32-1.27.05-.14.12-.26.17-.39a2.21,2.21,0,0,0,0-1.44c.63.59,1.25,1.17,1.83,1.8-.25.14-.4.75-.47.95a14.48,14.48,0,0,0-.69,2.89,2.26,2.26,0,0,0,.08,1.21,6.74,6.74,0,0,1,.28-1.35c.14-.4.35-.78.49-1.18a5.64,5.64,0,0,0,.21-.7l.24-.93a3.74,3.74,0,0,0,.13-.6,14.12,14.12,0,0,1,1.52,2c0,.17.05.42.05.56a3.48,3.48,0,0,1-.09.79,8.87,8.87,0,0,1-.49,1.51,1.88,1.88,0,0,0-.19,1.13,4.55,4.55,0,0,1,.39-1.35,2.32,2.32,0,0,0,.16-.36c.1-.28.11-.59.22-.87,0-.09.08-.18.12-.27a1.63,1.63,0,0,0,.08-.74A43.67,43.67,0,0,0,60.73,70.87Z"/><path class="cls-24" d="M40.35,32.64a.71.71,0,0,1-.66.78l-12.63.95a2.22,2.22,0,0,1-1.12-.1,2.14,2.14,0,0,1-1-1.76,14.61,14.61,0,0,1,9.17-15.36c4.92-1.79,6.4,2,6.55,5.74C40.74,23.7,40.14,30.41,40.35,32.64Z"/><path class="cls-25" d="M35.42,17.05a7.94,7.94,0,0,1,1.2-.35,6.55,6.55,0,0,0-2.47.45A14.61,14.61,0,0,0,25,32.51a3.62,3.62,0,0,0,.18.79A16.23,16.23,0,0,1,35.42,17.05Z"/><path class="cls-26" d="M28,33.36a1.83,1.83,0,0,0,.93.08l5.64-.4a.47.47,0,0,0,.22.07,21.39,21.39,0,0,0,4.66-.21.61.61,0,0,0,.32-.13.61.61,0,0,0,.07-.48c0-.3-.1-.59-.14-.86.05-2.27.66-7,.63-7.58-.13-3.14-1.36-6.29-5.47-4.8a12.22,12.22,0,0,0-7.67,12.84A1.84,1.84,0,0,0,28,33.36Zm11.45-8.89c0,.23,0,1.14-.12,2.24l-.06-.14,0,.54c0,.08,0,.16,0,.24,0-.25,0-.51,0-.78a1.87,1.87,0,0,0-.15-.32.46.46,0,0,0-.84,0,3.45,3.45,0,0,0,0,1.91,2.06,2.06,0,0,1-.06,1.13l0,0c-1.36-2.55-3.93-6.55-4.71-8.17a8.89,8.89,0,0,1,1.43-.67C38.34,19.25,39.36,21.86,39.47,24.47Zm-6.47-3a34.21,34.21,0,0,1,3.07,5c.48.9,1,2.31,1.7,3.43a1.14,1.14,0,0,1-.43.17c-2.32-1.38-5.19-2.42-7.51-3.58a1.78,1.78,0,0,0-.67-.23A10.4,10.4,0,0,1,33,21.47Zm-4.45,9.68A9.45,9.45,0,0,1,28.89,27l4.49,2-.2.15a1.06,1.06,0,0,0-.35.83c.05.69.73,1,1.35,1.14a3.72,3.72,0,0,1,1.59.5.46.46,0,0,1,.16.21.25.25,0,0,1,0,.17l-5.9.44a1.57,1.57,0,0,1-.78-.07A1.49,1.49,0,0,1,28.55,31.15Z"/><polygon class="cls-26" points="39.29 26.57 39.29 26.57 39.29 26.56 39.29 26.57"/><path class="cls-27" d="M35.24,29.34a1.52,1.52,0,0,0-.85-.17.58.58,0,0,0-.5.62.85.85,0,0,0,.46.51c.41.25,2.45,1.56,2.88,1.08C37.89,30.63,35.67,29.53,35.24,29.34Z"/><path class="cls-27" d="M38.86,27.64a.55.55,0,0,1,.18-.5.37.37,0,0,1,.49.2,1.07,1.07,0,0,1,.06.59,9.12,9.12,0,0,1-.52,2.75C38.49,30.26,38.85,28.33,38.86,27.64Z"/><path class="cls-27" d="M35.75,28.27a5.29,5.29,0,0,0,0-1.32c0-.5-.3-1.1-.8-1.12a.78.78,0,0,0-.72.79,1.65,1.65,0,0,0,.5,1.06c.32.37.54.37,1,.59"/><path class="cls-28" d="M35,27.35a1.09,1.09,0,0,1-.3-.66.45.45,0,0,1,.16-.4.41.41,0,0,1,.51.11,1.09,1.09,0,0,1,.19.53,2.83,2.83,0,0,1,0,.82C35.33,27.79,35.09,27.51,35,27.35Z"/><path class="cls-27" d="M34.51,31.49a5,5,0,0,0-1.33-.09c-.5,0-1.11.26-1.15.76a.78.78,0,0,0,.78.74,1.66,1.66,0,0,0,1.07-.45c.38-.32.39-.53.63-1"/><path class="cls-28" d="M33.56,32.25a1.15,1.15,0,0,1-.68.28.44.44,0,0,1-.39-.18.4.4,0,0,1,.13-.5,1.11,1.11,0,0,1,.54-.17,2.75,2.75,0,0,1,.81,0C34,31.89,33.72,32.12,33.56,32.25Z"/><path class="cls-27" d="M39.27,31.31A4.87,4.87,0,0,0,38,31.22c-.5,0-1.11.26-1.15.77a.79.79,0,0,0,.77.74,1.67,1.67,0,0,0,1.08-.46c.37-.31.39-.53.62-1"/><path class="cls-28" d="M38.33,32.07a1.11,1.11,0,0,1-.68.28.46.46,0,0,1-.39-.17.4.4,0,0,1,.13-.5,1,1,0,0,1,.53-.17,2.83,2.83,0,0,1,.82,0C38.77,31.71,38.49,31.94,38.33,32.07Z"/><path class="cls-27" d="M38.68,24.94a5.37,5.37,0,0,0,0-1.33c0-.5-.3-1.1-.8-1.12a.79.79,0,0,0-.72.8,1.65,1.65,0,0,0,.5,1.06c.32.36.54.37,1,.59"/><path class="cls-28" d="M37.88,24a1.14,1.14,0,0,1-.3-.67.43.43,0,0,1,.16-.39.39.39,0,0,1,.51.11,1.06,1.06,0,0,1,.19.53,2.76,2.76,0,0,1,0,.81C38.26,24.45,38,24.18,37.88,24Z"/><path class="cls-27" d="M33.22,29.74a4.76,4.76,0,0,0-1.13-.56C31.64,29,31,29,30.8,29.42a.74.74,0,0,0,.4.94,1.57,1.57,0,0,0,1.11,0,2.24,2.24,0,0,0,.91-.62"/><path class="cls-28" d="M32.11,30.06a1.05,1.05,0,0,1-.7,0,.44.44,0,0,1-.28-.3.37.37,0,0,1,.3-.39,1,1,0,0,1,.53,0,2.74,2.74,0,0,1,.73.3C32.64,29.91,32.3,30,32.11,30.06Z"/><path class="cls-29" d="M31.91,30s0,0,0,0a.47.47,0,0,0-.14-.14l-.24-.14c-.27-.17-.48.14-.25.33S31.88,30.12,31.91,30Z"/><path class="cls-27" d="M38.12,27a5.22,5.22,0,0,0-.24-1.25c-.15-.46-.5-1-1-.88a.74.74,0,0,0-.5.89,1.56,1.56,0,0,0,.68.88,2.31,2.31,0,0,0,1,.36"/><path class="cls-28" d="M37.19,26.34a1,1,0,0,1-.42-.56.43.43,0,0,1,.06-.4.39.39,0,0,1,.5,0,1.06,1.06,0,0,1,.29.45,2.51,2.51,0,0,1,.2.76C37.63,26.67,37.35,26.46,37.19,26.34Z"/><path class="cls-29" d="M37.14,26.13s0,0,0,0a.3.3,0,0,0,0-.19l0-.27c0-.32-.41-.3-.42,0C36.75,25.76,37,26.19,37.14,26.13Z"/><path class="cls-24" d="M50.06,58.34a.73.73,0,0,1,.43.94L46,71.11a2.27,2.27,0,0,1-.57,1,2.13,2.13,0,0,1-2,.11,14.59,14.59,0,0,1-10-14.85c.48-5.21,4.52-4.94,8-3.47C42.14,54.18,48,57.59,50.06,58.34Z"/><path class="cls-25" d="M33.85,56.15a8.32,8.32,0,0,1,.2-1.23,6.35,6.35,0,0,0-.64,2.42,14.59,14.59,0,0,0,10,14.85,4.12,4.12,0,0,0,.79.18A16.26,16.26,0,0,1,33.85,56.15Z"/><path class="cls-26" d="M45.44,69.81a2,2,0,0,0,.48-.81c.7-1.82,1.37-3.55,2-5.27a.51.51,0,0,0,.16-.17,21,21,0,0,0,1.79-4.3.54.54,0,0,0,0-.35.55.55,0,0,0-.41-.26l-.83-.25c-2-1-6-3.57-6.59-3.81-2.89-1.22-6.27-1.45-6.67,2.9A12.2,12.2,0,0,0,43.77,69.9,1.78,1.78,0,0,0,45.44,69.81ZM42.3,55.66c.21.09,1,.53,2,1.06h-.15l.5.2.21.12-.71-.32h-.35a.47.47,0,0,0-.36.77,3.51,3.51,0,0,0,1.72.83,2,2,0,0,1,1,.54l0,0c-2.89.14-7.6.75-9.4.77a9.26,9.26,0,0,1,0-1.58C37.09,54.45,39.89,54.64,42.3,55.66Zm-5.48,4.56a33.65,33.65,0,0,1,5.83-.63c1-.05,2.53,0,3.83-.08a1,1,0,0,1,0,.46c-2.24,1.51-4.4,3.66-6.45,5.26a2,2,0,0,0-.49.51A10.38,10.38,0,0,1,36.82,60.22Zm6.85,8.16a9.47,9.47,0,0,1-3.58-2.07L43.8,63.1a1,1,0,0,0,.05.24,1,1,0,0,0,.59.67c.65.25,1.23-.23,1.61-.73a3.69,3.69,0,0,1,1.13-1.22.48.48,0,0,1,.26-.06.24.24,0,0,1,.14.1q-1,2.76-2.12,5.53a1.56,1.56,0,0,1-.39.67A1.52,1.52,0,0,1,43.67,68.38Z"/><polygon class="cls-26" points="44.12 56.71 44.12 56.71 44.11 56.71 44.12 56.71"/><path class="cls-27" d="M44.89,61.56a1.52,1.52,0,0,0-.51.7.6.6,0,0,0,.34.72.87.87,0,0,0,.66-.2c.41-.27,2.46-1.55,2.2-2.15C47.19,59.71,45.25,61.25,44.89,61.56Z"/><path class="cls-27" d="M44.9,57.56c-.17-.08-.35-.19-.37-.38s.19-.35.39-.36a1.16,1.16,0,0,1,.56.21,9,9,0,0,1,2.26,1.64C47.11,59,45.52,57.87,44.9,57.56Z"/><path class="cls-27" d="M44.15,60.65A5,5,0,0,0,43,60c-.47-.17-1.12-.2-1.35.25a.77.77,0,0,0,.42,1,1.65,1.65,0,0,0,1.16,0c.47-.14.57-.33,1-.63"/><path class="cls-28" d="M43,61a1.14,1.14,0,0,1-.73,0,.49.49,0,0,1-.29-.31.4.4,0,0,1,.32-.41,1.08,1.08,0,0,1,.56,0,3,3,0,0,1,.76.31C43.53,60.81,43.18,60.91,43,61Z"/><path class="cls-27" d="M46.52,63.14a5.26,5.26,0,0,0-.64,1.16c-.19.47-.24,1.12.2,1.36a.78.78,0,0,0,1-.38,1.65,1.65,0,0,0,0-1.16c-.12-.48-.31-.58-.6-1"/><path class="cls-28" d="M46.81,64.32a1.14,1.14,0,0,1,0,.73.43.43,0,0,1-.32.28.39.39,0,0,1-.4-.33,1.09,1.09,0,0,1,.07-.56,2.92,2.92,0,0,1,.34-.74C46.67,63.76,46.76,64.12,46.81,64.32Z"/><path class="cls-27" d="M48.4,58.75a5.26,5.26,0,0,0-.64,1.16c-.19.47-.24,1.12.19,1.37a.78.78,0,0,0,1-.38,1.63,1.63,0,0,0,0-1.17c-.12-.47-.31-.58-.6-1"/><path class="cls-28" d="M48.69,59.94a1.21,1.21,0,0,1,0,.73.49.49,0,0,1-.33.28.42.42,0,0,1-.4-.34,1.06,1.06,0,0,1,.08-.55,2.55,2.55,0,0,1,.34-.75C48.55,59.38,48.63,59.73,48.69,59.94Z"/><path class="cls-27" d="M42.38,56.57A5,5,0,0,0,41.2,56c-.47-.17-1.12-.2-1.35.25a.76.76,0,0,0,.41,1,1.68,1.68,0,0,0,1.17,0c.47-.14.57-.33,1-.64"/><path class="cls-28" d="M41.21,56.9a1.14,1.14,0,0,1-.73,0,.44.44,0,0,1-.29-.32.4.4,0,0,1,.32-.41,1.09,1.09,0,0,1,.56.06,2.59,2.59,0,0,1,.75.31C41.77,56.74,41.41,56.84,41.21,56.9Z"/><path class="cls-27" d="M44.4,63.56a4.72,4.72,0,0,0-1,.78c-.34.34-.62.89-.33,1.27a.74.74,0,0,0,1,0,1.55,1.55,0,0,0,.47-1,2.23,2.23,0,0,0-.16-1.08"/><path class="cls-28" d="M44.21,64.7a1.1,1.1,0,0,1-.3.63.43.43,0,0,1-.39.13.38.38,0,0,1-.23-.44.94.94,0,0,1,.27-.46,2.7,2.7,0,0,1,.58-.54C44.3,64.16,44.24,64.5,44.21,64.7Z"/><path class="cls-29" d="M44.05,64.84l-.06,0a.34.34,0,0,0-.18.07l-.23.15c-.27.17-.07.5.19.37S44.17,64.93,44.05,64.84Z"/><path class="cls-27" d="M44,58a5.18,5.18,0,0,0-1.23-.32c-.48,0-1.09.05-1.21.51a.75.75,0,0,0,.59.84,1.58,1.58,0,0,0,1.09-.24c.41-.23.46-.42.76-.79"/><path class="cls-28" d="M43,58.52a1.09,1.09,0,0,1-.68.14.45.45,0,0,1-.34-.23A.39.39,0,0,1,42.2,58a1.11,1.11,0,0,1,.54-.07,2.55,2.55,0,0,1,.77.14C43.5,58.26,43.19,58.42,43,58.52Z"/><path class="cls-29" d="M42.81,58.47a.08.08,0,0,0,0,0,.3.3,0,0,0-.17-.1l-.25-.1c-.31-.11-.45.25-.19.38S42.8,58.62,42.81,58.47Z"/><path class="cls-24" d="M28.22,57.45a.72.72,0,0,1-.39.95L16.12,63.22a2.25,2.25,0,0,1-1.1.25c-.69-.08-1.15-.75-1.46-1.37a14.62,14.62,0,0,1,4-17.45c4.12-3.23,6.7-.1,8,3.43C25.81,48.83,27.33,55.4,28.22,57.45Z"/><path class="cls-25" d="M18.7,44.16a9.49,9.49,0,0,1,1-.71,6.73,6.73,0,0,0-2.2,1.2,14.62,14.62,0,0,0-4,17.45,4.89,4.89,0,0,0,.42.69A16.22,16.22,0,0,1,18.7,44.16Z"/><path class="cls-26" d="M16.72,62a2,2,0,0,0,.91-.21l5.24-2.13a.41.41,0,0,0,.22,0A21.35,21.35,0,0,0,27.46,58a.59.59,0,0,0,.27-.22.56.56,0,0,0-.09-.48c-.14-.27-.27-.53-.4-.77-.66-2.18-1.53-6.83-1.74-7.41-1.1-2.94-3.25-5.55-6.69-2.86A12.21,12.21,0,0,0,15.5,60.81C15.75,61.33,16.14,61.89,16.72,62Zm8.13-12c.08.22.3,1.1.58,2.17l-.1-.12.2.5.06.24c-.09-.24-.17-.48-.26-.74l-.24-.26a.47.47,0,0,0-.8.27,3.55,3.55,0,0,0,.57,1.82,1.92,1.92,0,0,1,.29,1.09v0c-2.08-2-5.77-5-7-6.3a10,10,0,0,1,1.16-1.09C22.15,45.34,23.94,47.51,24.85,50Zm-7.08-.85a34.39,34.39,0,0,1,4.46,3.81c.74.7,1.69,1.87,2.69,2.73a1.12,1.12,0,0,1-.36.29c-2.63-.59-5.68-.69-8.25-1.08a2.41,2.41,0,0,0-.71,0A10.43,10.43,0,0,1,17.77,49.11ZM16.54,59.7a9.59,9.59,0,0,1-1-4l4.88.5a1.43,1.43,0,0,0-.14.2,1,1,0,0,0-.07.89c.25.64,1,.74,1.63.67a3.63,3.63,0,0,1,1.67,0,.36.36,0,0,1,.21.15.23.23,0,0,1,0,.16l-5.48,2.26a1.57,1.57,0,0,1-.76.17C17.07,60.6,16.75,60.13,16.54,59.7Z"/><polygon class="cls-26" points="25.33 52.01 25.33 52.01 25.33 52 25.33 52.01"/><path class="cls-27" d="M22.33,55.9a1.41,1.41,0,0,0-.86.11.59.59,0,0,0-.28.74.84.84,0,0,0,.6.34c.47.11,2.81.72,3.07.13C25.26,56.3,22.81,56,22.33,55.9Z"/><path class="cls-27" d="M25.25,53.16a.55.55,0,0,1,0-.53.37.37,0,0,1,.53,0,1,1,0,0,1,.23.54A8.76,8.76,0,0,1,26.39,56C25.71,55.76,25.46,53.82,25.25,53.16Z"/><path class="cls-27" d="M22.49,54.73a5.21,5.21,0,0,0-.37-1.28c-.21-.45-.63-1-1.11-.81a.76.76,0,0,0-.43,1,1.64,1.64,0,0,0,.79.85,2.49,2.49,0,0,0,1.12.26"/><path class="cls-28" d="M21.45,54.1a1.07,1.07,0,0,1-.49-.54.44.44,0,0,1,0-.43.41.41,0,0,1,.52-.05,1,1,0,0,1,.34.45,3.08,3.08,0,0,1,.3.76C21.94,54.4,21.63,54.21,21.45,54.1Z"/><path class="cls-27" d="M22.31,58.17A4.71,4.71,0,0,0,21,58.5c-.47.18-1,.59-.86,1.08a.78.78,0,0,0,1,.46,1.68,1.68,0,0,0,.88-.76,2.49,2.49,0,0,0,.3-1.11"/><path class="cls-28" d="M21.64,59.19a1.08,1.08,0,0,1-.56.47.44.44,0,0,1-.42,0,.39.39,0,0,1,0-.52,1,1,0,0,1,.45-.33,2.66,2.66,0,0,1,.78-.26C22,58.7,21.75,59,21.64,59.19Z"/><path class="cls-27" d="M26.78,56.52a5.6,5.6,0,0,0-1.28.33c-.47.19-1,.59-.86,1.08a.79.79,0,0,0,1,.47,1.63,1.63,0,0,0,.87-.77,2.33,2.33,0,0,0,.3-1.11"/><path class="cls-28" d="M26.12,57.54a1.08,1.08,0,0,1-.56.47.42.42,0,0,1-.42,0,.41.41,0,0,1,0-.52,1.07,1.07,0,0,1,.46-.32,2.44,2.44,0,0,1,.77-.27C26.43,57.06,26.23,57.37,26.12,57.54Z"/><path class="cls-27" d="M24.24,50.65a5,5,0,0,0-.37-1.27c-.21-.46-.63-1-1.11-.82a.78.78,0,0,0-.43,1,1.64,1.64,0,0,0,.79.85,2.37,2.37,0,0,0,1.12.26"/><path class="cls-28" d="M23.2,50a1.12,1.12,0,0,1-.49-.54.42.42,0,0,1,0-.42.41.41,0,0,1,.52-.05,1.09,1.09,0,0,1,.35.44,3.5,3.5,0,0,1,.29.76C23.69,50.32,23.38,50.13,23.2,50Z"/><path class="cls-27" d="M20.55,56.91a4.93,4.93,0,0,0-1.26-.19c-.48,0-1.08.16-1.15.64a.74.74,0,0,0,.67.76,1.54,1.54,0,0,0,1.06-.35c.38-.27.42-.47.68-.86"/><path class="cls-28" d="M19.58,57.56a1.06,1.06,0,0,1-.66.21.41.41,0,0,1-.36-.2.37.37,0,0,1,.16-.46.93.93,0,0,1,.52-.12A2.53,2.53,0,0,1,20,57C20,57.25,19.75,57.45,19.58,57.56Z"/><path class="cls-29" d="M19.37,57.53s0,0,0-.05a.3.3,0,0,0-.18-.08l-.26-.07c-.32-.07-.42.29-.14.4C18.89,57.78,19.38,57.69,19.37,57.53Z"/><path class="cls-27" d="M24.36,52.82a5.29,5.29,0,0,0-.61-1.12c-.29-.38-.78-.76-1.21-.53a.75.75,0,0,0-.2,1,1.58,1.58,0,0,0,.92.63,2.27,2.27,0,0,0,1.1,0"/><path class="cls-28" d="M23.26,52.45a1.08,1.08,0,0,1-.57-.41.42.42,0,0,1-.07-.4.38.38,0,0,1,.47-.15,1,1,0,0,1,.42.34,2.82,2.82,0,0,1,.43.65C23.78,52.62,23.45,52.51,23.26,52.45Z"/><path class="cls-29" d="M23.15,52.26s0,0,0,0a.43.43,0,0,0,0-.19,1.89,1.89,0,0,1-.11-.25c-.13-.29-.48-.16-.4.13C22.66,52,23,52.36,23.15,52.26Z"/><path class="cls-24" d="M83.5,73a.71.71,0,0,1-.17-1l7.4-10.28a2.42,2.42,0,0,1,.8-.79,2.15,2.15,0,0,1,2,.4,14.61,14.61,0,0,1,5.84,16.91c-1.8,4.91-5.63,3.62-8.61,1.32C90.09,79,85.34,74.26,83.5,73Z"/><path class="cls-25" d="M98.61,79.26a10.2,10.2,0,0,1-.51,1.14,6.48,6.48,0,0,0,1.24-2.18A14.61,14.61,0,0,0,93.5,61.31a4.54,4.54,0,0,0-.73-.37A16.24,16.24,0,0,1,98.61,79.26Z"/><path class="cls-26" d="M90.89,63.09a2.11,2.11,0,0,0-.67.66L86.9,68.33a.45.45,0,0,0-.19.11,21.34,21.34,0,0,0-2.84,3.71.57.57,0,0,0-.11.33c0,.17.18.27.33.36s.51.3.74.45c1.71,1.5,4.91,5,5.39,5.36,2.49,1.93,5.7,3,7.2-1.1a12.22,12.22,0,0,0-4.89-14.13A1.81,1.81,0,0,0,90.89,63.09Zm-.57,14.48c-.18-.14-.84-.77-1.64-1.53l.15,0-.44-.32c0-.06-.11-.11-.17-.17l.61.49a3.37,3.37,0,0,0,.34.09.47.47,0,0,0,.54-.65,3.55,3.55,0,0,0-1.45-1.24,1.93,1.93,0,0,1-.82-.78.05.05,0,0,1,0,0c2.82.61,7.54,1.22,9.28,1.66a8.24,8.24,0,0,1-.41,1.53C95.05,80.07,92.38,79.17,90.32,77.57Zm6.46-3a35.46,35.46,0,0,1-5.8-.87c-1-.22-2.43-.71-3.72-.91a.91.91,0,0,1,.14-.43C90,71.46,92.6,69.93,95,68.9a2.09,2.09,0,0,0,.61-.36A10.42,10.42,0,0,1,96.78,74.56Zm-4.54-9.64a9.53,9.53,0,0,1,2.94,2.92L90.77,70a1,1,0,0,0,0-.25,1,1,0,0,0-.4-.8,1.46,1.46,0,0,0-1.75.3,3.56,3.56,0,0,1-1.4.89.41.41,0,0,1-.27,0,.26.26,0,0,1-.11-.12l3.47-4.81a1.61,1.61,0,0,1,.55-.55A1.49,1.49,0,0,1,92.24,64.92Z"/><polygon class="cls-26" points="88.83 76.09 88.83 76.09 88.83 76.09 88.83 76.09"/><path class="cls-27" d="M89.32,71.2a1.49,1.49,0,0,0,.67-.54.59.59,0,0,0-.15-.78.87.87,0,0,0-.69,0c-.45.16-2.77.87-2.67,1.51C86.62,72.41,88.89,71.41,89.32,71.2Z"/><path class="cls-27" d="M88.29,75.07c.14.12.29.28.26.46a.37.37,0,0,1-.47.25,1.12,1.12,0,0,1-.49-.34,9.46,9.46,0,0,1-1.77-2.17C86.52,73.1,87.76,74.62,88.29,75.07Z"/><path class="cls-27" d="M89.8,72.28a5.16,5.16,0,0,0,1,.88c.42.29,1,.48,1.38.11A.79.79,0,0,0,92,72.21a1.71,1.71,0,0,0-1.13-.3,2.49,2.49,0,0,0-1.09.37"/><path class="cls-28" d="M91,72.26a1.13,1.13,0,0,1,.7.2.47.47,0,0,1,.21.38.41.41,0,0,1-.42.31A1,1,0,0,1,91,73a2.67,2.67,0,0,1-.66-.5C90.44,72.27,90.81,72.27,91,72.26Z"/><path class="cls-27" d="M88.14,69.26a4.92,4.92,0,0,0,.92-1c.3-.4.52-1,.16-1.37a.77.77,0,0,0-1.06.12,1.66,1.66,0,0,0-.35,1.11,2.46,2.46,0,0,0,.33,1.1"/><path class="cls-28" d="M88.17,68a1.14,1.14,0,0,1,.22-.69.45.45,0,0,1,.39-.19.4.4,0,0,1,.3.42,1.12,1.12,0,0,1-.21.52,2.92,2.92,0,0,1-.52.64C88.16,68.62,88.17,68.25,88.17,68Z"/><path class="cls-27" d="M85.21,73a4.87,4.87,0,0,0,.92-1c.3-.41.51-1,.15-1.37a.77.77,0,0,0-1.06.11,1.62,1.62,0,0,0-.34,1.11,2.42,2.42,0,0,0,.33,1.1"/><path class="cls-28" d="M85.24,71.81a1.08,1.08,0,0,1,.22-.7.46.46,0,0,1,.38-.19.4.4,0,0,1,.3.42.92.92,0,0,1-.21.52,2.7,2.7,0,0,1-.52.64C85.23,72.38,85.23,72,85.24,71.81Z"/><path class="cls-27" d="M90.47,76.67a5.2,5.2,0,0,0,1,.88c.41.29,1,.48,1.37.11a.78.78,0,0,0-.15-1.06,1.7,1.7,0,0,0-1.13-.3,2.29,2.29,0,0,0-1.08.37"/><path class="cls-28" d="M91.69,76.65a1.17,1.17,0,0,1,.7.2.43.43,0,0,1,.2.38.39.39,0,0,1-.41.31,1,1,0,0,1-.53-.19,2.89,2.89,0,0,1-.65-.5C91.11,76.66,91.47,76.66,91.69,76.65Z"/><path class="cls-27" d="M90.3,69.4a4.64,4.64,0,0,0,1.17-.5c.41-.25.83-.71.64-1.15a.73.73,0,0,0-1-.29,1.55,1.55,0,0,0-.72.85,2.48,2.48,0,0,0-.12,1.09"/><path class="cls-28" d="M90.78,68.34a1,1,0,0,1,.45-.53.4.4,0,0,1,.41,0,.37.37,0,0,1,.11.48,1.06,1.06,0,0,1-.38.38,3.06,3.06,0,0,1-.69.37C90.56,68.84,90.7,68.52,90.78,68.34Z"/><path class="cls-29" d="M91,68.25a.05.05,0,0,0,0,0,.31.31,0,0,0,.19,0l.26-.08c.31-.1.2-.47-.09-.41C91.26,67.79,90.88,68.13,91,68.25Z"/><path class="cls-27" d="M89.23,74.89a5,5,0,0,0,1.1.62c.45.18,1.07.24,1.3-.18a.75.75,0,0,0-.35-1,1.65,1.65,0,0,0-1.12-.05,2.32,2.32,0,0,0-.93.57"/><path class="cls-28" d="M90.36,74.62a1.08,1.08,0,0,1,.69,0,.41.41,0,0,1,.27.31.37.37,0,0,1-.32.37,1,1,0,0,1-.53-.07,2.41,2.41,0,0,1-.71-.33C89.82,74.75,90.16,74.67,90.36,74.62Z"/><path class="cls-29" d="M90.54,74.72a.13.13,0,0,0,0,.06.35.35,0,0,0,.13.14l.23.16c.26.18.49-.12.27-.32S90.59,74.58,90.54,74.72Z"/><path class="cls-24" d="M82.57,38.79a.73.73,0,0,1-.55-.87l2.86-12.34a2.25,2.25,0,0,1,.44-1,2.13,2.13,0,0,1,2-.39A14.63,14.63,0,0,1,99.21,37.49c.23,5.23-3.8,5.51-7.44,4.54C91,41.82,84.76,39.25,82.57,38.79Z"/><path class="cls-25" d="M98.93,38.73a8.49,8.49,0,0,1,0,1.25,6.6,6.6,0,0,0,.31-2.49A14.63,14.63,0,0,0,87.28,24.15a4.36,4.36,0,0,0-.81-.06A16.24,16.24,0,0,1,98.93,38.73Z"/><path class="cls-26" d="M85.57,26.8a1.92,1.92,0,0,0-.36.87c-.44,1.9-.87,3.7-1.3,5.5a.44.44,0,0,0-.13.18,21.27,21.27,0,0,0-1.19,4.51.52.52,0,0,0,0,.35c.08.15.27.18.43.21l.87.12c2.15.72,6.45,2.71,7,2.87,3,.81,6.41.58,6.21-3.79a12.2,12.2,0,0,0-10-11.15A1.78,1.78,0,0,0,85.57,26.8Zm5.06,13.58c-.22-.06-1.07-.39-2.1-.78h.15l-.52-.14-.23-.08.75.22.35-.05a.47.47,0,0,0,.25-.81,3.57,3.57,0,0,0-1.82-.59,2,2,0,0,1-1.06-.39l0,0c2.84-.54,7.43-1.79,9.2-2.06a8.25,8.25,0,0,1,.22,1.57C96,40.86,93.15,41.06,90.63,40.38Zm4.79-5.28a34.5,34.5,0,0,1-5.68,1.44c-1,.19-2.51.29-3.78.6a1,1,0,0,1,0-.46c2-1.8,3.86-4.24,5.66-6.1A2,2,0,0,0,92,30,10.37,10.37,0,0,1,95.42,35.1ZM87.51,28a9.5,9.5,0,0,1,3.84,1.55q-1.6,1.86-3.23,3.7A2.25,2.25,0,0,0,88,33a1.06,1.06,0,0,0-.69-.58c-.67-.16-1.18.4-1.49,1a3.59,3.59,0,0,1-1,1.36.38.38,0,0,1-.25.09.21.21,0,0,1-.15-.07c.45-1.93.89-3.85,1.34-5.77a1.5,1.5,0,0,1,.3-.72A1.48,1.48,0,0,1,87.51,28Z"/><polygon class="cls-26" points="88.68 39.59 88.68 39.59 88.69 39.59 88.68 39.59"/><path class="cls-27" d="M87.25,34.89a1.46,1.46,0,0,0,.41-.76.6.6,0,0,0-.44-.67.86.86,0,0,0-.62.29c-.37.33-2.22,1.87-1.89,2.43C85.22,37,86.93,35.25,87.25,34.89Z"/><path class="cls-27" d="M87.79,38.85c.18.06.38.14.42.32a.38.38,0,0,1-.34.42,1.1,1.1,0,0,1-.58-.13,9.22,9.22,0,0,1-2.46-1.31C85.4,37.72,87.13,38.64,87.79,38.85Z"/><path class="cls-27" d="M88.11,35.69a5.09,5.09,0,0,0,1.26.44c.49.1,1.14,0,1.3-.43a.76.76,0,0,0-.54-.92,1.68,1.68,0,0,0-1.16.15c-.44.21-.52.41-.86.76"/><path class="cls-28" d="M89.23,35.21a1.13,1.13,0,0,1,.72-.09.47.47,0,0,1,.34.27.41.41,0,0,1-.26.45,1.07,1.07,0,0,1-.56,0,2.69,2.69,0,0,1-.8-.2C88.7,35.44,89,35.29,89.23,35.21Z"/><path class="cls-27" d="M85.41,33.55a4.69,4.69,0,0,0,.48-1.24c.12-.49.09-1.14-.38-1.32a.78.78,0,0,0-.94.51,1.61,1.61,0,0,0,.12,1.16c.19.46.38.54.72.89"/><path class="cls-28" d="M85,32.42a1.15,1.15,0,0,1-.06-.73.43.43,0,0,1,.28-.32.4.4,0,0,1,.44.27,1,1,0,0,1,0,.56,2.66,2.66,0,0,1-.23.79C85.18,33,85.05,32.61,85,32.42Z"/><path class="cls-27" d="M84.16,38.15a5.42,5.42,0,0,0,.48-1.23c.12-.49.08-1.14-.39-1.33a.77.77,0,0,0-.93.52,1.62,1.62,0,0,0,.11,1.16c.19.45.39.53.73.88"/><path class="cls-28" d="M83.72,37a1.09,1.09,0,0,1-.07-.73.48.48,0,0,1,.28-.32.39.39,0,0,1,.44.28,1.06,1.06,0,0,1,0,.56,2.93,2.93,0,0,1-.23.78C83.93,37.56,83.79,37.22,83.72,37Z"/><path class="cls-27" d="M90.42,39.48a5.17,5.17,0,0,0,1.25.44c.5.1,1.14,0,1.31-.43a.78.78,0,0,0-.55-.92,1.61,1.61,0,0,0-1.15.16c-.45.2-.52.4-.86.75"/><path class="cls-28" d="M91.54,39a1.12,1.12,0,0,1,.72-.09.44.44,0,0,1,.33.27.39.39,0,0,1-.26.45,1.06,1.06,0,0,1-.56,0,3.07,3.07,0,0,1-.79-.21C91,39.23,91.34,39.09,91.54,39Z"/><path class="cls-27" d="M87.46,32.85a5.11,5.11,0,0,0,.88-.92c.29-.38.5-1,.15-1.3a.73.73,0,0,0-1,.1,1.56,1.56,0,0,0-.33,1.07,2.4,2.4,0,0,0,.31,1.05"/><path class="cls-28" d="M87.49,31.68a1.05,1.05,0,0,1,.22-.66.42.42,0,0,1,.36-.18.38.38,0,0,1,.29.4.93.93,0,0,1-.21.5,2.85,2.85,0,0,1-.49.61C87.48,32.23,87.49,31.88,87.49,31.68Z"/><path class="cls-29" d="M87.63,31.53h.06a.3.3,0,0,0,.17-.1l.21-.17c.24-.22,0-.51-.24-.35S87.5,31.45,87.63,31.53Z"/><path class="cls-27" d="M88.59,38.32a4.44,4.44,0,0,0,1.26.15c.48,0,1.07-.19,1.13-.67a.74.74,0,0,0-.7-.74,1.55,1.55,0,0,0-1,.38c-.37.28-.4.48-.64.88"/><path class="cls-28" d="M89.53,37.64a1.06,1.06,0,0,1,.66-.23.44.44,0,0,1,.36.18.39.39,0,0,1-.15.48,1.08,1.08,0,0,1-.51.14,3,3,0,0,1-.79,0C89.08,38,89.37,37.76,89.53,37.64Z"/><path class="cls-29" d="M89.74,37.66a.05.05,0,0,0,0,.05.27.27,0,0,0,.17.08l.27.06c.32.06.41-.3.13-.4C90.22,37.4,89.72,37.51,89.74,37.66Z"/><path class="cls-24" d="M75.29,83.34a.72.72,0,0,1,.91-.48l12.06,3.9a2.15,2.15,0,0,1,1,.52,2.13,2.13,0,0,1,.23,2A14.61,14.61,0,0,1,75.18,100c-5.23-.2-5.17-4.25-3.9-7.79C71.56,91.47,74.65,85.48,75.29,83.34Z"/><path class="cls-25" d="M74,99.64a9.08,9.08,0,0,1-1.24-.13,6.57,6.57,0,0,0,2.45.51,14.61,14.61,0,0,0,14.3-10.75,5.34,5.34,0,0,0,.13-.8A16.24,16.24,0,0,1,74,99.64Z"/><path class="cls-26" d="M87,87.34a1.9,1.9,0,0,0-.83-.44l-5.37-1.75a.47.47,0,0,0-.17-.15,21,21,0,0,0-4.4-1.56.53.53,0,0,0-.35,0c-.15.07-.2.26-.24.42s-.13.58-.2.85c-.9,2.09-3.24,6.2-3.45,6.78-1.07,3-1.12,6.34,3.25,6.51a12.22,12.22,0,0,0,12-9A1.79,1.79,0,0,0,87,87.34ZM73,91.23c.08-.21.48-1,1-2v.15l.17-.51c0-.07.07-.15.11-.22-.09.23-.18.48-.28.73a2.06,2.06,0,0,0,0,.35.47.47,0,0,0,.78.32,3.53,3.53,0,0,0,.74-1.76,2.09,2.09,0,0,1,.48-1l0,0c.29,2.87,1.15,7.54,1.27,9.34a9.25,9.25,0,0,1-1.58.08C72.1,96.5,72.14,93.69,73,91.23Zm4.86,5.23a34.45,34.45,0,0,1-.95-5.79c-.11-1-.08-2.52-.28-3.82a1,1,0,0,1,.46,0C78.73,89,81,91.05,82.71,93a2,2,0,0,0,.53.47A10.35,10.35,0,0,1,77.88,96.46Zm7.78-7.28a9.51,9.51,0,0,1-1.88,3.69l-3.41-3.53a1.05,1.05,0,0,0,.24-.06,1,1,0,0,0,.64-.64c.22-.65-.3-1.21-.82-1.56A3.62,3.62,0,0,1,79.15,86a.37.37,0,0,1-.06-.25.22.22,0,0,1,.08-.15l5.64,1.82a1.58,1.58,0,0,1,.69.36A1.53,1.53,0,0,1,85.66,89.18Z"/><polygon class="cls-26" points="73.98 89.36 73.98 89.36 73.98 89.37 73.98 89.36"/><path class="cls-27" d="M78.78,88.33a1.51,1.51,0,0,0,.73.47.58.58,0,0,0,.69-.38.86.86,0,0,0-.23-.65c-.29-.39-1.68-2.37-2.26-2.08C76.81,86.13,78.45,88,78.78,88.33Z"/><path class="cls-27" d="M74.79,88.53c-.08.17-.18.37-.36.4s-.37-.18-.38-.38a1,1,0,0,1,.17-.56,8.94,8.94,0,0,1,1.52-2.35C76.11,86.25,75.06,87.89,74.79,88.53Z"/><path class="cls-27" d="M77.91,89.12a4.67,4.67,0,0,0-.54,1.21c-.15.49-.14,1.14.32,1.34a.77.77,0,0,0,1-.46A1.69,1.69,0,0,0,78.59,90c-.17-.46-.36-.55-.68-.92"/><path class="cls-28" d="M78.29,90.27a1.08,1.08,0,0,1,0,.73.45.45,0,0,1-.3.31A.39.39,0,0,1,77.6,91a1.07,1.07,0,0,1,0-.56,2.67,2.67,0,0,1,.27-.78C78.11,89.73,78.23,90.07,78.29,90.27Z"/><path class="cls-27" d="M80.27,86.61a4.89,4.89,0,0,0,1.19.59c.48.15,1.13.17,1.35-.28a.76.76,0,0,0-.43-1,1.63,1.63,0,0,0-1.17,0c-.46.15-.56.34-.94.65"/><path class="cls-28" d="M81.43,86.27a1.11,1.11,0,0,1,.74,0,.44.44,0,0,1,.29.3.39.39,0,0,1-.31.42,1.08,1.08,0,0,1-.56,0,3.34,3.34,0,0,1-.76-.3C80.88,86.43,81.23,86.33,81.43,86.27Z"/><path class="cls-27" d="M75.79,85a5.25,5.25,0,0,0,1.19.58c.48.16,1.13.18,1.35-.28a.76.76,0,0,0-.43-1,1.63,1.63,0,0,0-1.17,0c-.47.15-.56.34-.94.66"/><path class="cls-28" d="M77,84.63a1.08,1.08,0,0,1,.73,0,.43.43,0,0,1,.3.3.41.41,0,0,1-.31.42,1.07,1.07,0,0,1-.56,0,3.17,3.17,0,0,1-.76-.3C76.4,84.8,76.75,84.69,77,84.63Z"/><path class="cls-27" d="M73.93,91.1a5.46,5.46,0,0,0-.54,1.21c-.14.48-.14,1.14.32,1.34a.76.76,0,0,0,1-.47,1.61,1.61,0,0,0,0-1.16c-.17-.46-.36-.55-.69-.92"/><path class="cls-28" d="M74.32,92.25a1.15,1.15,0,0,1,0,.73.45.45,0,0,1-.3.31.41.41,0,0,1-.43-.29,1.11,1.11,0,0,1,0-.57,2.61,2.61,0,0,1,.27-.77C74.13,91.71,74.25,92.05,74.32,92.25Z"/><path class="cls-27" d="M80.8,88.71a4.48,4.48,0,0,0,.83,1c.36.32.93.57,1.29.26a.73.73,0,0,0,0-1,1.52,1.52,0,0,0-1-.42,2.36,2.36,0,0,0-1.07.22"/><path class="cls-28" d="M82,88.84a1,1,0,0,1,.65.27.44.44,0,0,1,.15.38.39.39,0,0,1-.43.25,1,1,0,0,1-.48-.24,2.66,2.66,0,0,1-.56-.55C81.41,88.78,81.75,88.82,82,88.84Z"/><path class="cls-29" d="M82.1,89a.08.08,0,0,0,0,0,.33.33,0,0,0,.08.18l.16.22c.19.26.51,0,.37-.21S82.19,88.87,82.1,89Z"/><path class="cls-27" d="M75.24,89.37A4.79,4.79,0,0,0,75,90.61c0,.48.1,1.09.57,1.19a.73.73,0,0,0,.8-.64,1.55,1.55,0,0,0-.29-1.07c-.25-.4-.45-.44-.83-.72"/><path class="cls-28" d="M75.84,90.37A1,1,0,0,1,76,91a.45.45,0,0,1-.22.35.37.37,0,0,1-.45-.19,1,1,0,0,1-.1-.52,2.88,2.88,0,0,1,.1-.78C75.56,89.9,75.74,90.2,75.84,90.37Z"/><path class="cls-29" d="M75.81,90.58l-.06,0a.31.31,0,0,0-.09.17l-.08.26c-.09.31.27.43.39.16S76,90.57,75.81,90.58Z"/><path class="cls-24" d="M49.06,86.48a.72.72,0,0,1,.95.39l4.81,11.72a2.35,2.35,0,0,1,.25,1.09c-.08.7-.75,1.15-1.38,1.46a14.6,14.6,0,0,1-17.44-4c-3.23-4.13-.1-6.69,3.43-8C40.44,88.88,47,87.37,49.06,86.48Z"/><path class="cls-25" d="M35.75,96a11,11,0,0,1-.7-1,6.73,6.73,0,0,0,1.2,2.2,14.6,14.6,0,0,0,17.44,4,3.61,3.61,0,0,0,.7-.42A16.24,16.24,0,0,1,35.75,96Z"/><path class="cls-26" d="M53.55,98a1.87,1.87,0,0,0-.2-.92c-.74-1.8-1.44-3.52-2.13-5.23a.45.45,0,0,0,0-.23,21.31,21.31,0,0,0-1.64-4.37.58.58,0,0,0-.23-.26.54.54,0,0,0-.47.08l-.78.4c-2.17.66-6.83,1.52-7.4,1.74-3,1.09-5.56,3.24-2.87,6.69A12.21,12.21,0,0,0,52.4,99.21C52.93,99,53.49,98.57,53.55,98Zm-12-8.14c.22-.08,1.1-.3,2.17-.58l-.12.1.51-.2.23-.06-.74.26a2.84,2.84,0,0,0-.26.24.47.47,0,0,0,.27.8,3.55,3.55,0,0,0,1.82-.57,1.93,1.93,0,0,1,1.1-.29h0c-2,2.08-5,5.76-6.31,7a8.55,8.55,0,0,1-1.09-1.16C36.94,92.54,39.11,90.76,41.56,89.85Zm-.85,7.07a34.39,34.39,0,0,1,3.81-4.46c.7-.73,1.87-1.68,2.73-2.68a1,1,0,0,1,.29.36c-.59,2.63-.69,5.68-1.08,8.25a1.88,1.88,0,0,0,0,.71A10.31,10.31,0,0,1,40.71,96.92Zm10.58,1.25a9.54,9.54,0,0,1-4,1c.16-1.63.33-3.26.5-4.88l.2.14a1,1,0,0,0,.89.07c.64-.25.74-1,.67-1.63a3.63,3.63,0,0,1,0-1.67.39.39,0,0,1,.15-.21.25.25,0,0,1,.17,0l2.25,5.48a1.57,1.57,0,0,1,.17.76C52.19,97.63,51.73,98,51.29,98.17Z"/><polygon class="cls-26" points="43.61 89.37 43.61 89.37 43.61 89.37 43.61 89.37"/><path class="cls-27" d="M47.5,92.37a1.49,1.49,0,0,0,.11.86.59.59,0,0,0,.74.28.84.84,0,0,0,.34-.6c.11-.47.73-2.81.13-3.07C47.91,89.44,47.55,91.89,47.5,92.37Z"/><path class="cls-27" d="M44.76,89.45a.58.58,0,0,1-.53,0,.38.38,0,0,1,0-.53,1.08,1.08,0,0,1,.55-.23,8.69,8.69,0,0,1,2.77-.36C47.37,89,45.43,89.24,44.76,89.45Z"/><path class="cls-27" d="M46.33,92.21a5,5,0,0,0-1.27.37c-.46.2-1,.63-.82,1.11a.78.78,0,0,0,1,.43,1.64,1.64,0,0,0,.85-.79,2.37,2.37,0,0,0,.26-1.12"/><path class="cls-28" d="M45.7,93.25a1.16,1.16,0,0,1-.54.49.41.41,0,0,1-.43,0,.39.39,0,0,1,0-.51,1.12,1.12,0,0,1,.45-.35,3.5,3.5,0,0,1,.76-.29C46,92.76,45.81,93.07,45.7,93.25Z"/><path class="cls-27" d="M49.77,92.4a4.73,4.73,0,0,0,.33,1.28c.18.47.59,1,1.08.86a.78.78,0,0,0,.46-1,1.64,1.64,0,0,0-.76-.88,2.49,2.49,0,0,0-1.11-.3"/><path class="cls-28" d="M50.79,93.06a1.12,1.12,0,0,1,.47.56.44.44,0,0,1,0,.42.41.41,0,0,1-.52,0,1.09,1.09,0,0,1-.33-.46,2.69,2.69,0,0,1-.26-.77C50.3,92.75,50.61,93,50.79,93.06Z"/><path class="cls-27" d="M48.13,87.92a5.11,5.11,0,0,0,.32,1.28c.19.47.6,1,1.08.86a.77.77,0,0,0,.47-1,1.62,1.62,0,0,0-.77-.88,2.41,2.41,0,0,0-1.1-.3"/><path class="cls-28" d="M49.15,88.58a1.12,1.12,0,0,1,.47.56.44.44,0,0,1,0,.42.41.41,0,0,1-.52,0,1.09,1.09,0,0,1-.33-.46,3.07,3.07,0,0,1-.27-.77C48.66,88.27,49,88.47,49.15,88.58Z"/><path class="cls-27" d="M42.25,90.46a4.85,4.85,0,0,0-1.27.37c-.46.2-1,.62-.82,1.11a.78.78,0,0,0,1,.43,1.62,1.62,0,0,0,.85-.8,2.33,2.33,0,0,0,.26-1.11"/><path class="cls-28" d="M41.62,91.5a1.08,1.08,0,0,1-.54.49.44.44,0,0,1-.42,0,.41.41,0,0,1,0-.52,1,1,0,0,1,.44-.34,2.66,2.66,0,0,1,.77-.29C41.92,91,41.73,91.32,41.62,91.5Z"/><path class="cls-27" d="M48.51,94.16a4.79,4.79,0,0,0-.19,1.25c0,.48.16,1.08.63,1.15a.74.74,0,0,0,.77-.67,1.54,1.54,0,0,0-.35-1.06c-.27-.38-.47-.42-.86-.67"/><path class="cls-28" d="M49.16,95.12a1.16,1.16,0,0,1,.21.67.4.4,0,0,1-.2.35.36.36,0,0,1-.46-.16,1,1,0,0,1-.13-.52,2.87,2.87,0,0,1,.06-.78C48.85,94.66,49.05,95,49.16,95.12Z"/><path class="cls-29" d="M49.13,95.33l-.05,0a.3.3,0,0,0-.08.18l-.07.26c-.07.32.29.42.4.15S49.28,95.32,49.13,95.33Z"/><path class="cls-27" d="M44.42,90.34a4.61,4.61,0,0,0-1.11.61c-.39.28-.77.78-.54,1.2a.74.74,0,0,0,1,.2,1.58,1.58,0,0,0,.64-.91,2.4,2.4,0,0,0,0-1.1"/><path class="cls-28" d="M44.05,91.44a1.08,1.08,0,0,1-.41.57.42.42,0,0,1-.4.06.39.39,0,0,1-.15-.47,1,1,0,0,1,.34-.41,2.72,2.72,0,0,1,.65-.43C44.22,90.92,44.11,91.25,44.05,91.44Z"/><path class="cls-29" d="M43.86,91.55a.05.05,0,0,0,0,0,.33.33,0,0,0-.19,0l-.25.11c-.29.13-.16.48.13.4C43.62,92,44,91.66,43.86,91.55Z"/><path class="cls-12" d="M71.92,84.44A11.77,11.77,0,1,1,57.45,76.2,11.78,11.78,0,0,1,71.92,84.44Z"/><path class="cls-13" d="M70.61,84.8a10.42,10.42,0,1,1-12.8-7.29A10.42,10.42,0,0,1,70.61,84.8Z"/><path class="cls-13" d="M70.61,84.8a10.42,10.42,0,1,1-12.8-7.29A10.42,10.42,0,0,1,70.61,84.8Z"/><path class="cls-14" d="M51.43,88.25a8.57,8.57,0,0,0,1.67,5.18A6.52,6.52,0,0,0,57.8,96a3.5,3.5,0,0,0,1.89-.38c.41-.24.75-.59,1.15-.86,1-.65,2.26-.73,3.25-1.38,1.47-1,1.92-2.91,2.08-4.67a13.45,13.45,0,0,0-.31-4.94A6.5,6.5,0,0,0,63,79.86a7.56,7.56,0,0,0-4.81-.63,6.47,6.47,0,0,0-4.8,3.06A10.27,10.27,0,0,0,51.43,88.25Z"/><path class="cls-15" d="M70.61,84.8a10.42,10.42,0,0,0-10.33-7.65A10.41,10.41,0,0,1,62.67,97.6,10.63,10.63,0,0,1,60.2,98a10.53,10.53,0,0,0,3.12-.37A10.42,10.42,0,0,0,70.61,84.8Z"/><path class="cls-16" d="M56.36,80.88c-.88,1.66.24,2.18.78,2.08a1.15,1.15,0,0,0,.85-.89,1.69,1.69,0,0,0-.28-1.25,1,1,0,0,0-.59-.46c-.26,0-.51.06-.76.52"/><path class="cls-16" d="M56.76,91.88c-1.88,0-1.84,1.2-1.5,1.64a1.15,1.15,0,0,0,1.18.35,1.67,1.67,0,0,0,1-.81,1,1,0,0,0,.14-.74c-.07-.25-.28-.43-.8-.44"/><path class="cls-16" d="M53.31,88.74c-1.29-1.36-2.14-.48-2.21.07a1.13,1.13,0,0,0,.57,1.09,1.69,1.69,0,0,0,1.27.14,1,1,0,0,0,.62-.42c.13-.22.11-.49-.25-.88"/><path class="cls-16" d="M57.69,89.2c-.63-.68-1-.24-1.09,0a.57.57,0,0,0,.28.54.86.86,0,0,0,.63.07.53.53,0,0,0,.31-.21c.06-.11,0-.24-.13-.43"/><path class="cls-16" d="M61.4,84c-.51-.54-.84-.19-.87,0a.46.46,0,0,0,.23.43.69.69,0,0,0,.49,0,.44.44,0,0,0,.25-.16c0-.09,0-.2-.1-.35"/><path class="cls-16" d="M59.25,93.6c.29-.87-.29-1-.54-.95a.58.58,0,0,0-.35.5.86.86,0,0,0,.23.59.49.49,0,0,0,.33.17c.13,0,.24-.06.33-.31"/><path class="cls-16" d="M65.36,80.44c.3-.88-.28-1-.54-1a.56.56,0,0,0-.34.5.82.82,0,0,0,.23.58.46.46,0,0,0,.33.18c.12,0,.24-.07.32-.31"/><path class="cls-16" d="M69.16,87.1c.3-.87-.28-1-.54-.95a.56.56,0,0,0-.34.5.86.86,0,0,0,.23.59.49.49,0,0,0,.33.17c.12,0,.24-.06.32-.31"/><path class="cls-16" d="M53.24,83.3c.3-.87-.28-1-.53-1a.55.55,0,0,0-.35.5.86.86,0,0,0,.23.59.49.49,0,0,0,.33.17c.13,0,.24-.06.32-.31"/><path class="cls-16" d="M64.36,94.69c.24-.7-.22-.83-.43-.76a.45.45,0,0,0-.27.4.66.66,0,0,0,.19.47.35.35,0,0,0,.25.14c.11,0,.2,0,.26-.25"/><path class="cls-16" d="M67.44,89.86c-1.88,0-1.83,1.2-1.49,1.63a1.15,1.15,0,0,0,1.18.35,1.67,1.67,0,0,0,1-.81,1,1,0,0,0,.14-.74c-.07-.25-.28-.42-.81-.43"/><path class="cls-17" d="M58.16,84.93A.91.91,0,0,0,57.88,86a1,1,0,0,0,1,.52,1.05,1.05,0,0,0,.85-.77,1,1,0,0,0-.43-1.12.83.83,0,0,0-1.12.29"/><path class="cls-17" d="M60.56,93.29a.89.89,0,0,0-.28,1.09,1,1,0,0,0,1,.52,1.08,1.08,0,0,0,.85-.78A1,1,0,0,0,61.7,93a.83.83,0,0,0-1.12.29"/><path class="cls-18" d="M54.12,85.44A1.36,1.36,0,0,0,53,86.65a1.47,1.47,0,0,0,.94,1.43,1.59,1.59,0,0,0,1.68-.39,1.52,1.52,0,0,0,.26-1.78c-.34-.56-.79-.63-1.71-.47"/><path class="cls-18" d="M60,88.36a1.36,1.36,0,0,0-1.17,1.22A1.47,1.47,0,0,0,59.73,91a1.6,1.6,0,0,0,1.68-.39,1.5,1.5,0,0,0,.25-1.78c-.33-.55-.78-.63-1.7-.47"/><path class="cls-18" d="M61.28,80.76a1,1,0,0,0-.23-1.26,1.11,1.11,0,0,0-1.3-.06,1.23,1.23,0,0,0-.5,1.21,1.15,1.15,0,0,0,1,.95c.49.05.73-.2,1-.84"/><path class="cls-18" d="M64.84,90a1,1,0,0,0-.23-1.26,1.11,1.11,0,0,0-1.3-.06,1.22,1.22,0,0,0-.51,1.21,1.16,1.16,0,0,0,1,1c.49,0,.74-.2,1.05-.84"/><path class="cls-18" d="M64.22,86.45A1,1,0,0,0,64,85.19a1.13,1.13,0,0,0-1.3-.06,1.25,1.25,0,0,0-.5,1.22,1.16,1.16,0,0,0,1,1c.49,0,.73-.21,1-.85"/><path class="cls-18" d="M65.63,82.48a1.35,1.35,0,0,0-1.17,1.21,1.47,1.47,0,0,0,.94,1.43,1.62,1.62,0,0,0,1.68-.39A1.5,1.5,0,0,0,67.33,83c-.33-.56-.78-.63-1.7-.47"/><circle class="cls-12" cx="51.07" cy="23.97" r="11.77" transform="translate(13.22 65.8) rotate(-73.01)"/><path class="cls-13" d="M61.11,21.22a10.41,10.41,0,1,1-12.79-7.29A10.42,10.42,0,0,1,61.11,21.22Z"/><path class="cls-13" d="M61.11,21.22a10.41,10.41,0,1,1-12.79-7.29A10.42,10.42,0,0,1,61.11,21.22Z"/><path class="cls-14" d="M41.94,24.66a8.54,8.54,0,0,0,1.66,5.18,6.49,6.49,0,0,0,4.71,2.58,3.51,3.51,0,0,0,1.89-.37c.41-.24.75-.59,1.14-.86,1-.66,2.26-.74,3.25-1.38,1.48-1,1.92-2.91,2.08-4.67a13.5,13.5,0,0,0-.3-4.95,6.54,6.54,0,0,0-2.88-3.91,7.56,7.56,0,0,0-4.81-.64,6.5,6.5,0,0,0-4.8,3.06A10.25,10.25,0,0,0,41.94,24.66Z"/><path class="cls-15" d="M61.11,21.22a10.42,10.42,0,0,0-10.32-7.66A10.42,10.42,0,0,1,53.17,34a10.53,10.53,0,0,1-2.47.36A10.4,10.4,0,0,0,61.11,21.22Z"/><path class="cls-16" d="M46.87,17.3c-.88,1.66.23,2.18.77,2.07a1.13,1.13,0,0,0,.85-.89,1.65,1.65,0,0,0-.27-1.24,1,1,0,0,0-.6-.46c-.25-.05-.5,0-.75.52"/><path class="cls-16" d="M47.26,28.3c-1.88,0-1.83,1.2-1.5,1.63a1.13,1.13,0,0,0,1.19.35,1.67,1.67,0,0,0,1-.81,1,1,0,0,0,.14-.74c-.08-.25-.28-.42-.81-.43"/><path class="cls-16" d="M43.82,25.16c-1.29-1.37-2.14-.48-2.22.06a1.16,1.16,0,0,0,.57,1.1,1.7,1.7,0,0,0,1.27.13,1,1,0,0,0,.63-.41c.13-.23.11-.5-.25-.88"/><path class="cls-16" d="M48.2,25.61c-.64-.67-1.06-.23-1.09,0a.54.54,0,0,0,.28.53.79.79,0,0,0,.62.07.45.45,0,0,0,.31-.2c.07-.12.06-.25-.12-.44"/><path class="cls-16" d="M51.91,20.43c-.51-.54-.84-.19-.87,0a.43.43,0,0,0,.22.43.62.62,0,0,0,.5.05.36.36,0,0,0,.25-.16c.05-.09,0-.19-.1-.34"/><path class="cls-16" d="M49.75,30c.3-.88-.28-1.05-.54-.95a.55.55,0,0,0-.34.5.85.85,0,0,0,.23.58.46.46,0,0,0,.33.18c.12,0,.24-.07.32-.31"/><path class="cls-16" d="M55.87,16.86c.3-.88-.29-1-.54-.95a.58.58,0,0,0-.35.5.82.82,0,0,0,.24.58.46.46,0,0,0,.32.18c.13,0,.24-.07.33-.31"/><path class="cls-16" d="M59.67,23.52c.3-.88-.29-1.05-.54-.95a.56.56,0,0,0-.35.5.82.82,0,0,0,.24.58.46.46,0,0,0,.32.18c.13,0,.24-.07.33-.31"/><path class="cls-16" d="M43.75,19.72c.3-.88-.28-1-.54-.95a.55.55,0,0,0-.34.5.81.81,0,0,0,.23.58.5.5,0,0,0,.33.18c.12,0,.24-.07.32-.31"/><path class="cls-16" d="M54.87,31.11c.24-.7-.23-.84-.43-.76a.44.44,0,0,0-.27.4.65.65,0,0,0,.18.46.41.41,0,0,0,.26.15c.1,0,.19-.06.26-.25"/><path class="cls-16" d="M58,26.27c-1.88,0-1.84,1.2-1.5,1.63a1.14,1.14,0,0,0,1.18.36,1.69,1.69,0,0,0,1-.82,1,1,0,0,0,.15-.74c-.08-.24-.29-.42-.81-.43"/><path class="cls-17" d="M48.67,21.35a.91.91,0,0,0-.28,1.09,1,1,0,0,0,1,.52,1.09,1.09,0,0,0,.85-.78,1,1,0,0,0-.44-1.12.83.83,0,0,0-1.11.3"/><path class="cls-17" d="M51.06,29.71a.91.91,0,0,0-.28,1.09,1,1,0,0,0,1,.52,1.08,1.08,0,0,0,.85-.78,1,1,0,0,0-.43-1.12.84.84,0,0,0-1.12.3"/><path class="cls-18" d="M44.63,21.86a1.34,1.34,0,0,0-1.17,1.21,1.48,1.48,0,0,0,.93,1.43,1.64,1.64,0,0,0,1.69-.4,1.52,1.52,0,0,0,.25-1.78c-.33-.55-.79-.62-1.7-.46"/><path class="cls-18" d="M50.46,24.78A1.34,1.34,0,0,0,49.3,26a1.45,1.45,0,0,0,.93,1.43A1.63,1.63,0,0,0,51.92,27a1.53,1.53,0,0,0,.25-1.79c-.33-.55-.79-.62-1.71-.46"/><path class="cls-18" d="M51.79,17.17a1,1,0,0,0-.23-1.26,1.13,1.13,0,0,0-1.3-.06,1.24,1.24,0,0,0-.51,1.22,1.17,1.17,0,0,0,1,.95c.49,0,.74-.21,1-.85"/><path class="cls-18" d="M55.34,26.43a1,1,0,0,0-.23-1.26,1.13,1.13,0,0,0-1.3-.06,1.23,1.23,0,0,0-.5,1.22,1.15,1.15,0,0,0,1,1c.49,0,.74-.21,1.05-.85"/><path class="cls-18" d="M54.73,22.87a1,1,0,0,0-.23-1.26,1.11,1.11,0,0,0-1.3-.06,1.23,1.23,0,0,0-.51,1.21,1.18,1.18,0,0,0,1,1c.49,0,.74-.21,1-.85"/><path class="cls-18" d="M56.13,18.89A1.35,1.35,0,0,0,55,20.11a1.46,1.46,0,0,0,.93,1.43,1.64,1.64,0,0,0,1.69-.4,1.52,1.52,0,0,0,.25-1.78c-.33-.55-.79-.62-1.71-.47"/></g></g></svg>