<svg xmlns="http://www.w3.org/2000/svg" viewBox="0 0 117.3 117.35"><defs><style>.cls-1{fill:#bd6706;}.cls-2{fill:#aa5907;}.cls-3{fill:#fcb519;}.cls-4{fill:#a70411;}.cls-5{fill:#f22128;}.cls-6{fill:#f9b63b;}.cls-7{fill:#fcd147;}.cls-8{fill:#ffa329;}.cls-9{fill:#fc9317;}.cls-10{fill:#a4030b;}.cls-11{fill:#c81018;}.cls-12,.cls-26{fill:none;stroke-miterlimit:10;}.cls-12{stroke:#ff6540;stroke-width:1.09px;}.cls-13{fill:#ff7957;}.cls-14{fill:#ff9280;}.cls-15{fill:#f9aea1;}.cls-16{fill:#ff6540;}.cls-17{fill:#88b600;}.cls-18{fill:#76a800;}.cls-19{fill:#97be1e;}.cls-20{fill:#1b1c1b;}.cls-21{fill:#313130;}.cls-22{fill:#49494a;}.cls-23{fill:#383838;}.cls-24{fill:#515254;}.cls-25{fill:#6d737c;}.cls-26{stroke:#f6e6b7;stroke-width:2.65px;}.cls-27{fill:#aacc19;}</style></defs><title>Ресурс 7</title><g id="Слой_2" data-name="Слой 2"><g id="OBJECTS"><path class="cls-1" d="M0,58.64C0,34.37,6.36,17.94,27.37,9c7-3,23.15-9,31.27-9A58.65,58.65,0,0,1,77.79,3.2c10.09,3.48,25,11.4,31.71,19.39,8.62,10.21,7.78,21.64,7.78,36.05,0,32.38-16.85,56.63-58.64,58.64C22.09,119,0,91,0,58.64Z"/><path class="cls-2" d="M84.51,13.62c7.46,2.7,14.32,7.44,18.71,14a44.1,44.1,0,0,1,4.67,9.8,45.24,45.24,0,0,1,2.19,8.39,64.48,64.48,0,0,1,0,14.23,102.17,102.17,0,0,1-1.56,13.08,51.07,51.07,0,0,1-11.79,23.4c-1.43,1.6-3.06,3.41-2.83,5.54,3.72.49,7.44-1.46,9.92-4.27s3.92-6.37,5.14-9.91a110.18,110.18,0,0,0,5.8-40.59c-.23-5-.82-10.09-2.75-14.72-2.42-5.79-6.78-10.54-11.3-14.9C94.54,11.78,87.35,6.06,78.83,5.28a29.88,29.88,0,0,1-5.09-.52c-1.31-.37-2.8-1.78-4.09-1.88-2.43-.19-3.56,1.83-2.34,3.66C70.21,10.89,80,12,84.51,13.62Z"/><path class="cls-3" d="M4.55,58.64c0-22.39,5.88-37.55,25.3-45.78,6.5-2.75,21.39-8.32,28.9-8.32a54.27,54.27,0,0,1,17.7,3C85.77,10.71,99.52,18,105.76,25.38c8,9.42,7.19,20,7.19,33.26,0,29.88-15.57,52.25-54.2,54.1C25,114.36,4.55,88.52,4.55,58.64Z"/><path class="cls-4" d="M8.56,58.64C8.56,37.91,14,23.87,32,16.25,38,13.7,51.8,8.54,58.75,8.54a50.23,50.23,0,0,1,16.39,2.74c8.63,3,21.37,9.74,27.14,16.56,7.38,8.73,6.66,18.49,6.66,30.8,0,27.67-14.42,48.39-50.19,50.1C27.46,110.25,8.56,86.31,8.56,58.64Z"/><path class="cls-5" d="M10.85,58.65c0-19.79,5.19-33.19,22.36-40.46,5.74-2.43,18.91-7.36,25.54-7.36a47.87,47.87,0,0,1,15.64,2.61c8.24,2.84,20.4,9.3,25.9,15.81,7,8.33,6.36,17.65,6.36,29.4,0,26.4-13.76,46.17-47.9,47.81C28.89,107.89,10.85,85.05,10.85,58.65Z"/><path class="cls-6" d="M29.1,25.38C42.84,13.12,55.37,8.43,71.05,15.85,76.3,18.33,91.71,25.1,95.82,29.7c3.4,3.81,8.16,7,10,11.42,3.13,7.48.19,20.32-.92,28.18-1.42,10-6.31,16.53-14.47,23.81-18.34,16.36-46,18.59-66.31-2.16C4.67,71.08,10.76,41.74,29.1,25.38Z"/><path class="cls-7" d="M33.31,95.29c3.28,2.27,7.28,4.1,11.16,3.21,1.32-.3,2.71-1.09,3-2.41s-.78-2.64-1.75-3.65a34.34,34.34,0,0,0-5.78-5.2C36.45,85,32,83.77,29.74,80.3c-1.39-2.14-1.7-4.77-2.38-7.23a24.09,24.09,0,0,0-6.75-11.15c-7.56-7-3,12.26-1.92,14.88A41.14,41.14,0,0,0,33.31,95.29Z"/><path class="cls-7" d="M6.33,68.48c.14,1.19.43,2.55,1.5,3.09a4.53,4.53,0,0,0,.53-3.33C7.89,64,7,59.84,7.41,55.63,7.68,52.58,9,49,8.3,46,3.68,47,5.91,64.93,6.33,68.48Z"/><path class="cls-7" d="M12.5,28.47a1.12,1.12,0,0,0-.09.67c.12.45.78.56,1.18.3a2.5,2.5,0,0,0,.8-1.15,21.37,21.37,0,0,1,2.81-4.62,10.48,10.48,0,0,1,3.21-2.87c1-.54,2.16-.81,3.22-1.27a8,8,0,0,0,3-2.21C21.53,13.92,14,24.55,12.5,28.47Z"/><path class="cls-8" d="M24.31,48.79c-1.77,6.53-.23,14.45,5.41,18.19,2.14,1.42,4.75,2.17,6.61,4,2.52,2.41,3.32,6.41,6.27,8.29,3.81,2.44,8.82,0,13.33.45,2.56.24,4.92,1.41,7.39,2.12,6.15,1.77,13.25.47,18-3.85s6.59-11.71,3.95-17.54a14.13,14.13,0,0,1-1.46-3.68c-.38-2.61,1.43-5,2.41-7.43,1.74-4.4.77-9.42-.92-13.83C84,32.05,82,28.57,78.59,27.18A12.52,12.52,0,0,0,73,26.52,29.44,29.44,0,0,0,58.1,31.77a9.13,9.13,0,0,1-2.53,1.45c-3.61,1.07-6.86-2.83-10.09-3.81-2.84-.86-6.38-.91-9,.62C30.86,33.31,25.92,42.85,24.31,48.79Z"/><path class="cls-9" d="M31.69,60.94a15.08,15.08,0,0,0,2.75,6C38.59,72,46.24,72,52.79,71.51A26.83,26.83,0,0,0,61,70.08c6-2.41,9.44-8.79,11.13-15,1.19-4.36,1.77-9,.74-13.4-3.08-13.18-18.2-13.27-28.7-9.21S29.09,50.73,31.69,60.94Z"/><path class="cls-10" d="M88.42,72.68c1.64-3.76,5.64-5.65,8.93-4.21s4.62,5.66,3,9.42-5.65,5.65-8.94,4.21S86.77,76.44,88.42,72.68Z"/><path class="cls-11" d="M88.17,72.3c1.65-3.76,5.41-5.75,8.4-4.44S100.66,73.28,99,77s-5.41,5.75-8.4,4.44S86.52,76.06,88.17,72.3Z"/><path class="cls-12" d="M97.76,72A2.72,2.72,0,0,0,97,69.9a3.56,3.56,0,0,0-3.92,0,6.56,6.56,0,0,0-2.33,2.94,9.07,9.07,0,0,0-1.15,4.35,2.13,2.13,0,0,0,1.07,1.9,3.5,3.5,0,0,0,2.43,0C97.09,78,97.84,75.11,97.76,72Z"/><path class="cls-13" d="M95,74.65a2.51,2.51,0,0,0,.44.35c.18.11.45.17.58,0a.33.33,0,0,0-.09-.45.66.66,0,0,0-.48-.09c-.21,0-.27.09-.45.18"/><path class="cls-14" d="M95.55,74.61a.44.44,0,0,1,.3.07.18.18,0,0,1,.1.15.16.16,0,0,1-.17.14.43.43,0,0,1-.22-.06,1.49,1.49,0,0,1-.29-.2C95.31,74.63,95.46,74.62,95.55,74.61Z"/><path class="cls-15" d="M95.63,74.67s0,0,0,0a.1.1,0,0,0,0,.07l.09.09c.11.09.23,0,.14-.13S95.66,74.61,95.63,74.67Z"/><path class="cls-13" d="M94.1,76.16a1.8,1.8,0,0,0-.25.5c-.07.2-.09.47.1.57a.32.32,0,0,0,.42-.18.69.69,0,0,0,0-.49c-.06-.2-.14-.24-.27-.4"/><path class="cls-14" d="M94.24,76.65a.55.55,0,0,1,0,.31.2.2,0,0,1-.14.13.17.17,0,0,1-.17-.14.44.44,0,0,1,0-.23,1.33,1.33,0,0,1,.13-.33C94.17,76.42,94.21,76.57,94.24,76.65Z"/><path class="cls-15" d="M94.2,76.74h0l-.06.06-.06.1c-.07.13.06.22.15.12S94.26,76.75,94.2,76.74Z"/><path class="cls-13" d="M93.32,73a2.59,2.59,0,0,0,0-.56c0-.21-.19-.45-.4-.43a.33.33,0,0,0-.26.37.72.72,0,0,0,.26.42,1.15,1.15,0,0,0,.45.2"/><path class="cls-14" d="M92.94,72.61a.43.43,0,0,1-.16-.26.19.19,0,0,1,0-.18.18.18,0,0,1,.22,0,.46.46,0,0,1,.11.22,1.21,1.21,0,0,1,.06.34C93.12,72.77,93,72.67,92.94,72.61Z"/><path class="cls-15" d="M92.93,72.52a0,0,0,0,0,0,0,.11.11,0,0,0,0-.08V72.3c0-.14-.16-.15-.18,0S92.86,72.54,92.93,72.52Z"/><path class="cls-13" d="M95,71.53a2,2,0,0,0,.54-.12c.2-.08.42-.25.37-.45a.33.33,0,0,0-.4-.21.74.74,0,0,0-.38.32,1,1,0,0,0-.13.46"/><path class="cls-14" d="M95.29,71.11a.52.52,0,0,1,.24-.2.19.19,0,0,1,.18,0,.17.17,0,0,1,0,.22.38.38,0,0,1-.19.14,2.13,2.13,0,0,1-.33.11C95.16,71.31,95.25,71.18,95.29,71.11Z"/><path class="cls-15" d="M95.39,71.09h0s.06,0,.09,0l.12,0c.14,0,.12-.19,0-.18S95.36,71,95.39,71.09Z"/><path class="cls-13" d="M92.55,73.58a2.07,2.07,0,0,0-.34-.44c-.15-.16-.39-.29-.56-.16a.33.33,0,0,0,0,.45.72.72,0,0,0,.44.22,1,1,0,0,0,.48-.07"/><path class="cls-14" d="M92.05,73.49a.47.47,0,0,1-.28-.14.18.18,0,0,1,0-.17.16.16,0,0,1,.19-.1.46.46,0,0,1,.21.13,1.37,1.37,0,0,1,.23.25C92.29,73.53,92.13,73.51,92.05,73.49Z"/><path class="cls-15" d="M92,73.42s0,0,0,0a.41.41,0,0,0,0-.08l-.07-.1a.09.09,0,1,0-.17.08C91.76,73.35,91.94,73.47,92,73.42Z"/><path class="cls-13" d="M92.46,75.43a2.32,2.32,0,0,0-.46-.31c-.19-.09-.47-.14-.58,0a.32.32,0,0,0,.12.43.68.68,0,0,0,.49.06c.2,0,.25-.11.43-.22"/><path class="cls-14" d="M92,75.51a.45.45,0,0,1-.3,0,.17.17,0,0,1-.11-.15.17.17,0,0,1,.16-.15.4.4,0,0,1,.23,0,1,1,0,0,1,.3.17C92.19,75.47,92,75.5,92,75.51Z"/><path class="cls-15" d="M91.87,75.46a0,0,0,0,0,0,0s0,0-.05-.06l-.09-.08c-.11-.09-.22,0-.13.13S91.85,75.52,91.87,75.46Z"/><path class="cls-13" d="M92.24,76.65a2.67,2.67,0,0,0-.56.06c-.2.05-.44.19-.42.4a.32.32,0,0,0,.38.25.73.73,0,0,0,.41-.26,1.14,1.14,0,0,0,.19-.45"/><path class="cls-14" d="M91.9,77a.48.48,0,0,1-.26.16.23.23,0,0,1-.18,0,.18.18,0,0,1,0-.22.47.47,0,0,1,.21-.11,1.37,1.37,0,0,1,.34-.07C92.06,76.85,92,77,91.9,77Z"/><path class="cls-15" d="M91.81,77.05l0,0a.11.11,0,0,0-.08,0h-.12c-.14,0-.15.17,0,.18S91.83,77.11,91.81,77.05Z"/><path class="cls-13" d="M92.91,76.64a2.42,2.42,0,0,0-.34.45c-.11.18-.17.45,0,.58a.32.32,0,0,0,.44-.1.68.68,0,0,0,.09-.48,1,1,0,0,0-.19-.45"/><path class="cls-14" d="M93,77.15a.54.54,0,0,1-.06.31.22.22,0,0,1-.15.1.19.19,0,0,1-.15-.17.49.49,0,0,1,.06-.23,1.12,1.12,0,0,1,.19-.29C92.93,76.91,93,77.07,93,77.15Z"/><path class="cls-15" d="M92.9,77.23h0s0,0-.07,0l-.08.09c-.1.1,0,.22.12.14S93,77.26,92.9,77.23Z"/><path class="cls-13" d="M94.55,75.53a2.15,2.15,0,0,0,.14.54c.08.19.26.41.46.36a.35.35,0,0,0,.2-.41.74.74,0,0,0-.33-.37,1,1,0,0,0-.47-.12"/><path class="cls-14" d="M95,75.8a.47.47,0,0,1,.2.24.15.15,0,0,1-.23.19.38.38,0,0,1-.14-.19,1.18,1.18,0,0,1-.12-.33C94.78,75.67,94.91,75.76,95,75.8Z"/><path class="cls-15" d="M95,75.89l0,0A.14.14,0,0,0,95,76l0,.12c0,.14.19.12.18,0S95.07,75.86,95,75.89Z"/><path class="cls-13" d="M93.77,72.05a2,2,0,0,0,.14-.54c0-.21,0-.48-.22-.54a.33.33,0,0,0-.37.26.71.71,0,0,0,.1.49c.11.18.19.2.35.33"/><path class="cls-14" d="M93.53,71.6a.46.46,0,0,1-.06-.3.16.16,0,0,1,.3-.06.45.45,0,0,1,0,.23,1.35,1.35,0,0,1-.06.35C93.65,71.81,93.57,71.68,93.53,71.6Z"/><path class="cls-15" d="M93.55,71.51h0a.25.25,0,0,0,0-.07l0-.12a.09.09,0,1,0-.17-.08S93.48,71.5,93.55,71.51Z"/><path class="cls-13" d="M95.68,73.49a2.11,2.11,0,0,0,.56,0c.22,0,.47-.13.48-.34a.34.34,0,0,0-.34-.3.73.73,0,0,0-.45.21,1,1,0,0,0-.25.42"/><path class="cls-14" d="M96.07,73.15a.52.52,0,0,1,.28-.13.22.22,0,0,1,.17.07.17.17,0,0,1,0,.21.43.43,0,0,1-.22.09,1.36,1.36,0,0,1-.35,0C95.89,73.31,96,73.21,96.07,73.15Z"/><path class="cls-15" d="M96.16,73.15s0,0,0,0a.11.11,0,0,0,.08,0h.12c.14,0,.17-.15,0-.18S96.15,73.09,96.16,73.15Z"/><path class="cls-16" d="M92.3,74.69c.14.22.49.25.58.48a1.14,1.14,0,0,1,0,.37c.07.77,1.3.6,1.67.2a.78.78,0,0,0,.13-.79.91.91,0,0,0,0-.67l0,0,.25,0a1.39,1.39,0,0,0,1-1.21,1,1,0,0,0-1-1.08.92.92,0,0,1-.4,0,1.36,1.36,0,0,1-.21-.1c-.32-.12-.63.29-.67.65a5.72,5.72,0,0,1-.05,1.1c0,.08-.07.15-.1.23s-.23-.07-.35-.09a.79.79,0,0,0-.9.67A.54.54,0,0,0,92.3,74.69Z"/><path class="cls-10" d="M79,84.48c3.75,1.68,5.61,5.69,4.14,9S77.47,98,73.72,96.36s-5.6-5.69-4.14-9S75.27,82.81,79,84.48Z"/><path class="cls-11" d="M79.4,84.24c3.75,1.67,5.71,5.45,4.38,8.43s-5.45,4-9.2,2.38-5.71-5.46-4.38-8.44S75.65,82.57,79.4,84.24Z"/><path class="cls-12" d="M79.64,93.83a2.74,2.74,0,0,0,2.1-.75,3.59,3.59,0,0,0,0-3.92,6.6,6.6,0,0,0-2.93-2.35,9.06,9.06,0,0,0-4.34-1.19,2.12,2.12,0,0,0-1.9,1.06,3.49,3.49,0,0,0,0,2.43C73.65,93.12,76.52,93.89,79.64,93.83Z"/><path class="cls-13" d="M77,91.09a2.51,2.51,0,0,0-.35.44c-.11.18-.18.45,0,.58a.31.31,0,0,0,.44-.09.66.66,0,0,0,.1-.48c0-.21-.08-.26-.18-.45"/><path class="cls-14" d="M77,91.61a.46.46,0,0,1-.07.3.2.2,0,0,1-.16.09c-.08,0-.13-.09-.14-.17a.44.44,0,0,1,.07-.22,1.49,1.49,0,0,1,.2-.29C77,91.36,77,91.52,77,91.61Z"/><path class="cls-15" d="M77,91.68h0a.1.1,0,0,0-.07,0l-.08.08c-.1.11,0,.23.12.14S77,91.71,77,91.68Z"/><path class="cls-13" d="M75.5,90.14a2.16,2.16,0,0,0-.5-.26c-.2-.07-.47-.08-.57.11a.32.32,0,0,0,.17.41.72.72,0,0,0,.5,0c.2-.06.24-.14.4-.27"/><path class="cls-14" d="M75,90.28a.47.47,0,0,1-.31,0,.19.19,0,0,1-.13-.13.18.18,0,0,1,.14-.18.36.36,0,0,1,.23,0,1.13,1.13,0,0,1,.32.13C75.24,90.21,75.09,90.25,75,90.28Z"/><path class="cls-15" d="M74.92,90.24v0s0,0-.06-.06l-.11-.06c-.12-.08-.21.06-.11.14S74.9,90.3,74.92,90.24Z"/><path class="cls-13" d="M78.71,89.38a2.69,2.69,0,0,0,.56,0c.2,0,.45-.18.43-.39a.34.34,0,0,0-.37-.27.72.72,0,0,0-.42.26,1,1,0,0,0-.2.44"/><path class="cls-14" d="M79.06,89a.46.46,0,0,1,.26-.15.22.22,0,0,1,.18,0,.17.17,0,0,1,0,.22.39.39,0,0,1-.21.11,1,1,0,0,1-.34,0C78.89,89.18,79,89.07,79.06,89Z"/><path class="cls-15" d="M79.15,89a0,0,0,0,0,0,0,.11.11,0,0,0,.08,0h.12c.14,0,.15-.16,0-.18S79.13,88.93,79.15,89Z"/><path class="cls-13" d="M80.12,91.08a2.08,2.08,0,0,0,.12.55c.08.2.24.42.45.37a.33.33,0,0,0,.21-.4.74.74,0,0,0-.32-.38,1.18,1.18,0,0,0-.46-.14"/><path class="cls-14" d="M80.54,91.37a.45.45,0,0,1,.19.24.19.19,0,0,1,0,.18.17.17,0,0,1-.22,0,.43.43,0,0,1-.13-.19,1,1,0,0,1-.1-.33C80.34,91.24,80.47,91.32,80.54,91.37Z"/><path class="cls-15" d="M80.56,91.46a0,0,0,0,1,0,0s0,.06,0,.09l0,.12c0,.14.18.12.18,0S80.62,91.44,80.56,91.46Z"/><path class="cls-13" d="M78.09,88.61a2.36,2.36,0,0,0,.45-.33c.15-.15.28-.39.16-.56a.33.33,0,0,0-.45,0,.63.63,0,0,0-.22.44,1,1,0,0,0,.06.48"/><path class="cls-14" d="M78.18,88.11a.53.53,0,0,1,.14-.28.2.2,0,0,1,.18,0,.17.17,0,0,1,.09.2.41.41,0,0,1-.12.2,1.43,1.43,0,0,1-.26.23C78.14,88.35,78.17,88.19,78.18,88.11Z"/><path class="cls-15" d="M78.26,88.05h0a.19.19,0,0,0,.08,0l.1-.06c.13-.08,0-.23-.08-.17S78.21,88,78.26,88.05Z"/><path class="cls-13" d="M76.24,88.51a2.32,2.32,0,0,0,.31-.46c.1-.19.15-.47,0-.59a.32.32,0,0,0-.43.13.72.72,0,0,0-.07.48,1.08,1.08,0,0,0,.22.44"/><path class="cls-14" d="M76.16,88a.57.57,0,0,1,0-.31.18.18,0,0,1,.15-.1.16.16,0,0,1,.15.15.52.52,0,0,1-.05.24,1.78,1.78,0,0,1-.17.3C76.2,88.24,76.18,88.09,76.16,88Z"/><path class="cls-15" d="M76.22,87.92h0a.18.18,0,0,0,.07,0l.07-.1c.1-.11,0-.22-.13-.13S76.15,87.9,76.22,87.92Z"/><path class="cls-13" d="M75,88.28a2.09,2.09,0,0,0,0-.56c0-.21-.19-.45-.4-.43a.34.34,0,0,0-.26.38.74.74,0,0,0,.27.41,1,1,0,0,0,.44.2"/><path class="cls-14" d="M74.64,87.94a.47.47,0,0,1-.16-.27.15.15,0,0,1,0-.17.16.16,0,0,1,.22,0,.39.39,0,0,1,.11.21,1.35,1.35,0,0,1,.06.34C74.82,88.1,74.71,88,74.64,87.94Z"/><path class="cls-15" d="M74.63,87.84h0a.28.28,0,0,0,0-.09v-.12c0-.14-.17-.15-.18,0S74.56,87.86,74.63,87.84Z"/><path class="cls-13" d="M75,89a2.48,2.48,0,0,0-.45-.35c-.18-.1-.45-.17-.58,0a.33.33,0,0,0,.1.44.71.71,0,0,0,.48.1A1.27,1.27,0,0,0,75,89"/><path class="cls-14" d="M74.51,89a.46.46,0,0,1-.3-.06.2.2,0,0,1-.1-.15.19.19,0,0,1,.17-.15.41.41,0,0,1,.23.07,1.08,1.08,0,0,1,.29.18C74.76,89,74.6,89,74.51,89Z"/><path class="cls-15" d="M74.44,88.94v0a.18.18,0,0,0,0-.07l-.09-.08c-.1-.1-.22,0-.14.12S74.41,89,74.44,88.94Z"/><path class="cls-13" d="M76.13,90.6a1.94,1.94,0,0,0-.54.13c-.2.08-.42.25-.36.46a.33.33,0,0,0,.4.2.7.7,0,0,0,.37-.33,1,1,0,0,0,.13-.46"/><path class="cls-14" d="M75.85,91a.59.59,0,0,1-.24.2.19.19,0,0,1-.18,0,.18.18,0,0,1,0-.22.43.43,0,0,1,.19-.14,1.07,1.07,0,0,1,.33-.11C76,90.82,75.9,91,75.85,91Z"/><path class="cls-15" d="M75.76,91.05l0,0a.21.21,0,0,0-.08,0l-.12,0a.1.1,0,1,0,0,.19S75.79,91.11,75.76,91.05Z"/><path class="cls-13" d="M79.61,89.85a2,2,0,0,0,.54.14c.21,0,.49,0,.54-.22a.33.33,0,0,0-.26-.37.69.69,0,0,0-.48.1c-.18.1-.21.19-.34.35"/><path class="cls-14" d="M80.07,89.61a.46.46,0,0,1,.3-.06.2.2,0,0,1,.15.1c0,.07,0,.16-.1.2a.58.58,0,0,1-.23,0,.94.94,0,0,1-.34-.07C79.85,89.72,80,89.65,80.07,89.61Z"/><path class="cls-15" d="M80.16,89.63v0a.14.14,0,0,0,.08,0l.11,0a.09.09,0,1,0,.08-.17C80.38,89.54,80.16,89.56,80.16,89.63Z"/><path class="cls-13" d="M78.16,91.74a2.12,2.12,0,0,0,0,.56c0,.22.12.47.34.48a.33.33,0,0,0,.3-.34.68.68,0,0,0-.21-.44c-.14-.16-.23-.16-.41-.26"/><path class="cls-14" d="M78.49,92.13a.52.52,0,0,1,.13.28.19.19,0,0,1-.07.17.16.16,0,0,1-.21,0,.49.49,0,0,1-.08-.23,1,1,0,0,1,0-.34C78.33,92,78.43,92.07,78.49,92.13Z"/><path class="cls-15" d="M78.49,92.23h0s0,.05,0,.08v.12c0,.14.15.17.18,0S78.56,92.21,78.49,92.23Z"/><path class="cls-16" d="M77,88.36c-.21.13-.25.48-.49.57a1.08,1.08,0,0,1-.36,0c-.77.06-.61,1.29-.21,1.67a.77.77,0,0,0,.79.13.88.88,0,0,0,.66,0l0,0c0,.09,0,.17,0,.26a1.4,1.4,0,0,0,1.2,1,1,1,0,0,0,1.09-1,.9.9,0,0,1,0-.4c0-.07.07-.13.09-.2.13-.33-.27-.64-.64-.68a5.71,5.71,0,0,1-1.1-.06l-.22-.11c0-.11.07-.23.09-.34a.81.81,0,0,0-.67-.91A.48.48,0,0,0,77,88.36Z"/><path class="cls-10" d="M44.39,85.43c3.75,1.67,5.6,5.69,4.14,9S42.84,99,39.09,97.3s-5.61-5.69-4.14-9S40.64,83.75,44.39,85.43Z"/><path class="cls-11" d="M44.77,85.18c3.75,1.68,5.71,5.45,4.38,8.44S43.7,97.66,40,96s-5.71-5.45-4.38-8.44S41,83.51,44.77,85.18Z"/><path class="cls-12" d="M45,94.77A2.71,2.71,0,0,0,47.1,94a3.57,3.57,0,0,0,0-3.92,6.65,6.65,0,0,0-2.93-2.35,9,9,0,0,0-4.34-1.18,2.09,2.09,0,0,0-1.9,1.05,3.49,3.49,0,0,0,0,2.43C39,94.06,41.89,94.83,45,94.77Z"/><path class="cls-13" d="M42.37,92a2.12,2.12,0,0,0-.35.44c-.11.18-.18.45,0,.58a.32.32,0,0,0,.44-.08.7.7,0,0,0,.1-.49,1.15,1.15,0,0,0-.18-.45"/><path class="cls-14" d="M42.41,92.55a.53.53,0,0,1-.07.3.18.18,0,0,1-.16.09.15.15,0,0,1-.14-.16.48.48,0,0,1,.07-.23,1.12,1.12,0,0,1,.19-.29C42.39,92.3,42.4,92.46,42.41,92.55Z"/><path class="cls-15" d="M42.35,92.62h0a.18.18,0,0,0-.07,0l-.08.08c-.1.11,0,.23.12.15S42.41,92.65,42.35,92.62Z"/><path class="cls-13" d="M40.87,91.08a2.34,2.34,0,0,0-.5-.25c-.2-.08-.48-.09-.57.1a.33.33,0,0,0,.17.42.69.69,0,0,0,.49,0,1,1,0,0,0,.41-.27"/><path class="cls-14" d="M40.37,91.22a.47.47,0,0,1-.31,0,.2.2,0,0,1-.12-.13.17.17,0,0,1,.14-.17.45.45,0,0,1,.23,0,1.13,1.13,0,0,1,.32.13C40.61,91.15,40.46,91.19,40.37,91.22Z"/><path class="cls-15" d="M40.29,91.18v0l-.07-.06-.1-.06c-.12-.08-.21.06-.11.14S40.27,91.24,40.29,91.18Z"/><path class="cls-13" d="M44.07,90.32a2.09,2.09,0,0,0,.56,0c.21,0,.45-.18.44-.39a.33.33,0,0,0-.37-.26.66.66,0,0,0-.42.25,1.19,1.19,0,0,0-.21.44"/><path class="cls-14" d="M44.42,90a.5.5,0,0,1,.27-.16.18.18,0,0,1,.17,0,.15.15,0,0,1,0,.21.39.39,0,0,1-.21.11,1,1,0,0,1-.34,0C44.26,90.13,44.36,90,44.42,90Z"/><path class="cls-15" d="M44.52,89.94v0h.21a.1.1,0,1,0,0-.19C44.7,89.78,44.5,89.87,44.52,89.94Z"/><path class="cls-13" d="M45.49,92a1.69,1.69,0,0,0,.12.55c.07.2.24.42.45.37a.31.31,0,0,0,.2-.4.72.72,0,0,0-.31-.38,1.18,1.18,0,0,0-.46-.14"/><path class="cls-14" d="M45.91,92.32a.45.45,0,0,1,.19.24.19.19,0,0,1,0,.18.17.17,0,0,1-.22,0,.43.43,0,0,1-.13-.19,1.07,1.07,0,0,1-.11-.33C45.71,92.18,45.84,92.27,45.91,92.32Z"/><path class="cls-15" d="M45.93,92.41s0,0,0,0a.11.11,0,0,0,0,.08v.12c0,.14.19.13.19,0S46,92.38,45.93,92.41Z"/><path class="cls-13" d="M43.46,89.56a3,3,0,0,0,.45-.34c.15-.15.28-.39.15-.56a.33.33,0,0,0-.45,0,.74.74,0,0,0-.22.44,1,1,0,0,0,.07.49"/><path class="cls-14" d="M43.55,89.05a.5.5,0,0,1,.14-.28.18.18,0,0,1,.17,0,.17.17,0,0,1,.1.2.51.51,0,0,1-.12.2,1.43,1.43,0,0,1-.26.23C43.51,89.29,43.53,89.14,43.55,89.05Z"/><path class="cls-15" d="M43.62,89h0a.13.13,0,0,0,.08,0l.1-.06c.12-.08,0-.22-.08-.17S43.57,89,43.62,89Z"/><path class="cls-13" d="M41.61,89.45a2.06,2.06,0,0,0,.31-.46c.1-.19.15-.46,0-.58a.32.32,0,0,0-.43.12.69.69,0,0,0-.07.49,1.1,1.1,0,0,0,.22.43"/><path class="cls-14" d="M41.53,88.94a.45.45,0,0,1,0-.3.17.17,0,0,1,.14-.11.18.18,0,0,1,.16.16.48.48,0,0,1-.05.23,1.33,1.33,0,0,1-.18.3C41.57,89.18,41.55,89,41.53,88.94Z"/><path class="cls-15" d="M41.58,88.86a0,0,0,0,0,0,0s0,0,.07,0l.07-.09c.09-.11,0-.22-.13-.14S41.52,88.84,41.58,88.86Z"/><path class="cls-13" d="M40.39,89.22a1.75,1.75,0,0,0-.06-.56c0-.2-.18-.44-.39-.42a.32.32,0,0,0-.26.37A.69.69,0,0,0,40,89a1,1,0,0,0,.44.19"/><path class="cls-14" d="M40,88.88a.5.5,0,0,1-.17-.26.19.19,0,0,1,0-.18.18.18,0,0,1,.22,0,.47.47,0,0,1,.11.21,1.35,1.35,0,0,1,.06.34C40.19,89,40.07,88.94,40,88.88Z"/><path class="cls-15" d="M40,88.79s0,0,0,0a.12.12,0,0,0,0-.08v-.13c0-.14-.17-.14-.19,0S39.93,88.81,40,88.79Z"/><path class="cls-13" d="M40.39,89.89a1.79,1.79,0,0,0-.44-.34c-.19-.11-.45-.17-.58,0a.33.33,0,0,0,.09.45.75.75,0,0,0,.49.09c.2,0,.26-.1.44-.19"/><path class="cls-14" d="M39.88,89.93a.46.46,0,0,1-.3-.06.2.2,0,0,1-.1-.15c0-.08.09-.14.17-.15a.44.44,0,0,1,.22.07,1.12,1.12,0,0,1,.29.19C40.12,89.91,40,89.92,39.88,89.93Z"/><path class="cls-15" d="M39.81,89.88v0a.18.18,0,0,0-.05-.07l-.09-.08c-.11-.1-.22,0-.14.12S39.78,89.94,39.81,89.88Z"/><path class="cls-13" d="M41.5,91.54a2.12,2.12,0,0,0-.55.14c-.19.08-.41.25-.36.45a.32.32,0,0,0,.41.2.72.72,0,0,0,.37-.32,1.1,1.1,0,0,0,.13-.47"/><path class="cls-14" d="M41.22,92a.52.52,0,0,1-.24.2.19.19,0,0,1-.18,0,.17.17,0,0,1,0-.22.55.55,0,0,1,.19-.14,1.28,1.28,0,0,1,.33-.11C41.35,91.76,41.27,91.89,41.22,92Z"/><path class="cls-15" d="M41.13,92h0s-.06,0-.09,0l-.12,0a.1.1,0,1,0,0,.19C41,92.18,41.16,92.05,41.13,92Z"/><path class="cls-13" d="M45,90.79a2,2,0,0,0,.54.14c.21,0,.48,0,.54-.22a.34.34,0,0,0-.26-.37.67.67,0,0,0-.48.1c-.19.1-.21.19-.34.35"/><path class="cls-14" d="M45.43,90.55a.48.48,0,0,1,.31-.06.17.17,0,0,1,.14.1.17.17,0,0,1-.09.2.48.48,0,0,1-.24,0,1.35,1.35,0,0,1-.34-.06C45.22,90.66,45.35,90.59,45.43,90.55Z"/><path class="cls-15" d="M45.52,90.57s0,0,0,0l.07,0,.12,0a.09.09,0,1,0,.08-.17S45.53,90.5,45.52,90.57Z"/><path class="cls-13" d="M43.52,92.69a2.09,2.09,0,0,0,0,.56c0,.21.12.46.33.47a.33.33,0,0,0,.31-.34.7.7,0,0,0-.21-.44c-.14-.16-.23-.16-.42-.25"/><path class="cls-14" d="M43.86,93.08a.46.46,0,0,1,.13.28.22.22,0,0,1-.07.17.17.17,0,0,1-.21,0,.38.38,0,0,1-.08-.23,1,1,0,0,1,0-.34C43.7,92.89,43.8,93,43.86,93.08Z"/><path class="cls-15" d="M43.86,93.17h0a.13.13,0,0,0,0,.08v.12c0,.15.14.17.18.05S43.93,93.16,43.86,93.17Z"/><path class="cls-16" d="M42.35,89.3c-.22.13-.25.48-.49.57a1.08,1.08,0,0,1-.36,0c-.78.06-.61,1.29-.22,1.67a.78.78,0,0,0,.79.13.91.91,0,0,0,.67,0l0,0c0,.09,0,.18.05.26a1.4,1.4,0,0,0,1.2,1,1,1,0,0,0,1.09-1,.91.91,0,0,1,0-.4,1.86,1.86,0,0,0,.1-.2c.13-.33-.28-.64-.64-.68a5.71,5.71,0,0,1-1.1-.06l-.23-.1c0-.12.07-.23.1-.35a.81.81,0,0,0-.67-.91A.47.47,0,0,0,42.35,89.3Z"/><path class="cls-10" d="M25.92,73.07c-2.93,2.87-7.35,3.11-9.86.54s-2.16-7,.78-9.85,7.36-3.11,9.87-.54S28.86,70.2,25.92,73.07Z"/><path class="cls-11" d="M26,73.51c-2.94,2.87-7.17,3.3-9.45,1S14.81,67.91,17.74,65s7.18-3.3,9.46-1S29,70.64,26,73.51Z"/><path class="cls-12" d="M17,70.19a2.71,2.71,0,0,0-.07,2.23,3.55,3.55,0,0,0,3.64,1.44A6.62,6.62,0,0,0,23.84,72a9.21,9.21,0,0,0,2.71-3.6,2.14,2.14,0,0,0-.28-2.16A3.52,3.52,0,0,0,24,65.33C19.88,64.89,18.11,67.28,17,70.19Z"/><path class="cls-13" d="M20.53,68.75a2.31,2.31,0,0,0-.28-.48c-.13-.17-.35-.34-.54-.23a.33.33,0,0,0-.08.44.7.7,0,0,0,.41.28,1,1,0,0,0,.49,0"/><path class="cls-14" d="M20,68.6a.48.48,0,0,1-.26-.18.23.23,0,0,1,0-.18.18.18,0,0,1,.21-.07.52.52,0,0,1,.18.15.94.94,0,0,1,.2.29C20.27,68.67,20.12,68.62,20,68.6Z"/><path class="cls-15" d="M20,68.52s0,0,0,0,0,0,0-.08l-.05-.11c-.06-.13-.21-.07-.18.06S19.94,68.56,20,68.52Z"/><path class="cls-13" d="M22,67.71a2.16,2.16,0,0,0,.43-.37c.14-.16.25-.41.11-.57a.32.32,0,0,0-.45,0,.67.67,0,0,0-.18.45,1.14,1.14,0,0,0,.09.48"/><path class="cls-14" d="M22,67.2a.5.5,0,0,1,.12-.29.18.18,0,0,1,.17-.06.17.17,0,0,1,.11.19.43.43,0,0,1-.11.21,1.42,1.42,0,0,1-.24.25C22,67.44,22,67.29,22,67.2Z"/><path class="cls-15" d="M22.09,67.14h0a.19.19,0,0,0,.08,0l.1-.07c.12-.09,0-.23-.09-.17S22,67.1,22.09,67.14Z"/><path class="cls-13" d="M21.49,71a2.43,2.43,0,0,0-.17.54c0,.21,0,.48.21.54a.33.33,0,0,0,.38-.24.7.7,0,0,0-.09-.49c-.09-.18-.18-.21-.33-.35"/><path class="cls-14" d="M21.71,71.43a.49.49,0,0,1,.05.31.18.18,0,0,1-.11.14.16.16,0,0,1-.19-.1.39.39,0,0,1,0-.24,1.21,1.21,0,0,1,.07-.33C21.6,71.21,21.67,71.35,21.71,71.43Z"/><path class="cls-15" d="M21.69,71.52h0a.18.18,0,0,0-.05.07l0,.11c-.06.14.1.2.16.09S21.75,71.53,21.69,71.52Z"/><path class="cls-13" d="M19.39,71.65a2.1,2.1,0,0,0-.56-.08c-.21,0-.48.07-.51.28s.13.31.3.34a.71.71,0,0,0,.47-.16c.17-.12.18-.2.3-.38"/><path class="cls-14" d="M19,71.94a.46.46,0,0,1-.3.09.16.16,0,0,1-.15-.09.15.15,0,0,1,.07-.2.46.46,0,0,1,.23-.06,1.38,1.38,0,0,1,.35,0C19.16,71.8,19,71.89,19,71.94Z"/><path class="cls-15" d="M18.87,71.93s0,0,0,0a.11.11,0,0,0-.08,0l-.12,0c-.14,0-.18.12-.06.17S18.87,72,18.87,71.93Z"/><path class="cls-13" d="M22.43,70.68a2.55,2.55,0,0,0,.15.54c.08.2.25.41.46.35a.33.33,0,0,0,.19-.41.68.68,0,0,0-.33-.36.94.94,0,0,0-.47-.12"/><path class="cls-14" d="M22.87,71a.55.55,0,0,1,.2.23.19.19,0,0,1,0,.18.16.16,0,0,1-.21,0,.47.47,0,0,1-.15-.19,1.21,1.21,0,0,1-.11-.32C22.66,70.82,22.79,70.9,22.87,71Z"/><path class="cls-15" d="M22.89,71s0,0,0,0,0,.06,0,.09l0,.11c0,.15.2.12.19,0S23,71,22.89,71Z"/><path class="cls-13" d="M23.21,69a2.32,2.32,0,0,0,.31.46c.14.16.38.3.56.19a.34.34,0,0,0,0-.45.62.62,0,0,0-.43-.24.88.88,0,0,0-.48,0"/><path class="cls-14" d="M23.71,69.11a.57.57,0,0,1,.27.16.18.18,0,0,1,0,.17.16.16,0,0,1-.2.09.53.53,0,0,1-.2-.13,1.39,1.39,0,0,1-.21-.27C23.47,69.06,23.62,69.09,23.71,69.11Z"/><path class="cls-15" d="M23.76,69.19a0,0,0,0,1,0,0,.41.41,0,0,0,0,.08l.06.1c.07.13.22,0,.17-.07S23.81,69.14,23.76,69.19Z"/><path class="cls-13" d="M23.87,68a2.09,2.09,0,0,0,.54.16c.21,0,.48,0,.54-.22a.32.32,0,0,0-.25-.37.69.69,0,0,0-.48.09c-.19.1-.21.18-.35.34"/><path class="cls-14" d="M24.33,67.72a.48.48,0,0,1,.31,0,.15.15,0,0,1,0,.3.44.44,0,0,1-.23,0,.94.94,0,0,1-.34-.07C24.11,67.83,24.25,67.76,24.33,67.72Z"/><path class="cls-15" d="M24.42,67.74s0,0,0,0l.07,0,.11,0c.14,0,.2-.1.09-.17S24.43,67.68,24.42,67.74Z"/><path class="cls-13" d="M23.25,67.71a2.12,2.12,0,0,0,.48-.29c.17-.13.33-.36.22-.54a.33.33,0,0,0-.45-.07.67.67,0,0,0-.26.41,1,1,0,0,0,0,.49"/><path class="cls-14" d="M23.4,67.22a.43.43,0,0,1,.17-.26.18.18,0,0,1,.17,0,.17.17,0,0,1,.08.21.66.66,0,0,1-.15.19,1.18,1.18,0,0,1-.28.2C23.33,67.45,23.37,67.3,23.4,67.22Z"/><path class="cls-15" d="M23.48,67.17h0l.08,0,.11-.06c.13-.06.06-.21-.06-.17S23.43,67.12,23.48,67.17Z"/><path class="cls-13" d="M21.31,68.13a2.15,2.15,0,0,0,.07-.56c0-.21-.08-.48-.29-.5a.31.31,0,0,0-.33.3.69.69,0,0,0,.16.47,1.05,1.05,0,0,0,.39.29"/><path class="cls-14" d="M21,67.71a.54.54,0,0,1-.1-.3.2.2,0,0,1,.09-.16.15.15,0,0,1,.2.07.38.38,0,0,1,.06.23,1.37,1.37,0,0,1,0,.35C21.15,67.9,21.06,67.78,21,67.71Z"/><path class="cls-15" d="M21,67.61h0s0,0,0-.08l0-.11c0-.14-.13-.19-.18-.06S21,67.62,21,67.61Z"/><path class="cls-13" d="M20.72,71.64a1.87,1.87,0,0,0-.33.45c-.1.18-.16.45,0,.58a.34.34,0,0,0,.44-.1.75.75,0,0,0,.08-.49c0-.21-.1-.26-.2-.44"/><path class="cls-14" d="M20.78,72.15a.46.46,0,0,1-.06.3.18.18,0,0,1-.15.1.17.17,0,0,1-.15-.16.6.6,0,0,1,.06-.23,1.12,1.12,0,0,1,.19-.29C20.75,71.91,20.77,72.06,20.78,72.15Z"/><path class="cls-15" d="M20.72,72.23s0,0,0,0a.18.18,0,0,0-.07,0l-.08.1c-.1.1,0,.22.13.13S20.79,72.25,20.72,72.23Z"/><path class="cls-13" d="M19.49,69.59a2,2,0,0,0-.51-.23c-.2-.06-.48,0-.57.14a.34.34,0,0,0,.21.41.7.7,0,0,0,.49,0c.19-.07.23-.16.38-.29"/><path class="cls-14" d="M19,69.75a.47.47,0,0,1-.31,0,.17.17,0,0,1-.13-.13c0-.07.05-.15.12-.18a.49.49,0,0,1,.24,0,1.83,1.83,0,0,1,.33.11C19.24,69.67,19.09,69.73,19,69.75Z"/><path class="cls-15" d="M18.92,69.72v0a.18.18,0,0,0-.07,0l-.1-.06c-.13-.07-.21.08-.11.15S18.91,69.79,18.92,69.72Z"/><path class="cls-16" d="M23.08,69.74c0-.25-.36-.41-.36-.66a1.57,1.57,0,0,1,.11-.35c.23-.74-1-1-1.47-.82a.8.8,0,0,0-.42.69.92.92,0,0,0-.21.63s0,0,0,.06l-.25,0a1.39,1.39,0,0,0-1.41.73,1,1,0,0,0,.51,1.37,1.06,1.06,0,0,1,.39.13c.05,0,.09.11.15.16.26.24.69,0,.87-.35a6,6,0,0,1,.46-1,1.49,1.49,0,0,1,.18-.17l.28.22A.81.81,0,0,0,23,70.05.48.48,0,0,0,23.08,69.74Z"/><path class="cls-10" d="M94.08,50.72c3.56-2,7.9-1.18,9.69,1.94s.35,7.29-3.21,9.34-7.9,1.18-9.69-1.93S90.52,52.77,94.08,50.72Z"/><path class="cls-11" d="M94.11,50.27c3.56-2,7.77-1.4,9.39,1.43s.06,6.79-3.5,8.83-7.77,1.41-9.39-1.42S90.55,52.32,94.11,50.27Z"/><path class="cls-12" d="M102,55.73a2.71,2.71,0,0,0,.62-2.14,3.55,3.55,0,0,0-3.17-2.3,6.58,6.58,0,0,0-3.62,1,9,9,0,0,0-3.51,2.81,2.12,2.12,0,0,0-.27,2.16,3.5,3.5,0,0,0,2,1.45C97.9,60.15,100.21,58.28,102,55.73Z"/><path class="cls-13" d="M98.23,56.25a2.55,2.55,0,0,0,.15.54c.08.19.26.41.46.35a.32.32,0,0,0,.19-.41.61.61,0,0,0-.33-.36.91.91,0,0,0-.47-.12"/><path class="cls-14" d="M98.67,56.52a.45.45,0,0,1,.2.23.19.19,0,0,1,0,.18.17.17,0,0,1-.22,0,.38.38,0,0,1-.14-.19,1.18,1.18,0,0,1-.12-.33C98.46,56.39,98.59,56.47,98.67,56.52Z"/><path class="cls-15" d="M98.7,56.61a0,0,0,0,0,0,0,.14.14,0,0,0,0,.09l0,.11c0,.14.19.12.18,0S98.76,56.58,98.7,56.61Z"/><path class="cls-13" d="M96.58,56.9a2.13,2.13,0,0,0-.5.25c-.18.12-.35.34-.26.53a.33.33,0,0,0,.44.1.72.72,0,0,0,.3-.4,1,1,0,0,0,0-.48"/><path class="cls-14" d="M96.4,57.38a.53.53,0,0,1-.19.25.19.19,0,0,1-.18,0,.17.17,0,0,1-.06-.21.46.46,0,0,1,.16-.18,1.14,1.14,0,0,1,.3-.18C96.48,57.15,96.43,57.3,96.4,57.38Z"/><path class="cls-15" d="M96.32,57.42h0l-.08,0-.11,0c-.14.05-.08.21.05.18S96.36,57.48,96.32,57.42Z"/><path class="cls-13" d="M97.85,53.86a2.15,2.15,0,0,0,.3-.48c.08-.19.12-.47-.06-.58a.33.33,0,0,0-.43.15.63.63,0,0,0,0,.49c0,.2.12.25.23.42"/><path class="cls-14" d="M97.75,53.36a.54.54,0,0,1,0-.31.17.17,0,0,1,.15-.11.16.16,0,0,1,.16.14.51.51,0,0,1,0,.24,1.3,1.3,0,0,1-.16.31C97.8,53.6,97.77,53.44,97.75,53.36Z"/><path class="cls-15" d="M97.8,53.28h0s0,0,.06-.05l.07-.1c.09-.11,0-.22-.13-.12S97.74,53.25,97.8,53.28Z"/><path class="cls-13" d="M100.06,53.72a2,2,0,0,0,.52.22c.2.06.48.06.56-.14a.33.33,0,0,0-.2-.4.69.69,0,0,0-.49,0,.93.93,0,0,0-.39.29"/><path class="cls-14" d="M100.55,53.55a.44.44,0,0,1,.3,0,.21.21,0,0,1,.14.12.17.17,0,0,1-.13.18.45.45,0,0,1-.23,0,1.83,1.83,0,0,1-.33-.11C100.32,53.64,100.46,53.58,100.55,53.55Z"/><path class="cls-15" d="M100.63,53.59s0,0,0,0,0,0,.06.06l.11.06c.12.06.21-.08.1-.16S100.64,53.52,100.63,53.59Z"/><path class="cls-13" d="M96.87,53.91a2.09,2.09,0,0,0,0-.56c0-.21-.15-.46-.36-.46a.32.32,0,0,0-.28.35.69.69,0,0,0,.22.44,1.27,1.27,0,0,0,.43.23"/><path class="cls-14" d="M96.52,53.54a.47.47,0,0,1-.14-.28.18.18,0,0,1,.06-.17.16.16,0,0,1,.21,0,.36.36,0,0,1,.09.22,1.32,1.32,0,0,1,0,.34C96.68,53.71,96.58,53.6,96.52,53.54Z"/><path class="cls-15" d="M96.51,53.44h0a.16.16,0,0,0,0-.08v-.13a.1.1,0,1,0-.19,0C96.37,53.25,96.45,53.46,96.51,53.44Z"/><path class="cls-13" d="M95.7,55.34a2.58,2.58,0,0,0-.19-.53c-.1-.18-.29-.38-.49-.31a.32.32,0,0,0-.16.42.7.7,0,0,0,.36.34,1.08,1.08,0,0,0,.48.08"/><path class="cls-14" d="M95.24,55.1a.45.45,0,0,1-.22-.21.19.19,0,0,1,0-.18.17.17,0,0,1,.22,0,.44.44,0,0,1,.15.18,1.33,1.33,0,0,1,.15.32C95.46,55.22,95.32,55.14,95.24,55.1Z"/><path class="cls-15" d="M95.21,55v0a.14.14,0,0,0,0-.09l0-.12a.1.1,0,1,0-.19,0C95,54.88,95.15,55.05,95.21,55Z"/><path class="cls-13" d="M94.79,56.19a2.08,2.08,0,0,0-.48-.28c-.2-.09-.47-.12-.58.07a.33.33,0,0,0,.15.42.69.69,0,0,0,.49,0c.21,0,.25-.12.42-.24"/><path class="cls-14" d="M94.29,56.3a.55.55,0,0,1-.31,0s-.11-.08-.11-.14A.17.17,0,0,1,94,56a.51.51,0,0,1,.24,0,1.27,1.27,0,0,1,.31.15C94.53,56.25,94.38,56.28,94.29,56.3Z"/><path class="cls-15" d="M94.21,56.25v0a.12.12,0,0,0-.06-.06l-.1-.07c-.11-.09-.22,0-.12.13S94.19,56.32,94.21,56.25Z"/><path class="cls-13" d="M95.33,56.58a2,2,0,0,0-.53.16c-.2.09-.41.26-.35.47a.34.34,0,0,0,.42.18.7.7,0,0,0,.36-.34,1,1,0,0,0,.1-.47"/><path class="cls-14" d="M95.07,57a.47.47,0,0,1-.23.21.19.19,0,0,1-.18,0,.18.18,0,0,1,0-.22.47.47,0,0,1,.19-.15,1.24,1.24,0,0,1,.32-.12C95.19,56.81,95.12,56.94,95.07,57Z"/><path class="cls-15" d="M95,57.05l0,0h-.08l-.12,0c-.14,0-.12.19,0,.18S95,57.11,95,57.05Z"/><path class="cls-13" d="M97.32,56.66a2.36,2.36,0,0,0-.21.52c0,.21,0,.48.16.56a.33.33,0,0,0,.4-.21.69.69,0,0,0,0-.49c-.07-.2-.16-.23-.3-.38"/><path class="cls-14" d="M97.5,57.14a.42.42,0,0,1,0,.31.15.15,0,0,1-.12.13.17.17,0,0,1-.18-.11.39.39,0,0,1,0-.24,1.26,1.26,0,0,1,.1-.33C97.41,56.91,97.47,57.06,97.5,57.14Z"/><path class="cls-15" d="M97.47,57.23h0a.18.18,0,0,0,0,.07l0,.11c-.07.12.08.21.15.1S97.54,57.24,97.47,57.23Z"/><path class="cls-13" d="M98.76,53.41a2.17,2.17,0,0,0,.44-.36c.14-.15.27-.4.13-.56a.32.32,0,0,0-.45,0,.67.67,0,0,0-.2.45,1,1,0,0,0,.08.48"/><path class="cls-14" d="M98.84,52.9a.41.41,0,0,1,.13-.28.16.16,0,0,1,.17-.06.17.17,0,0,1,.1.19.43.43,0,0,1-.11.21,1.48,1.48,0,0,1-.26.24C98.8,53.14,98.82,53,98.84,52.9Z"/><path class="cls-15" d="M98.91,52.84h0a.11.11,0,0,0,.08,0l.1-.07c.12-.08,0-.22-.09-.16S98.85,52.79,98.91,52.84Z"/><path class="cls-13" d="M99.44,55.7a2.07,2.07,0,0,0,.44.34c.19.11.45.18.59,0a.33.33,0,0,0-.1-.44.67.67,0,0,0-.48-.1,1,1,0,0,0-.45.19"/><path class="cls-14" d="M100,55.66a.47.47,0,0,1,.31.06.19.19,0,0,1,.09.15.17.17,0,0,1-.16.15A.48.48,0,0,1,100,56a1.12,1.12,0,0,1-.29-.19C99.71,55.68,99.86,55.66,100,55.66Z"/><path class="cls-15" d="M100,55.71a0,0,0,0,0,0,0s0,0,0,.07l.08.08c.11.1.23,0,.14-.12S100.06,55.65,100,55.71Z"/><path class="cls-16" d="M96,54.65c0,.26.24.49.18.74a1.37,1.37,0,0,1-.19.3c-.41.67.68,1.26,1.22,1.16a.77.77,0,0,0,.57-.56.89.89,0,0,0,.37-.56v-.06l.23.11a1.39,1.39,0,0,0,1.55-.36A1,1,0,0,0,99.79,54a.85.85,0,0,1-.34-.21,2,2,0,0,1-.11-.2c-.19-.29-.68-.15-.93.12s-.4.64-.7.85a.88.88,0,0,1-.21.12c-.08-.08-.14-.19-.22-.27a.8.8,0,0,0-1.13,0A.53.53,0,0,0,96,54.65Z"/><path class="cls-10" d="M87.46,39c-1-4,.94-7.93,4.42-8.83S99,31.73,100,35.7s-.94,7.93-4.41,8.84S88.5,43,87.46,39Z"/><ellipse class="cls-11" cx="92.76" cy="37.35" rx="5.92" ry="7.44" transform="translate(-6.42 24.6) rotate(-14.61)"/><path class="cls-12" d="M94.38,32.66a2.73,2.73,0,0,0-1.91-1.16,3.56,3.56,0,0,0-3,2.45,6.65,6.65,0,0,0,0,3.75,9,9,0,0,0,1.79,4.13,2.14,2.14,0,0,0,2,.83,3.55,3.55,0,0,0,1.92-1.5C97.56,37.78,96.37,35.06,94.38,32.66Z"/><path class="cls-13" d="M93.88,36.43a1.75,1.75,0,0,0,.56,0c.21,0,.47-.14.47-.35a.32.32,0,0,0-.35-.29.65.65,0,0,0-.44.22c-.15.14-.15.23-.24.42"/><path class="cls-14" d="M94.26,36.08a.49.49,0,0,1,.28-.13.18.18,0,0,1,.17.06.17.17,0,0,1,0,.22.42.42,0,0,1-.22.08,1.38,1.38,0,0,1-.35,0C94.08,36.25,94.2,36.14,94.26,36.08Z"/><path class="cls-15" d="M94.35,36.08l0,0s0,0,.08,0h.12c.14,0,.17-.15,0-.18S94.34,36,94.35,36.08Z"/><path class="cls-13" d="M94.08,38.2a2.07,2.07,0,0,0,.11.55c.07.2.23.42.44.38a.33.33,0,0,0,.21-.4.63.63,0,0,0-.3-.38,1,1,0,0,0-.46-.15"/><path class="cls-14" d="M94.49,38.5a.45.45,0,0,1,.19.24.16.16,0,0,1,0,.18.17.17,0,0,1-.21,0,.44.44,0,0,1-.13-.2,1,1,0,0,1-.1-.34C94.29,38.36,94.42,38.45,94.49,38.5Z"/><path class="cls-15" d="M94.51,38.59v0s0,.06,0,.08v.12c0,.15.18.13.19,0S94.58,38.56,94.51,38.59Z"/><path class="cls-13" d="M91.48,36.17a2.46,2.46,0,0,0-.38-.41c-.17-.13-.42-.24-.58-.09a.33.33,0,0,0,0,.45.69.69,0,0,0,.46.17,1.13,1.13,0,0,0,.47-.12"/><path class="cls-14" d="M91,36.13a.44.44,0,0,1-.29-.11.17.17,0,0,1-.07-.16.16.16,0,0,1,.18-.12.49.49,0,0,1,.22.1,1.1,1.1,0,0,1,.25.23C91.21,36.15,91.06,36.14,91,36.13Z"/><path class="cls-15" d="M90.9,36.07a0,0,0,0,0,0,0s0,0,0-.08l-.07-.09c-.09-.11-.23,0-.16.1S90.86,36.12,90.9,36.07Z"/><path class="cls-13" d="M91.93,34a2.44,2.44,0,0,0,.35-.43c.11-.19.18-.45,0-.59a.33.33,0,0,0-.44.09.7.7,0,0,0-.1.49,1.05,1.05,0,0,0,.18.44"/><path class="cls-14" d="M91.89,33.49a.46.46,0,0,1,.07-.3.16.16,0,0,1,.15-.09.17.17,0,0,1,.15.16.62.62,0,0,1-.07.23,1.49,1.49,0,0,1-.2.29C91.91,33.74,91.9,33.58,91.89,33.49Z"/><path class="cls-15" d="M92,33.42h0a.18.18,0,0,0,.07-.05l.09-.09c.1-.1,0-.22-.12-.14S91.89,33.39,92,33.42Z"/><path class="cls-13" d="M91.27,37.13a2.12,2.12,0,0,0-.55-.14c-.21,0-.48,0-.53.23a.34.34,0,0,0,.26.37.76.76,0,0,0,.48-.11c.18-.1.21-.19.34-.35"/><path class="cls-14" d="M90.81,37.37a.51.51,0,0,1-.3.07.21.21,0,0,1-.15-.11.15.15,0,0,1,.1-.19.36.36,0,0,1,.23,0,.79.79,0,0,1,.34.06C91,37.26,90.89,37.33,90.81,37.37Z"/><path class="cls-15" d="M90.72,37.35v0a.13.13,0,0,0-.07,0l-.11,0c-.14,0-.2.11-.08.17S90.72,37.42,90.72,37.35Z"/><path class="cls-13" d="M92.34,38.64a2.69,2.69,0,0,0-.56,0c-.2,0-.45.18-.43.39a.32.32,0,0,0,.37.26.67.67,0,0,0,.42-.25c.14-.15.13-.24.2-.44"/><path class="cls-14" d="M92,39a.46.46,0,0,1-.26.15.19.19,0,0,1-.18-.05.16.16,0,0,1,0-.21.39.39,0,0,1,.21-.11,1,1,0,0,1,.34,0C92.16,38.84,92.05,39,92,39Z"/><path class="cls-15" d="M91.9,39l0,0a.11.11,0,0,0-.08,0h-.12a.09.09,0,1,0,0,.18S91.92,39.09,91.9,39Z"/><path class="cls-13" d="M92.92,39.73a2.52,2.52,0,0,0-.4.4c-.13.16-.23.42-.08.57a.33.33,0,0,0,.45,0,.71.71,0,0,0,.16-.47,1.19,1.19,0,0,0-.13-.47"/><path class="cls-14" d="M92.9,40.25a.52.52,0,0,1-.11.29.17.17,0,0,1-.16.07.16.16,0,0,1-.12-.18.47.47,0,0,1,.09-.22,1.43,1.43,0,0,1,.23-.26C92.91,40,92.9,40.16,92.9,40.25Z"/><path class="cls-15" d="M92.83,40.32h0a.13.13,0,0,0-.07,0l-.09.08c-.12.09,0,.22.1.15S92.89,40.35,92.83,40.32Z"/><path class="cls-13" d="M93.44,39.32a2.11,2.11,0,0,0,0,.56c0,.21.15.46.37.45A.32.32,0,0,0,94.1,40a.7.7,0,0,0-.23-.44,1.1,1.1,0,0,0-.43-.22"/><path class="cls-14" d="M93.8,39.69a.47.47,0,0,1,.14.27.21.21,0,0,1-.06.17.18.18,0,0,1-.22,0,.54.54,0,0,1-.09-.22,1.34,1.34,0,0,1,0-.35C93.63,39.51,93.73,39.62,93.8,39.69Z"/><path class="cls-15" d="M93.8,39.78l0,0a.11.11,0,0,0,0,.08V40c0,.14.15.16.18,0S93.87,39.76,93.8,39.78Z"/><path class="cls-13" d="M94,37.42a1.9,1.9,0,0,0,.45.34c.18.1.45.17.58,0a.32.32,0,0,0-.1-.44.69.69,0,0,0-.49-.09,1,1,0,0,0-.44.19"/><path class="cls-14" d="M94.55,37.37a.43.43,0,0,1,.3.06.18.18,0,0,1,.1.15.17.17,0,0,1-.16.15.46.46,0,0,1-.23-.06,1.12,1.12,0,0,1-.29-.19C94.31,37.4,94.46,37.38,94.55,37.37Z"/><path class="cls-15" d="M94.63,37.43s0,0,0,0,0,0,.05.07l.09.08c.1.1.22,0,.13-.12S94.66,37.36,94.63,37.43Z"/><path class="cls-13" d="M91.28,35.17a2,2,0,0,0-.23-.51c-.11-.18-.31-.37-.51-.28a.33.33,0,0,0-.12.43.67.67,0,0,0,.38.32,1,1,0,0,0,.48,0"/><path class="cls-14" d="M90.81,35a.48.48,0,0,1-.24-.2.19.19,0,0,1,0-.18.17.17,0,0,1,.21-.05.35.35,0,0,1,.17.17.9.9,0,0,1,.17.3C91,35.06,90.89,35,90.81,35Z"/><path class="cls-15" d="M90.77,34.88s0,0,0,0a.11.11,0,0,0,0-.08l0-.12a.09.09,0,1,0-.18,0C90.56,34.76,90.71,34.92,90.77,34.88Z"/><path class="cls-13" d="M93.67,35.12a2.09,2.09,0,0,0,.45-.33c.15-.15.28-.39.16-.56a.33.33,0,0,0-.45,0,.67.67,0,0,0-.22.44,1,1,0,0,0,.06.48"/><path class="cls-14" d="M93.76,34.62a.48.48,0,0,1,.15-.28.18.18,0,0,1,.17-.05.16.16,0,0,1,.09.2.35.35,0,0,1-.12.2,1.43,1.43,0,0,1-.26.23C93.72,34.86,93.75,34.7,93.76,34.62Z"/><path class="cls-15" d="M93.84,34.56h0a.19.19,0,0,0,.08,0l.11-.07c.12-.07,0-.22-.09-.16S93.79,34.52,93.84,34.56Z"/><path class="cls-16" d="M91.76,38.16c.24.08.53-.11.75,0s.17.18.25.26c.54.57,1.39-.33,1.44-.87a.77.77,0,0,0-.39-.7.94.94,0,0,0-.44-.5l-.06,0a1.56,1.56,0,0,0,.16-.2,1.39,1.39,0,0,0,.07-1.58,1,1,0,0,0-1.45-.24c-.1.1-.17.23-.3.27a1.74,1.74,0,0,1-.22,0c-.33.11-.32.62-.13.93a5.08,5.08,0,0,1,.64.9,1.05,1.05,0,0,1,.06.24l-.32.14a.8.8,0,0,0-.3,1.09A.54.54,0,0,0,91.76,38.16Z"/><ellipse class="cls-10" cx="27.09" cy="43.89" rx="7.44" ry="6.5" transform="translate(-23.97 51.12) rotate(-66.38)"/><path class="cls-11" d="M20.89,40.9c1.65-3.76,5.41-5.75,8.4-4.44s4.09,5.42,2.44,9.18-5.41,5.75-8.4,4.44S19.24,44.66,20.89,40.9Z"/><path class="cls-12" d="M30.48,40.59a2.72,2.72,0,0,0-.77-2.09,3.56,3.56,0,0,0-3.92,0,6.56,6.56,0,0,0-2.33,2.94,9.07,9.07,0,0,0-1.15,4.35,2.13,2.13,0,0,0,1.07,1.9,3.5,3.5,0,0,0,2.43,0C29.81,46.59,30.56,43.71,30.48,40.59Z"/><path class="cls-13" d="M27.76,43.25a2.51,2.51,0,0,0,.44.35c.18.11.45.17.58,0a.33.33,0,0,0-.09-.45.66.66,0,0,0-.48-.09c-.21,0-.27.09-.45.18"/><path class="cls-14" d="M28.27,43.21a.44.44,0,0,1,.3.07.18.18,0,0,1,.1.15.16.16,0,0,1-.17.14.43.43,0,0,1-.22-.06,1.49,1.49,0,0,1-.29-.2C28,43.23,28.18,43.22,28.27,43.21Z"/><path class="cls-15" d="M28.35,43.27s0,0,0,0a.1.1,0,0,0,0,.07l.09.09c.11.09.23,0,.14-.13S28.38,43.21,28.35,43.27Z"/><path class="cls-13" d="M26.82,44.76a1.8,1.8,0,0,0-.25.5c-.07.2-.09.47.1.57a.32.32,0,0,0,.42-.18.69.69,0,0,0,0-.49c-.06-.2-.14-.24-.27-.4"/><path class="cls-14" d="M27,45.25a.55.55,0,0,1,0,.31.2.2,0,0,1-.14.13.17.17,0,0,1-.17-.14.44.44,0,0,1,0-.23A1.33,1.33,0,0,1,26.8,45C26.89,45,26.93,45.17,27,45.25Z"/><path class="cls-15" d="M26.92,45.34h0l-.06.06-.06.1c-.07.13.06.22.15.12S27,45.35,26.92,45.34Z"/><path class="cls-13" d="M26,41.56A2.59,2.59,0,0,0,26,41c0-.21-.19-.45-.4-.43a.33.33,0,0,0-.26.37.72.72,0,0,0,.26.42,1.15,1.15,0,0,0,.45.2"/><path class="cls-14" d="M25.66,41.21A.43.43,0,0,1,25.5,41a.19.19,0,0,1,0-.18.18.18,0,0,1,.22,0,.46.46,0,0,1,.11.22,1.28,1.28,0,0,1,.06.34C25.84,41.37,25.72,41.27,25.66,41.21Z"/><path class="cls-15" d="M25.64,41.12l0,0a.11.11,0,0,0,0-.08V40.9c0-.14-.16-.15-.18,0S25.58,41.14,25.64,41.12Z"/><path class="cls-13" d="M27.73,40.13a2,2,0,0,0,.54-.12c.2-.08.42-.25.37-.45a.33.33,0,0,0-.4-.21.74.74,0,0,0-.38.32,1,1,0,0,0-.13.46"/><path class="cls-14" d="M28,39.71a.52.52,0,0,1,.24-.2.19.19,0,0,1,.18,0,.17.17,0,0,1,0,.22.38.38,0,0,1-.19.14,2.13,2.13,0,0,1-.33.11C27.88,39.91,28,39.78,28,39.71Z"/><path class="cls-15" d="M28.11,39.69h0s.06,0,.09,0l.12,0c.14,0,.12-.19,0-.18S28.08,39.62,28.11,39.69Z"/><path class="cls-13" d="M25.27,42.18a2.07,2.07,0,0,0-.34-.44c-.15-.16-.39-.29-.56-.16a.33.33,0,0,0,0,.45.72.72,0,0,0,.44.22,1,1,0,0,0,.48-.07"/><path class="cls-14" d="M24.77,42.09a.47.47,0,0,1-.28-.14.18.18,0,0,1,0-.17.16.16,0,0,1,.19-.1.46.46,0,0,1,.21.13,1.37,1.37,0,0,1,.23.25C25,42.13,24.85,42.11,24.77,42.09Z"/><path class="cls-15" d="M24.71,42s0,0,0,0a.41.41,0,0,0,0-.08l-.07-.1a.09.09,0,1,0-.17.08C24.48,42,24.66,42.07,24.71,42Z"/><path class="cls-13" d="M25.18,44a2.32,2.32,0,0,0-.46-.31c-.19-.09-.47-.14-.58,0a.32.32,0,0,0,.12.43.68.68,0,0,0,.49.06c.2,0,.25-.11.43-.22"/><path class="cls-14" d="M24.67,44.11a.45.45,0,0,1-.3,0,.17.17,0,0,1-.11-.15.17.17,0,0,1,.16-.15.5.5,0,0,1,.23,0A1,1,0,0,1,25,44C24.91,44.07,24.76,44.1,24.67,44.11Z"/><path class="cls-15" d="M24.59,44.06a0,0,0,0,0,0,0s0,0-.05-.06l-.09-.08c-.11-.09-.22,0-.13.13S24.57,44.12,24.59,44.06Z"/><path class="cls-13" d="M25,45.25a2.67,2.67,0,0,0-.56.06c-.2,0-.44.19-.42.4a.32.32,0,0,0,.38.25.73.73,0,0,0,.41-.26,1.14,1.14,0,0,0,.19-.45"/><path class="cls-14" d="M24.62,45.64a.48.48,0,0,1-.26.16.2.2,0,0,1-.18,0,.18.18,0,0,1,0-.22.47.47,0,0,1,.21-.11,1.37,1.37,0,0,1,.34-.07C24.78,45.45,24.68,45.57,24.62,45.64Z"/><path class="cls-15" d="M24.53,45.65l0,0a.11.11,0,0,0-.08,0h-.12c-.14,0-.15.17,0,.18S24.55,45.71,24.53,45.65Z"/><path class="cls-13" d="M25.63,45.24a2.42,2.42,0,0,0-.34.45c-.11.18-.17.45,0,.58a.32.32,0,0,0,.44-.1.68.68,0,0,0,.09-.48,1,1,0,0,0-.19-.45"/><path class="cls-14" d="M25.68,45.75a.54.54,0,0,1-.06.31.22.22,0,0,1-.15.1.19.19,0,0,1-.15-.17.49.49,0,0,1,.06-.23,1.12,1.12,0,0,1,.19-.29C25.65,45.51,25.67,45.67,25.68,45.75Z"/><path class="cls-15" d="M25.62,45.83h0s-.05,0-.07.05l-.08.09c-.1.1,0,.22.12.14S25.68,45.86,25.62,45.83Z"/><path class="cls-13" d="M27.27,44.13a2.15,2.15,0,0,0,.14.54c.08.19.26.41.46.36a.35.35,0,0,0,.2-.41.74.74,0,0,0-.33-.37,1,1,0,0,0-.47-.12"/><path class="cls-14" d="M27.7,44.4a.47.47,0,0,1,.2.24.15.15,0,0,1-.23.19.38.38,0,0,1-.14-.19,1.18,1.18,0,0,1-.12-.33C27.5,44.27,27.63,44.36,27.7,44.4Z"/><path class="cls-15" d="M27.73,44.49l0,0a.14.14,0,0,0,0,.09l0,.12c0,.14.19.12.18,0S27.79,44.46,27.73,44.49Z"/><path class="cls-13" d="M26.49,40.65a2,2,0,0,0,.14-.54c0-.21,0-.48-.22-.54a.33.33,0,0,0-.37.26.71.71,0,0,0,.1.49c.11.18.19.2.35.33"/><path class="cls-14" d="M26.25,40.2a.46.46,0,0,1-.06-.3.16.16,0,0,1,.3-.06.45.45,0,0,1,0,.23,1.35,1.35,0,0,1-.06.35C26.37,40.41,26.29,40.28,26.25,40.2Z"/><path class="cls-15" d="M26.27,40.11h0a.25.25,0,0,0,0-.07l0-.12a.09.09,0,1,0-.17-.08C26.19,39.88,26.2,40.1,26.27,40.11Z"/><path class="cls-13" d="M28.4,42.09a2.11,2.11,0,0,0,.56,0c.22,0,.47-.13.47-.34a.32.32,0,0,0-.33-.3.73.73,0,0,0-.45.21,1,1,0,0,0-.25.42"/><path class="cls-14" d="M28.79,41.75a.52.52,0,0,1,.28-.13.22.22,0,0,1,.17.07.17.17,0,0,1,0,.21A.43.43,0,0,1,29,42a1.36,1.36,0,0,1-.35,0C28.61,41.91,28.72,41.81,28.79,41.75Z"/><path class="cls-15" d="M28.88,41.75l0,0a.11.11,0,0,0,.08,0h.12c.14,0,.17-.15,0-.18S28.87,41.69,28.88,41.75Z"/><path class="cls-16" d="M25,43.29c.14.22.49.25.58.48a1.14,1.14,0,0,1,0,.37c.07.77,1.3.6,1.67.2a.78.78,0,0,0,.13-.79.91.91,0,0,0,0-.67l0-.05.25,0a1.39,1.39,0,0,0,1-1.21,1,1,0,0,0-1-1.08.92.92,0,0,1-.4,0,1.36,1.36,0,0,1-.21-.1c-.32-.12-.63.29-.67.65a5.72,5.72,0,0,1-.05,1.1c0,.08-.07.15-.1.23s-.23-.07-.35-.09A.79.79,0,0,0,25,43,.54.54,0,0,0,25,43.29Z"/><path class="cls-10" d="M72,17.2c3.75,1.68,5.6,5.69,4.14,9s-5.69,4.58-9.44,2.91-5.61-5.69-4.14-9S68.28,15.53,72,17.2Z"/><path class="cls-11" d="M72.41,17c3.75,1.67,5.71,5.45,4.38,8.43s-5.46,4.05-9.21,2.38-5.71-5.45-4.37-8.44S68.66,15.29,72.41,17Z"/><path class="cls-12" d="M72.64,26.55a2.74,2.74,0,0,0,2.1-.75,3.57,3.57,0,0,0,0-3.92,6.71,6.71,0,0,0-2.93-2.35,9.1,9.1,0,0,0-4.35-1.19,2.12,2.12,0,0,0-1.9,1.06,3.5,3.5,0,0,0,0,2.43C66.65,25.84,69.52,26.61,72.64,26.55Z"/><path class="cls-13" d="M70,23.81a1.83,1.83,0,0,0-.35.44c-.11.18-.18.45,0,.58a.33.33,0,0,0,.45-.09.71.71,0,0,0,.1-.48,1.15,1.15,0,0,0-.18-.45"/><path class="cls-14" d="M70,24.33a.46.46,0,0,1-.07.3.19.19,0,0,1-.15.09.16.16,0,0,1-.14-.17.36.36,0,0,1,.07-.22,1.12,1.12,0,0,1,.19-.29C70,24.08,70,24.24,70,24.33Z"/><path class="cls-15" d="M70,24.4h0s0,0-.07.05l-.08.08c-.1.11,0,.23.12.14S70.05,24.43,70,24.4Z"/><path class="cls-13" d="M68.51,22.86a2.65,2.65,0,0,0-.5-.26c-.2-.07-.48-.08-.58.11a.33.33,0,0,0,.18.41.69.69,0,0,0,.49,0c.2-.06.24-.14.41-.27"/><path class="cls-14" d="M68,23a.47.47,0,0,1-.31,0,.18.18,0,0,1-.12-.13.19.19,0,0,1,.13-.18.4.4,0,0,1,.24,0,1.13,1.13,0,0,1,.32.13C68.24,22.93,68.1,23,68,23Z"/><path class="cls-15" d="M67.93,23a0,0,0,0,0,0,0s0,0-.06-.06l-.1-.06c-.12-.08-.22.06-.12.14S67.91,23,67.93,23Z"/><path class="cls-13" d="M71.71,22.1a2.09,2.09,0,0,0,.56,0c.21,0,.45-.18.43-.39a.33.33,0,0,0-.36-.27.78.78,0,0,0-.43.26,1.17,1.17,0,0,0-.2.44"/><path class="cls-14" d="M72.06,21.72a.46.46,0,0,1,.27-.15.2.2,0,0,1,.17,0,.18.18,0,0,1,0,.22.46.46,0,0,1-.22.11.93.93,0,0,1-.34,0C71.9,21.9,72,21.79,72.06,21.72Z"/><path class="cls-15" d="M72.15,21.71s0,0,0,0a.11.11,0,0,0,.08,0h.12c.15,0,.15-.16,0-.18S72.13,21.65,72.15,21.71Z"/><path class="cls-13" d="M73.12,23.8a2.1,2.1,0,0,0,.13.55c.07.2.24.42.44.37a.32.32,0,0,0,.21-.4.68.68,0,0,0-.31-.38,1.23,1.23,0,0,0-.47-.14"/><path class="cls-14" d="M73.55,24.09a.5.5,0,0,1,.19.24.19.19,0,0,1,0,.18.17.17,0,0,1-.22,0,.38.38,0,0,1-.14-.19,1.39,1.39,0,0,1-.1-.33C73.34,24,73.47,24,73.55,24.09Z"/><path class="cls-15" d="M73.57,24.19h0a.28.28,0,0,0,0,.09l0,.12a.1.1,0,1,0,.19,0S73.63,24.16,73.57,24.19Z"/><path class="cls-13" d="M71.09,21.33a1.87,1.87,0,0,0,.45-.33c.15-.15.29-.39.16-.56a.33.33,0,0,0-.45,0,.72.72,0,0,0-.22.44,1.12,1.12,0,0,0,.06.48"/><path class="cls-14" d="M71.19,20.83a.47.47,0,0,1,.14-.28.18.18,0,0,1,.17-.05c.08,0,.11.12.1.2a.44.44,0,0,1-.13.2,1.16,1.16,0,0,1-.26.23C71.14,21.07,71.17,20.91,71.19,20.83Z"/><path class="cls-15" d="M71.26,20.77h0l.08,0,.1-.06c.12-.08,0-.23-.08-.17S71.21,20.73,71.26,20.77Z"/><path class="cls-13" d="M69.24,21.23a2.37,2.37,0,0,0,.32-.46c.1-.19.14-.47,0-.59a.33.33,0,0,0-.44.13.66.66,0,0,0-.06.48c0,.21.11.26.21.44"/><path class="cls-14" d="M69.17,20.72a.48.48,0,0,1,0-.31.2.2,0,0,1,.15-.1.18.18,0,0,1,.16.15.43.43,0,0,1-.06.24,1,1,0,0,1-.17.3C69.21,21,69.18,20.81,69.17,20.72Z"/><path class="cls-15" d="M69.22,20.64h0l.06-.05.08-.1a.09.09,0,1,0-.13-.13S69.16,20.62,69.22,20.64Z"/><path class="cls-13" d="M68,21a2.6,2.6,0,0,0-.06-.56c0-.21-.18-.45-.4-.43a.34.34,0,0,0-.25.38.73.73,0,0,0,.26.41A1,1,0,0,0,68,21"/><path class="cls-14" d="M67.64,20.66a.47.47,0,0,1-.16-.27.18.18,0,0,1,0-.17.16.16,0,0,1,.21,0,.39.39,0,0,1,.11.21,1,1,0,0,1,.06.34C67.83,20.82,67.71,20.72,67.64,20.66Z"/><path class="cls-15" d="M67.63,20.56h0a.15.15,0,0,0,0-.09v-.12a.1.1,0,1,0-.19,0C67.47,20.38,67.57,20.58,67.63,20.56Z"/><path class="cls-13" d="M68,21.67a2.12,2.12,0,0,0-.44-.35c-.19-.1-.46-.17-.59,0a.32.32,0,0,0,.1.44.74.74,0,0,0,.48.1,1.2,1.2,0,0,0,.45-.19"/><path class="cls-14" d="M67.52,21.71a.43.43,0,0,1-.3-.06.18.18,0,0,1-.1-.15.17.17,0,0,1,.16-.15.48.48,0,0,1,.23.07,1.08,1.08,0,0,1,.29.18C67.76,21.69,67.61,21.7,67.52,21.71Z"/><path class="cls-15" d="M67.44,21.66a0,0,0,0,0,0,0s0-.05,0-.07l-.08-.08c-.11-.1-.23,0-.14.12S67.41,21.72,67.44,21.66Z"/><path class="cls-13" d="M69.13,23.32a2,2,0,0,0-.54.13c-.2.08-.41.26-.36.46a.34.34,0,0,0,.41.2.7.7,0,0,0,.37-.33.9.9,0,0,0,.12-.46"/><path class="cls-14" d="M68.85,23.75a.5.5,0,0,1-.23.2.19.19,0,0,1-.18,0,.18.18,0,0,1,0-.22.41.41,0,0,1,.2-.14.94.94,0,0,1,.32-.11C69,23.54,68.9,23.67,68.85,23.75Z"/><path class="cls-15" d="M68.76,23.77l0,0s0,0-.08,0l-.12,0a.1.1,0,1,0,0,.19C68.61,24,68.79,23.83,68.76,23.77Z"/><path class="cls-13" d="M72.61,22.57a2.12,2.12,0,0,0,.55.14c.21,0,.48,0,.53-.22a.32.32,0,0,0-.25-.37.71.71,0,0,0-.49.1c-.18.1-.2.19-.34.35"/><path class="cls-14" d="M73.07,22.33a.46.46,0,0,1,.3-.06.18.18,0,0,1,.15.1.17.17,0,0,1-.09.2.66.66,0,0,1-.24,0,1,1,0,0,1-.34-.07C72.85,22.44,73,22.37,73.07,22.33Z"/><path class="cls-15" d="M73.16,22.35s0,0,0,0a.12.12,0,0,0,.07.05l.12,0a.09.09,0,1,0,.08-.17S73.16,22.28,73.16,22.35Z"/><path class="cls-13" d="M71.16,24.46a2.18,2.18,0,0,0,0,.57c0,.21.13.46.34.47a.33.33,0,0,0,.3-.34.67.67,0,0,0-.2-.44c-.14-.16-.23-.16-.42-.26"/><path class="cls-14" d="M71.5,24.85a.45.45,0,0,1,.12.29.16.16,0,0,1-.06.16.17.17,0,0,1-.22,0,.49.49,0,0,1-.08-.23,1.94,1.94,0,0,1,0-.34C71.34,24.67,71.44,24.79,71.5,24.85Z"/><path class="cls-15" d="M71.5,25h0a.11.11,0,0,0,0,.08l0,.12c0,.14.15.17.18,0S71.56,24.93,71.5,25Z"/><path class="cls-16" d="M70,21.08c-.22.13-.25.48-.49.57a1.08,1.08,0,0,1-.36,0c-.78.06-.62,1.29-.22,1.67a.78.78,0,0,0,.79.13.91.91,0,0,0,.67,0l.05,0a2.38,2.38,0,0,0,0,.26,1.39,1.39,0,0,0,1.2,1,1,1,0,0,0,1.09-1,.91.91,0,0,1,0-.4,1.86,1.86,0,0,1,.1-.2c.12-.33-.28-.64-.65-.68a5.76,5.76,0,0,1-1.1-.06l-.22-.11c0-.11.07-.23.09-.34A.8.8,0,0,0,70.3,21,.47.47,0,0,0,70,21.08Z"/><path class="cls-10" d="M36.77,21.58c1.64-3.77,5.48-5.72,8.57-4.37S49.59,22.7,48,26.46s-5.49,5.72-8.57,4.37S35.12,25.34,36.77,21.58Z"/><path class="cls-11" d="M36.52,21.2c1.65-3.77,5.41-5.76,8.4-4.45s4.09,5.43,2.44,9.19S42,31.69,39,30.38,34.88,25,36.52,21.2Z"/><path class="cls-12" d="M46.11,20.89a2.72,2.72,0,0,0-.77-2.09,3.57,3.57,0,0,0-3.92,0,6.57,6.57,0,0,0-2.32,3,9,9,0,0,0-1.16,4.35A2.13,2.13,0,0,0,39,28a3.53,3.53,0,0,0,2.44,0C45.44,26.88,46.19,24,46.11,20.89Z"/><path class="cls-13" d="M43.39,23.54a1.83,1.83,0,0,0,.44.35c.18.11.45.18.58,0a.31.31,0,0,0-.09-.44.66.66,0,0,0-.48-.1,1.09,1.09,0,0,0-.45.18"/><path class="cls-14" d="M43.9,23.51a.47.47,0,0,1,.31.06.2.2,0,0,1,.09.16c0,.08-.08.13-.16.14a.48.48,0,0,1-.23-.07,1.12,1.12,0,0,1-.29-.19C43.66,23.53,43.82,23.51,43.9,23.51Z"/><path class="cls-15" d="M44,23.56v0s0,.05.05.07l.08.08c.11.1.23,0,.15-.12S44,23.5,44,23.56Z"/><path class="cls-13" d="M42.45,25.05a2.6,2.6,0,0,0-.25.5c-.07.2-.08.48.11.58a.33.33,0,0,0,.41-.18.69.69,0,0,0,0-.49c-.06-.2-.14-.24-.27-.41"/><path class="cls-14" d="M42.59,25.55a.47.47,0,0,1,0,.31.19.19,0,0,1-.13.12.18.18,0,0,1-.18-.13.49.49,0,0,1,0-.24,1.53,1.53,0,0,1,.13-.32C42.52,25.31,42.57,25.46,42.59,25.55Z"/><path class="cls-15" d="M42.55,25.63s0,0,0,0a.09.09,0,0,0-.06.06l-.07.1c-.07.12.07.22.15.11S42.62,25.65,42.55,25.63Z"/><path class="cls-13" d="M41.67,21.85a2.16,2.16,0,0,0-.05-.56c0-.2-.18-.44-.4-.43a.33.33,0,0,0-.25.37.67.67,0,0,0,.26.42c.15.14.24.13.44.2"/><path class="cls-14" d="M41.29,21.51a.47.47,0,0,1-.16-.27.2.2,0,0,1,0-.17.16.16,0,0,1,.22,0,.39.39,0,0,1,.11.21,1.35,1.35,0,0,1,.06.34C41.47,21.67,41.35,21.57,41.29,21.51Z"/><path class="cls-15" d="M41.28,21.41h0a.28.28,0,0,0,0-.09v-.12c0-.14-.16-.15-.18,0S41.21,21.43,41.28,21.41Z"/><path class="cls-13" d="M43.36,20.43a2,2,0,0,0,.54-.13c.2-.07.42-.24.37-.45a.32.32,0,0,0-.4-.2.72.72,0,0,0-.38.31,1.1,1.1,0,0,0-.13.47"/><path class="cls-14" d="M43.65,20a.5.5,0,0,1,.24-.19.19.19,0,0,1,.18,0,.18.18,0,0,1,0,.22.53.53,0,0,1-.2.13,1,1,0,0,1-.33.11C43.51,20.21,43.6,20.08,43.65,20Z"/><path class="cls-15" d="M43.74,20l0,0a.11.11,0,0,0,.08,0H44c.14,0,.13-.19,0-.19S43.71,19.92,43.74,20Z"/><path class="cls-13" d="M40.9,22.48a1.67,1.67,0,0,0-.34-.45c-.15-.15-.39-.28-.56-.15a.34.34,0,0,0,0,.45.68.68,0,0,0,.44.21,1,1,0,0,0,.48-.06"/><path class="cls-14" d="M40.4,22.39a.47.47,0,0,1-.28-.14.18.18,0,0,1,0-.17.16.16,0,0,1,.19-.1.45.45,0,0,1,.21.12,1.43,1.43,0,0,1,.23.26C40.64,22.43,40.49,22.4,40.4,22.39Z"/><path class="cls-15" d="M40.34,22.31s0,0,0,0a.19.19,0,0,0,0-.08l-.07-.1c-.07-.12-.22,0-.16.08S40.3,22.37,40.34,22.31Z"/><path class="cls-13" d="M40.81,24.33a1.77,1.77,0,0,0-.46-.31c-.19-.1-.46-.15-.58,0a.32.32,0,0,0,.12.43.75.75,0,0,0,.49.07,1,1,0,0,0,.43-.22"/><path class="cls-14" d="M40.31,24.41a.54.54,0,0,1-.31-.05.19.19,0,0,1-.11-.14.18.18,0,0,1,.16-.16.46.46,0,0,1,.23.05,1.46,1.46,0,0,1,.3.17C40.55,24.37,40.39,24.39,40.31,24.41Z"/><path class="cls-15" d="M40.23,24.36v0a.13.13,0,0,0-.06-.07l-.09-.07c-.11-.09-.22,0-.13.13S40.2,24.42,40.23,24.36Z"/><path class="cls-13" d="M40.59,25.55a1.81,1.81,0,0,0-.56.06c-.2.05-.44.19-.42.4a.34.34,0,0,0,.38.25A.69.69,0,0,0,40.4,26a.91.91,0,0,0,.19-.44"/><path class="cls-14" d="M40.25,25.93a.43.43,0,0,1-.26.17.18.18,0,0,1-.17-.05.17.17,0,0,1,0-.22.84.84,0,0,1,.21-.11,1.35,1.35,0,0,1,.34-.06C40.41,25.75,40.31,25.87,40.25,25.93Z"/><path class="cls-15" d="M40.16,25.94l0,0h-.2a.1.1,0,1,0,0,.19C40,26.1,40.18,26,40.16,25.94Z"/><path class="cls-13" d="M41.26,25.54a2.07,2.07,0,0,0-.34.44c-.1.19-.16.46,0,.59a.33.33,0,0,0,.44-.1.69.69,0,0,0,.09-.49,1,1,0,0,0-.19-.44"/><path class="cls-14" d="M41.31,26.05a.46.46,0,0,1-.06.3.18.18,0,0,1-.15.1.17.17,0,0,1-.15-.16.46.46,0,0,1,.06-.23,1.45,1.45,0,0,1,.19-.29C41.28,25.81,41.3,26,41.31,26.05Z"/><path class="cls-15" d="M41.25,26.13h0a.18.18,0,0,0-.07.05l-.08.09c-.1.11,0,.23.12.14S41.32,26.15,41.25,26.13Z"/><path class="cls-13" d="M42.9,24.42A2.38,2.38,0,0,0,43,25c.09.2.26.41.46.36a.33.33,0,0,0,.2-.41.74.74,0,0,0-.33-.37,1.06,1.06,0,0,0-.47-.12"/><path class="cls-14" d="M43.33,24.7a.47.47,0,0,1,.21.23.19.19,0,0,1,0,.18.18.18,0,0,1-.22,0,.43.43,0,0,1-.14-.19,1.07,1.07,0,0,1-.11-.33C43.13,24.57,43.26,24.65,43.33,24.7Z"/><path class="cls-15" d="M43.36,24.79l0,0s0,.05,0,.08l0,.12a.1.1,0,1,0,.19,0C43.54,24.94,43.42,24.76,43.36,24.79Z"/><path class="cls-13" d="M42.13,21a2.61,2.61,0,0,0,.14-.55c0-.21,0-.48-.23-.53a.33.33,0,0,0-.37.26.65.65,0,0,0,.11.48c.1.18.18.21.35.34"/><path class="cls-14" d="M41.88,20.49a.46.46,0,0,1-.06-.3.18.18,0,0,1,.1-.15.17.17,0,0,1,.2.09.4.4,0,0,1,0,.24,1.28,1.28,0,0,1-.06.34C42,20.71,41.93,20.57,41.88,20.49Z"/><path class="cls-15" d="M41.9,20.4h0s0,0,0-.07l0-.11c.05-.14-.1-.2-.16-.08S41.84,20.4,41.9,20.4Z"/><path class="cls-13" d="M44,22.39a2.72,2.72,0,0,0,.57,0c.21,0,.46-.13.47-.34a.33.33,0,0,0-.34-.3.73.73,0,0,0-.45.21c-.15.14-.15.23-.25.42"/><path class="cls-14" d="M44.42,22.05a.45.45,0,0,1,.28-.13.17.17,0,0,1,.17.06.16.16,0,0,1,0,.22.42.42,0,0,1-.22.08,1,1,0,0,1-.34,0C44.24,22.21,44.36,22.11,44.42,22.05Z"/><path class="cls-15" d="M44.52,22.05v0s0,0,.08,0h.12c.14,0,.17-.15,0-.18S44.5,22,44.52,22.05Z"/><path class="cls-16" d="M40.66,23.59c.13.21.48.24.57.48a1.08,1.08,0,0,1,0,.36c.07.78,1.3.6,1.68.2a.79.79,0,0,0,.12-.79.88.88,0,0,0,0-.66l0-.05a2.27,2.27,0,0,0,.25-.06,1.37,1.37,0,0,0,1-1.2,1,1,0,0,0-1-1.09.91.91,0,0,1-.4,0,2,2,0,0,0-.21-.1c-.32-.12-.63.28-.67.65a5.76,5.76,0,0,1,0,1.1,1.47,1.47,0,0,1-.1.22c-.12,0-.23-.07-.35-.09a.8.8,0,0,0-.9.68A.48.48,0,0,0,40.66,23.59Z"/><path class="cls-17" d="M37.82,44.19c-1.86,1-3.69-1.71-3.44-3.8a6.32,6.32,0,0,1,3.41-4.94,5.13,5.13,0,0,1,5.79,1c-.62-1.82-1.25-3.78-.72-5.63a4.76,4.76,0,0,1,9.34,1.49c2.47-.63.61-4.84,2.2-6.83,1.05-1.32,3.28-1,4.46.22a9,9,0,0,1,1.91,4.6,7.83,7.83,0,0,0,2.61-2.93A2,2,0,0,0,65,28.89c.64-3.77,6.22-5.14,9.06-2.57s2.66,7.43.27,10.42c.94-1.48,3.24-1.52,4.66-.49a7.52,7.52,0,0,1,2.51,4.47,22.08,22.08,0,0,1,.26,9.33c-.55,0-.37-1,.18-1.08s1,.45,1.28.91c3.94,6.19,1,15.61-5.69,18.51-4.11,1.77-8.8,1.27-13.22.6-4.68-.72-9.42-1.6-13.64-3.75-6.42-3.26-6.24-6.13-7.51-12-.24-1.13-.38-2.78-1.34-3.61s-2.17.57-3.15-.2C37.31,48.31,34.92,45.72,37.82,44.19Z"/><path class="cls-18" d="M54.22,55.22c0-2.83-1.26-5.83-3.77-7.14A2.72,2.72,0,0,0,49,47.71c-1.14.11-1.91,1.3-3,1.53-1.71.37-3.06-1.91-2.42-3.54s2.44-2.5,4.16-2.84A2.13,2.13,0,0,0,49,42.35,1.89,1.89,0,0,0,49.29,41c0-1.9.16-4.46,2-4.77L54.2,38a1.48,1.48,0,0,0,1.26.3c.52-.23.57-.93.85-1.42a2,2,0,0,1,2.47-.64,3.83,3.83,0,0,1,1.79,2.06A7.48,7.48,0,0,1,59.36,46a23.38,23.38,0,0,0-1.71,1.88,10.38,10.38,0,0,0-1.28,3.89,50.76,50.76,0,0,1-3.55,9.87A15.9,15.9,0,0,0,54.22,55.22Z"/><path class="cls-18" d="M69.17,43.38c1.38-1.44,3-2.9,5-3s4.09,2,3.19,3.78c-.24.48-.68.9-.74,1.44-.11.94.88,1.56,1.55,2.23a3.38,3.38,0,0,1,.93,3.4,2.5,2.5,0,0,1-2.94,1.62c-.77-.24-1.39-.92-2.19-1-1-.12-1.85.7-2.78,1.13a11.2,11.2,0,0,1-2.58.64,12.31,12.31,0,0,0-7.58,5,8.14,8.14,0,0,1-1.63,2,1.92,1.92,0,0,1-2.4.09C55,58.88,67.44,45.17,69.17,43.38Z"/><path class="cls-19" d="M36.31,43.16c0-1,1.34-1.47,2.3-1.16s1.76,1,2.75,1.25c2.42.51,4.27-2.37,4.28-4.84A2,2,0,0,1,46,36.89c.95-.88,2.64.81,3.67,0a4.59,4.59,0,0,0-3.55-6.16,2.37,2.37,0,0,0-2.17.79c-.52.76-.26,1.78-.18,2.71s-.28,2.1-1.2,2.18a2.59,2.59,0,0,1-1.17-.31,5.22,5.22,0,0,0-5.61,1.23c-1.42,1.5-1.43,4.5.51,5.19"/><path class="cls-19" d="M56.74,32.26c-.43,2.47,2.74,4.71,4.92,3.49a4.28,4.28,0,0,1,1.74-.85c1,0,1.67,1,1.9,1.94a7.43,7.43,0,0,0,.81,2.82c1,1.39,3.26,1.2,4.52.05a8.17,8.17,0,0,0,2.07-4.57c.28-1.43.47-3-.33-4.26a3,3,0,0,0-5.5,1.79c-1.4-1.17-3.67-2.28-4.8-.85-.37.48-.64,1.24-1.24,1.19a1.16,1.16,0,0,1-.76-.53L57.8,29.77a2.15,2.15,0,0,0-1.07,2.41"/><path class="cls-19" d="M76.91,39.57c-1,1.51-.36,3.51.45,5.11s1.86,3.22,1.73,5a11,11,0,0,1-.61,2.43,15.14,15.14,0,0,0-.67,4.78,6.44,6.44,0,0,0,1.45,4.39c1.1,1.14,3.14,1.45,4.23.3,1.37-1.45.35-3.88-1.07-5.27a6.16,6.16,0,0,1-1.36-1.57c-.69-1.42.13-3.07.8-4.5s1.13-3.33,0-4.41a6.26,6.26,0,0,1-1.06-.92c-.82-1.23.9-2.65,1-4.12C82.09,38.2,78.1,37.69,76.91,39.57Z"/><path class="cls-17" d="M63.86,78.13c1.9.13,2,3.07.84,4.56a5.71,5.71,0,0,1-5,2.17,4.66,4.66,0,0,1-4-3.49c-.39,1.69-.84,3.5-2.12,4.67a4.31,4.31,0,0,1-6.47-5.59c-2.19-.69-2.77,3.43-4.94,4.2-1.43.51-3-.8-3.32-2.29a8.14,8.14,0,0,1,.72-4.45,7.31,7.31,0,0,0-3.4,1,1.82,1.82,0,0,0-.52-2c-2.29,2.6-7.23,1-8.19-2.33s1.49-7,4.75-8.13c-1.42.68-3.21-.38-3.81-1.84a6.88,6.88,0,0,1,.2-4.64,19.93,19.93,0,0,1,4.24-7.28c.41.27-.21,1-.65.74s-.54-.81-.55-1.31c-.09-6.63,6.62-12.49,13.18-11.52,4,.6,7.36,3.22,10.44,5.84,3.26,2.78,6.47,5.71,8.7,9.37,3.38,5.56,1.87,7.68,0,12.81-.36,1-1,2.32-.69,3.42.39,1.27,1.94.6,2.33,1.65C66.22,75.21,66.82,78.34,63.86,78.13Z"/><path class="cls-18" d="M56.51,61.85c-1.33,2.18-1.8,5.08-.5,7.28a2.37,2.37,0,0,0,.94,1c.92.46,2.08-.08,3,.27,1.49.53,1.44,2.92.17,3.87s-3.06.76-4.55.2a2,2,0,0,0-1.18-.19,1.7,1.7,0,0,0-.9.87c-.89,1.47-2.25,3.35-3.83,2.69l-1.38-2.72c-.18-.36-.42-.76-.82-.82s-.88.43-1.33.68a1.79,1.79,0,0,1-2.2-.68,3.49,3.49,0,0,1-.4-2.44,6.8,6.8,0,0,1,4.58-5.32,19.14,19.14,0,0,0,2.21-.63,9.21,9.21,0,0,0,2.84-2.38,45.84,45.84,0,0,1,7.42-5.89A14.48,14.48,0,0,0,56.51,61.85Z"/><path class="cls-18" d="M39.39,63.84c-1.74.44-3.69.8-5.27-.06s-2.19-3.48-.65-4.42c.42-.26,1-.37,1.25-.75.53-.67.07-1.62-.13-2.45a3.07,3.07,0,0,1,.9-3.06,2.27,2.27,0,0,1,3,.16c.47.55.62,1.36,1.2,1.81s1.75.35,2.67.46a10,10,0,0,1,2.29.73A11.12,11.12,0,0,0,52.91,56a7.41,7.41,0,0,1,2.22-.8A1.75,1.75,0,0,1,57,56.28C57.65,58.67,41.57,63.28,39.39,63.84Z"/><path class="cls-19" d="M64.53,79.64c-.45.8-1.73.5-2.32-.2a25.64,25.64,0,0,0-1.52-2.27c-1.61-1.54-4.4-.21-5.59,1.68-.26.41-.54.9-1,1-1.14.22-1.63-1.88-2.79-1.78a4.14,4.14,0,0,0-.2,6.41,2.09,2.09,0,0,0,2,.43c.77-.34,1-1.24,1.43-2s1.21-1.48,2-1.11a2.31,2.31,0,0,1,.75.8,4.73,4.73,0,0,0,4.9,1.72c1.8-.48,3.24-2.77,2.08-4.23"/><path class="cls-19" d="M43.65,78.29a3.19,3.19,0,0,0-2.12-5,3.73,3.73,0,0,1-1.74-.17c-.78-.43-.82-1.55-.53-2.4A6.93,6.93,0,0,0,40,68.15C39.87,66.61,38,65.68,36.53,66a7.28,7.28,0,0,0-3.77,2.53A5.18,5.18,0,0,0,31,71.91a2.71,2.71,0,0,0,5.08,1.25c.52,1.57,1.74,3.5,3.28,2.93.52-.19,1.09-.64,1.53-.32a1.11,1.11,0,0,1,.33.77l.45,3.17a2,2,0,0,0,2-1.35"/><path class="cls-19" d="M31.63,63.08c1.45-.71,1.95-2.53,2.08-4.14s.11-3.36,1.06-4.67a9.76,9.76,0,0,1,1.63-1.58,13.57,13.57,0,0,0,2.78-3.35,5.8,5.8,0,0,0,1-4.07A2.75,2.75,0,0,0,37.06,43c-1.74.46-2.12,2.81-1.69,4.56a5.34,5.34,0,0,1,.29,1.85c-.14,1.42-1.55,2.3-2.74,3.08s-2.46,2-2.09,3.4a5.28,5.28,0,0,1,.37,1.21c.05,1.33-1.95,1.6-2.76,2.66C27,61.67,29.82,64,31.63,63.08Z"/><path class="cls-20" d="M53.39,64.43a3.44,3.44,0,0,0-.27-.27,4.1,4.1,0,0,1-.29,1.17,4.21,4.21,0,0,1-1.31,1.51,25.86,25.86,0,0,1-8,3.7,3.78,3.78,0,0,1-2,.28,2.82,2.82,0,0,1-1.3-.76,6.9,6.9,0,0,1-1-1.12,5.43,5.43,0,0,0,1.86,4.2,2.82,2.82,0,0,0,1.3.76,3.78,3.78,0,0,0,2-.28,26,26,0,0,0,8-3.7,4.16,4.16,0,0,0,1.31-1.52C54.23,67.27,54.24,65.34,53.39,64.43Z"/><path class="cls-21" d="M41.58,70.82a3.78,3.78,0,0,0,2-.28,25.86,25.86,0,0,0,8-3.7,4.21,4.21,0,0,0,1.31-1.51,4.1,4.1,0,0,0,.29-1.17,6.35,6.35,0,0,0-3-1.68,16.87,16.87,0,0,0-3.25-.3c-3.8,0-7.43,3.28-7.55,6.76a6.9,6.9,0,0,0,1,1.12A2.82,2.82,0,0,0,41.58,70.82Z"/><path class="cls-20" d="M39.92,70a3.07,3.07,0,0,0,.65,1.84c.1.15.28.31.44.23a.32.32,0,0,0,.15-.19A2.34,2.34,0,0,0,40.9,70c-.12-.27-.29-.57-.58-.64s-.41.24-.4.64"/><path class="cls-22" d="M40.44,70a.93.93,0,0,1,.06-.43.48.48,0,0,0-.19-.09c-.28-.07-.4.23-.39.62a3,3,0,0,0,.63,1.77c.1.15.27.3.42.22a.34.34,0,0,0,.15-.18.43.43,0,0,0,0-.05l-.07-.09A2.87,2.87,0,0,1,40.44,70Z"/><path class="cls-21" d="M40.86,70.08a1.28,1.28,0,0,0-.36-.52.93.93,0,0,0-.06.43,2.87,2.87,0,0,0,.62,1.77l.07.09A2.29,2.29,0,0,0,40.86,70.08Z"/><path class="cls-23" d="M41.25,66.09a1.9,1.9,0,0,0,.61,1.74,2.58,2.58,0,0,0,2,.38A7.47,7.47,0,0,0,47,67.07a3.14,3.14,0,0,0,1.22-1.26A2.11,2.11,0,0,0,47,63.05a3.76,3.76,0,0,0-2.46.23C43.1,63.8,41.49,64.3,41.25,66.09Z"/><path class="cls-24" d="M44.71,63.91a2,2,0,0,0-1.45,1.26.92.92,0,0,0,0,.82.87.87,0,0,0,.53.36A2.49,2.49,0,0,0,45.62,66a1.55,1.55,0,0,0,.81-.9,1.06,1.06,0,0,0-.5-1.08,1.48,1.48,0,0,0-1.22-.08"/><path class="cls-25" d="M44.75,64.55c-.55,0-1.11.83-.62,1.27a1.29,1.29,0,0,0,.73.28,11.55,11.55,0,0,1,2.28,0,1.29,1.29,0,0,0,.54.1.65.65,0,0,0,.42-.37,1,1,0,0,0,0-1,1.62,1.62,0,0,0-1.24-.69,4,4,0,0,0-2.52.49c-.29.17-.61.5-.32.81s.86.2,1.2,0a.73.73,0,0,0,.38-.43.47.47,0,0,0-.23-.5.66.66,0,0,0-.58,0"/><path class="cls-20" d="M86.16,54.57l.26-.28a3.48,3.48,0,0,1-2.72-1.52,25.6,25.6,0,0,1-4-7.84,3.92,3.92,0,0,1-.35-2,2.8,2.8,0,0,1,.73-1.31,6.6,6.6,0,0,1,1.09-1,5.41,5.41,0,0,0-4.14,2A2.9,2.9,0,0,0,76.35,44a3.92,3.92,0,0,0,.35,2,25.6,25.6,0,0,0,4,7.84A3.94,3.94,0,0,0,82.2,55C83.35,55.49,85.28,55.44,86.16,54.57Z"/><path class="cls-21" d="M79.4,43a3.92,3.92,0,0,0,.35,2,25.6,25.6,0,0,0,4,7.84,3.48,3.48,0,0,0,2.72,1.52,6.47,6.47,0,0,0,1.59-3,17.69,17.69,0,0,0,.2-3.25c-.14-3.8-3.51-7.33-7-7.34a6.6,6.6,0,0,0-1.09,1A2.8,2.8,0,0,0,79.4,43Z"/><path class="cls-20" d="M80.16,41.27a3.11,3.11,0,0,0-1.82.71c-.14.1-.29.29-.21.45a.38.38,0,0,0,.19.14,2.36,2.36,0,0,0,1.88-.32c.27-.13.56-.3.62-.6s-.25-.41-.66-.38"/><path class="cls-22" d="M80.2,41.79a1,1,0,0,1,.44,0,.41.41,0,0,0,.08-.19c.06-.28-.24-.39-.63-.36a3,3,0,0,0-1.76.67c-.14.11-.28.28-.2.44a.36.36,0,0,0,.18.14h0l.09-.08A2.93,2.93,0,0,1,80.2,41.79Z"/><path class="cls-21" d="M80.12,42.22a1.46,1.46,0,0,0,.52-.39,1,1,0,0,0-.44,0,2.93,2.93,0,0,0-1.75.67l-.09.08A2.33,2.33,0,0,0,80.12,42.22Z"/><path class="cls-23" d="M84.13,42.47a1.94,1.94,0,0,0-1.73.68,2.62,2.62,0,0,0-.31,2,7.38,7.38,0,0,0,1.23,3.06,3.28,3.28,0,0,0,1.3,1.18,2.11,2.11,0,0,0,2.72-1.23,3.78,3.78,0,0,0-.3-2.46C86.47,44.25,85.93,42.67,84.13,42.47Z"/><path class="cls-24" d="M86.41,45.87a2.08,2.08,0,0,0-1.3-1.41.91.91,0,0,0-.82,0,.84.84,0,0,0-.35.54,2.45,2.45,0,0,0,.44,1.86,1.49,1.49,0,0,0,.93.78,1,1,0,0,0,1-.53,1.41,1.41,0,0,0,0-1.22"/><path class="cls-25" d="M85.78,45.93a1,1,0,0,0-.62-.66.42.42,0,0,0-.38,0,.41.41,0,0,0-.17.25,1.17,1.17,0,0,0,.21.88.7.7,0,0,0,.44.37.48.48,0,0,0,.49-.25.69.69,0,0,0,0-.58"/><path class="cls-20" d="M78.57,73.46l-.06-.38a4.11,4.11,0,0,1-.92.78,4,4,0,0,1-1.94.47A26,26,0,0,1,67,72.7a3.8,3.8,0,0,1-1.78-.92,2.78,2.78,0,0,1-.6-1.38,6.86,6.86,0,0,1-.13-1.47,5.46,5.46,0,0,0-.93,4.51,2.89,2.89,0,0,0,.61,1.37,3.82,3.82,0,0,0,1.78.93,26,26,0,0,0,8.63,1.62,4.06,4.06,0,0,0,1.94-.47C77.6,76.25,78.73,74.69,78.57,73.46Z"/><path class="cls-21" d="M65.24,71.78A3.8,3.8,0,0,0,67,72.7a26,26,0,0,0,8.63,1.63,4,4,0,0,0,1.94-.47,4.11,4.11,0,0,0,.92-.78A6.41,6.41,0,0,0,77.05,70a17.82,17.82,0,0,0-2.46-2.13c-3.1-2.2-8-1.66-10.08,1.09a6.86,6.86,0,0,0,.13,1.47A2.78,2.78,0,0,0,65.24,71.78Z"/><path class="cls-20" d="M64.37,70.16A3.09,3.09,0,0,0,63.82,72c0,.18,0,.41.23.44a.38.38,0,0,0,.23-.06,2.4,2.4,0,0,0,.89-1.69,1,1,0,0,0-.1-.85c-.2-.23-.48-.05-.7.29"/><path class="cls-22" d="M64.8,70.43a1,1,0,0,1,.3-.31.4.4,0,0,0-.1-.18c-.19-.22-.46,0-.67.28A2.93,2.93,0,0,0,63.8,72c0,.18.05.4.22.43a.35.35,0,0,0,.22-.06l0,0s0-.08,0-.12A3,3,0,0,1,64.8,70.43Z"/><path class="cls-21" d="M65.09,70.76a1.26,1.26,0,0,0,0-.64,1,1,0,0,0-.3.31,3,3,0,0,0-.53,1.81s0,.08,0,.12A2.33,2.33,0,0,0,65.09,70.76Z"/><path class="cls-23" d="M67.73,67.73a1.94,1.94,0,0,0-.51,1.78A2.62,2.62,0,0,0,68.64,71a7.48,7.48,0,0,0,3.17.87,3.29,3.29,0,0,0,1.73-.32,2.12,2.12,0,0,0,.67-2.91,3.77,3.77,0,0,0-2.13-1.25C70.57,67,69,66.42,67.73,67.73Z"/><path class="cls-24" d="M71.82,68a2,2,0,0,0-1.91.18.9.9,0,0,0-.52.64.84.84,0,0,0,.22.6,2.43,2.43,0,0,0,1.74.79,1.54,1.54,0,0,0,1.19-.27,1.05,1.05,0,0,0,.22-1.16,1.47,1.47,0,0,0-.94-.78"/><path class="cls-25" d="M71.48,68.52a1,1,0,0,0-.9.09.4.4,0,0,0-.24.3.34.34,0,0,0,.1.28,1.09,1.09,0,0,0,.82.37.72.72,0,0,0,.56-.12.49.49,0,0,0,.1-.55.71.71,0,0,0-.44-.37"/><path class="cls-20" d="M46.22,40.48l-.36-.11a4.48,4.48,0,0,1,.29,1.16,4.06,4.06,0,0,1-.42,2,25.81,25.81,0,0,1-5.23,7,3.78,3.78,0,0,1-1.61,1.2,2.83,2.83,0,0,1-1.5-.06A6.09,6.09,0,0,1,36,51.15,5.46,5.46,0,0,0,39.66,54a2.83,2.83,0,0,0,1.5,0,3.84,3.84,0,0,0,1.61-1.2A25.63,25.63,0,0,0,48,45.76a4.05,4.05,0,0,0,.43-1.95C48.31,42.57,47.4,40.87,46.22,40.48Z"/><path class="cls-21" d="M38.89,51.74a3.78,3.78,0,0,0,1.61-1.2,25.81,25.81,0,0,0,5.23-7,4.06,4.06,0,0,0,.42-2,4.48,4.48,0,0,0-.29-1.16,6.38,6.38,0,0,0-3.44,0,17.14,17.14,0,0,0-3,1.28c-3.33,1.83-5,6.42-3.42,9.54a6.09,6.09,0,0,0,1.38.53A2.83,2.83,0,0,0,38.89,51.74Z"/><path class="cls-20" d="M37.05,51.81a3,3,0,0,0,1.45,1.31c.16.08.39.14.49,0a.37.37,0,0,0,0-.23,2.42,2.42,0,0,0-1.13-1.54,1,1,0,0,0-.82-.28c-.28.08-.25.41,0,.75"/><path class="cls-22" d="M37.49,51.55a1,1,0,0,1-.15-.41.5.5,0,0,0-.21,0c-.28.08-.25.4-.05.73a3,3,0,0,0,1.4,1.26c.16.08.38.13.48,0a.35.35,0,0,0,0-.23v0l-.11,0A2.94,2.94,0,0,1,37.49,51.55Z"/><path class="cls-21" d="M37.91,51.43a1.35,1.35,0,0,0-.57-.29,1,1,0,0,0,.15.41,2.94,2.94,0,0,0,1.39,1.26l.11,0A2.32,2.32,0,0,0,37.91,51.43Z"/><path class="cls-23" d="M36.34,47.73A1.9,1.9,0,0,0,37.71,49a2.61,2.61,0,0,0,2-.63,7.57,7.57,0,0,0,2.17-2.47,3.35,3.35,0,0,0,.47-1.7A2.11,2.11,0,0,0,40,42.3a3.73,3.73,0,0,0-2.06,1.37C36.87,44.84,35.7,46,36.34,47.73Z"/><path class="cls-24" d="M38.34,44.17A2,2,0,0,0,37.67,46a.92.92,0,0,0,.35.75.94.94,0,0,0,.64.07,2.51,2.51,0,0,0,1.47-1.23,1.56,1.56,0,0,0,.27-1.19,1,1,0,0,0-.95-.7,1.42,1.42,0,0,0-1.11.51"/><path class="cls-25" d="M38.68,44.71a1,1,0,0,0-.31.84.41.41,0,0,0,.16.35.39.39,0,0,0,.3,0,1.18,1.18,0,0,0,.7-.58.76.76,0,0,0,.13-.56.5.5,0,0,0-.45-.33.69.69,0,0,0-.53.24"/><path class="cls-26" d="M56,40.57c-.87,2-2.55,3.83-6.46,2.55A3.61,3.61,0,0,1,48,42c-3.18-3.82-1.54-8.59,1-12.13,2.74-3.88,6.74-7.11,11.9-6.85a6.61,6.61,0,0,1,1.25.18c5.86,1.5,6.82,6.65,6.82,11.28,0,4.18-1.1,9-4.14,11.49a1.87,1.87,0,0,1-3-1.35,12.32,12.32,0,0,1,1.51-6.94c3.63-6.38,13.92-7.39,18.72-1.84s-4.66,23.25-4.53,18.26c1-3.09,5.32-4.1,8.19-2.55s4.41,4.81,5,8A16.94,16.94,0,0,1,87.7,73.1c-2.94,3.73-8.11,5.78-12.67,4.45-4-1.17-7.55-5.5-4.26-10a1.73,1.73,0,0,1,.86-.62c3.72-1.21,5,.78,6.1,2.69,3.87,7,5.87,16.57-2.38,21.7a9.32,9.32,0,0,1-4.62,1.37c-9.38.28-14.73-7.21-15.32-15a1.86,1.86,0,0,1,3.6-.8v0c1.61,4.79,2.74,10.32.18,14.68-2.68,4.58-9.13,6.23-14,4.06C39.15,93,36,85.22,37.9,78.86a1.82,1.82,0,0,1,.61-.9c4.66-3.58,7.2,1.64,5.51,4.48-1.21,2-3.75,2.89-6.1,2.94A13.34,13.34,0,0,1,25,75.13c-1.37-6.47,3-13.73,9.57-15.19a2.14,2.14,0,0,1,.62,0c4.77.46,3.15,5.79.11,6.5-2.42.56-4.87-.9-6.57-2.71a13.27,13.27,0,0,1-3.53-12c1.05-4.22,5-7.71,9.37-7.59,4.81.14,9.14,5.33,7.18,10a2,2,0,0,1-.37.56c-7,7.33-11-18.28-5.43-24.22C43.16,22.84,61.07,28.73,56,40.57Z"/><path class="cls-27" d="M52.33,49.09a.58.58,0,0,0-.3-.62,6.08,6.08,0,0,0-2,1.32,2.06,2.06,0,0,0-.41,2.27,7.34,7.34,0,0,0,.86,1,2.69,2.69,0,0,1-.28,3.58A1.94,1.94,0,0,1,48,55.85a5.65,5.65,0,0,1-.85-2.31l-.48-2.3a5.16,5.16,0,0,1-.16-1.91A2.56,2.56,0,0,1,50.91,48a1.86,1.86,0,0,1,3.47,1.3A2.26,2.26,0,0,1,52,48.51"/><path class="cls-27" d="M67.13,61.41c.66.24,1.2.86,1.91.85a2.2,2.2,0,0,0,1.2-.5,5.78,5.78,0,0,0,2.48-2.51A2.89,2.89,0,0,0,68.23,56c-2.79,2.21-5.15-1-7.71,2.51-1.3,1.76-3.34,6-3.21,8.3.15,2.41,2.14,4,4.48,2.27C63.74,67.58,63.17,60,67.13,61.41Z"/><path class="cls-27" d="M60.11,48.93c1,.67,2.41.93,2.88,2s-.35,2.51.16,3.62a2,2,0,0,0,3.25.07,2.69,2.69,0,0,0-.84-3.5c-.5-.37-1.15-.62-1.41-1.19a6.31,6.31,0,0,1-.26-1.06c-.36-1.16-1.72-1.61-2.82-2.15s-2.36-4.64-3-2.53C57.69,45.45,59.12,48.26,60.11,48.93Z"/></g></g></svg>