<svg xmlns="http://www.w3.org/2000/svg" viewBox="0 0 121.13 121.76"><defs><style>.cls-1{fill:#bd6706;}.cls-2{fill:#aa5907;}.cls-3{fill:#fcb519;}.cls-4{fill:#a70411;}.cls-5{fill:#f22128;}.cls-6{fill:#fcd147;}.cls-7{fill:#f9b63b;}.cls-8{fill:#ffa329;}.cls-9{fill:#fc9317;}.cls-10{fill:#c4051c;}.cls-11{fill:#a4030b;}.cls-12{fill:#c81018;}.cls-13{fill:none;stroke:#ff6540;stroke-miterlimit:10;stroke-width:1.09px;}.cls-14{fill:#ff7957;}.cls-15{fill:#ff9280;}.cls-16{fill:#f9aea1;}.cls-17{fill:#ff6540;}.cls-18{fill:#407200;}.cls-19{fill:#3a6003;}.cls-20{fill:#406807;}.cls-21{fill:#4f8403;}.cls-22{fill:#6fa200;}.cls-23{fill:#f7ddae;}.cls-24{fill:#927a4a;}.cls-25{fill:#fff5db;}.cls-26{fill:#f2696b;}.cls-27{fill:#f9858b;}.cls-28{fill:#f7949e;}.cls-29{fill:#c29d00;}.cls-30{fill:#d0ae00;}.cls-31{fill:#ad8c00;}.cls-32{fill:#a08100;}.cls-33{fill:#dbb71d;}.cls-34{fill:#f8eecb;}</style></defs><title>Ресурс 6</title><g id="Слой_2" data-name="Слой 2"><g id="OBJECTS"><path class="cls-1" d="M22.47,16.29C41,.63,57.67-5.12,78,5.18,84.86,8.63,99.87,17,105.11,23.24A58.52,58.52,0,0,1,115,39.94c3.85,10,7.4,26.43,5.65,36.73-2.23,13.18-11.51,19.91-22.52,29.21-24.73,20.9-54.12,23.67-82.63-7C-9.41,72.14-2.27,37.19,22.47,16.29Z"/><path class="cls-2" d="M111.4,51.8c2.75,7.43,3.56,15.73,1.34,23.34a44.05,44.05,0,0,1-4.46,9.9,45.74,45.74,0,0,1-5,7.09c-3.15,3.56-7,6.38-10.89,9.17a102.13,102.13,0,0,1-11,7.24,51,51,0,0,1-25.49,6.1c-2.13-.06-4.58-.14-6,1.41,2,3.16,5.91,4.74,9.66,4.82s7.4-1.11,10.89-2.47a110.14,110.14,0,0,0,34.74-21.76c3.69-3.41,7.18-7.13,9.47-11.6,2.87-5.58,3.68-12,4.1-18.24.56-8.53.29-17.72-4.61-24.72a28.75,28.75,0,0,1-2.89-4.23c-.57-1.23-.45-3.29-1.2-4.34-1.43-2-3.7-1.54-4.31.58C104.25,39.11,109.72,47.27,111.4,51.8Z"/><path class="cls-3" d="M25.4,19.76C42.51,5.32,57.88,0,76.7,9.55c6.3,3.19,20.17,11,25,16.7a54.35,54.35,0,0,1,9.17,15.43c3.56,9.2,6.85,24.42,5.25,33.94C114.07,87.78,105.51,94,95.36,102.57c-22.83,19.28-50,21.83-76.31-6.49C-4,71.32,2.58,39.05,25.4,19.76Z"/><path class="cls-4" d="M28,22.83C43.83,9.45,58.07,4.55,75.49,13.37c5.84,3,18.68,10.16,23.16,15.47a49.93,49.93,0,0,1,8.49,14.29c3.3,8.51,6.35,22.61,4.86,31.42-1.9,11.27-9.83,17-19.23,25-21.14,17.86-46.26,20.21-70.66-6C.77,70.57,6.85,40.68,28,22.83Z"/><path class="cls-5" d="M29.47,24.58c15.11-12.77,28.7-17.45,45.33-9,5.57,2.81,17.82,9.69,22.1,14.76A48,48,0,0,1,105,44c3.14,8.13,6,21.58,4.63,30-1.81,10.75-9.38,16.24-18.35,23.82-20.17,17-44.15,19.29-67.43-5.73C3.49,70.14,9.3,41.62,29.47,24.58Z"/><path class="cls-6" d="M16,65.39c.39,4,1.57,8.2,4.75,10.6,1.08.81,2.58,1.36,3.76.71S26,74.4,26.14,73a34.78,34.78,0,0,0,.24-7.76C25.89,61.12,23.94,57,25.12,53c.73-2.45,2.54-4.38,4-6.49a23.94,23.94,0,0,0,4.16-12.35c.51-10.31-11.27,5.65-12.6,8.14A41.12,41.12,0,0,0,16,65.39Z"/><path class="cls-6" d="M19,27.48c-.82.87-1.67,2-1.39,3.13a4.45,4.45,0,0,0,2.88-1.74c2.91-3.07,5.57-6.44,9-8.86,2.51-1.76,6.09-3,7.9-5.51C33.71,11.62,21.48,24.86,19,27.48Z"/><path class="cls-6" d="M53.59,6.37a1.06,1.06,0,0,0-.57.36c-.27.39.07,1,.53,1.1a2.39,2.39,0,0,0,1.39-.14,21.53,21.53,0,0,1,5.34-.83,10.45,10.45,0,0,1,4.27.6c1.07.44,2,1.13,3,1.64a7.79,7.79,0,0,0,3.62.87C70.53,3.88,57.53,5,53.59,6.37Z"/><path class="cls-7" d="M101,43c-.59-2.22-5.26-10.15-6.87-11.13-1.8-1.08-4.49-.88-5.55-2.7-.49-.85-.46-1.94-1-2.74-.77-1.06-2.34-1.17-3.6-.8s-2.39,1.1-3.66,1.42c-2.43.81-3.56-.8-3.74-2.8a7,7,0,0,0-5.61-6.44c-1.39-.26-2.81-.5-4.29-.71-24.33-3.45-47.6,11.3-53.28,38.54-2,9.74,9.81,5.84,8.32,10.29a34.88,34.88,0,0,1-2.36,4.79A9.87,9.87,0,0,0,18,75.77a4.43,4.43,0,0,0,2.95,4c1.29.34,3,.06,3.66,1.24a2.71,2.71,0,0,1,.25,1.29L25,88.12c0,.31-.37,3.81,3.66,6.84a73.54,73.54,0,0,0,10.76,7.23,2.6,2.6,0,0,0,2.63-.19c.48-.3,1.12-.24,1.9.48a1.82,1.82,0,0,1,.44,1A2.46,2.46,0,0,0,46,105.27,40.9,40.9,0,0,0,51.38,107a2.36,2.36,0,0,0,2.48-.87h0a21.73,21.73,0,0,0,1.28-2.82c1.32-2.56,4.49-3.63,7.36-3.57s5.66,1,8.51,1.41c8.65,1.19,17.08-2.76,24.9-6.71a2,2,0,0,0,.39-.25c3.38-2.55,6.31-5.35,7.85-8.36,2.2-4.3,1.54-10,2.25-15C107.28,64.7,102.5,48.56,101,43Z"/><path class="cls-8" d="M25.39,51.82C23.62,58.34,25.16,66.27,30.8,70c2.14,1.43,4.74,2.17,6.6,4,2.53,2.42,3.33,6.42,6.28,8.3,3.81,2.44,8.82,0,13.33.45,2.56.24,4.92,1.4,7.38,2.12,6.16,1.77,13.26.47,18-3.86S89,69.26,86.32,63.43a14.16,14.16,0,0,1-1.47-3.68c-.37-2.62,1.44-5,2.41-7.44,1.75-4.39.78-9.41-.92-13.82-1.31-3.41-3.3-6.9-6.67-8.28a12.52,12.52,0,0,0-5.61-.66A29.51,29.51,0,0,0,59.17,34.8a8.8,8.8,0,0,1-2.52,1.44c-3.61,1.08-6.86-2.82-10.09-3.8-2.85-.86-6.39-.92-9,.61C31.94,36.33,27,45.87,25.39,51.82Z"/><path class="cls-9" d="M32.77,64a15.25,15.25,0,0,0,2.74,6C39.67,75,47.31,75,53.87,74.54a26.59,26.59,0,0,0,8.18-1.44c6-2.41,9.44-8.78,11.13-15a27.5,27.5,0,0,0,.73-13.41C70.84,31.5,55.72,31.4,45.22,35.47S30.17,53.75,32.77,64Z"/><path class="cls-4" d="M50.33,73.47c-1.82-1.3-3.72-2.81-4.23-5-.58-2.55.86-5.2,1.61-7.79,1.9-6.59-1.31-14-7.47-16.51s-14.54.77-17.47,7A25.32,25.32,0,0,0,21,58.35c-.23,1.56-.45,3.11-.68,4.66a5.14,5.14,0,0,0,0,2.31,4.73,4.73,0,0,0,2.32,2.24c5.58,3.3,11.68,7.6,11.94,14.18A6.74,6.74,0,0,0,35,84.37a4.44,4.44,0,0,0,2,1.76A39.21,39.21,0,0,0,58.68,91c4.79-.31,7.69-4.73,4.86-8.66S54.18,76.21,50.33,73.47Z"/><path class="cls-4" d="M59.45,45.11a9.47,9.47,0,0,0,1.71,3.71C63.75,52,68.51,52,72.6,51.7a16.57,16.57,0,0,0,5.1-.9c3.74-1.5,5.88-5.47,6.94-9.36a17.07,17.07,0,0,0,.45-8.36c-1.92-8.21-11.34-8.27-17.88-5.73S57.83,38.74,59.45,45.11Z"/><path class="cls-10" d="M63,43.35A6.82,6.82,0,0,0,64.27,46c1.86,2.28,5.28,2.28,8.22,2.07a12.18,12.18,0,0,0,3.66-.64c2.69-1.08,4.23-3.94,5-6.73a12.35,12.35,0,0,0,.33-6c-1.38-5.91-8.15-5.95-12.85-4.13S61.88,38.77,63,43.35Z"/><path class="cls-4" d="M73.67,73.84a9.47,9.47,0,0,0,1.71,3.71c2.59,3.18,7.36,3.17,11.44,2.88a16.86,16.86,0,0,0,5.1-.89c3.74-1.5,5.88-5.48,6.94-9.37a17,17,0,0,0,.45-8.35C97.4,53.6,88,53.55,81.43,56.08S72.05,67.48,73.67,73.84Z"/><path class="cls-10" d="M77.26,72.08a6.86,6.86,0,0,0,1.23,2.67C80.35,77,83.78,77,86.71,76.82a11.89,11.89,0,0,0,3.66-.65c2.69-1.08,4.23-3.93,5-6.73a12.35,12.35,0,0,0,.33-6c-1.38-5.9-8.15-5.94-12.85-4.12S76.1,67.51,77.26,72.08Z"/><path class="cls-10" d="M25.51,55.15a6.34,6.34,0,0,0,0,4.56,3.92,3.92,0,0,0,3.66,2.42,1.3,1.3,0,0,1,.9.11,1,1,0,0,1,.31.65c.22,1.14.33,2.3.54,3.45a20.51,20.51,0,0,0,5.3,10.43c2.78,2.92,6.63,5,10.66,5,1.41,0,3-.46,3.59-1.73a1.23,1.23,0,0,0,.12-.59,1.51,1.51,0,0,0-.58-.83,29.7,29.7,0,0,1-4-4.44A8.9,8.9,0,0,1,44,67.45c.14-4.11,1.21-8.25.4-12.28a7.82,7.82,0,0,0-2.63-4.73,10,10,0,0,0-4.1-1.59c-1.57-.33-3.16-.6-4.76-.81a7,7,0,0,0-3.64.21c-1.46.61-1.41,1.57-1.73,2.83S26,53.72,25.51,55.15Z"/><path class="cls-11" d="M80.1,87.51c3.75,1.68,5.6,5.69,4.14,9s-5.69,4.58-9.44,2.9-5.6-5.69-4.14-9S76.35,85.84,80.1,87.51Z"/><path class="cls-12" d="M80.48,87.27c3.75,1.67,5.71,5.45,4.38,8.43s-5.45,4-9.2,2.37S70,92.62,71.28,89.64,76.73,85.59,80.48,87.27Z"/><path class="cls-13" d="M80.71,96.86a2.69,2.69,0,0,0,2.1-.76,3.57,3.57,0,0,0,0-3.92,6.56,6.56,0,0,0-2.93-2.34,9,9,0,0,0-4.34-1.19,2.13,2.13,0,0,0-1.9,1,3.52,3.52,0,0,0,0,2.44C74.73,96.15,77.6,96.91,80.71,96.86Z"/><path class="cls-14" d="M78.08,94.12a2.51,2.51,0,0,0-.35.44c-.11.18-.18.45,0,.58a.32.32,0,0,0,.44-.09.66.66,0,0,0,.1-.48,1.09,1.09,0,0,0-.18-.45"/><path class="cls-15" d="M78.12,94.63a.5.5,0,0,1-.07.3.19.19,0,0,1-.16.1.17.17,0,0,1-.14-.17.48.48,0,0,1,.07-.23,1.07,1.07,0,0,1,.19-.28C78.1,94.39,78.11,94.54,78.12,94.63Z"/><path class="cls-16" d="M78.06,94.71h0a.18.18,0,0,0-.07,0l-.08.09c-.1.1,0,.22.12.14S78.12,94.74,78.06,94.71Z"/><path class="cls-14" d="M76.58,93.17a1.83,1.83,0,0,0-.5-.26c-.2-.07-.47-.08-.57.1a.33.33,0,0,0,.17.42.69.69,0,0,0,.49,0,.9.9,0,0,0,.41-.26"/><path class="cls-15" d="M76.08,93.3a.47.47,0,0,1-.31,0s-.11-.07-.12-.13a.18.18,0,0,1,.14-.18A.37.37,0,0,1,76,93a.9.9,0,0,1,.32.13C76.32,93.24,76.17,93.28,76.08,93.3Z"/><path class="cls-16" d="M76,93.26v0a.12.12,0,0,0-.06-.06l-.11-.07c-.12-.07-.21.07-.11.15S76,93.33,76,93.26Z"/><path class="cls-14" d="M79.79,92.41a2.05,2.05,0,0,0,.55,0c.21,0,.45-.18.44-.39a.34.34,0,0,0-.37-.26A.67.67,0,0,0,80,92c-.14.15-.13.24-.2.44"/><path class="cls-15" d="M80.13,92a.54.54,0,0,1,.27-.16.18.18,0,0,1,.17,0,.16.16,0,0,1,0,.22.38.38,0,0,1-.21.1,1.35,1.35,0,0,1-.34.06C80,92.21,80.07,92.1,80.13,92Z"/><path class="cls-16" d="M80.23,92a0,0,0,0,0,0,0,.15.15,0,0,0,.09,0h.12c.14,0,.15-.17,0-.18S80.21,92,80.23,92Z"/><path class="cls-14" d="M81.2,94.11a1.75,1.75,0,0,0,.12.55c.07.2.24.42.45.37a.32.32,0,0,0,.2-.4.65.65,0,0,0-.31-.38.92.92,0,0,0-.46-.14"/><path class="cls-15" d="M81.62,94.4a.45.45,0,0,1,.19.24.19.19,0,0,1,0,.18.17.17,0,0,1-.22,0,.46.46,0,0,1-.13-.2.92.92,0,0,1-.11-.33C81.42,94.26,81.55,94.35,81.62,94.4Z"/><path class="cls-16" d="M81.64,94.49l0,0a.14.14,0,0,0,0,.09v.12a.1.1,0,1,0,.19,0C81.82,94.65,81.7,94.46,81.64,94.49Z"/><path class="cls-14" d="M79.17,91.64a2.42,2.42,0,0,0,.45-.34c.15-.15.28-.39.15-.56a.32.32,0,0,0-.45,0,.69.69,0,0,0-.22.44,1,1,0,0,0,.07.48"/><path class="cls-15" d="M79.26,91.13a.47.47,0,0,1,.14-.27.18.18,0,0,1,.17,0,.16.16,0,0,1,.1.19.45.45,0,0,1-.12.21,1.43,1.43,0,0,1-.26.23C79.22,91.37,79.25,91.22,79.26,91.13Z"/><path class="cls-16" d="M79.33,91.08h0s0,0,.08,0l.1-.07a.09.09,0,1,0-.08-.17S79.28,91,79.33,91.08Z"/><path class="cls-14" d="M77.32,91.54a2.13,2.13,0,0,0,.31-.47c.1-.19.15-.46,0-.58a.33.33,0,0,0-.43.12.69.69,0,0,0-.07.49,1.08,1.08,0,0,0,.22.44"/><path class="cls-15" d="M77.24,91a.54.54,0,0,1,.05-.31.18.18,0,0,1,.14-.1.16.16,0,0,1,.16.15.46.46,0,0,1,0,.23,1,1,0,0,1-.18.3C77.28,91.27,77.26,91.12,77.24,91Z"/><path class="cls-16" d="M77.29,91h0a.18.18,0,0,0,.07,0l.07-.1c.09-.11,0-.22-.13-.13S77.23,90.92,77.29,91Z"/><path class="cls-14" d="M76.1,91.31a2.09,2.09,0,0,0,0-.56c0-.21-.19-.45-.4-.43a.33.33,0,0,0-.26.37.69.69,0,0,0,.27.42c.15.14.24.13.44.2"/><path class="cls-15" d="M75.72,91a.5.5,0,0,1-.17-.26.18.18,0,0,1,0-.17.17.17,0,0,1,.22,0,.57.57,0,0,1,.11.22,1.21,1.21,0,0,1,.06.34C75.9,91.12,75.78,91,75.72,91Z"/><path class="cls-16" d="M75.71,90.87l0,0a.19.19,0,0,0,0-.08v-.12c0-.14-.17-.15-.18,0S75.64,90.89,75.71,90.87Z"/><path class="cls-14" d="M76.1,92a2.07,2.07,0,0,0-.44-.34c-.18-.11-.45-.17-.58,0a.32.32,0,0,0,.09.44.69.69,0,0,0,.49.09A1,1,0,0,0,76.1,92"/><path class="cls-15" d="M75.59,92a.52.52,0,0,1-.3-.06.21.21,0,0,1-.1-.16.16.16,0,0,1,.17-.14.43.43,0,0,1,.22.06,1.45,1.45,0,0,1,.29.19C75.84,92,75.68,92,75.59,92Z"/><path class="cls-16" d="M75.52,92v0a.18.18,0,0,0,0-.07l-.09-.08c-.11-.1-.22,0-.14.12S75.49,92,75.52,92Z"/><path class="cls-14" d="M77.21,93.62a2.61,2.61,0,0,0-.55.14c-.19.08-.41.25-.36.46a.33.33,0,0,0,.41.19.68.68,0,0,0,.37-.32,1.06,1.06,0,0,0,.13-.47"/><path class="cls-15" d="M76.93,94.05a.47.47,0,0,1-.24.2.19.19,0,0,1-.18,0,.17.17,0,0,1,0-.22.38.38,0,0,1,.19-.14,1,1,0,0,1,.33-.11C77.06,93.85,77,94,76.93,94.05Z"/><path class="cls-16" d="M76.84,94.08l0,0a.14.14,0,0,0-.09,0l-.12,0c-.14,0-.12.19,0,.18S76.87,94.14,76.84,94.08Z"/><path class="cls-14" d="M80.69,92.87a2.39,2.39,0,0,0,.54.15c.21,0,.48,0,.54-.23a.34.34,0,0,0-.26-.37.74.74,0,0,0-.48.11c-.19.1-.21.18-.34.34"/><path class="cls-15" d="M81.14,92.63a.56.56,0,0,1,.31-.06.2.2,0,0,1,.14.11.16.16,0,0,1-.09.19.39.39,0,0,1-.24,0,1.35,1.35,0,0,1-.34-.06C80.93,92.75,81.07,92.68,81.14,92.63Z"/><path class="cls-16" d="M81.23,92.66a0,0,0,0,1,0,0l.08,0,.11,0a.09.09,0,1,0,.08-.17C81.46,92.57,81.24,92.59,81.23,92.66Z"/><path class="cls-14" d="M79.23,94.77a2.11,2.11,0,0,0,0,.56c0,.21.12.47.34.48a.34.34,0,0,0,.3-.34.73.73,0,0,0-.21-.45,1,1,0,0,0-.42-.25"/><path class="cls-15" d="M79.57,95.16a.52.52,0,0,1,.13.28.19.19,0,0,1-.07.17.16.16,0,0,1-.21,0,.35.35,0,0,1-.08-.22,1,1,0,0,1,0-.35C79.41,95,79.51,95.09,79.57,95.16Z"/><path class="cls-16" d="M79.57,95.25l0,0a.11.11,0,0,0,0,.08v.12c0,.14.14.17.18,0S79.64,95.24,79.57,95.25Z"/><path class="cls-17" d="M78.06,91.38c-.22.14-.25.48-.49.58a2.1,2.1,0,0,1-.36,0c-.78.06-.61,1.29-.22,1.67a.81.81,0,0,0,.8.13.94.94,0,0,0,.66,0l0,0c0,.09,0,.17,0,.25a1.42,1.42,0,0,0,1.2,1,1,1,0,0,0,1.09-1,.92.92,0,0,1,0-.4,2,2,0,0,0,.1-.21c.13-.32-.28-.63-.64-.67a5.71,5.71,0,0,1-1.1-.07,1.15,1.15,0,0,1-.23-.1c0-.11.08-.23.1-.34a.8.8,0,0,0-.67-.91A.54.54,0,0,0,78.06,91.38Z"/><path class="cls-11" d="M23.54,73.43c-2.94,2.87-7.35,3.11-9.86.55s-2.16-7,.78-9.85,7.36-3.11,9.86-.54S26.48,70.56,23.54,73.43Z"/><ellipse class="cls-12" cx="19.5" cy="69.64" rx="7.44" ry="5.92" transform="translate(-43.1 33.42) rotate(-44.3)"/><path class="cls-13" d="M14.63,70.56a2.67,2.67,0,0,0-.07,2.23c.57,1.14,2.3,1.67,3.64,1.44a6.64,6.64,0,0,0,3.26-1.86,9.07,9.07,0,0,0,2.71-3.6,2.13,2.13,0,0,0-.28-2.15,3.54,3.54,0,0,0-2.26-.93C17.5,65.25,15.72,67.64,14.63,70.56Z"/><path class="cls-14" d="M18.14,69.12a2.34,2.34,0,0,0-.27-.49c-.13-.17-.35-.33-.54-.23a.33.33,0,0,0-.08.45.73.73,0,0,0,.41.27,1,1,0,0,0,.48,0"/><path class="cls-15" d="M17.65,69a.44.44,0,0,1-.25-.17.17.17,0,0,1,0-.18.17.17,0,0,1,.21-.07.52.52,0,0,1,.18.15A1.79,1.79,0,0,1,18,69C17.89,69,17.74,69,17.65,69Z"/><path class="cls-16" d="M17.61,68.88a0,0,0,0,0,0,0,.19.19,0,0,0,0-.08l-.05-.11c-.06-.13-.22-.07-.18.06S17.56,68.93,17.61,68.88Z"/><path class="cls-14" d="M19.58,68.08a2.54,2.54,0,0,0,.43-.37c.14-.16.25-.41.11-.57a.33.33,0,0,0-.45,0,.76.76,0,0,0-.19.46,1.15,1.15,0,0,0,.1.48"/><path class="cls-15" d="M19.64,67.56a.42.42,0,0,1,.12-.28.19.19,0,0,1,.17-.07.18.18,0,0,1,.11.19.43.43,0,0,1-.11.21,1.14,1.14,0,0,1-.24.25C19.61,67.81,19.63,67.65,19.64,67.56Z"/><path class="cls-16" d="M19.71,67.5s0,0,0,0a.12.12,0,0,0,.08,0l.1-.07c.11-.08,0-.22-.1-.16S19.65,67.46,19.71,67.5Z"/><path class="cls-14" d="M19.11,71.34a2,2,0,0,0-.17.53c0,.21,0,.49.2.55a.33.33,0,0,0,.38-.25.63.63,0,0,0-.08-.48c-.09-.19-.18-.22-.33-.35"/><path class="cls-15" d="M19.33,71.8a.52.52,0,0,1,.05.3.2.2,0,0,1-.11.15.19.19,0,0,1-.2-.1.49.49,0,0,1,0-.24,1,1,0,0,1,.07-.34C19.22,71.58,19.29,71.72,19.33,71.8Z"/><path class="cls-16" d="M19.3,71.89h0s0,0-.05.07l0,.11c-.06.13.09.2.16.09S19.37,71.89,19.3,71.89Z"/><path class="cls-14" d="M17,72a2.53,2.53,0,0,0-.55-.09c-.21,0-.48.07-.51.28a.32.32,0,0,0,.3.34.66.66,0,0,0,.46-.15A1,1,0,0,0,17,72"/><path class="cls-15" d="M16.58,72.31a.62.62,0,0,1-.3.09.2.2,0,0,1-.16-.09.19.19,0,0,1,.08-.21.43.43,0,0,1,.23,0,1,1,0,0,1,.34,0C16.78,72.17,16.65,72.26,16.58,72.31Z"/><path class="cls-16" d="M16.48,72.29s0,0,0,0l-.07,0-.12,0c-.14,0-.19.13-.06.18S16.49,72.36,16.48,72.29Z"/><path class="cls-14" d="M20.05,71a1.8,1.8,0,0,0,.15.55c.08.19.25.4.46.35a.33.33,0,0,0,.19-.41.74.74,0,0,0-.33-.37,1.26,1.26,0,0,0-.47-.12"/><path class="cls-15" d="M20.48,71.32a.47.47,0,0,1,.21.23.19.19,0,0,1,0,.18.18.18,0,0,1-.22,0,.67.67,0,0,1-.14-.19,1.46,1.46,0,0,1-.12-.33C20.28,71.19,20.41,71.27,20.48,71.32Z"/><path class="cls-16" d="M20.51,71.41s0,0,0,0,0,0,0,.08l0,.12c0,.14.19.12.19,0S20.57,71.38,20.51,71.41Z"/><path class="cls-14" d="M20.83,69.36a2.13,2.13,0,0,0,.31.47c.14.16.38.3.55.18a.33.33,0,0,0,0-.45.77.77,0,0,0-.43-.24,1.12,1.12,0,0,0-.48,0"/><path class="cls-15" d="M21.33,69.48a.4.4,0,0,1,.26.16.18.18,0,0,1,.05.17.16.16,0,0,1-.2.09.46.46,0,0,1-.2-.14,1.09,1.09,0,0,1-.21-.27C21.09,69.43,21.24,69.46,21.33,69.48Z"/><path class="cls-16" d="M21.38,69.56a0,0,0,0,0,0,0,.11.11,0,0,0,0,.08l.06.11a.09.09,0,1,0,.17-.07C21.61,69.64,21.43,69.51,21.38,69.56Z"/><path class="cls-14" d="M21.49,68.32a2.39,2.39,0,0,0,.54.15c.21,0,.48,0,.54-.21a.34.34,0,0,0-.25-.38.72.72,0,0,0-.49.1c-.18.09-.2.18-.34.34"/><path class="cls-15" d="M22,68.09a.46.46,0,0,1,.3-.06.19.19,0,0,1,.15.11.16.16,0,0,1-.1.19.39.39,0,0,1-.24,0,1.21,1.21,0,0,1-.33-.07C21.73,68.2,21.87,68.13,22,68.09Z"/><path class="cls-16" d="M22,68.11s0,0,0,0,0,0,.07.05l.11,0c.14.06.2-.1.09-.16S22,68,22,68.11Z"/><path class="cls-14" d="M20.87,68.07a2.31,2.31,0,0,0,.48-.28c.17-.14.32-.36.22-.54a.33.33,0,0,0-.45-.08.69.69,0,0,0-.26.42,1,1,0,0,0,0,.48"/><path class="cls-15" d="M21,67.58a.52.52,0,0,1,.17-.26.19.19,0,0,1,.18,0,.18.18,0,0,1,.08.2.47.47,0,0,1-.15.19.9.9,0,0,1-.28.2C21,67.82,21,67.67,21,67.58Z"/><path class="cls-16" d="M21.09,67.53h0s.05,0,.08,0l.11,0a.1.1,0,1,0-.06-.18C21.19,67.31,21.05,67.48,21.09,67.53Z"/><path class="cls-14" d="M18.93,68.49a2.08,2.08,0,0,0,.07-.55c0-.22-.08-.48-.29-.51a.34.34,0,0,0-.34.31.73.73,0,0,0,.17.46c.12.17.21.18.39.29"/><path class="cls-15" d="M18.63,68.07a.51.51,0,0,1-.1-.29.19.19,0,0,1,.08-.16.16.16,0,0,1,.21.07.36.36,0,0,1,.06.23,1,1,0,0,1,0,.34C18.77,68.27,18.68,68.14,18.63,68.07Z"/><path class="cls-16" d="M18.64,68h0a.2.2,0,0,0,0-.08l0-.12c0-.14-.13-.18-.17-.06S18.57,68,18.64,68Z"/><path class="cls-14" d="M18.34,72a2.36,2.36,0,0,0-.33.45c-.11.19-.16.46,0,.59a.33.33,0,0,0,.44-.11.73.73,0,0,0,.08-.48,1.13,1.13,0,0,0-.2-.45"/><path class="cls-15" d="M18.4,72.51a.54.54,0,0,1-.06.31.2.2,0,0,1-.15.1.17.17,0,0,1-.15-.16.46.46,0,0,1,.06-.23,1.83,1.83,0,0,1,.18-.3C18.37,72.27,18.39,72.43,18.4,72.51Z"/><path class="cls-16" d="M18.34,72.59h0a.18.18,0,0,0-.07,0l-.08.09c-.1.11,0,.22.12.14S18.4,72.62,18.34,72.59Z"/><path class="cls-14" d="M17.11,70a2.31,2.31,0,0,0-.51-.22c-.21-.06-.48-.06-.57.14a.33.33,0,0,0,.2.4.67.67,0,0,0,.5,0c.19-.07.23-.15.38-.29"/><path class="cls-15" d="M16.63,70.12a.42.42,0,0,1-.31,0,.18.18,0,0,1-.13-.12.16.16,0,0,1,.12-.18.39.39,0,0,1,.24,0,.87.87,0,0,1,.32.11C16.86,70,16.71,70.09,16.63,70.12Z"/><path class="cls-16" d="M16.54,70.09v0a.12.12,0,0,0-.07,0L16.36,70c-.12-.07-.21.07-.1.15S16.53,70.15,16.54,70.09Z"/><path class="cls-17" d="M20.69,70.11c0-.25-.35-.41-.35-.67a1,1,0,0,1,.11-.34c.23-.75-1-1-1.48-.82a.81.81,0,0,0-.41.69.91.91,0,0,0-.21.63s0,0,0,.06l-.25,0a1.39,1.39,0,0,0-1.41.73,1,1,0,0,0,.51,1.38.94.94,0,0,1,.38.12c.06,0,.1.12.16.17.25.23.69,0,.86-.35a5.4,5.4,0,0,1,.47-1,1,1,0,0,1,.18-.17c.09.06.18.15.28.21a.8.8,0,0,0,1.09-.28A.5.5,0,0,0,20.69,70.11Z"/><path class="cls-11" d="M67,31.13c3.56-2.05,7.9-1.18,9.69,1.93s.35,7.3-3.22,9.34-7.89,1.18-9.68-1.93S63.45,33.17,67,31.13Z"/><path class="cls-12" d="M67,30.68c3.56-2.05,7.76-1.41,9.39,1.42s.06,6.79-3.5,8.84-7.77,1.4-9.4-1.43S63.48,32.72,67,30.68Z"/><path class="cls-13" d="M74.93,36.14A2.73,2.73,0,0,0,75.55,34a3.58,3.58,0,0,0-3.17-2.3,6.67,6.67,0,0,0-3.62,1,9.11,9.11,0,0,0-3.52,2.82A2.15,2.15,0,0,0,65,37.64a3.5,3.5,0,0,0,2,1.46C70.82,40.56,73.14,38.69,74.93,36.14Z"/><path class="cls-14" d="M71.16,36.65a2.39,2.39,0,0,0,.15.54c.08.2.26.41.46.36a.33.33,0,0,0,.19-.41.7.7,0,0,0-.33-.37,1.06,1.06,0,0,0-.47-.12"/><path class="cls-15" d="M71.6,36.93a.45.45,0,0,1,.2.23.22.22,0,0,1,0,.18.17.17,0,0,1-.22,0,.41.41,0,0,1-.15-.19,1.21,1.21,0,0,1-.11-.32C71.39,36.8,71.52,36.88,71.6,36.93Z"/><path class="cls-16" d="M71.62,37a0,0,0,0,1,0,0s0,.06,0,.09l0,.12c0,.14.19.12.18,0S71.68,37,71.62,37Z"/><path class="cls-14" d="M69.51,37.3a2.16,2.16,0,0,0-.5.26c-.18.12-.35.33-.26.52a.33.33,0,0,0,.44.1.69.69,0,0,0,.3-.39,1.15,1.15,0,0,0,0-.49"/><path class="cls-15" d="M69.33,37.79a.5.5,0,0,1-.19.24.19.19,0,0,1-.18,0,.16.16,0,0,1-.06-.21.46.46,0,0,1,.16-.18,1.75,1.75,0,0,1,.29-.18C69.41,37.56,69.36,37.7,69.33,37.79Z"/><path class="cls-16" d="M69.24,37.83h0a.11.11,0,0,0-.08,0l-.11.05c-.14,0-.08.21,0,.17S69.29,37.88,69.24,37.83Z"/><path class="cls-14" d="M70.78,34.27a2.41,2.41,0,0,0,.3-.48c.08-.2.12-.47-.07-.58a.32.32,0,0,0-.42.14.64.64,0,0,0,0,.49c0,.21.12.25.23.43"/><path class="cls-15" d="M70.68,33.76a.48.48,0,0,1,0-.31.22.22,0,0,1,.14-.11c.08,0,.15.07.17.15a.46.46,0,0,1,0,.23,1.11,1.11,0,0,1-.15.31C70.73,34,70.7,33.85,70.68,33.76Z"/><path class="cls-16" d="M70.73,33.68h0a.17.17,0,0,0,.06-.06l.07-.09c.09-.12,0-.22-.14-.13S70.67,33.66,70.73,33.68Z"/><path class="cls-14" d="M73,34.13a2.31,2.31,0,0,0,.51.22c.21.06.48,0,.57-.14a.34.34,0,0,0-.2-.41.78.78,0,0,0-.5,0,1.1,1.1,0,0,0-.38.3"/><path class="cls-15" d="M73.47,34a.47.47,0,0,1,.31,0,.17.17,0,0,1,.13.13.17.17,0,0,1-.12.18.49.49,0,0,1-.24,0,.87.87,0,0,1-.32-.11C73.24,34,73.39,34,73.47,34Z"/><path class="cls-16" d="M73.56,34v0a.18.18,0,0,0,.07,0l.11.06c.12.07.21-.08.1-.15S73.57,33.93,73.56,34Z"/><path class="cls-14" d="M69.8,34.31a2.11,2.11,0,0,0,0-.56c0-.21-.15-.46-.36-.46a.35.35,0,0,0-.29.35.7.7,0,0,0,.23.44,1,1,0,0,0,.43.23"/><path class="cls-15" d="M69.44,33.94a.5.5,0,0,1-.14-.28.21.21,0,0,1,.06-.17.18.18,0,0,1,.22,0,.43.43,0,0,1,.09.22,1,1,0,0,1,0,.35C69.61,34.12,69.51,34,69.44,33.94Z"/><path class="cls-16" d="M69.44,33.85s0,0,0,0,0,0,0-.08v-.12c0-.14-.15-.16-.18,0S69.38,33.86,69.44,33.85Z"/><path class="cls-14" d="M68.62,35.75a2.37,2.37,0,0,0-.18-.53c-.1-.19-.29-.39-.49-.32a.33.33,0,0,0-.16.42.72.72,0,0,0,.36.35,1.06,1.06,0,0,0,.47.08"/><path class="cls-15" d="M68.17,35.51a.47.47,0,0,1-.22-.22.15.15,0,0,1,.22-.21.44.44,0,0,1,.15.18.87.87,0,0,1,.14.31C68.39,35.62,68.25,35.55,68.17,35.51Z"/><path class="cls-16" d="M68.14,35.42v0a.27.27,0,0,0,0-.09l0-.11c0-.14-.2-.11-.19,0S68.08,35.46,68.14,35.42Z"/><path class="cls-14" d="M67.72,36.6a2,2,0,0,0-.48-.29c-.2-.08-.47-.11-.58.07a.32.32,0,0,0,.15.43.69.69,0,0,0,.49,0,1.18,1.18,0,0,0,.42-.24"/><path class="cls-15" d="M67.22,36.7a.42.42,0,0,1-.31,0,.17.17,0,0,1-.11-.14.15.15,0,0,1,.14-.16.36.36,0,0,1,.23,0,1.17,1.17,0,0,1,.32.15C67.46,36.65,67.31,36.68,67.22,36.7Z"/><path class="cls-16" d="M67.14,36.66v0l-.06-.06L67,36.5c-.12-.08-.22,0-.12.14S67.12,36.72,67.14,36.66Z"/><path class="cls-14" d="M68.26,37a2.76,2.76,0,0,0-.54.16c-.19.09-.4.27-.34.47a.32.32,0,0,0,.41.18.68.68,0,0,0,.36-.33,1,1,0,0,0,.11-.48"/><path class="cls-15" d="M68,37.43a.45.45,0,0,1-.23.2.17.17,0,0,1-.18,0,.18.18,0,0,1,0-.22.4.4,0,0,1,.19-.14,1.27,1.27,0,0,1,.32-.13C68.12,37.22,68,37.35,68,37.43Z"/><path class="cls-16" d="M67.91,37.45H67.8l-.11,0c-.14,0-.12.19,0,.19S67.94,37.51,67.91,37.45Z"/><path class="cls-14" d="M70.25,37.06a2,2,0,0,0-.21.53c-.05.2,0,.48.16.56a.32.32,0,0,0,.39-.22.7.7,0,0,0,0-.49,1.1,1.1,0,0,0-.3-.38"/><path class="cls-15" d="M70.43,37.54a.47.47,0,0,1,0,.31.21.21,0,0,1-.12.14.16.16,0,0,1-.18-.12.39.39,0,0,1,0-.24,1.26,1.26,0,0,1,.1-.33C70.34,37.32,70.4,37.46,70.43,37.54Z"/><path class="cls-16" d="M70.4,37.63h0a.15.15,0,0,0-.05.06l-.06.11c-.06.13.09.21.16.1S70.46,37.64,70.4,37.63Z"/><path class="cls-14" d="M71.69,33.81a2.51,2.51,0,0,0,.44-.35c.14-.16.27-.4.13-.57a.33.33,0,0,0-.45,0,.69.69,0,0,0-.2.45,1,1,0,0,0,.08.48"/><path class="cls-15" d="M71.76,33.3a.56.56,0,0,1,.13-.28.23.23,0,0,1,.18-.06.18.18,0,0,1,.1.19.38.38,0,0,1-.12.21,1,1,0,0,1-.25.24C71.73,33.54,71.75,33.39,71.76,33.3Z"/><path class="cls-16" d="M71.84,33.24h0a.19.19,0,0,0,.08,0l.1-.07c.12-.08,0-.22-.09-.17S71.78,33.2,71.84,33.24Z"/><path class="cls-14" d="M72.37,36.1a2.12,2.12,0,0,0,.44.35c.18.1.45.17.58,0A.32.32,0,0,0,73.3,36a.68.68,0,0,0-.48-.09,1,1,0,0,0-.45.18"/><path class="cls-15" d="M72.88,36.06a.49.49,0,0,1,.3.06.19.19,0,0,1,.1.16.16.16,0,0,1-.17.14.43.43,0,0,1-.22-.06,1.45,1.45,0,0,1-.29-.19C72.64,36.08,72.79,36.07,72.88,36.06Z"/><path class="cls-16" d="M73,36.12s0,0,0,0a.18.18,0,0,0,0,.07l.09.08c.11.1.22,0,.14-.12S73,36.05,73,36.12Z"/><path class="cls-17" d="M68.94,35.06c0,.25.24.48.18.73a1.17,1.17,0,0,1-.2.31c-.4.66.69,1.25,1.23,1.16a.78.78,0,0,0,.57-.57.91.91,0,0,0,.37-.55s0,0,0-.06l.24.1a1.39,1.39,0,0,0,1.55-.35,1,1,0,0,0-.16-1.46c-.11-.07-.26-.11-.34-.22s-.06-.13-.1-.2c-.19-.29-.68-.15-.93.12a5.36,5.36,0,0,1-.7.86l-.21.12c-.08-.09-.15-.19-.22-.28a.8.8,0,0,0-1.13,0A.47.47,0,0,0,68.94,35.06Z"/><path class="cls-11" d="M88.54,42c-1-4,.94-7.93,4.41-8.84s7.13,1.59,8.17,5.56-.94,7.93-4.41,8.84S89.58,46,88.54,42Z"/><ellipse class="cls-12" cx="93.84" cy="40.37" rx="5.92" ry="7.44" transform="translate(-7.15 24.97) rotate(-14.61)"/><path class="cls-13" d="M95.45,35.69a2.75,2.75,0,0,0-1.9-1.17,3.56,3.56,0,0,0-3,2.46,6.65,6.65,0,0,0,0,3.75,9.08,9.08,0,0,0,1.79,4.13,2.13,2.13,0,0,0,2,.83,3.55,3.55,0,0,0,1.92-1.5C98.64,40.81,97.44,38.09,95.45,35.69Z"/><path class="cls-14" d="M95,39.46a2.62,2.62,0,0,0,.56,0c.21,0,.46-.14.46-.35a.32.32,0,0,0-.34-.3.7.7,0,0,0-.44.23c-.15.14-.15.23-.24.42"/><path class="cls-15" d="M95.34,39.11a.43.43,0,0,1,.28-.13.18.18,0,0,1,.17.06.17.17,0,0,1,0,.21.39.39,0,0,1-.23.09,1.31,1.31,0,0,1-.34,0C95.16,39.28,95.27,39.17,95.34,39.11Z"/><path class="cls-16" d="M95.43,39.11l0,0a.11.11,0,0,0,.08,0l.12,0a.1.1,0,1,0,0-.19C95.63,39,95.42,39,95.43,39.11Z"/><path class="cls-14" d="M95.16,41.23a2.15,2.15,0,0,0,.11.55c.07.2.23.42.44.38a.33.33,0,0,0,.21-.4.77.77,0,0,0-.3-.39,1,1,0,0,0-.46-.14"/><path class="cls-15" d="M95.57,41.53a.45.45,0,0,1,.19.24.17.17,0,0,1,0,.18.17.17,0,0,1-.22,0,.41.41,0,0,1-.13-.2,1.24,1.24,0,0,1-.09-.33C95.37,41.39,95.5,41.48,95.57,41.53Z"/><path class="cls-16" d="M95.59,41.62l0,0a.11.11,0,0,0,0,.08v.12c0,.14.18.13.19,0S95.65,41.59,95.59,41.62Z"/><path class="cls-14" d="M92.56,39.2a1.9,1.9,0,0,0-.39-.41c-.16-.14-.41-.24-.57-.1a.33.33,0,0,0,0,.45.67.67,0,0,0,.46.17,1.12,1.12,0,0,0,.47-.11"/><path class="cls-15" d="M92.05,39.16a.49.49,0,0,1-.29-.11.15.15,0,0,1,.11-.28.4.4,0,0,1,.22.1.92.92,0,0,1,.25.23C92.29,39.18,92.14,39.17,92.05,39.16Z"/><path class="cls-16" d="M92,39.09s0,0,0,0A.2.2,0,0,0,92,39l-.08-.09c-.08-.12-.22,0-.15.1S91.94,39.15,92,39.09Z"/><path class="cls-14" d="M93,37a2.51,2.51,0,0,0,.35-.44c.11-.18.17-.45,0-.58a.35.35,0,0,0-.45.09.73.73,0,0,0-.1.48A1,1,0,0,0,93,37"/><path class="cls-15" d="M93,36.52a.44.44,0,0,1,.07-.3.2.2,0,0,1,.15-.1.17.17,0,0,1,.14.17.39.39,0,0,1-.07.23,1.07,1.07,0,0,1-.19.28C93,36.76,93,36.61,93,36.52Z"/><path class="cls-16" d="M93,36.44s0,0,0,0a.18.18,0,0,0,.07-.05l.09-.09c.09-.1,0-.22-.12-.14S93,36.42,93,36.44Z"/><path class="cls-14" d="M92.35,40.16A2.12,2.12,0,0,0,91.8,40c-.21,0-.48,0-.53.23a.31.31,0,0,0,.26.36.69.69,0,0,0,.48-.1c.18-.1.2-.19.34-.35"/><path class="cls-15" d="M91.89,40.4a.46.46,0,0,1-.3.06.18.18,0,0,1-.15-.1.17.17,0,0,1,.09-.2.66.66,0,0,1,.24,0,1.28,1.28,0,0,1,.34.06C92.11,40.29,92,40.36,91.89,40.4Z"/><path class="cls-16" d="M91.8,40.38s0,0,0,0,0,0-.07,0l-.11,0c-.14-.05-.2.11-.08.17S91.8,40.45,91.8,40.38Z"/><path class="cls-14" d="M93.42,41.67a2.12,2.12,0,0,0-.56,0c-.21,0-.45.18-.43.39a.32.32,0,0,0,.36.26.71.71,0,0,0,.43-.25,1.17,1.17,0,0,0,.2-.44"/><path class="cls-15" d="M93.07,42a.47.47,0,0,1-.27.16.18.18,0,0,1-.17-.05.18.18,0,0,1,0-.22.55.55,0,0,1,.22-.1,1,1,0,0,1,.34,0C93.24,41.87,93.13,42,93.07,42Z"/><path class="cls-16" d="M93,42.05l0,0h-.2c-.15,0-.16.17,0,.19S93,42.12,93,42.05Z"/><path class="cls-14" d="M94,42.76a2.46,2.46,0,0,0-.4.39c-.13.17-.23.43-.08.58a.33.33,0,0,0,.45,0,.76.76,0,0,0,.16-.47,1.14,1.14,0,0,0-.13-.47"/><path class="cls-15" d="M94,43.28a.45.45,0,0,1-.1.29.2.2,0,0,1-.16.07.17.17,0,0,1-.13-.18.49.49,0,0,1,.1-.22,1.43,1.43,0,0,1,.23-.26C94,43,94,43.19,94,43.28Z"/><path class="cls-16" d="M93.91,43.34h0a.1.1,0,0,0-.07,0l-.1.07c-.11.09,0,.23.11.16S94,43.38,93.91,43.34Z"/><path class="cls-14" d="M94.52,42.34a2.09,2.09,0,0,0,0,.56c0,.21.15.46.36.46a.33.33,0,0,0,.29-.35.76.76,0,0,0-.23-.44c-.15-.15-.24-.14-.43-.23"/><path class="cls-15" d="M94.87,42.71A.46.46,0,0,1,95,43a.21.21,0,0,1-.06.17.17.17,0,0,1-.22,0,.54.54,0,0,1-.09-.22,1.32,1.32,0,0,1,0-.34C94.7,42.54,94.81,42.65,94.87,42.71Z"/><path class="cls-16" d="M94.88,42.81h0s0,.06,0,.08V43c0,.14.15.16.18,0S94.94,42.79,94.88,42.81Z"/><path class="cls-14" d="M95.12,40.45a1.9,1.9,0,0,0,.45.34c.18.1.45.16.58,0a.34.34,0,0,0-.1-.44.75.75,0,0,0-.49-.08,1,1,0,0,0-.44.19"/><path class="cls-15" d="M95.63,40.4a.46.46,0,0,1,.3.06.18.18,0,0,1,.1.15.17.17,0,0,1-.16.15.48.48,0,0,1-.23-.07,1.08,1.08,0,0,1-.29-.18C95.39,40.42,95.54,40.41,95.63,40.4Z"/><path class="cls-16" d="M95.71,40.45a0,0,0,0,0,0,0,.18.18,0,0,0,0,.07l.09.08c.11.1.23,0,.14-.12S95.73,40.39,95.71,40.45Z"/><path class="cls-14" d="M92.36,38.2a2,2,0,0,0-.23-.51c-.11-.18-.31-.37-.51-.28a.32.32,0,0,0-.12.43.66.66,0,0,0,.38.31,1,1,0,0,0,.48.05"/><path class="cls-15" d="M91.89,38a.53.53,0,0,1-.24-.2.19.19,0,0,1,0-.18.16.16,0,0,1,.21,0,.38.38,0,0,1,.17.16,1.87,1.87,0,0,1,.17.31C92.11,38.09,92,38,91.89,38Z"/><path class="cls-16" d="M91.85,37.91v0a.14.14,0,0,0,0-.09l0-.11c0-.14-.2-.09-.18,0S91.79,38,91.85,37.91Z"/><path class="cls-14" d="M94.75,38.15a2.42,2.42,0,0,0,.45-.34c.15-.15.28-.39.16-.56a.34.34,0,0,0-.46,0,.64.64,0,0,0-.21.44,1,1,0,0,0,.06.48"/><path class="cls-15" d="M94.84,37.64a.54.54,0,0,1,.14-.27.2.2,0,0,1,.18,0,.16.16,0,0,1,.09.19.45.45,0,0,1-.12.21,1.43,1.43,0,0,1-.26.23C94.8,37.88,94.83,37.73,94.84,37.64Z"/><path class="cls-16" d="M94.92,37.59h0a.11.11,0,0,0,.08,0l.1-.07c.13-.07,0-.22-.08-.17S94.87,37.54,94.92,37.59Z"/><path class="cls-17" d="M92.84,41.18c.24.09.53-.1.75,0s.16.17.25.26c.53.57,1.39-.33,1.44-.87a.79.79,0,0,0-.39-.7.91.91,0,0,0-.44-.5l-.06,0,.16-.2a1.4,1.4,0,0,0,.07-1.59,1,1,0,0,0-1.45-.23c-.1.1-.17.22-.3.27a1.74,1.74,0,0,1-.22,0c-.33.11-.32.62-.13.93a5.08,5.08,0,0,1,.64.9.84.84,0,0,1,.06.24c-.1,0-.22.08-.32.14A.8.8,0,0,0,92.6,41,.47.47,0,0,0,92.84,41.18Z"/><path class="cls-18" d="M31.46,44.32c-2.49,1.25-5.29,2.37-8,1.76-3.41-.76-5.74-4-9-5.24a14.15,14.15,0,0,0,2.94-4.32A8.1,8.1,0,0,1,24,33a1.69,1.69,0,0,1,1.33.44.57.57,0,0,1-.09-.55,19.11,19.11,0,0,1,4.3,1.45c-.06-.17.2-.24.37-.22a6.8,6.8,0,0,1,5.22,4.57C36.09,41.5,33.74,43.17,31.46,44.32Z"/><path class="cls-19" d="M29.8,39.54a15.26,15.26,0,0,0-2.12.41,24.74,24.74,0,0,1-12.5.26c2.06.09,4.08.15,6.14.07.78,0,1.57-.06,2.34-.14,1.82-.2,3.59-.72,5.38-1.07a17.93,17.93,0,0,1,2.83-.34c.58,0,3.39-.18,3.67.42.41.91-2.34.27-2.68.22A10.19,10.19,0,0,0,29.8,39.54Z"/><path class="cls-20" d="M30.24,35.16a24.33,24.33,0,0,0-3.91-1.42l.11.44a10.24,10.24,0,0,0-2.34-.26l.12.42a7.76,7.76,0,0,0-2.68.29,3.6,3.6,0,0,0-2.07,1.65l.44.18a29.52,29.52,0,0,1-3.2,2.81,5.76,5.76,0,0,0,2.26.82,8.74,8.74,0,0,0,2,0c2.91-.25,5.76-1.09,8.68-1.12a15.25,15.25,0,0,0,2-.08c1-.16,2.08-.6,1.31-1.63A7.82,7.82,0,0,0,30.24,35.16Z"/><path class="cls-21" d="M28.67,44.73c-1,.55-2.16,1.12-3.23.73-.26-.09-.49-.23-.74-.34-1-.43-2.23-.33-3-1.07a5.34,5.34,0,0,1,2.59-1.65c1-.32,2-.5,3-.83s5.6-2.92,6.14-1.2c.27.84-1.26,2-1.81,2.48A19.88,19.88,0,0,1,28.67,44.73Z"/><path class="cls-22" d="M38.36,39c-.29-.32-2.21-.26-2.68-.32-1-.12-2.07-.24-3.11-.27a5.9,5.9,0,0,0-.71-.89,18.13,18.13,0,0,0-1.64-2.24,5.56,5.56,0,0,0-3.63-1.68,9.57,9.57,0,0,1,5.48,4.8h0a14.05,14.05,0,0,0-1.94.13c-.38.06-.76.14-1.13.23a10.5,10.5,0,0,0-1.74-1.08A17.36,17.36,0,0,0,23,35.34a6,6,0,0,0-4.73.23,7.35,7.35,0,0,1,5,.17,15.52,15.52,0,0,1,4.35,2.72,5.06,5.06,0,0,0,.63.45l-.79.2a39.53,39.53,0,0,1-5.93.92c-.08-.22-.3-.46-.35-.61a3,3,0,0,0-.21-.66,5.34,5.34,0,0,0-.39-.44c-.24-.3-.33-.71-.62-1a1.46,1.46,0,0,0-.67-.27,4.8,4.8,0,0,0-2,0l1.5.38a3.51,3.51,0,0,1,.91.32,3,3,0,0,1,1.15,2s.05.14.09.23c-1.94.14-3.89.17-5.84.14a24.18,24.18,0,0,0,8.18.29l.52-.08c-.11.28-.16.69-.28.94a4.54,4.54,0,0,1-1.54,1.77,4.11,4.11,0,0,1-.86.44l.1,0a3.84,3.84,0,0,0,.94-.25,4,4,0,0,0,1.83-2.09,5,5,0,0,1,.5-.91c.78-.14,1.56-.3,2.34-.46l0,0c-.15.33-.12.85-.25,1.21a10.62,10.62,0,0,1-1.19,2.13,6,6,0,0,1-1.16,1.38,4.26,4.26,0,0,0,1.58-1.52c.23-.3.45-.61.68-.92a4.65,4.65,0,0,0,.47-.74,5.58,5.58,0,0,0,.23-.69l.24-.88a.68.68,0,0,0,0-.14,24.46,24.46,0,0,1,4.62-.59,1.19,1.19,0,0,0-.09.15c-.28.55-.28,1.34-.53,1.94a6.66,6.66,0,0,1-1,1.72,12.58,12.58,0,0,1-3.59,2.65l2.33-1.32a7.12,7.12,0,0,0,.94-.6,6.27,6.27,0,0,0,1.72-2.48,7.46,7.46,0,0,0,.82-2.06,10.11,10.11,0,0,1,2.18.29,12.43,12.43,0,0,0,2.16.47C37.45,39.92,39,39.7,38.36,39Z"/><path class="cls-22" d="M21.2,43.57a13.12,13.12,0,0,1-1.65.14A3.1,3.1,0,0,0,21.2,43.57Z"/><path class="cls-18" d="M35.22,80.59C34,83.12,32.53,85.73,30,86.94c-3.15,1.52-7,.42-10.31,1.47a14.13,14.13,0,0,0-.38-5.22,8.13,8.13,0,0,1,3.06-6.86,1.68,1.68,0,0,1,1.32-.47.58.58,0,0,1-.41-.38A19.09,19.09,0,0,1,27.57,74c-.15-.09,0-.31.15-.4a6.79,6.79,0,0,1,6.93.35C37.11,75.51,36.3,78.27,35.22,80.59Z"/><path class="cls-19" d="M31,77.87a15.64,15.64,0,0,0-1.42,1.63,24.6,24.6,0,0,1-9.64,8c1.67-1.2,3.29-2.41,4.86-3.74.6-.51,1.19-1,1.75-1.57,1.3-1.28,2.37-2.78,3.56-4.16a16.76,16.76,0,0,1,2-2c.45-.37,2.55-2.24,3.14-1.94.89.45-1.67,1.65-2,1.82A10.32,10.32,0,0,0,31,77.87Z"/><path class="cls-20" d="M28.58,74.16a24,24,0,0,0-3.94,1.31l.36.28A9.55,9.55,0,0,0,23,77l.35.26a7.34,7.34,0,0,0-1.92,1.89,3.57,3.57,0,0,0-.6,2.57l.45-.13a28.21,28.21,0,0,1-.77,4.18A5.63,5.63,0,0,0,22.8,85a9.57,9.57,0,0,0,1.55-1.22c2.13-2,3.84-4.43,6.12-6.27A13.76,13.76,0,0,0,32,76.2c.67-.73,1.26-1.76,0-2.08A7.73,7.73,0,0,0,28.58,74.16Z"/><path class="cls-21" d="M33.28,82.65c-.44,1-1,2.21-2.08,2.57-.26.09-.53.12-.79.19-1,.28-1.95,1.12-3,1a5.27,5.27,0,0,1,1-2.91c.57-.86,1.27-1.64,1.84-2.51s2.59-5.76,4.08-4.75c.73.5.27,2.39.11,3.07A20.59,20.59,0,0,1,33.28,82.65Z"/><path class="cls-22" d="M37.33,72.12c-.43-.07-1.9,1.17-2.3,1.42-.89.54-1.78,1.09-2.61,1.71A6,6,0,0,0,31.3,75a17.48,17.48,0,0,0-2.66-.74,5.55,5.55,0,0,0-3.9.93,9.58,9.58,0,0,1,7.28.37h0a13.53,13.53,0,0,0-1.43,1.3c-.26.28-.51.58-.75.88a10.63,10.63,0,0,0-2,.23,17.88,17.88,0,0,0-4.79.82,6,6,0,0,0-3.57,3.12,7.23,7.23,0,0,1,4.06-3,15.63,15.63,0,0,1,5.1-.57,4,4,0,0,0,.77,0c-.16.22-.33.43-.5.64a39.52,39.52,0,0,1-4.08,4.4c-.2-.12-.52-.17-.65-.26a3.62,3.62,0,0,0-.58-.38A3.59,3.59,0,0,0,23,82.6c-.38-.08-.71-.36-1.09-.37a1.45,1.45,0,0,0-.69.2,4.82,4.82,0,0,0-1.51,1.26l1.42-.64a3.24,3.24,0,0,1,.91-.3,2.92,2.92,0,0,1,2.14.85,1.19,1.19,0,0,0,.21.12C23,85,21.44,86.27,19.9,87.45a23.93,23.93,0,0,0,6.59-4.84l.37-.39c.08.3.3.65.35.92a4.43,4.43,0,0,1-.11,2.34,3.67,3.67,0,0,1-.4.88.46.46,0,0,1,.07-.07,3.74,3.74,0,0,0,.58-.79,4,4,0,0,0,.14-2.77,5.17,5.17,0,0,1-.17-1c.53-.59,1-1.21,1.55-1.82a.18.18,0,0,1,0,.06c.08.35.43.74.55,1.11a9.77,9.77,0,0,1,.38,2.41,5.43,5.43,0,0,1,0,1.8,4.3,4.3,0,0,0,.31-2.17c0-.38,0-.76,0-1.14a5,5,0,0,0-.09-.87,5.13,5.13,0,0,0-.25-.69l-.36-.84a.35.35,0,0,0-.07-.12,25.07,25.07,0,0,1,3.26-3.33,1.1,1.1,0,0,0,0,.18c.12.6.61,1.22.79,1.84a6.74,6.74,0,0,1,.26,2,12.82,12.82,0,0,1-1.18,4.3c.34-.82.67-1.65,1-2.48a7.37,7.37,0,0,0,.37-1.06,6.28,6.28,0,0,0-.19-3A7.47,7.47,0,0,0,33,75.76a10.27,10.27,0,0,1,1.89-1.13,13,13,0,0,0,2-1C37.19,73.43,38.28,72.29,37.33,72.12Z"/><path class="cls-22" d="M26.7,86.36a10.73,10.73,0,0,1-1.21,1.13A3.06,3.06,0,0,0,26.7,86.36Z"/><path class="cls-18" d="M101.75,59.47c-1.18,2.54-2.68,5.15-5.2,6.36-3.15,1.51-7,.42-10.31,1.46a14.08,14.08,0,0,0-.38-5.21,8.15,8.15,0,0,1,3.06-6.86,1.68,1.68,0,0,1,1.32-.47.59.59,0,0,1-.41-.39,19.57,19.57,0,0,1,4.27-1.52c-.15-.09,0-.32.16-.4a6.79,6.79,0,0,1,6.93.35C103.64,54.4,102.83,57.16,101.75,59.47Z"/><path class="cls-19" d="M97.49,56.75a15.65,15.65,0,0,0-1.41,1.64,24.87,24.87,0,0,1-9.65,8c1.67-1.21,3.29-2.41,4.86-3.75.6-.51,1.19-1,1.75-1.56,1.3-1.29,2.37-2.78,3.56-4.17a17.43,17.43,0,0,1,2-2c.45-.37,2.55-2.24,3.14-2,.89.46-1.67,1.66-2,1.83A10.53,10.53,0,0,0,97.49,56.75Z"/><path class="cls-20" d="M95.12,53.05a23.12,23.12,0,0,0-4,1.3l.36.28a10.63,10.63,0,0,0-2,1.25l.35.26A7.63,7.63,0,0,0,88,58a3.59,3.59,0,0,0-.6,2.57l.45-.12a28.19,28.19,0,0,1-.76,4.18,5.81,5.81,0,0,0,2.28-.76,8.62,8.62,0,0,0,1.55-1.21c2.13-2,3.85-4.44,6.12-6.27a14.07,14.07,0,0,0,1.54-1.32c.67-.73,1.26-1.76,0-2.09A7.73,7.73,0,0,0,95.12,53.05Z"/><path class="cls-21" d="M99.81,61.53c-.44,1-1,2.21-2.08,2.58-.25.08-.53.12-.79.19-1,.27-2,1.12-3,1a5.24,5.24,0,0,1,1-2.9c.58-.87,1.27-1.65,1.84-2.52s2.59-5.76,4.08-4.74c.73.49.27,2.38.12,3.07A20.18,20.18,0,0,1,99.81,61.53Z"/><path class="cls-22" d="M103.86,51c-.43-.08-1.9,1.17-2.3,1.41-.89.54-1.77,1.09-2.61,1.71a5.32,5.32,0,0,0-1.11-.25,18,18,0,0,0-2.67-.75,5.61,5.61,0,0,0-3.9.94,9.57,9.57,0,0,1,7.28.36h0a12.71,12.71,0,0,0-1.44,1.31c-.26.28-.51.58-.75.88a10.68,10.68,0,0,0-2,.22,17.57,17.57,0,0,0-4.79.83A6,6,0,0,0,86,60.78a7.33,7.33,0,0,1,4.06-3,15.11,15.11,0,0,1,5.1-.57,4.17,4.17,0,0,0,.78,0l-.51.64a39.45,39.45,0,0,1-4.08,4.4c-.19-.12-.52-.18-.65-.26a3.1,3.1,0,0,0-.58-.39,3.57,3.57,0,0,0-.57-.1c-.38-.09-.7-.36-1.09-.37a1.45,1.45,0,0,0-.69.2,4.66,4.66,0,0,0-1.51,1.25l1.42-.63a3.27,3.27,0,0,1,.91-.31,3,3,0,0,1,2.14.85.85.85,0,0,0,.22.13c-1.44,1.31-3,2.55-4.5,3.73A24,24,0,0,0,93,61.5l.37-.39c.08.29.3.65.36.91a4.68,4.68,0,0,1-.11,2.35,4.07,4.07,0,0,1-.41.87.46.46,0,0,0,.07-.07,3.68,3.68,0,0,0,.58-.78A4.07,4.07,0,0,0,94,61.61a5.87,5.87,0,0,1-.17-1c.53-.59,1-1.2,1.56-1.81v.06c.08.35.43.74.55,1.1a10.36,10.36,0,0,1,.39,2.41,5.78,5.78,0,0,1-.06,1.81A4.35,4.35,0,0,0,96.6,62c0-.38,0-.76,0-1.14a4.28,4.28,0,0,0-.09-.87,5.69,5.69,0,0,0-.25-.69l-.36-.84a.75.75,0,0,0-.07-.12A25.07,25.07,0,0,1,99.05,55c0,.06,0,.12,0,.18.12.61.62,1.22.79,1.85a6.68,6.68,0,0,1,.26,2,12.42,12.42,0,0,1-1.18,4.31l1-2.48a7,7,0,0,0,.37-1.06,6.33,6.33,0,0,0-.19-3,7.57,7.57,0,0,0-.63-2.12,10.82,10.82,0,0,1,1.89-1.12,12.63,12.63,0,0,0,2-1C103.72,52.31,104.82,51.17,103.86,51Z"/><path class="cls-22" d="M93.23,65.24A10.88,10.88,0,0,1,92,66.38,3,3,0,0,0,93.23,65.24Z"/><path class="cls-21" d="M52,90.19a4.12,4.12,0,0,1,1.42,1.33A10.57,10.57,0,0,1,54,93.1c.7,1.94,3.29,1.45,2.64-.58S54,89.18,52,90.19Z"/><path class="cls-22" d="M58.71,101.54a2.54,2.54,0,0,0-.27,1.63,5.82,5.82,0,0,1,.56-2c.08-.18.17-.35.24-.53.14-.41.15-.86.31-1.27.05-.13.12-.26.17-.39a1.89,1.89,0,0,0-.2-1.84c-.12.21,0,.73,0,1a6.13,6.13,0,0,1-.14,1.14A13.23,13.23,0,0,1,58.71,101.54Z"/><path class="cls-21" d="M58.38,85.63l.27.25a2.28,2.28,0,0,1,.69-1,.63.63,0,0,0,.18.34,4.68,4.68,0,0,1,2.88-2.34l.09.14a20,20,0,0,1,4.19-1.4,9.57,9.57,0,0,1-1.21,4l.31.1a16.12,16.12,0,0,1-1.55,3.11,9.34,9.34,0,0,1-2.6,3.2,9.26,9.26,0,0,1-3.35,1.15,2.83,2.83,0,0,1-1.08.09c-1.4-.24-1.1-2.79-.91-3.79A7,7,0,0,1,58.38,85.63Z"/><path class="cls-18" d="M57.78,91.14a2,2,0,0,0-.38.7.73.73,0,0,0,.18.74,1,1,0,0,0,.81.16,4.25,4.25,0,0,0,2.45-1.11c.2-.19.38-.41.58-.61s.48-.4.71-.61a9.09,9.09,0,0,0,1.59-2.14A22.74,22.74,0,0,0,65,86.15c-1.4-.17-2.78.85-3.83,1.63A16.51,16.51,0,0,0,57.78,91.14Z"/><path class="cls-22" d="M64.38,84.17c.53-.45,1.38-1.06,1.46-1.8-.42.09-.9.85-1.21,1.16-.48.48-1,.94-1.48,1.39l-1.08,1h0c.24-.74.61-1.41.9-2.11a4.66,4.66,0,0,0-1.36,2.52c-.45.42-.9.84-1.34,1.28l-.17.19a3,3,0,0,0,.11-.5c.1-.66.51-1.25.59-1.89a9.06,9.06,0,0,0-1.1,2.76l.06,0a22.13,22.13,0,0,0-1.88,2.34,21.35,21.35,0,0,0,0-2.65,8.45,8.45,0,0,0-.29,1.58,10.18,10.18,0,0,1-.08,1.53l0,0a23,23,0,0,0-1.94,3.54c.25-.06.4-.3.53-.52a36.59,36.59,0,0,1,2.19-3.32,4.87,4.87,0,0,0,1.42-.39,10,10,0,0,0,.92-.48A23.55,23.55,0,0,0,63,88.29c.13-.1.27-.23.24-.39.07.37-2.5,1.44-2.83,1.58s-1.07.32-1.62.54a32.8,32.8,0,0,1,2.14-2.55.11.11,0,0,0,0,.08,8.94,8.94,0,0,0,3-1.32,8.54,8.54,0,0,0,1.2-.9,7.32,7.32,0,0,0-1.8.93,21.33,21.33,0,0,0-2.07.94A35.14,35.14,0,0,1,64.38,84.17Z"/><path class="cls-20" d="M54.49,91.72a14,14,0,0,0,.7,1.63.32.32,0,0,0,.14.14.33.33,0,0,0,.36-.08.71.71,0,0,0,.16-.35,2,2,0,0,0-.22-1.36,3.52,3.52,0,0,0-.91-1c-.24-.18-2-.64-1.53-.36A8,8,0,0,1,54.49,91.72Z"/><path class="cls-21" d="M61.11,93.84a4,4,0,0,0,1.23.64.18.18,0,0,0,.19,0,.2.2,0,0,0,0-.17,3.94,3.94,0,0,0-1.18-1.79,1.45,1.45,0,0,0-.5-.31,1.48,1.48,0,0,0-.47,0c-.68,0-4,.08-3.43,1.58.26.79,1.34.13,1.79,0A2.85,2.85,0,0,1,61.11,93.84Z"/><path class="cls-20" d="M59,93.1A3,3,0,0,1,61.4,94a2.59,2.59,0,0,0-2-1.5c-.54-.09-1.73,0-1.92.66S58.57,93.17,59,93.1Z"/><path class="cls-21" d="M53.68,95.91A4.13,4.13,0,0,0,53.82,98a8.46,8.46,0,0,0,4.52,5.75,21.15,21.15,0,0,0,2.5.74A12.33,12.33,0,0,1,65,106.62c.94-.57.93-1.92.74-3a23.59,23.59,0,0,0-1.81-5.69,9.23,9.23,0,0,0-2.55-3.51,4.18,4.18,0,0,0-4.12-.68C56.09,94.27,54,94.48,53.68,95.91Z"/><path class="cls-20" d="M59.3,97.18c.63,1.83,2.17,3.17,3.66,4.41a9,9,0,0,0,2,1.38,7.47,7.47,0,0,0-.67-3.17,14.08,14.08,0,0,0-1.56-3.36c-.5-.71-1.7-2.06-2.7-2S59.06,96.47,59.3,97.18Z"/><path class="cls-22" d="M64.84,106.3c-.25-1.74-1.48-3.15-2.43-4.63-.57-.91-1-1.87-1.57-2.81A11.85,11.85,0,0,1,62.26,100a8.48,8.48,0,0,1,2,2.5A8.75,8.75,0,0,0,61,98.28a6.29,6.29,0,0,0-.86-.62l-.32-.48a13.37,13.37,0,0,0-1-1.15h0a3.63,3.63,0,0,1,1.83.56,6.77,6.77,0,0,1,1.82,1.64,2.11,2.11,0,0,0-.67-1.36,4.86,4.86,0,0,0-2.8-1.5,1.26,1.26,0,0,0-.58,0,.47.47,0,0,0-.2.1c-.83-.75-1.78-1.34-2.41-.94.52.51,1,1,1.55,1.46,0,.25.08.63.07.85A5.46,5.46,0,0,1,57.38,98a14.22,14.22,0,0,1-.71,2.21,2.54,2.54,0,0,0-.27,1.63,5.87,5.87,0,0,1,.56-2,4.83,4.83,0,0,0,.23-.52c.15-.41.16-.86.32-1.27.05-.13.12-.26.17-.39a2.21,2.21,0,0,0,0-1.44c.63.59,1.25,1.17,1.83,1.8-.25.14-.4.75-.47,1a14.48,14.48,0,0,0-.69,2.89,2.26,2.26,0,0,0,.08,1.21,6.89,6.89,0,0,1,.28-1.35c.14-.4.35-.78.49-1.18a5.64,5.64,0,0,0,.21-.7l.24-.93a3.74,3.74,0,0,0,.13-.6,14.71,14.71,0,0,1,1.52,2c0,.17,0,.42,0,.56a3.48,3.48,0,0,1-.09.79,8.87,8.87,0,0,1-.49,1.51,1.88,1.88,0,0,0-.19,1.13A4.55,4.55,0,0,1,61,103a2.32,2.32,0,0,0,.16-.36c.1-.28.11-.59.22-.87,0-.09.08-.18.12-.27a1.63,1.63,0,0,0,.08-.74A43,43,0,0,0,64.84,106.3Z"/><path class="cls-11" d="M72,17.33c3.75,1.67,5.61,5.69,4.14,9s-5.69,4.57-9.44,2.9-5.6-5.69-4.14-9S68.26,15.65,72,17.33Z"/><path class="cls-12" d="M72.39,17.08c3.75,1.68,5.71,5.45,4.38,8.44s-5.45,4-9.2,2.37-5.71-5.45-4.38-8.43S68.64,15.41,72.39,17.08Z"/><path class="cls-13" d="M72.63,26.68a2.79,2.79,0,0,0,2.1-.76,3.59,3.59,0,0,0,0-3.92,6.6,6.6,0,0,0-2.93-2.35,9,9,0,0,0-4.34-1.18,2.13,2.13,0,0,0-1.9,1.05,3.52,3.52,0,0,0,0,2.44C66.64,26,69.51,26.73,72.63,26.68Z"/><path class="cls-14" d="M70,23.94a2.44,2.44,0,0,0-.35.43c-.11.19-.18.45,0,.59a.33.33,0,0,0,.44-.09.68.68,0,0,0,.1-.48.84.84,0,0,0-.18-.45"/><path class="cls-15" d="M70,24.45a.46.46,0,0,1-.07.3c0,.05-.09.1-.15.09a.16.16,0,0,1-.15-.16.48.48,0,0,1,.07-.23,1.49,1.49,0,0,1,.2-.29C70,24.21,70,24.36,70,24.45Z"/><path class="cls-16" d="M70,24.52h0l-.07.05-.08.09c-.1.1,0,.22.12.14S70,24.55,70,24.52Z"/><path class="cls-14" d="M68.49,23a2.13,2.13,0,0,0-.5-.25c-.2-.07-.47-.09-.57.1a.33.33,0,0,0,.17.42.72.72,0,0,0,.5,0c.2-.06.24-.14.4-.27"/><path class="cls-15" d="M68,23.12a.47.47,0,0,1-.31,0,.19.19,0,0,1-.13-.13.17.17,0,0,1,.14-.17.44.44,0,0,1,.23,0,1.15,1.15,0,0,1,.32.14C68.23,23.05,68.08,23.1,68,23.12Z"/><path class="cls-16" d="M67.91,23.08v0a.15.15,0,0,0-.06-.05l-.11-.07c-.12-.08-.21.06-.11.15S67.89,23.15,67.91,23.08Z"/><path class="cls-14" d="M71.7,22.23a2.71,2.71,0,0,0,.56-.05c.2-.05.45-.18.43-.39a.32.32,0,0,0-.37-.26.67.67,0,0,0-.42.26c-.14.15-.13.24-.2.44"/><path class="cls-15" d="M72.05,21.85a.48.48,0,0,1,.26-.16.2.2,0,0,1,.18,0,.17.17,0,0,1,0,.22.46.46,0,0,1-.21.1,1.35,1.35,0,0,1-.34.06C71.88,22,72,21.91,72.05,21.85Z"/><path class="cls-16" d="M72.14,21.84s0,0,0,0l.08,0h.12a.1.1,0,1,0,0-.19C72.32,21.68,72.12,21.77,72.14,21.84Z"/><path class="cls-14" d="M73.11,23.93a2,2,0,0,0,.12.54c.08.2.24.42.45.38a.34.34,0,0,0,.21-.41.72.72,0,0,0-.32-.37.92.92,0,0,0-.46-.14"/><path class="cls-15" d="M73.53,24.22a.45.45,0,0,1,.19.24.19.19,0,0,1,0,.18.18.18,0,0,1-.22,0,.53.53,0,0,1-.13-.2,1,1,0,0,1-.1-.33C73.33,24.08,73.46,24.17,73.53,24.22Z"/><path class="cls-16" d="M73.55,24.31v0s0,.05,0,.08l0,.12c0,.14.18.13.18,0S73.61,24.28,73.55,24.31Z"/><path class="cls-14" d="M71.08,21.46a2.42,2.42,0,0,0,.45-.34c.15-.15.28-.39.16-.56a.34.34,0,0,0-.45,0A.65.65,0,0,0,71,21c0,.2,0,.27.06.48"/><path class="cls-15" d="M71.17,21a.54.54,0,0,1,.14-.27.21.21,0,0,1,.18-.06.18.18,0,0,1,.09.2.41.41,0,0,1-.12.2.94.94,0,0,1-.26.23C71.13,21.19,71.16,21,71.17,21Z"/><path class="cls-16" d="M71.25,20.89h0a.11.11,0,0,0,.08,0l.1-.06c.13-.08,0-.22-.08-.17S71.2,20.85,71.25,20.89Z"/><path class="cls-14" d="M69.23,21.35a2.06,2.06,0,0,0,.31-.46c.1-.19.15-.46,0-.58a.32.32,0,0,0-.43.12.74.74,0,0,0-.07.49,1.1,1.1,0,0,0,.22.43"/><path class="cls-15" d="M69.15,20.84a.52.52,0,0,1,0-.3.17.17,0,0,1,.15-.11.17.17,0,0,1,.15.16.46.46,0,0,1,0,.23,1.46,1.46,0,0,1-.17.3C69.19,21.09,69.17,20.93,69.15,20.84Z"/><path class="cls-16" d="M69.21,20.77h0s0,0,.07-.06l.07-.09c.1-.11,0-.22-.13-.13S69.14,20.74,69.21,20.77Z"/><path class="cls-14" d="M68,21.12a2.16,2.16,0,0,0-.05-.56c0-.2-.19-.44-.4-.42a.33.33,0,0,0-.26.37.73.73,0,0,0,.27.42,1.16,1.16,0,0,0,.44.19"/><path class="cls-15" d="M67.63,20.78a.48.48,0,0,1-.16-.26.19.19,0,0,1,0-.18.18.18,0,0,1,.22,0,.47.47,0,0,1,.11.21,1.35,1.35,0,0,1,.06.34C67.81,20.94,67.7,20.84,67.63,20.78Z"/><path class="cls-16" d="M67.62,20.69l0,0a.19.19,0,0,0,0-.08v-.12c0-.15-.17-.15-.18,0S67.55,20.71,67.62,20.69Z"/><path class="cls-14" d="M68,21.79a2.42,2.42,0,0,0-.45-.34c-.18-.11-.45-.17-.58,0a.33.33,0,0,0,.1.44.66.66,0,0,0,.48.09,1,1,0,0,0,.45-.19"/><path class="cls-15" d="M67.5,21.84a.46.46,0,0,1-.3-.07.2.2,0,0,1-.1-.15.17.17,0,0,1,.17-.14.4.4,0,0,1,.23.06,1.12,1.12,0,0,1,.29.19C67.75,21.81,67.59,21.83,67.5,21.84Z"/><path class="cls-16" d="M67.43,21.78v0a.15.15,0,0,0-.05-.06l-.09-.09a.1.1,0,1,0-.14.13S67.4,21.84,67.43,21.78Z"/><path class="cls-14" d="M69.12,23.44a2,2,0,0,0-.54.14c-.2.08-.42.25-.36.46a.32.32,0,0,0,.4.19.68.68,0,0,0,.37-.32,1.1,1.1,0,0,0,.13-.47"/><path class="cls-15" d="M68.84,23.87a.47.47,0,0,1-.24.2.19.19,0,0,1-.18,0,.18.18,0,0,1,0-.22.5.5,0,0,1,.19-.13,1.46,1.46,0,0,1,.33-.12C69,23.67,68.89,23.8,68.84,23.87Z"/><path class="cls-16" d="M68.75,23.9l0,0h-.2c-.14,0-.12.19,0,.19S68.78,24,68.75,23.9Z"/><path class="cls-14" d="M72.6,22.69a2,2,0,0,0,.54.14c.21,0,.49,0,.54-.22a.34.34,0,0,0-.26-.37.69.69,0,0,0-.48.1c-.18.1-.21.19-.34.35"/><path class="cls-15" d="M73.06,22.45a.46.46,0,0,1,.3-.06.23.23,0,0,1,.15.1.17.17,0,0,1-.1.2.36.36,0,0,1-.23,0,1.21,1.21,0,0,1-.34-.06C72.84,22.57,73,22.49,73.06,22.45Z"/><path class="cls-16" d="M73.15,22.47v0a.2.2,0,0,0,.08,0l.11,0c.13.05.2-.1.08-.16S73.15,22.41,73.15,22.47Z"/><path class="cls-14" d="M71.15,24.59a2.09,2.09,0,0,0,0,.56c0,.21.12.47.34.47a.32.32,0,0,0,.3-.33.73.73,0,0,0-.21-.45,1.08,1.08,0,0,0-.41-.25"/><path class="cls-15" d="M71.48,25a.49.49,0,0,1,.13.28.22.22,0,0,1-.07.17.17.17,0,0,1-.21-.05.42.42,0,0,1-.08-.22,1,1,0,0,1,0-.35C71.32,24.79,71.42,24.91,71.48,25Z"/><path class="cls-16" d="M71.48,25.07l0,0s0,.05,0,.08v.12a.09.09,0,1,0,.18,0C71.61,25.27,71.55,25.06,71.48,25.07Z"/><path class="cls-17" d="M70,21.2c-.21.14-.25.48-.49.58a1.43,1.43,0,0,1-.36,0c-.77.07-.61,1.29-.21,1.67a.77.77,0,0,0,.79.13.88.88,0,0,0,.66,0l0,0c0,.08,0,.17,0,.25a1.4,1.4,0,0,0,1.2,1,1,1,0,0,0,1.09-1,1,1,0,0,1,0-.41c0-.07.07-.13.09-.2.13-.33-.27-.64-.64-.68a5.71,5.71,0,0,1-1.1-.06.88.88,0,0,1-.22-.1c0-.11.07-.23.09-.34a.8.8,0,0,0-.67-.91A.48.48,0,0,0,70,21.2Z"/><path class="cls-11" d="M36.92,28.61c1.64-3.76,5.48-5.72,8.57-4.37s4.25,5.5,2.6,9.26-5.48,5.72-8.57,4.37S35.27,32.38,36.92,28.61Z"/><path class="cls-12" d="M36.67,28.23c1.64-3.76,5.41-5.75,8.4-4.44s4.09,5.42,2.44,9.19-5.41,5.75-8.4,4.44S35,32,36.67,28.23Z"/><path class="cls-13" d="M46.26,27.93a2.76,2.76,0,0,0-.77-2.1,3.58,3.58,0,0,0-3.92,0,6.62,6.62,0,0,0-2.33,2.94,9.08,9.08,0,0,0-1.15,4.36,2.11,2.11,0,0,0,1.07,1.89,3.5,3.5,0,0,0,2.43,0C45.59,33.92,46.34,31,46.26,27.93Z"/><path class="cls-14" d="M43.54,30.58a2.12,2.12,0,0,0,.44.35c.18.11.45.18.58,0a.31.31,0,0,0-.09-.44.66.66,0,0,0-.48-.1,1,1,0,0,0-.45.18"/><path class="cls-15" d="M44.05,30.54a.44.44,0,0,1,.3.07.18.18,0,0,1,.1.15c0,.08-.09.14-.17.15a.44.44,0,0,1-.22-.07,1.45,1.45,0,0,1-.29-.19C43.81,30.56,44,30.55,44.05,30.54Z"/><path class="cls-16" d="M44.13,30.6a0,0,0,0,0,0,0,.13.13,0,0,0,0,.07l.09.08c.1.1.23,0,.14-.12S44.16,30.54,44.13,30.6Z"/><path class="cls-14" d="M42.6,32.09a2,2,0,0,0-.25.5c-.07.2-.09.48.1.57a.33.33,0,0,0,.42-.17.72.72,0,0,0,0-.5c-.06-.2-.14-.24-.27-.4"/><path class="cls-15" d="M42.74,32.59a.51.51,0,0,1,0,.3.2.2,0,0,1-.14.13.17.17,0,0,1-.17-.14.45.45,0,0,1,0-.23,1.13,1.13,0,0,1,.13-.32C42.67,32.35,42.71,32.5,42.74,32.59Z"/><path class="cls-16" d="M42.7,32.67h0s0,0-.06.06l-.06.11c-.07.12.06.21.15.11S42.76,32.69,42.7,32.67Z"/><path class="cls-14" d="M41.82,28.89a2.59,2.59,0,0,0,0-.56c-.05-.21-.19-.45-.4-.43a.34.34,0,0,0-.26.37.72.72,0,0,0,.26.42,1,1,0,0,0,.45.2"/><path class="cls-15" d="M41.44,28.54a.43.43,0,0,1-.16-.26.17.17,0,0,1,0-.18.17.17,0,0,1,.22,0,.39.39,0,0,1,.11.21,1.35,1.35,0,0,1,.06.34C41.62,28.71,41.5,28.6,41.44,28.54Z"/><path class="cls-16" d="M41.42,28.45a0,0,0,0,0,0,0,.11.11,0,0,0,0-.08v-.12c0-.14-.16-.15-.18,0S41.36,28.47,41.42,28.45Z"/><path class="cls-14" d="M43.51,27.47a2,2,0,0,0,.54-.13c.2-.08.42-.24.37-.45a.33.33,0,0,0-.4-.21.74.74,0,0,0-.38.32,1.06,1.06,0,0,0-.13.47"/><path class="cls-15" d="M43.79,27a.45.45,0,0,1,.24-.19.19.19,0,0,1,.18,0,.17.17,0,0,1,0,.22.43.43,0,0,1-.19.13,1.07,1.07,0,0,1-.33.11C43.66,27.24,43.75,27.12,43.79,27Z"/><path class="cls-16" d="M43.89,27s0,0,0,0A.27.27,0,0,0,44,27l.12,0c.14,0,.12-.18,0-.18S43.86,27,43.89,27Z"/><path class="cls-14" d="M41.05,29.51a2.07,2.07,0,0,0-.34-.44c-.15-.15-.39-.28-.56-.16a.34.34,0,0,0,0,.46.7.7,0,0,0,.44.21,1,1,0,0,0,.48-.07"/><path class="cls-15" d="M40.55,29.42a.46.46,0,0,1-.28-.13.2.2,0,0,1-.05-.18.17.17,0,0,1,.19-.1.46.46,0,0,1,.21.13,1.16,1.16,0,0,1,.23.26C40.79,29.47,40.63,29.44,40.55,29.42Z"/><path class="cls-16" d="M40.49,29.35s0,0,0,0a.19.19,0,0,0,0-.08l-.07-.11a.1.1,0,1,0-.17.09C40.26,29.28,40.44,29.4,40.49,29.35Z"/><path class="cls-14" d="M41,31.37a2.37,2.37,0,0,0-.46-.32c-.19-.09-.47-.14-.58,0a.32.32,0,0,0,.12.43.68.68,0,0,0,.49.06c.2,0,.25-.11.43-.21"/><path class="cls-15" d="M40.45,31.44a.45.45,0,0,1-.3,0,.15.15,0,0,1,.05-.3.5.5,0,0,1,.23,0,1.78,1.78,0,0,1,.3.17C40.69,31.41,40.54,31.43,40.45,31.44Z"/><path class="cls-16" d="M40.37,31.39s0,0,0,0,0-.05,0-.07l-.09-.07c-.11-.09-.22,0-.13.13S40.35,31.46,40.37,31.39Z"/><path class="cls-14" d="M40.74,32.58a2.67,2.67,0,0,0-.56.06c-.2,0-.44.19-.42.4a.34.34,0,0,0,.38.26.74.74,0,0,0,.41-.27,1.14,1.14,0,0,0,.19-.45"/><path class="cls-15" d="M40.4,33a.48.48,0,0,1-.26.16.17.17,0,0,1-.18,0,.18.18,0,0,1,0-.22.47.47,0,0,1,.21-.11,1.35,1.35,0,0,1,.34-.06C40.56,32.79,40.46,32.9,40.4,33Z"/><path class="cls-16" d="M40.31,33l0,0h-.2c-.15,0-.15.17,0,.18S40.33,33.05,40.31,33Z"/><path class="cls-14" d="M41.41,32.57a2.42,2.42,0,0,0-.34.45c-.11.19-.17.46,0,.58a.31.31,0,0,0,.44-.1A.66.66,0,0,0,41.6,33a1,1,0,0,0-.19-.45"/><path class="cls-15" d="M41.46,33.09a.52.52,0,0,1-.06.3.22.22,0,0,1-.15.1.17.17,0,0,1-.15-.16.46.46,0,0,1,.06-.23,1.37,1.37,0,0,1,.19-.3C41.43,32.84,41.45,33,41.46,33.09Z"/><path class="cls-16" d="M41.4,33.16h0a.18.18,0,0,0-.07.05l-.08.09c-.1.11,0,.22.12.14S41.46,33.19,41.4,33.16Z"/><path class="cls-14" d="M43.05,31.46a2,2,0,0,0,.14.54c.08.2.26.41.46.36a.34.34,0,0,0,.2-.41.74.74,0,0,0-.33-.37,1,1,0,0,0-.47-.12"/><path class="cls-15" d="M43.48,31.74a.41.41,0,0,1,.2.23.15.15,0,0,1-.23.19.34.34,0,0,1-.14-.19,1.24,1.24,0,0,1-.12-.32C43.28,31.6,43.41,31.69,43.48,31.74Z"/><path class="cls-16" d="M43.51,31.83h0a.14.14,0,0,0,0,.09l0,.12c0,.14.19.12.18,0S43.57,31.79,43.51,31.83Z"/><path class="cls-14" d="M42.27,28a2,2,0,0,0,.14-.54c0-.21,0-.48-.22-.54a.33.33,0,0,0-.37.27.69.69,0,0,0,.1.48c.11.18.19.2.35.33"/><path class="cls-15" d="M42,27.53a.46.46,0,0,1-.06-.3.18.18,0,0,1,.1-.15.17.17,0,0,1,.2.09.48.48,0,0,1,0,.24,1.35,1.35,0,0,1-.06.34C42.15,27.74,42.07,27.61,42,27.53Z"/><path class="cls-16" d="M42.05,27.44h0a.16.16,0,0,0,0-.07l0-.12a.09.09,0,1,0-.17-.08C42,27.21,42,27.44,42.05,27.44Z"/><path class="cls-14" d="M44.18,29.42a2.12,2.12,0,0,0,.56,0c.22,0,.47-.13.47-.35s-.17-.29-.33-.29a.68.68,0,0,0-.45.21,1.08,1.08,0,0,0-.25.41"/><path class="cls-15" d="M44.57,29.08a.44.44,0,0,1,.28-.12A.18.18,0,0,1,45,29a.19.19,0,0,1-.05.22.42.42,0,0,1-.22.08,1.35,1.35,0,0,1-.35,0C44.39,29.25,44.5,29.14,44.57,29.08Z"/><path class="cls-16" d="M44.66,29.08s0,0,0,0a.11.11,0,0,0,.08,0l.12,0c.14,0,.17-.15,0-.19S44.65,29,44.66,29.08Z"/><path class="cls-17" d="M40.8,30.62c.14.22.49.25.58.49a1.08,1.08,0,0,1,0,.36c.07.77,1.3.6,1.67.2a.78.78,0,0,0,.13-.79.88.88,0,0,0,0-.66l0,0,.25-.06a1.39,1.39,0,0,0,1-1.2,1,1,0,0,0-1-1.09.92.92,0,0,1-.4,0c-.08,0-.14-.07-.21-.09-.32-.13-.63.28-.67.65a5.79,5.79,0,0,1,0,1.1l-.11.22c-.11,0-.22-.07-.34-.09a.79.79,0,0,0-.9.67A.54.54,0,0,0,40.8,30.62Z"/><path class="cls-23" d="M72.47,76.21,76.79,78l3.41,1.31a6.39,6.39,0,0,1-3.44,2.23,4.18,4.18,0,0,0,2.29,3.2c3.4,1.57,6.46-2.62,7.87-6.07s1.13-8.25-3.28-9.61a3.78,3.78,0,0,0-4.42,1.53c2.9,1.86,2.27,4.28,2.27,4.28l-3.64-1.4-3.78-1.45Z"/><path class="cls-24" d="M80.2,79.35,76.79,78a9.91,9.91,0,0,0,0,3.54A6.39,6.39,0,0,0,80.2,79.35Z"/><path class="cls-24" d="M79.22,70.63a8.85,8.85,0,0,0-1.37,2.88l3.64,1.4S82.12,72.49,79.22,70.63Z"/><path class="cls-25" d="M74.27,75.9c2.38.82,5,1.55,7.35,2.38A1.41,1.41,0,0,1,82,76.82l-7-2.86a1.94,1.94,0,0,1-.67,1.94"/><path class="cls-25" d="M82.86,79.71a9.6,9.6,0,0,0,1.76-4.51,5.59,5.59,0,0,0-2.88-5.11c1.84-.42,3.7,1.12,4.23,2.93a8.8,8.8,0,0,1-.63,5.54,10,10,0,0,1-2.71,4.26,4.33,4.33,0,0,1-4.06,1A11.9,11.9,0,0,0,82.86,79.71Z"/><path class="cls-26" d="M48.22,39.93a63.3,63.3,0,0,0,4.83,7.13c-4-.39-7.77,1.71-11.66,2.71.51-1.7-.89-3.29-1.78-4.82a2.16,2.16,0,0,1-.38-1.31.86.86,0,0,1,.94-.78c-1.75-1.3-2.28-3.64-2.69-5.78,1.12.33,2-1.06,3.07-1.45a4,4,0,0,1,1.58-.09l4.32.34C47.21,36,47.74,39.07,48.22,39.93Z"/><path class="cls-27" d="M41.43,36.81a5.35,5.35,0,0,0-2.59.65.47.47,0,0,0-.25.27.56.56,0,0,0,0,.28l.31.83a4.7,4.7,0,0,0,1,1.85c.34.32.79.55,1,1s.06,1.09-.41,1.09a1.07,1.07,0,0,1,.54,1.07.49.49,0,0,0,.46.56c1.11.06,2.26-.65,3.42-.77.7-.07,1.4.07,2.1.07a2.64,2.64,0,0,0,1.51-.43.47.47,0,0,0,0-.7,7.79,7.79,0,0,1-2.35-4.32,2.63,2.63,0,0,0-.15-.79C45.69,36.34,42.4,36.75,41.43,36.81Z"/><path class="cls-27" d="M41.93,45.85c-.3,0-.69.25-.58.53s.27.21.43.31a.68.68,0,0,1,.28.38.38.38,0,0,0,.47.27,31,31,0,0,1,7.57-1.27.37.37,0,0,0,.16-.69C48,44.13,44.24,45.47,41.93,45.85Z"/><path class="cls-28" d="M41.28,42.11a1,1,0,0,0,1.18.43.78.78,0,0,0-.07.83l3.7-.43c.35,0,.75-.12.91-.43-.1-.22-.2-.43-.29-.66C47.79,40.37,41.4,42.31,41.28,42.11Z"/><path class="cls-23" d="M95.42,61.45l.79,4.63.73,3.58A6.43,6.43,0,0,1,93.21,68a4.18,4.18,0,0,0-1.46,3.66c.51,3.7,5.69,4,9.36,3.35s7.56-3.5,6.32-8a3.8,3.8,0,0,0-3.67-2.9c0,3.46-2.38,4.22-2.38,4.22l-.79-3.81-.81-4Z"/><path class="cls-24" d="M96.94,69.66l-.73-3.58a9.73,9.73,0,0,0-3,1.88A6.43,6.43,0,0,0,96.94,69.66Z"/><path class="cls-24" d="M103.76,64.12a8.94,8.94,0,0,0-3.17.41l.79,3.81S103.75,67.58,103.76,64.12Z"/><path class="cls-25" d="M96.65,62.8c.59,2.44,1.38,5,2,7.47a1.34,1.34,0,0,1,1.4-.49l-1.38-7.46a1.93,1.93,0,0,1-2,.48"/><path class="cls-25" d="M98.08,72.09a9.63,9.63,0,0,0,4.75-1A5.61,5.61,0,0,0,105.57,66c1.35,1.33,1.06,3.72-.19,5.15a8.89,8.89,0,0,1-5,2.46,9.9,9.9,0,0,1-5,0,4.33,4.33,0,0,1-3-2.9A12,12,0,0,0,98.08,72.09Z"/><path class="cls-23" d="M57.11,53.72l1.42-4.48,1-3.51a6.39,6.39,0,0,1,2.54,3.21,4.17,4.17,0,0,0,3-2.58c1.23-3.53-3.22-6.18-6.8-7.26s-8.32-.35-9.25,4.17a3.79,3.79,0,0,0,1.94,4.26c1.58-3.07,4-2.66,4-2.66l-1,3.74-1.09,3.91Z"/><path class="cls-24" d="M59.51,45.73l-1,3.51a9.72,9.72,0,0,0,3.52-.3A6.39,6.39,0,0,0,59.51,45.73Z"/><path class="cls-24" d="M50.92,47.53a9,9,0,0,0,3,1.08l1-3.74S52.5,44.46,50.92,47.53Z"/><path class="cls-25" d="M56.63,52c.6-2.45,1.08-5.11,1.68-7.55a1.38,1.38,0,0,1-1.48-.2l-2.19,7.26a1.93,1.93,0,0,1,2,.49"/><path class="cls-25" d="M59.62,43A9.75,9.75,0,0,0,55,41.71a5.6,5.6,0,0,0-4.81,3.36c-.6-1.79.76-3.79,2.51-4.49a8.89,8.89,0,0,1,5.58.1A9.84,9.84,0,0,1,62.73,43a4.36,4.36,0,0,1,1.34,4A12.14,12.14,0,0,0,59.62,43Z"/><path class="cls-23" d="M75.15,62.47,76.56,58l1-3.52a6.34,6.34,0,0,1,2.53,3.22,4.17,4.17,0,0,0,3-2.59c1.24-3.53-3.22-6.18-6.79-7.26S68,47.5,67,52A3.8,3.8,0,0,0,69,56.28c1.58-3.07,4-2.66,4-2.66l-1,3.75-1.09,3.9Z"/><path class="cls-24" d="M77.55,54.48l-1,3.52a10,10,0,0,0,3.52-.3A6.34,6.34,0,0,0,77.55,54.48Z"/><path class="cls-24" d="M69,56.28a8.81,8.81,0,0,0,3,1.09l1-3.75S70.54,53.21,69,56.28Z"/><path class="cls-25" d="M74.67,60.71c.59-2.44,1.07-5.1,1.67-7.55a1.36,1.36,0,0,1-1.48-.2c-.73,2.42-1.45,4.84-2.18,7.27a1.93,1.93,0,0,1,2,.48"/><path class="cls-25" d="M77.65,51.8A9.58,9.58,0,0,0,73,50.47a5.58,5.58,0,0,0-4.81,3.36c-.6-1.8.76-3.8,2.52-4.5a8.92,8.92,0,0,1,5.57.1,10,10,0,0,1,4.5,2.3,4.35,4.35,0,0,1,1.33,4A12,12,0,0,0,77.65,51.8Z"/><path class="cls-23" d="M50.69,72.63,48,76.5l-2,3.08a6.42,6.42,0,0,1-1.5-3.81A4.19,4.19,0,0,0,41,77.38c-2.2,3,1.3,6.85,4.41,8.92S53.25,89,55.45,85a3.78,3.78,0,0,0-.63-4.64c-2.4,2.48-4.64,1.38-4.64,1.38l2.09-3.29L54.44,75Z"/><path class="cls-24" d="M46.08,79.58l2-3.08a9.93,9.93,0,0,0-3.46-.73A6.42,6.42,0,0,0,46.08,79.58Z"/><path class="cls-24" d="M54.82,80.34a9.06,9.06,0,0,0-2.55-1.91l-2.09,3.29S52.42,82.82,54.82,80.34Z"/><path class="cls-25" d="M50.64,74.45c-1.28,2.17-2.51,4.57-3.79,6.74a1.36,1.36,0,0,1,1.36.62l4.19-6.32a1.93,1.93,0,0,1-1.76-1"/><path class="cls-25" d="M45.2,82.12a9.63,9.63,0,0,0,4.08,2.62,5.59,5.59,0,0,0,5.57-1.82c.06,1.89-1.82,3.41-3.71,3.57a8.84,8.84,0,0,1-5.3-1.71,10,10,0,0,1-3.64-3.5,4.35,4.35,0,0,1-.13-4.17A12,12,0,0,0,45.2,82.12Z"/><path class="cls-23" d="M69,86.83,66.36,90.7l-2,3.09A6.38,6.38,0,0,1,62.91,90a4.19,4.19,0,0,0-3.6,1.61c-2.21,3,1.29,6.85,4.4,8.92s7.86,2.74,10.07-1.32a3.78,3.78,0,0,0-.63-4.63c-2.4,2.48-4.65,1.37-4.65,1.37l2.09-3.28,2.18-3.42Z"/><path class="cls-24" d="M64.4,93.79l2-3.09A9.84,9.84,0,0,0,62.91,90,6.38,6.38,0,0,0,64.4,93.79Z"/><path class="cls-24" d="M73.15,94.55a8.81,8.81,0,0,0-2.56-1.91L68.5,95.92S70.75,97,73.15,94.55Z"/><path class="cls-25" d="M69,88.65c-1.27,2.17-2.51,4.58-3.78,6.74a1.37,1.37,0,0,1,1.35.62l4.2-6.32a1.94,1.94,0,0,1-1.77-1"/><path class="cls-25" d="M63.53,96.32a9.56,9.56,0,0,0,4.07,2.62,5.57,5.57,0,0,0,5.58-1.82c0,1.89-1.82,3.41-3.71,3.57A8.85,8.85,0,0,1,64.16,99a9.89,9.89,0,0,1-3.63-3.49,4.33,4.33,0,0,1-.14-4.17A12,12,0,0,0,63.53,96.32Z"/><path class="cls-23" d="M37.54,53l-3.48-3.13-2.8-2.35a6.31,6.31,0,0,1,4-1,4.18,4.18,0,0,0-1.12-3.78c-2.71-2.58-7,.38-9.42,3.19s-3.75,7.44,0,10.15a3.78,3.78,0,0,0,4.67,0c-2.14-2.71-.75-4.78-.75-4.78l3,2.5,3.1,2.6Z"/><path class="cls-24" d="M31.26,47.47l2.8,2.35a9.81,9.81,0,0,0,1.17-3.33A6.31,6.31,0,0,0,31.26,47.47Z"/><path class="cls-24" d="M29.35,56a8.91,8.91,0,0,0,2.23-2.28l-3-2.5S27.21,53.33,29.35,56Z"/><path class="cls-25" d="M35.74,52.66c-2-1.55-4.2-3.08-6.18-4.63a1.36,1.36,0,0,1-.79,1.26l5.71,5a2,2,0,0,1,1.26-1.62"/><path class="cls-25" d="M28.86,46.27A9.61,9.61,0,0,0,25.72,50a5.59,5.59,0,0,0,1.08,5.77c-1.88-.19-3.14-2.25-3.05-4.14a8.8,8.8,0,0,1,2.39-5,9.77,9.77,0,0,1,3.94-3.14,4.32,4.32,0,0,1,4.15.41A12,12,0,0,0,28.86,46.27Z"/><path class="cls-23" d="M59,24.46l-3.49-3.13L52.67,19a6.39,6.39,0,0,1,4-1,4.19,4.19,0,0,0-1.12-3.78c-2.71-2.58-7,.39-9.42,3.2s-3.75,7.43,0,10.15a3.79,3.79,0,0,0,4.68,0c-2.14-2.71-.76-4.79-.76-4.79l3,2.5,3.1,2.61Z"/><path class="cls-24" d="M52.67,19l2.8,2.35A10,10,0,0,0,56.65,18,6.39,6.39,0,0,0,52.67,19Z"/><path class="cls-24" d="M50.77,27.55A8.87,8.87,0,0,0,53,25.26l-3-2.5S48.63,24.84,50.77,27.55Z"/><path class="cls-25" d="M57.16,24.17c-2-1.55-4.2-3.09-6.18-4.64a1.37,1.37,0,0,1-.8,1.27l5.72,5a1.94,1.94,0,0,1,1.26-1.61"/><path class="cls-25" d="M50.27,17.78a9.67,9.67,0,0,0-3.13,3.69,5.61,5.61,0,0,0,1.07,5.77c-1.88-.2-3.14-2.26-3.05-4.15a8.89,8.89,0,0,1,2.39-5,10,10,0,0,1,4-3.14,4.37,4.37,0,0,1,4.15.41A12,12,0,0,0,50.27,17.78Z"/><path class="cls-23" d="M30.2,63.78l-4.68-.19-3.66,0a6.36,6.36,0,0,1,2.44-3.29A4.18,4.18,0,0,0,21,58.07c-3.73-.26-5.11,4.74-5.22,8.47s1.85,8.12,6.46,7.83a3.79,3.79,0,0,0,3.6-3c-3.38-.72-3.63-3.21-3.63-3.21l3.89,0,4.05,0Z"/><path class="cls-24" d="M21.86,63.56l3.66,0a10,10,0,0,0-1.22-3.32A6.36,6.36,0,0,0,21.86,63.56Z"/><path class="cls-24" d="M25.86,71.38a8.9,8.9,0,0,0,.26-3.18l-3.89,0S22.48,70.66,25.86,71.38Z"/><path class="cls-25" d="M28.63,64.7c-2.51.07-5.21.3-7.72.37a1.36,1.36,0,0,1,.19,1.48l7.59.2a1.94,1.94,0,0,1-.06-2"/><path class="cls-25" d="M19.25,64.17A9.57,9.57,0,0,0,19.19,69a5.6,5.6,0,0,0,4.5,3.76c-1.57,1-3.85.26-5-1.25a8.79,8.79,0,0,1-1.37-5.4,10,10,0,0,1,1-4.94,4.36,4.36,0,0,1,3.46-2.33A12,12,0,0,0,19.25,64.17Z"/><path class="cls-26" d="M65.13,74.43a63.46,63.46,0,0,0,8.58-.86c-2.25,3.33-2.19,7.64-3.17,11.54-1.25-1.26-3.31-.78-5.09-.73a2.06,2.06,0,0,1-1.32-.28.86.86,0,0,1-.25-1.2c-2,.92-4.28.27-6.36-.39.82-.83,0-2.23.19-3.38a3.79,3.79,0,0,1,.67-1.44l2.35-3.63C61.15,73.42,64.15,74.44,65.13,74.43Z"/><path class="cls-27" d="M59.16,78.91a5.54,5.54,0,0,0-.66,2.59.47.47,0,0,0,.12.35.58.58,0,0,0,.27.09l.88.12a4.74,4.74,0,0,0,2.12,0,4.75,4.75,0,0,1,1.33-.45c.47,0,1,.47.76.88a1.09,1.09,0,0,1,1.2,0,.49.49,0,0,0,.71-.14c.59-1,.51-2.29,1-3.37.27-.65.73-1.2,1.06-1.82a2.62,2.62,0,0,0,.35-1.53.48.48,0,0,0-.61-.36,7.81,7.81,0,0,1-4.92,0,2.5,2.5,0,0,0-.76-.24C60.77,74.94,59.57,78,59.16,78.91Z"/><path class="cls-27" d="M67.35,82.77c-.1.28-.11.73.19.76s.32-.13.47-.22a.73.73,0,0,1,.48-.07.36.36,0,0,0,.45-.29,32,32,0,0,1,2.49-7.26.37.37,0,0,0-.53-.46C68.73,76.61,68.12,80.56,67.35,82.77Z"/><path class="cls-28" d="M63.76,81.57a1,1,0,0,0,.93-.84.81.81,0,0,0,.7.46l1.38-3.46a1.13,1.13,0,0,0,.06-1,5.67,5.67,0,0,1-.72-.06C65.32,75,64,81.55,63.76,81.57Z"/><path class="cls-26" d="M89.06,53.8A63.24,63.24,0,0,0,86.28,62c-2.1-3.43-6-5.17-9.19-7.67,1.67-.62,2.09-2.69,2.78-4.33a2.08,2.08,0,0,1,.81-1.09.85.85,0,0,1,1.19.28c0-2.18,1.53-4,3-5.63.41,1.09,2,.93,3,1.57a3.76,3.76,0,0,1,1,1.21L91.22,50C91.63,50.59,89.46,52.9,89.06,53.8Z"/><path class="cls-27" d="M87.46,46.51a5.4,5.4,0,0,0-2.09-1.68.42.42,0,0,0-.36,0,.46.46,0,0,0-.19.2l-.48.75a4.87,4.87,0,0,0-.85,1.94,5,5,0,0,1-.14,1.4c-.19.44-.84.71-1.12.33a1.07,1.07,0,0,1-.54,1.07.5.5,0,0,0-.17.71c.63.92,1.88,1.41,2.68,2.26.48.52.79,1.17,1.22,1.72a2.62,2.62,0,0,0,1.24,1,.47.47,0,0,0,.58-.4,7.82,7.82,0,0,1,2-4.48,2.51,2.51,0,0,0,.54-.59C90.4,49.62,88.09,47.24,87.46,46.51Z"/><path class="cls-27" d="M80.55,52.36c-.22-.21-.62-.41-.77-.15s0,.35,0,.53a.61.61,0,0,1-.13.45.37.37,0,0,0,.07.54A31.32,31.32,0,0,1,85.3,59a.37.37,0,0,0,.64-.28C85.58,56.17,82.24,54,80.55,52.36Z"/><path class="cls-28" d="M83.14,49.59a1,1,0,0,0,.36,1.19.79.79,0,0,0-.7.45l2.58,2.69c.24.25.54.53.89.47a6.37,6.37,0,0,1,.35-.63C88.45,53.73,83.05,49.8,83.14,49.59Z"/><path class="cls-26" d="M39.1,66.13a61.74,61.74,0,0,0,8.57-.86c-2.24,3.34-2.18,7.65-3.16,11.54-1.25-1.25-3.32-.78-5.09-.72a2.18,2.18,0,0,1-1.33-.29.86.86,0,0,1-.24-1.2c-2,.92-4.28.28-6.36-.38.82-.83,0-2.23.18-3.39a3.77,3.77,0,0,1,.68-1.43c.78-1.22,1.57-2.43,2.35-3.64C35.12,65.12,38.12,66.14,39.1,66.13Z"/><path class="cls-27" d="M33.13,70.61a5.59,5.59,0,0,0-.67,2.6.47.47,0,0,0,.13.34.48.48,0,0,0,.27.09l.88.12a4.74,4.74,0,0,0,2.12,0,5,5,0,0,1,1.33-.45c.47,0,1,.47.76.89a1.07,1.07,0,0,1,1.2,0,.49.49,0,0,0,.71-.14c.58-.94.5-2.29,1-3.37.27-.65.73-1.2,1.06-1.82a2.7,2.7,0,0,0,.35-1.53.48.48,0,0,0-.61-.36,7.74,7.74,0,0,1-4.92,0,2.92,2.92,0,0,0-.76-.24C34.74,66.65,33.54,69.74,33.13,70.61Z"/><path class="cls-27" d="M41.32,74.47c-.1.29-.11.73.19.77s.32-.14.47-.23a.69.69,0,0,1,.47-.07.37.37,0,0,0,.46-.28A31.15,31.15,0,0,1,45.4,67.4a.37.37,0,0,0-.53-.47C42.69,68.31,42.09,72.26,41.32,74.47Z"/><path class="cls-28" d="M37.72,73.27a1.05,1.05,0,0,0,.94-.83.79.79,0,0,0,.69.45c.47-1.15.93-2.3,1.39-3.46a1.1,1.1,0,0,0,0-1c-.24,0-.47,0-.71,0C39.29,66.71,38,73.26,37.72,73.27Z"/><path class="cls-21" d="M53.84,60.29a4,4,0,0,1,1.41,1.33,9.59,9.59,0,0,1,.57,1.58c.69,1.94,3.28,1.45,2.64-.58S55.78,59.28,53.84,60.29Z"/><path class="cls-22" d="M60.53,71.64a2.68,2.68,0,0,0-.27,1.63,6.38,6.38,0,0,1,.56-2,3.48,3.48,0,0,0,.24-.52c.15-.41.16-.86.32-1.27,0-.13.11-.26.17-.39a1.92,1.92,0,0,0-.2-1.84c-.13.21,0,.73,0,1a5.46,5.46,0,0,1-.13,1.14A13.27,13.27,0,0,1,60.53,71.64Z"/><path class="cls-21" d="M60.2,55.72l.27.26a2.28,2.28,0,0,1,.69-1,.7.7,0,0,0,.18.34A4.68,4.68,0,0,1,64.22,53l.09.14a20,20,0,0,1,4.2-1.41,9.76,9.76,0,0,1-1.21,4l.3.1a15.52,15.52,0,0,1-1.54,3.11,9.46,9.46,0,0,1-2.6,3.2,9.33,9.33,0,0,1-3.35,1.15,2.88,2.88,0,0,1-1.09.09c-1.39-.25-1.1-2.79-.91-3.79A7.14,7.14,0,0,1,60.2,55.72Z"/><path class="cls-18" d="M59.6,61.24a2.07,2.07,0,0,0-.38.7.76.76,0,0,0,.18.74,1,1,0,0,0,.81.15,4.19,4.19,0,0,0,2.45-1.1c.21-.2.38-.42.59-.61s.47-.4.7-.61a9.06,9.06,0,0,0,1.6-2.14,22.64,22.64,0,0,0,1.25-2.12c-1.4-.17-2.77.85-3.83,1.63A16.76,16.76,0,0,0,59.6,61.24Z"/><path class="cls-22" d="M66.21,54.27c.53-.45,1.38-1.06,1.46-1.81-.42.1-.9.86-1.21,1.17-.48.48-1,.94-1.48,1.39L63.9,56h0c.24-.74.62-1.41.91-2.11a4.56,4.56,0,0,0-1.36,2.52c-.46.42-.91.84-1.34,1.28l-.18.18a2.78,2.78,0,0,0,.11-.5c.11-.65.51-1.24.6-1.88a8.84,8.84,0,0,0-1.11,2.76l.07,0a22.13,22.13,0,0,0-1.88,2.34,19.57,19.57,0,0,0,0-2.65,8.3,8.3,0,0,0-.28,1.58A10.18,10.18,0,0,1,59.38,61l0,0a23.78,23.78,0,0,0-1.93,3.54c.25-.06.4-.3.53-.52a34.59,34.59,0,0,1,2.19-3.32,4.75,4.75,0,0,0,1.42-.4,10,10,0,0,0,.92-.47,22.35,22.35,0,0,0,2.28-1.43c.13-.09.28-.23.25-.38.06.37-2.51,1.44-2.84,1.58s-1.07.32-1.62.53c.68-.88,1.39-1.73,2.14-2.55a.29.29,0,0,0,0,.09,8.8,8.8,0,0,0,3-1.32,8.94,8.94,0,0,0,1.2-.9,6.7,6.7,0,0,0-1.8.93A22.47,22.47,0,0,0,63,57.3,36.63,36.63,0,0,1,66.21,54.27Z"/><path class="cls-21" d="M53.79,70.68l-.17-.33a2.28,2.28,0,0,1-1,.66.71.71,0,0,0,0-.38,4.68,4.68,0,0,1-3.52,1.19l0-.17a19.81,19.81,0,0,1-4.42-.14,9.57,9.57,0,0,1,2.51-3.3l-.25-.2a15.45,15.45,0,0,1,2.54-2.37A9.3,9.3,0,0,1,53,63.55a9.38,9.38,0,0,1,3.54.08,3.17,3.17,0,0,1,1.05.3c1.22.72,0,3-.47,3.87A7.11,7.11,0,0,1,53.79,70.68Z"/><path class="cls-18" d="M56.27,65.72a1.88,1.88,0,0,0,.6-.52.73.73,0,0,0,.09-.76,1,1,0,0,0-.7-.42,4.17,4.17,0,0,0-2.68.18c-.26.11-.51.25-.77.37s-.58.21-.87.32a9.34,9.34,0,0,0-2.24,1.45,24.07,24.07,0,0,0-1.92,1.55c1.26.64,2.9.17,4.16-.19A16.48,16.48,0,0,0,56.27,65.72Z"/><path class="cls-22" d="M47.65,70c-.65.23-1.66.5-2,1.17.43.06,1.14-.49,1.54-.67.62-.28,1.25-.53,1.88-.78l1.34-.52h0c-.48.61-1.07,1.11-1.58,1.67A4.62,4.62,0,0,0,51,68.94c.58-.23,1.14-.47,1.7-.73l.23-.12a2.47,2.47,0,0,0-.27.44c-.33.58-.92,1-1.22,1.56a8.78,8.78,0,0,0,2-2.21h-.07a22.24,22.24,0,0,0,2.58-1.54,21.42,21.42,0,0,0-1,2.48,8.37,8.37,0,0,0,.82-1.38A10.62,10.62,0,0,1,56.4,66h0a22.47,22.47,0,0,0,3-2.64,1,1,0,0,0-.68.31A35.1,35.1,0,0,1,55.52,66a5,5,0,0,0-1.47-.12c-.34,0-.68.07-1,.12a24.23,24.23,0,0,0-2.64.54c-.15,0-.33.12-.36.28.07-.38,2.85-.48,3.21-.49s1.11.06,1.7.06C54,67,53,67.57,52,68.07a.18.18,0,0,0,.05-.07,8.82,8.82,0,0,0-3.23.21,9.12,9.12,0,0,0-1.44.42,6.84,6.84,0,0,0,2-.25c.42-.08,1.63,0,2.27-.15A39.11,39.11,0,0,1,47.65,70Z"/><path class="cls-20" d="M56.31,61.82a17,17,0,0,0,.7,1.63.47.47,0,0,0,.14.14.33.33,0,0,0,.36-.08.71.71,0,0,0,.17-.36,2.12,2.12,0,0,0-.22-1.35,3.42,3.42,0,0,0-.92-1c-.23-.18-2-.64-1.53-.36A7.29,7.29,0,0,1,56.31,61.82Z"/><path class="cls-21" d="M62.93,63.93a4.21,4.21,0,0,0,1.24.65.2.2,0,0,0,.18,0s0-.12,0-.17a4,4,0,0,0-1.18-1.79,1.55,1.55,0,0,0-.5-.31,2,2,0,0,0-.48-.06c-.67,0-3.94.09-3.43,1.59.27.79,1.34.13,1.8,0A2.91,2.91,0,0,1,62.93,63.93Z"/><path class="cls-20" d="M60.79,63.2a3,3,0,0,1,2.44.92,2.62,2.62,0,0,0-2-1.51c-.54-.08-1.73,0-1.92.67S60.4,63.27,60.79,63.2Z"/><path class="cls-21" d="M55.5,66a4.26,4.26,0,0,0,.15,2.06,8.48,8.48,0,0,0,4.51,5.75,23.92,23.92,0,0,0,2.5.74,12.29,12.29,0,0,1,4.17,2.16c.93-.57.93-1.92.73-3A22.79,22.79,0,0,0,65.75,68a9.12,9.12,0,0,0-2.55-3.51,4.17,4.17,0,0,0-4.11-.68C57.92,64.37,55.86,64.58,55.5,66Z"/><path class="cls-20" d="M61.13,67.28c.62,1.83,2.17,3.16,3.65,4.41a9.26,9.26,0,0,0,2,1.38,7.69,7.69,0,0,0-.66-3.18,13.67,13.67,0,0,0-1.57-3.35c-.5-.71-1.7-2.06-2.69-2S60.88,66.57,61.13,67.28Z"/><path class="cls-22" d="M66.67,76.4c-.26-1.74-1.49-3.15-2.43-4.63-.57-.91-1-1.87-1.57-2.81a11,11,0,0,1,1.41,1.12,8.33,8.33,0,0,1,2,2.5,8.69,8.69,0,0,0-3.25-4.2,6.23,6.23,0,0,0-.85-.63c-.11-.16-.21-.32-.32-.47a12,12,0,0,0-1-1.15h0a3.58,3.58,0,0,1,1.82.57,7,7,0,0,1,1.83,1.64A2.12,2.12,0,0,0,63.7,67a4.84,4.84,0,0,0-2.79-1.5,1.46,1.46,0,0,0-.59,0,.78.78,0,0,0-.2.11c-.82-.75-1.77-1.35-2.4-.94.51.51,1,1,1.55,1.46a7.69,7.69,0,0,0,.07.85,5.46,5.46,0,0,1-.13,1.14,12.87,12.87,0,0,1-.72,2.2,2.65,2.65,0,0,0-.27,1.64,6.38,6.38,0,0,1,.56-2c.08-.17.17-.34.24-.52.15-.41.15-.87.31-1.27.05-.14.12-.26.17-.39a2.09,2.09,0,0,0,0-1.44c.64.59,1.25,1.17,1.84,1.8-.26.14-.4.75-.47,1A14.48,14.48,0,0,0,60.22,72a2.26,2.26,0,0,0,.07,1.21,7.52,7.52,0,0,1,.28-1.35c.14-.4.35-.78.5-1.18.08-.23.14-.46.2-.7s.17-.62.25-.93a3.92,3.92,0,0,0,.12-.6,15,15,0,0,1,1.53,2c0,.17,0,.42,0,.56a4.16,4.16,0,0,1-.09.79,9.86,9.86,0,0,1-.49,1.51,1.74,1.74,0,0,0-.19,1.13,4.25,4.25,0,0,1,.38-1.35,4,4,0,0,0,.17-.36c.1-.28.11-.59.21-.87,0-.09.09-.18.12-.27a1.63,1.63,0,0,0,.09-.74A41.86,41.86,0,0,0,66.67,76.4Z"/><path class="cls-21" d="M72.36,31.33a4.24,4.24,0,0,1,1.42,1.34,10.57,10.57,0,0,1,.56,1.58c.7,1.93,3.29,1.44,2.64-.59S74.3,30.32,72.36,31.33Z"/><path class="cls-22" d="M79.06,42.68a2.58,2.58,0,0,0-.27,1.64,5.87,5.87,0,0,1,.56-2c.08-.17.17-.34.24-.52.14-.41.15-.87.31-1.28,0-.13.12-.25.17-.38a1.89,1.89,0,0,0-.2-1.84c-.12.21,0,.73,0,1a6.34,6.34,0,0,1-.14,1.15A13.12,13.12,0,0,1,79.06,42.68Z"/><path class="cls-21" d="M78.73,26.77,79,27a2.31,2.31,0,0,1,.69-1,.69.69,0,0,0,.18.35,4.69,4.69,0,0,1,2.88-2.35l.09.15A19.5,19.5,0,0,1,87,22.8a9.53,9.53,0,0,1-1.21,4l.31.1A15.92,15.92,0,0,1,84.58,30,9.31,9.31,0,0,1,82,33.17a9.28,9.28,0,0,1-3.35,1.16,2.83,2.83,0,0,1-1.08.08c-1.4-.24-1.1-2.79-.91-3.78A7.08,7.08,0,0,1,78.73,26.77Z"/><path class="cls-18" d="M78.13,32.29a1.91,1.91,0,0,0-.38.7.74.74,0,0,0,.18.74,1,1,0,0,0,.81.15,4.31,4.31,0,0,0,2.45-1.1c.2-.2.38-.42.58-.61s.48-.4.71-.61a9.15,9.15,0,0,0,1.59-2.15,22.59,22.59,0,0,0,1.26-2.11c-1.4-.17-2.78.85-3.83,1.63A16.26,16.26,0,0,0,78.13,32.29Z"/><path class="cls-22" d="M84.73,25.31c.53-.44,1.38-1,1.46-1.8-.42.09-.9.86-1.21,1.17-.48.48-1,.93-1.48,1.38l-1.08,1h0c.24-.74.61-1.41.9-2.12A4.65,4.65,0,0,0,82,27.43c-.45.41-.9.83-1.34,1.27l-.17.19a2.78,2.78,0,0,0,.11-.5c.1-.66.51-1.24.59-1.89a9.12,9.12,0,0,0-1.1,2.77l.06,0a22.13,22.13,0,0,0-1.88,2.34,21.51,21.51,0,0,0,0-2.66A8.61,8.61,0,0,0,78,30.51a10.39,10.39,0,0,1-.08,1.54l0,0A22.51,22.51,0,0,0,76,35.57a1,1,0,0,0,.53-.53,38,38,0,0,1,2.19-3.32,4.58,4.58,0,0,0,1.42-.39,10,10,0,0,0,.92-.48,21.76,21.76,0,0,0,2.29-1.42c.13-.1.27-.23.24-.39.07.38-2.5,1.44-2.83,1.58s-1.07.33-1.62.54c.67-.88,1.39-1.73,2.14-2.55a.16.16,0,0,0,0,.08,8.55,8.55,0,0,0,3-1.32,9.31,9.31,0,0,0,1.2-.89,6.7,6.7,0,0,0-1.8.93c-.36.22-1.53.55-2.07.93A36.58,36.58,0,0,1,84.73,25.31Z"/><path class="cls-20" d="M74.84,32.87a15.68,15.68,0,0,0,.7,1.63.35.35,0,0,0,.14.13.31.31,0,0,0,.36-.08.71.71,0,0,0,.16-.35A2,2,0,0,0,76,32.85a3.41,3.41,0,0,0-.91-1.05c-.24-.19-2-.64-1.53-.37A8,8,0,0,1,74.84,32.87Z"/><path class="cls-21" d="M81.46,35a3.81,3.81,0,0,0,1.23.64.21.21,0,0,0,.19,0,.23.23,0,0,0,0-.18,4,4,0,0,0-1.18-1.79,1.45,1.45,0,0,0-.5-.31,1.83,1.83,0,0,0-.47,0c-.68,0-4,.09-3.43,1.59.26.78,1.34.12,1.79,0A2.85,2.85,0,0,1,81.46,35Z"/><path class="cls-20" d="M79.31,34.25a3,3,0,0,1,2.44.92,2.6,2.6,0,0,0-2-1.51c-.54-.08-1.73,0-1.92.66S78.92,34.31,79.31,34.25Z"/><path class="cls-21" d="M74,37.06a4.1,4.1,0,0,0,.14,2,8.46,8.46,0,0,0,4.52,5.76,25.75,25.75,0,0,0,2.5.74,12.15,12.15,0,0,1,4.16,2.16c.94-.58.93-1.93.74-3a23.73,23.73,0,0,0-1.81-5.69,9.12,9.12,0,0,0-2.55-3.5,4.16,4.16,0,0,0-4.12-.68C76.44,35.41,74.38,35.63,74,37.06Z"/><path class="cls-20" d="M79.65,38.33c.63,1.83,2.17,3.16,3.66,4.4a8.69,8.69,0,0,0,2,1.38,7.5,7.5,0,0,0-.67-3.17,14,14,0,0,0-1.56-3.35c-.5-.71-1.7-2.06-2.7-2S79.41,37.62,79.65,38.33Z"/><path class="cls-22" d="M85.19,47.45c-.25-1.75-1.48-3.15-2.43-4.64-.57-.9-1.05-1.87-1.57-2.81a11.93,11.93,0,0,1,1.42,1.13,8.44,8.44,0,0,1,2,2.49,8.73,8.73,0,0,0-3.25-4.19,7.18,7.18,0,0,0-.86-.63c-.1-.16-.21-.32-.32-.47a10.86,10.86,0,0,0-1-1.15h0a3.63,3.63,0,0,1,1.83.56,7.12,7.12,0,0,1,1.82,1.64A2.09,2.09,0,0,0,82.23,38a4.88,4.88,0,0,0-2.8-1.51,1.41,1.41,0,0,0-.58,0,.63.63,0,0,0-.2.1c-.83-.75-1.78-1.34-2.41-.93.52.5,1,1,1.55,1.45,0,.25.08.64.07.85a5.55,5.55,0,0,1-.13,1.15,14.11,14.11,0,0,1-.71,2.2A2.56,2.56,0,0,0,76.75,43a6.1,6.1,0,0,1,.55-2,3.48,3.48,0,0,0,.24-.52c.15-.42.16-.87.32-1.28,0-.13.11-.25.17-.38a2.21,2.21,0,0,0,0-1.44c.63.58,1.25,1.17,1.83,1.79-.25.15-.4.76-.47,1A14.22,14.22,0,0,0,78.74,43a2.25,2.25,0,0,0,.08,1.21,6.79,6.79,0,0,1,.28-1.34c.14-.41.35-.78.49-1.19A5.49,5.49,0,0,0,79.8,41l.24-.94a3.58,3.58,0,0,0,.13-.59,14.61,14.61,0,0,1,1.52,2c0,.17,0,.42,0,.57a3.39,3.39,0,0,1-.09.78,8.7,8.7,0,0,1-.49,1.52A1.87,1.87,0,0,0,81,45.5a4.46,4.46,0,0,1,.39-1.35,2.83,2.83,0,0,0,.16-.36c.1-.28.11-.6.22-.88,0-.09.08-.17.12-.26a1.63,1.63,0,0,0,.08-.74A43.67,43.67,0,0,0,85.19,47.45Z"/><path class="cls-26" d="M32.27,84.53a61.59,61.59,0,0,0,8.57-.86C38.6,87,38.66,91.32,37.68,95.21c-1.25-1.25-3.32-.78-5.09-.72a2.18,2.18,0,0,1-1.33-.29A.86.86,0,0,1,31,93c-2,.92-4.28.28-6.36-.38.82-.83,0-2.23.19-3.39a3.86,3.86,0,0,1,.67-1.44l2.35-3.63C28.29,83.52,31.29,84.54,32.27,84.53Z"/><path class="cls-27" d="M26.3,89a5.58,5.58,0,0,0-.66,2.6.42.42,0,0,0,.12.34A.48.48,0,0,0,26,92l.88.12a4.74,4.74,0,0,0,2.12,0,5,5,0,0,1,1.33-.45c.47,0,1,.47.76.88a1.09,1.09,0,0,1,1.2,0,.49.49,0,0,0,.71-.14c.58-.94.51-2.29.95-3.37.27-.65.73-1.2,1.06-1.82a2.7,2.7,0,0,0,.35-1.53.48.48,0,0,0-.61-.36,7.81,7.81,0,0,1-4.92,0,2.5,2.5,0,0,0-.76-.24C27.91,85.05,26.71,88.14,26.3,89Z"/><path class="cls-27" d="M34.49,92.87c-.1.29-.11.73.19.77s.32-.14.47-.23a.73.73,0,0,1,.48-.07.36.36,0,0,0,.45-.28,31.15,31.15,0,0,1,2.49-7.26.37.37,0,0,0-.53-.47C35.87,86.71,35.26,90.66,34.49,92.87Z"/><path class="cls-28" d="M30.9,91.67a1.05,1.05,0,0,0,.93-.83.79.79,0,0,0,.7.45l1.38-3.46a1.13,1.13,0,0,0,.06-1c-.25,0-.48,0-.72,0C32.46,85.11,31.13,91.65,30.9,91.67Z"/><path class="cls-26" d="M93.29,85.16a63.66,63.66,0,0,0,4.4,7.41c-4-.63-7.85,1.24-11.8,2,.61-1.67-.69-3.34-1.49-4.92a2.1,2.1,0,0,1-.3-1.33.86.86,0,0,1,1-.73c-1.66-1.39-2-3.76-2.33-5.92,1.09.39,2-.94,3.14-1.26a3.71,3.71,0,0,1,1.59,0l4.28.6C92.52,81.12,92.87,84.27,93.29,85.16Z"/><path class="cls-27" d="M86.71,81.64a5.52,5.52,0,0,0-2.64.5.46.46,0,0,0-.26.25.67.67,0,0,0,0,.28l.27.85A4.72,4.72,0,0,0,85,85.43c.32.34.76.6,1,1s0,1.09-.48,1.06a1.07,1.07,0,0,1,.47,1.1.5.5,0,0,0,.43.59c1.11.13,2.29-.51,3.46-.56.7,0,1.4.15,2.1.19a2.77,2.77,0,0,0,1.53-.33.49.49,0,0,0,.07-.71,7.79,7.79,0,0,1-2.09-4.45,3,3,0,0,0-.1-.79C91,81.42,87.67,81.64,86.71,81.64Z"/><path class="cls-27" d="M86.67,90.69c-.3,0-.71.21-.62.5s.26.23.41.33a.72.72,0,0,1,.26.4.38.38,0,0,0,.45.3,31.24,31.24,0,0,1,7.63-.82.36.36,0,0,0,.2-.67C92.83,89.34,89,90.46,86.67,90.69Z"/><path class="cls-28" d="M86.24,86.93a1,1,0,0,0,1.15.49.81.81,0,0,0-.12.83L91,88c.35,0,.76-.07.94-.38a5.4,5.4,0,0,1-.25-.67C92.84,85.58,86.35,87.13,86.24,86.93Z"/><path class="cls-11" d="M45.47,88.45c3.75,1.68,5.6,5.69,4.14,9s-5.69,4.58-9.44,2.91-5.61-5.69-4.14-9S41.72,86.78,45.47,88.45Z"/><ellipse class="cls-12" cx="43.44" cy="93.61" rx="5.92" ry="7.44" transform="translate(-59.75 95.11) rotate(-65.94)"/><path class="cls-13" d="M46.08,97.8a2.73,2.73,0,0,0,2.1-.75,3.57,3.57,0,0,0,0-3.92,6.71,6.71,0,0,0-2.93-2.35,9,9,0,0,0-4.34-1.19A2.14,2.14,0,0,0,39,90.65a3.5,3.5,0,0,0,0,2.43C40.09,97.09,43,97.86,46.08,97.8Z"/><path class="cls-14" d="M43.45,95.06a1.83,1.83,0,0,0-.35.44c-.11.18-.18.45,0,.58a.33.33,0,0,0,.45-.09.71.71,0,0,0,.1-.48,1.09,1.09,0,0,0-.18-.45"/><path class="cls-15" d="M43.48,95.57a.54.54,0,0,1-.06.31.22.22,0,0,1-.16.09.16.16,0,0,1-.14-.17.36.36,0,0,1,.07-.22,1.12,1.12,0,0,1,.19-.29C43.47,95.33,43.48,95.49,43.48,95.57Z"/><path class="cls-16" d="M43.43,95.65h0s0,0-.07,0l-.08.08c-.1.11,0,.23.12.14S43.49,95.68,43.43,95.65Z"/><path class="cls-14" d="M42,94.11a2.65,2.65,0,0,0-.5-.26c-.2-.07-.48-.08-.58.11a.33.33,0,0,0,.18.41.69.69,0,0,0,.49,0c.2-.06.24-.14.41-.27"/><path class="cls-15" d="M41.45,94.25a.47.47,0,0,1-.31,0,.18.18,0,0,1-.12-.13.18.18,0,0,1,.13-.18.4.4,0,0,1,.24,0,1.13,1.13,0,0,1,.32.13C41.69,94.18,41.54,94.22,41.45,94.25Z"/><path class="cls-16" d="M41.37,94.21a0,0,0,0,0,0,0s0,0-.06-.06l-.1-.06c-.12-.08-.22.06-.11.14S41.35,94.27,41.37,94.21Z"/><path class="cls-14" d="M45.15,93.35a2.59,2.59,0,0,0,.56,0c.21,0,.45-.18.43-.39a.33.33,0,0,0-.36-.27.67.67,0,0,0-.42.26,1.06,1.06,0,0,0-.21.44"/><path class="cls-15" d="M45.5,93a.46.46,0,0,1,.27-.15.2.2,0,0,1,.17,0,.18.18,0,0,1,0,.22.47.47,0,0,1-.21.11,1,1,0,0,1-.35,0C45.34,93.15,45.44,93,45.5,93Z"/><path class="cls-16" d="M45.6,93s0,0,0,0a.12.12,0,0,0,.08,0h.13c.14,0,.15-.16,0-.18S45.58,92.9,45.6,93Z"/><path class="cls-14" d="M46.56,95.05a2.1,2.1,0,0,0,.13.55c.07.2.24.42.45.37a.33.33,0,0,0,.2-.4.68.68,0,0,0-.31-.38,1.23,1.23,0,0,0-.47-.14"/><path class="cls-15" d="M47,95.34a.5.5,0,0,1,.19.24.19.19,0,0,1,0,.18.17.17,0,0,1-.22,0,.45.45,0,0,1-.14-.19,1.39,1.39,0,0,1-.1-.33C46.78,95.21,46.91,95.29,47,95.34Z"/><path class="cls-16" d="M47,95.43s0,0,0,0a.14.14,0,0,0,0,.09v.12a.1.1,0,1,0,.19,0C47.19,95.6,47.07,95.41,47,95.43Z"/><path class="cls-14" d="M44.53,92.58a1.87,1.87,0,0,0,.45-.33c.16-.15.29-.39.16-.56a.33.33,0,0,0-.45,0,.72.72,0,0,0-.22.44,1.12,1.12,0,0,0,.06.48"/><path class="cls-15" d="M44.63,92.08a.47.47,0,0,1,.14-.28.18.18,0,0,1,.17,0c.08,0,.11.12.1.2a.44.44,0,0,1-.13.2,1.37,1.37,0,0,1-.25.23C44.59,92.32,44.61,92.16,44.63,92.08Z"/><path class="cls-16" d="M44.7,92h0s.05,0,.08,0l.1-.07c.12-.07,0-.22-.08-.16S44.65,92,44.7,92Z"/><path class="cls-14" d="M42.68,92.48A2,2,0,0,0,43,92c.1-.19.14-.47,0-.59a.34.34,0,0,0-.44.13.66.66,0,0,0-.06.48c0,.21.11.26.21.44"/><path class="cls-15" d="M42.61,92a.48.48,0,0,1,0-.31.22.22,0,0,1,.15-.1.17.17,0,0,1,.16.15.43.43,0,0,1-.06.24,1,1,0,0,1-.17.3C42.65,92.21,42.62,92.06,42.61,92Z"/><path class="cls-16" d="M42.66,91.89h0l.06,0,.08-.1c.09-.11,0-.22-.13-.13S42.6,91.87,42.66,91.89Z"/><path class="cls-14" d="M41.47,92.25a2.09,2.09,0,0,0-.06-.56c0-.21-.18-.45-.39-.43a.34.34,0,0,0-.26.38.73.73,0,0,0,.26.41,1,1,0,0,0,.45.2"/><path class="cls-15" d="M41.08,91.91a.53.53,0,0,1-.16-.27.18.18,0,0,1,0-.17.16.16,0,0,1,.22,0,.46.46,0,0,1,.1.21,1.37,1.37,0,0,1,.07.34C41.27,92.07,41.15,92,41.08,91.91Z"/><path class="cls-16" d="M41.07,91.81h0a.15.15,0,0,0,0-.09v-.12a.1.1,0,1,0-.19,0C40.92,91.63,41,91.83,41.07,91.81Z"/><path class="cls-14" d="M41.47,92.91a2.46,2.46,0,0,0-.44-.34c-.19-.1-.46-.17-.59,0a.34.34,0,0,0,.1.44.69.69,0,0,0,.49.09,1,1,0,0,0,.44-.19"/><path class="cls-15" d="M41,93a.46.46,0,0,1-.3-.06.19.19,0,0,1-.1-.15.17.17,0,0,1,.16-.15.39.39,0,0,1,.23.07,1.08,1.08,0,0,1,.29.18C41.2,92.94,41.05,93,41,93Z"/><path class="cls-16" d="M40.88,92.91a0,0,0,0,0,0,0,.18.18,0,0,0,0-.07l-.09-.08c-.11-.1-.23,0-.14.12S40.86,93,40.88,92.91Z"/><path class="cls-14" d="M42.58,94.57a2.1,2.1,0,0,0-.55.13c-.19.08-.41.25-.36.46a.34.34,0,0,0,.41.2.7.7,0,0,0,.37-.33,1,1,0,0,0,.13-.46"/><path class="cls-15" d="M42.3,95a.59.59,0,0,1-.24.2.19.19,0,0,1-.18,0,.17.17,0,0,1,0-.22.38.38,0,0,1,.19-.14.92.92,0,0,1,.33-.11C42.43,94.79,42.34,94.92,42.3,95Z"/><path class="cls-16" d="M42.21,95s0,0,0,0a.27.27,0,0,0-.09,0L42,95a.1.1,0,1,0,0,.19C42.05,95.2,42.24,95.08,42.21,95Z"/><path class="cls-14" d="M46.06,93.82a2,2,0,0,0,.54.14c.21,0,.48,0,.54-.22a.33.33,0,0,0-.26-.37.71.71,0,0,0-.49.1c-.18.1-.2.19-.33.35"/><path class="cls-15" d="M46.51,93.58a.46.46,0,0,1,.3-.06.17.17,0,0,1,.15.1.17.17,0,0,1-.09.2.63.63,0,0,1-.24,0,1,1,0,0,1-.34-.07C46.3,93.69,46.43,93.62,46.51,93.58Z"/><path class="cls-16" d="M46.6,93.6a0,0,0,0,0,0,0,.15.15,0,0,0,.07,0l.12,0a.09.09,0,1,0,.08-.17C46.83,93.51,46.6,93.53,46.6,93.6Z"/><path class="cls-14" d="M44.6,95.71a2.65,2.65,0,0,0,0,.56c0,.22.13.47.34.48a.33.33,0,0,0,.3-.34A.62.62,0,0,0,45,96c-.14-.16-.23-.16-.42-.26"/><path class="cls-15" d="M44.94,96.1a.44.44,0,0,1,.12.28.17.17,0,0,1-.06.17.17.17,0,0,1-.22,0,.63.63,0,0,1-.08-.23,1.29,1.29,0,0,1,0-.34C44.78,95.92,44.88,96,44.94,96.1Z"/><path class="cls-16" d="M44.94,96.2h0a.11.11,0,0,0,0,.08l0,.12c0,.14.15.17.18,0S45,96.18,44.94,96.2Z"/><path class="cls-17" d="M43.43,92.33c-.22.13-.25.48-.49.57a1.08,1.08,0,0,1-.36,0c-.78.06-.61,1.29-.22,1.67a.78.78,0,0,0,.79.13.91.91,0,0,0,.67,0l0,0a2.38,2.38,0,0,0,.05.26,1.4,1.4,0,0,0,1.2,1,1,1,0,0,0,1.09-1,.91.91,0,0,1,0-.4,1.86,1.86,0,0,1,.1-.2c.12-.33-.28-.64-.64-.68a5.71,5.71,0,0,1-1.1-.06l-.23-.11c0-.11.07-.23.09-.34a.79.79,0,0,0-.66-.91A.47.47,0,0,0,43.43,92.33Z"/><path class="cls-18" d="M47.22,31.66c.6-2.73,1.51-5.6,3.71-7.33,2.75-2.15,6.72-1.91,9.75-3.65a14.1,14.1,0,0,0,1.49,5,8.14,8.14,0,0,1-1.51,7.36,1.69,1.69,0,0,1-1.18.75.54.54,0,0,1,.47.28,19,19,0,0,1-3.83,2.41c.16.06.06.31-.07.42a6.77,6.77,0,0,1-6.84,1.16C46.46,37,46.66,34.15,47.22,31.66Z"/><path class="cls-19" d="M52,33.4a15.88,15.88,0,0,0,1-1.9,24.67,24.67,0,0,1,7.71-9.84c-1.37,1.54-2.69,3.06-3.94,4.7-.47.63-.95,1.25-1.37,1.91-1,1.53-1.72,3.22-2.58,4.83a17.22,17.22,0,0,1-1.53,2.41c-.36.46-2,2.74-2.64,2.57-1-.25,1.27-2,1.52-2.2A10.49,10.49,0,0,0,52,33.4Z"/><path class="cls-20" d="M55.08,36.51a23.87,23.87,0,0,0,3.57-2.13l-.41-.2a10,10,0,0,0,1.68-1.64l-.4-.18A7.42,7.42,0,0,0,61,30.11a3.6,3.6,0,0,0,0-2.64l-.42.22a30.14,30.14,0,0,1-.15-4.25,5.63,5.63,0,0,0-2.06,1.23,8.7,8.7,0,0,0-1.26,1.52c-1.65,2.41-2.8,5.16-4.62,7.44a13.55,13.55,0,0,0-1.23,1.62c-.49.86-.85,2,.43,2A7.84,7.84,0,0,0,55.08,36.51Z"/><path class="cls-21" d="M48.67,29.23a4.1,4.1,0,0,1,1.47-3c.24-.14.49-.23.73-.36,1-.49,1.67-1.51,2.74-1.65a5.35,5.35,0,0,1-.37,3c-.37,1-.89,1.89-1.25,2.86s-1.29,6.18-3,5.51c-.81-.32-.77-2.27-.77-3A20.42,20.42,0,0,1,48.67,29.23Z"/><path class="cls-22" d="M47,40.38c.43,0,1.6-1.55,1.94-1.88.75-.72,1.5-1.45,2.18-2.23a5.45,5.45,0,0,0,1.14,0,17.15,17.15,0,0,0,2.77.15,5.61,5.61,0,0,0,3.61-1.75,9.56,9.56,0,0,1-7.19,1.21h0a12.53,12.53,0,0,0,1.12-1.58c.2-.33.38-.67.55-1A10.58,10.58,0,0,0,55,32.63a17.88,17.88,0,0,0,4.5-1.83A6,6,0,0,0,62.34,27,7.31,7.31,0,0,1,59,30.78a15.56,15.56,0,0,1-4.85,1.65,3.47,3.47,0,0,0-.75.2c.11-.25.23-.5.35-.74a38.89,38.89,0,0,1,3-5.17c.21.07.54.06.69.11a3.23,3.23,0,0,0,.65.25,3.79,3.79,0,0,0,.58,0,6.32,6.32,0,0,0,1.14.13,1.46,1.46,0,0,0,.63-.35,4.72,4.72,0,0,0,1.21-1.55l-1.25.93a3.3,3.3,0,0,1-.83.49,2.93,2.93,0,0,1-2.27-.37l-.24-.07c1.12-1.59,2.33-3.13,3.59-4.61a24.18,24.18,0,0,0-5.4,6.14l-.27.46c-.15-.27-.43-.57-.55-.81a4.62,4.62,0,0,1-.39-2.32,4.25,4.25,0,0,1,.2-.94.22.22,0,0,1,0,.08,4.42,4.42,0,0,0-.4.89,4.06,4.06,0,0,0,.46,2.74,5.23,5.23,0,0,1,.39,1c-.39.7-.76,1.4-1.13,2.11,0,0,0,0,0-.06-.15-.32-.57-.63-.77-1a10.14,10.14,0,0,1-.9-2.27,5.66,5.66,0,0,1-.33-1.77,4.22,4.22,0,0,0,.17,2.19c.09.37.19.74.28,1.1a4.5,4.5,0,0,0,.28.83,4.44,4.44,0,0,0,.39.63c.18.24.36.49.53.74l.09.1a24,24,0,0,1-2.46,4l-.06-.17c-.25-.56-.86-1.06-1.17-1.63a6.68,6.68,0,0,1-.68-1.89,12.66,12.66,0,0,1,.22-4.46l-.45,2.64a8.42,8.42,0,0,0-.14,1.11A6.43,6.43,0,0,0,49.38,34a7.5,7.5,0,0,0,1.07,1.93,10.43,10.43,0,0,1-1.6,1.51,12.2,12.2,0,0,0-1.74,1.37C46.83,39.08,46,40.42,47,40.38Z"/><path class="cls-22" d="M54.29,24.19a10.71,10.71,0,0,1,.94-1.37A3,3,0,0,0,54.29,24.19Z"/><path class="cls-11" d="M53.93,54.93c0,4.1-2.82,7.47-6.41,7.51S41,59.19,40.93,55.08s2.82-7.47,6.41-7.51S53.88,50.82,53.93,54.93Z"/><ellipse class="cls-12" cx="48.39" cy="55.24" rx="5.92" ry="7.44" transform="translate(-0.65 0.58) rotate(-0.68)"/><path class="cls-13" d="M45.7,59.4A2.72,2.72,0,0,0,47.26,61a3.57,3.57,0,0,0,3.56-1.65,6.65,6.65,0,0,0,.91-3.64A9,9,0,0,0,51,51.26,2.12,2.12,0,0,0,49.23,50,3.48,3.48,0,0,0,47,51C43.84,53.66,44.34,56.59,45.7,59.4Z"/><path class="cls-14" d="M47.08,55.86a2,2,0,0,0-.54-.14c-.21,0-.48,0-.54.23a.33.33,0,0,0,.27.37.7.7,0,0,0,.48-.11c.18-.1.2-.19.33-.35"/><path class="cls-15" d="M46.63,56.1a.41.41,0,0,1-.3.07.18.18,0,0,1-.15-.1.17.17,0,0,1,.09-.2.39.39,0,0,1,.24,0,1,1,0,0,1,.34,0C46.84,56,46.71,56.06,46.63,56.1Z"/><path class="cls-16" d="M46.54,56.08v0l-.07,0-.12,0c-.13,0-.19.11-.08.16S46.54,56.15,46.54,56.08Z"/><path class="cls-14" d="M47.32,54.1a2.12,2.12,0,0,0,0-.56c0-.22-.12-.47-.33-.48a.33.33,0,0,0-.31.33.73.73,0,0,0,.21.45c.13.16.22.16.41.26"/><path class="cls-15" d="M47,53.7a.52.52,0,0,1-.13-.28.22.22,0,0,1,.07-.17.19.19,0,0,1,.22,0,.45.45,0,0,1,.07.23,1,1,0,0,1,0,.34C47.15,53.89,47,53.77,47,53.7Z"/><path class="cls-16" d="M47,53.61h0a.41.41,0,0,0,0-.08V53.4c0-.15-.14-.17-.18,0S46.92,53.62,47,53.61Z"/><path class="cls-14" d="M49.35,56.69a2.34,2.34,0,0,0,.27.49c.13.17.35.33.54.23a.33.33,0,0,0,.08-.45.67.67,0,0,0-.41-.27,1,1,0,0,0-.48,0"/><path class="cls-15" d="M49.84,56.85a.49.49,0,0,1,.25.17.18.18,0,0,1,0,.18.16.16,0,0,1-.21.07.37.37,0,0,1-.18-.15,1.07,1.07,0,0,1-.19-.28C49.61,56.78,49.75,56.82,49.84,56.85Z"/><path class="cls-16" d="M49.89,56.93l0,0a.29.29,0,0,0,0,.09l0,.11a.1.1,0,1,0,.18-.06C50.1,57,49.94,56.88,49.89,56.93Z"/><path class="cls-14" d="M48.39,58.68A2.12,2.12,0,0,0,48,59c-.15.15-.28.39-.15.56a.34.34,0,0,0,.45,0,.68.68,0,0,0,.21-.45,1,1,0,0,0-.07-.48"/><path class="cls-15" d="M48.31,59.19a.5.5,0,0,1-.14.28.18.18,0,0,1-.17.05.16.16,0,0,1-.1-.19.45.45,0,0,1,.12-.21,1.43,1.43,0,0,1,.26-.23C48.35,59,48.32,59.1,48.31,59.19Z"/><path class="cls-16" d="M48.23,59.25h0a.19.19,0,0,0-.08,0l-.1.07c-.12.07,0,.22.08.16S48.29,59.29,48.23,59.25Z"/><path class="cls-14" d="M49.79,55.81a1.93,1.93,0,0,0,.49.26c.2.08.48.1.58-.09a.33.33,0,0,0-.17-.42.69.69,0,0,0-.49,0,.9.9,0,0,0-.41.26"/><path class="cls-15" d="M50.29,55.68a.47.47,0,0,1,.31,0,.24.24,0,0,1,.12.14.17.17,0,0,1-.14.17.4.4,0,0,1-.24,0,1,1,0,0,1-.32-.14C50.05,55.74,50.2,55.7,50.29,55.68Z"/><path class="cls-16" d="M50.37,55.72v0s0,0,.06.06l.1.07c.12.08.22-.06.12-.15S50.39,55.66,50.37,55.72Z"/><path class="cls-14" d="M49.11,54.08a2.05,2.05,0,0,0,.55.1c.21,0,.48-.07.52-.27a.33.33,0,0,0-.3-.35.7.7,0,0,0-.47.15c-.17.11-.18.2-.3.37"/><path class="cls-15" d="M49.54,53.8a.46.46,0,0,1,.3-.08.16.16,0,0,1,.15.08.17.17,0,0,1-.07.21.49.49,0,0,1-.24.05,1.31,1.31,0,0,1-.34,0C49.34,53.94,49.47,53.85,49.54,53.8Z"/><path class="cls-16" d="M49.63,53.82s0,0,0,0l.08,0,.12,0a.09.09,0,1,0,.06-.18S49.63,53.75,49.63,53.82Z"/><path class="cls-14" d="M48.81,52.88a2.31,2.31,0,0,0,.48-.28c.17-.13.33-.36.22-.54a.32.32,0,0,0-.44-.08.7.7,0,0,0-.27.42,1,1,0,0,0,0,.48"/><path class="cls-15" d="M49,52.39a.46.46,0,0,1,.17-.26.19.19,0,0,1,.18,0,.17.17,0,0,1,.07.21.4.4,0,0,1-.14.18.94.94,0,0,1-.29.2C48.89,52.62,48.93,52.48,49,52.39Z"/><path class="cls-16" d="M49,52.34h0a.11.11,0,0,0,.08,0l.11,0c.13-.06.07-.21-.06-.17S49,52.29,49,52.34Z"/><path class="cls-14" d="M48.2,53.16a2,2,0,0,0,.13-.54c0-.21,0-.48-.24-.53a.32.32,0,0,0-.36.27.65.65,0,0,0,.12.48c.1.18.19.2.35.32"/><path class="cls-15" d="M48,52.72a.46.46,0,0,1-.07-.3.18.18,0,0,1,.1-.15.16.16,0,0,1,.2.08.39.39,0,0,1,0,.24,1,1,0,0,1-.05.34C48.07,52.93,48,52.8,48,52.72Z"/><path class="cls-16" d="M48,52.63h0a.2.2,0,0,0,0-.08l0-.11c0-.14-.11-.2-.17-.08S47.9,52.63,48,52.63Z"/><path class="cls-14" d="M47.17,54.86a2.17,2.17,0,0,0-.36-.44c-.15-.14-.4-.27-.56-.13a.33.33,0,0,0,0,.45.67.67,0,0,0,.45.2,1,1,0,0,0,.48-.08"/><path class="cls-15" d="M46.66,54.78a.43.43,0,0,1-.28-.13.18.18,0,0,1-.06-.17.17.17,0,0,1,.19-.1.43.43,0,0,1,.21.11,1.18,1.18,0,0,1,.24.26C46.9,54.82,46.75,54.8,46.66,54.78Z"/><path class="cls-16" d="M46.6,54.71a0,0,0,0,0,0,0,.12.12,0,0,0,0-.08l-.06-.1c-.08-.12-.23,0-.17.09S46.56,54.77,46.6,54.71Z"/><path class="cls-14" d="M49.31,57.7a2.11,2.11,0,0,0,.09.56c.07.2.22.43.43.39a.33.33,0,0,0,.23-.39.72.72,0,0,0-.3-.39,1,1,0,0,0-.45-.17"/><path class="cls-15" d="M49.71,58a.41.41,0,0,1,.18.25.17.17,0,0,1,0,.18.18.18,0,0,1-.22,0,.45.45,0,0,1-.12-.2,1.35,1.35,0,0,1-.09-.33C49.52,57.87,49.64,58,49.71,58Z"/><path class="cls-16" d="M49.73,58.11s0,0,0,0a.19.19,0,0,0,0,.08v.12c0,.14.18.14.19,0S49.79,58.08,49.73,58.11Z"/><path class="cls-14" d="M47,57.18a1.92,1.92,0,0,0-.51.22c-.19.11-.37.31-.29.5a.32.32,0,0,0,.43.14.75.75,0,0,0,.32-.38,1,1,0,0,0,0-.48"/><path class="cls-15" d="M46.76,57.65a.5.5,0,0,1-.2.23.19.19,0,0,1-.18,0,.18.18,0,0,1-.05-.22.38.38,0,0,1,.17-.16,1.14,1.14,0,0,1,.31-.16C46.86,57.42,46.8,57.57,46.76,57.65Z"/><path class="cls-16" d="M46.67,57.69l0,0a.12.12,0,0,0-.08,0l-.12,0a.09.09,0,1,0,0,.18C46.55,57.89,46.71,57.74,46.67,57.69Z"/><path class="cls-17" d="M49.56,54.7c-.22-.15-.54,0-.73-.21s-.11-.21-.17-.32c-.39-.67-1.43,0-1.61.51a.75.75,0,0,0,.21.77.88.88,0,0,0,.31.59l0,0-.21.16A1.39,1.39,0,0,0,47,57.75a1,1,0,0,0,1.35.58,1,1,0,0,1,.35-.2,1.77,1.77,0,0,1,.23,0c.35,0,.46-.52.35-.87a5,5,0,0,1-.41-1,1,1,0,0,1,0-.24c.11,0,.24,0,.35-.06a.81.81,0,0,0,.55-1A.47.47,0,0,0,49.56,54.7Z"/><path class="cls-29" d="M42.27,28.52,42,28.25a4.46,4.46,0,0,1-.29,1.17,4.21,4.21,0,0,1-1.31,1.51,26,26,0,0,1-8,3.7,3.78,3.78,0,0,1-2,.28,2.82,2.82,0,0,1-1.3-.76A6.9,6.9,0,0,1,28.21,33a5.43,5.43,0,0,0,1.86,4.2,2.84,2.84,0,0,0,1.29.76,3.81,3.81,0,0,0,2-.28,26,26,0,0,0,8-3.7,4.16,4.16,0,0,0,1.31-1.52C43.11,31.36,43.12,29.43,42.27,28.52Z"/><path class="cls-30" d="M30.46,34.91a3.78,3.78,0,0,0,2-.28,26,26,0,0,0,8-3.7,4.21,4.21,0,0,0,1.31-1.51A4.46,4.46,0,0,0,42,28.25a6.33,6.33,0,0,0-3-1.68,16.77,16.77,0,0,0-3.24-.3c-3.8,0-7.43,3.28-7.55,6.76a6.9,6.9,0,0,0,.95,1.12A2.82,2.82,0,0,0,30.46,34.91Z"/><path class="cls-31" d="M28.8,34.1a3,3,0,0,0,.65,1.84c.1.15.28.31.44.23A.36.36,0,0,0,30,36a2.34,2.34,0,0,0-.26-1.88c-.13-.27-.29-.57-.58-.64s-.42.24-.4.64"/><path class="cls-32" d="M29.31,34.08a1.08,1.08,0,0,1,.07-.43.48.48,0,0,0-.19-.09c-.28-.07-.41.23-.39.62A3,3,0,0,0,29.42,36c.1.14.27.3.43.22A.44.44,0,0,0,30,36a.43.43,0,0,0,0-.05.31.31,0,0,1-.07-.09A2.94,2.94,0,0,1,29.31,34.08Z"/><path class="cls-31" d="M29.74,34.17a1.39,1.39,0,0,0-.36-.52,1.08,1.08,0,0,0-.07.43,2.94,2.94,0,0,0,.63,1.77.31.31,0,0,0,.07.09A2.29,2.29,0,0,0,29.74,34.17Z"/><path class="cls-33" d="M30.12,30.18a1.93,1.93,0,0,0,.62,1.74,2.63,2.63,0,0,0,2,.38,7.47,7.47,0,0,0,3.09-1.14,3.14,3.14,0,0,0,1.22-1.26,2.12,2.12,0,0,0-1.15-2.76,3.75,3.75,0,0,0-2.46.23C32,27.89,30.37,28.38,30.12,30.18Z"/><path class="cls-34" d="M33.59,28a2,2,0,0,0-1.45,1.25.94.94,0,0,0,0,.83.87.87,0,0,0,.53.36,2.49,2.49,0,0,0,1.88-.38,1.55,1.55,0,0,0,.81-.9,1.06,1.06,0,0,0-.5-1.08A1.48,1.48,0,0,0,33.59,28"/><path class="cls-29" d="M74.88,31.24c0-.13,0-.25,0-.38a4.81,4.81,0,0,1-1,.74,4.1,4.1,0,0,1-2,.39c-2.94,0-5.78-1-8.56-2a3.75,3.75,0,0,1-1.74-1,2.87,2.87,0,0,1-.55-1.39A6.79,6.79,0,0,1,61,26.15a5.43,5.43,0,0,0-1.11,4.47A2.78,2.78,0,0,0,60.46,32a3.84,3.84,0,0,0,1.74,1,26,26,0,0,0,8.55,2,4.24,4.24,0,0,0,2-.39C73.8,34,75,32.47,74.88,31.24Z"/><path class="cls-30" d="M61.63,29a3.75,3.75,0,0,0,1.74,1c2.78,1,5.62,2,8.56,2a4.1,4.1,0,0,0,2-.39,4.81,4.81,0,0,0,1-.74,6.44,6.44,0,0,0-1.34-3.17,16.69,16.69,0,0,0-2.37-2.23c-3-2.31-7.88-2-10.11.69a6.79,6.79,0,0,0,.06,1.48A2.87,2.87,0,0,0,61.63,29Z"/><path class="cls-31" d="M60.83,27.37a3.06,3.06,0,0,0-.63,1.85c0,.18,0,.41.22.45a.38.38,0,0,0,.23-.06,2.33,2.33,0,0,0,1-1.64,1,1,0,0,0-.06-.86c-.19-.23-.48-.07-.71.26"/><path class="cls-32" d="M61.24,27.66a1.11,1.11,0,0,1,.32-.3.4.4,0,0,0-.1-.18c-.18-.23-.46-.07-.68.25a2.9,2.9,0,0,0-.6,1.78c0,.18,0,.4.2.43a.32.32,0,0,0,.23-.05l0,0a.48.48,0,0,1,0-.12A2.94,2.94,0,0,1,61.24,27.66Z"/><path class="cls-31" d="M61.52,28a1.28,1.28,0,0,0,0-.64,1.11,1.11,0,0,0-.32.3,2.94,2.94,0,0,0-.59,1.79.48.48,0,0,0,0,.12A2.36,2.36,0,0,0,61.52,28Z"/><path class="cls-33" d="M64.28,25.08a1.92,1.92,0,0,0-.58,1.76,2.62,2.62,0,0,0,1.35,1.54,7.62,7.62,0,0,0,3.14,1,3.2,3.2,0,0,0,1.74-.25,2.11,2.11,0,0,0,.79-2.88,3.68,3.68,0,0,0-2.08-1.33C67.15,24.41,65.58,23.82,64.28,25.08Z"/><path class="cls-34" d="M68.35,25.49a2,2,0,0,0-1.91.11.87.87,0,0,0-.54.61.84.84,0,0,0,.19.62,2.48,2.48,0,0,0,1.71.85,1.51,1.51,0,0,0,1.2-.22,1,1,0,0,0,.26-1.15,1.48,1.48,0,0,0-.91-.82"/><path class="cls-29" d="M77.53,61.7l-.28-.27A4.1,4.1,0,0,1,77,62.6a4,4,0,0,1-1.31,1.51,25.86,25.86,0,0,1-8,3.7,3.68,3.68,0,0,1-2,.28,2.74,2.74,0,0,1-1.29-.76,6.51,6.51,0,0,1-1-1.12,5.41,5.41,0,0,0,1.87,4.2,2.74,2.74,0,0,0,1.29.76,3.78,3.78,0,0,0,2-.28,25.86,25.86,0,0,0,8-3.7,4.12,4.12,0,0,0,1.31-1.51C78.36,64.54,78.37,62.61,77.53,61.7Z"/><path class="cls-30" d="M65.71,68.09a3.68,3.68,0,0,0,2-.28,25.86,25.86,0,0,0,8-3.7A4,4,0,0,0,77,62.6a4.1,4.1,0,0,0,.29-1.17,6.35,6.35,0,0,0-3-1.68,16.87,16.87,0,0,0-3.25-.3c-3.79,0-7.43,3.28-7.55,6.76a6.51,6.51,0,0,0,1,1.12A2.74,2.74,0,0,0,65.71,68.09Z"/><path class="cls-31" d="M64.06,67.28a3,3,0,0,0,.64,1.84c.1.15.28.31.44.23a.32.32,0,0,0,.15-.19A2.35,2.35,0,0,0,65,67.28c-.12-.27-.29-.57-.57-.64s-.42.24-.4.64"/><path class="cls-32" d="M64.57,67.26a.93.93,0,0,1,.06-.43.66.66,0,0,0-.19-.09c-.28-.07-.4.23-.38.62a2.87,2.87,0,0,0,.62,1.77c.1.15.27.3.42.22a.3.3,0,0,0,.15-.18s0,0,0,0a.39.39,0,0,1-.08-.1A2.93,2.93,0,0,1,64.57,67.26Z"/><path class="cls-31" d="M65,67.36a1.27,1.27,0,0,0-.37-.53.93.93,0,0,0-.06.43A2.93,2.93,0,0,0,65.19,69a.39.39,0,0,0,.08.1A2.37,2.37,0,0,0,65,67.36Z"/><path class="cls-33" d="M65.38,63.36A1.88,1.88,0,0,0,66,65.1a2.55,2.55,0,0,0,2,.38,7.33,7.33,0,0,0,3.09-1.14,3.14,3.14,0,0,0,1.22-1.26,2.1,2.1,0,0,0-1.14-2.75,3.72,3.72,0,0,0-2.47.22C67.23,61.07,65.63,61.57,65.38,63.36Z"/><path class="cls-34" d="M68.84,61.18a2,2,0,0,0-1.44,1.26.89.89,0,0,0-.05.82.82.82,0,0,0,.52.36,2.44,2.44,0,0,0,1.88-.38,1.52,1.52,0,0,0,.81-.9,1,1,0,0,0-.5-1.07,1.45,1.45,0,0,0-1.22-.09"/><path class="cls-29" d="M105,81l-.27-.27a4.28,4.28,0,0,1-.29,1.16,4.16,4.16,0,0,1-1.31,1.52,26,26,0,0,1-8,3.7,3.83,3.83,0,0,1-2,.28,2.84,2.84,0,0,1-1.29-.76,6.13,6.13,0,0,1-1-1.13,5.41,5.41,0,0,0,1.86,4.21,2.84,2.84,0,0,0,1.29.76,3.83,3.83,0,0,0,2-.28,25.76,25.76,0,0,0,8-3.71A4.05,4.05,0,0,0,105.38,85C105.87,83.87,105.88,81.94,105,81Z"/><path class="cls-30" d="M93.21,87.42a3.83,3.83,0,0,0,2-.28,26,26,0,0,0,8-3.7,4.16,4.16,0,0,0,1.31-1.52,4.28,4.28,0,0,0,.29-1.16,6.33,6.33,0,0,0-3-1.68,16.77,16.77,0,0,0-3.24-.3c-3.8,0-7.43,3.27-7.55,6.75a6.13,6.13,0,0,0,1,1.13A2.84,2.84,0,0,0,93.21,87.42Z"/><path class="cls-31" d="M91.56,86.61a3.09,3.09,0,0,0,.64,1.84c.11.15.29.31.45.23a.36.36,0,0,0,.15-.19,2.38,2.38,0,0,0-.26-1.88c-.13-.27-.29-.57-.58-.64s-.42.24-.4.64"/><path class="cls-32" d="M92.07,86.59a1.17,1.17,0,0,1,.06-.44.41.41,0,0,0-.19-.08c-.27-.07-.4.23-.38.62a3,3,0,0,0,.62,1.77c.1.14.27.29.43.22a.36.36,0,0,0,.14-.18l0,0-.08-.09A3,3,0,0,1,92.07,86.59Z"/><path class="cls-31" d="M92.5,86.68a1.41,1.41,0,0,0-.37-.53,1.17,1.17,0,0,0-.06.44,3,3,0,0,0,.62,1.77l.08.09A2.34,2.34,0,0,0,92.5,86.68Z"/><path class="cls-33" d="M92.88,82.68a1.93,1.93,0,0,0,.62,1.75,2.63,2.63,0,0,0,2,.38,7.52,7.52,0,0,0,3.09-1.14,3.28,3.28,0,0,0,1.22-1.26,2.12,2.12,0,0,0-1.15-2.76,3.75,3.75,0,0,0-2.46.23C94.73,80.4,93.13,80.89,92.88,82.68Z"/><path class="cls-34" d="M96.35,80.51a2,2,0,0,0-1.45,1.25.91.91,0,0,0-.05.83.87.87,0,0,0,.53.36,2.49,2.49,0,0,0,1.88-.38,1.53,1.53,0,0,0,.8-.9,1,1,0,0,0-.5-1.08,1.46,1.46,0,0,0-1.21-.08"/><path class="cls-29" d="M41.41,57.2a3.44,3.44,0,0,0-.27-.27,4.28,4.28,0,0,1-.29,1.16,4.16,4.16,0,0,1-1.31,1.52,26,26,0,0,1-8,3.7,3.78,3.78,0,0,1-2,.28,2.82,2.82,0,0,1-1.3-.76,6.55,6.55,0,0,1-.95-1.13,5.44,5.44,0,0,0,1.86,4.21,2.84,2.84,0,0,0,1.29.76,3.8,3.8,0,0,0,2-.28,25.76,25.76,0,0,0,8-3.71,4.05,4.05,0,0,0,1.31-1.51C42.25,60,42.26,58.1,41.41,57.2Z"/><path class="cls-30" d="M29.6,63.59a3.78,3.78,0,0,0,2-.28,26,26,0,0,0,8-3.7,4.16,4.16,0,0,0,1.31-1.52,4.28,4.28,0,0,0,.29-1.16,6.33,6.33,0,0,0-3-1.68A16.7,16.7,0,0,0,34.9,55c-3.8,0-7.43,3.27-7.55,6.75a6.55,6.55,0,0,0,.95,1.13A2.82,2.82,0,0,0,29.6,63.59Z"/><path class="cls-31" d="M27.94,62.78a3.1,3.1,0,0,0,.65,1.84c.1.15.28.31.44.23a.36.36,0,0,0,.15-.19,2.34,2.34,0,0,0-.26-1.88c-.12-.27-.29-.57-.58-.64s-.42.24-.4.64"/><path class="cls-32" d="M28.45,62.76a1.16,1.16,0,0,1,.07-.44.46.46,0,0,0-.19-.08c-.28-.07-.4.23-.39.62a3,3,0,0,0,.62,1.77c.11.14.28.29.43.22a.38.38,0,0,0,.15-.18s0,0,0,0l-.07-.09A3,3,0,0,1,28.45,62.76Z"/><path class="cls-31" d="M28.88,62.85a1.51,1.51,0,0,0-.36-.53,1.16,1.16,0,0,0-.07.44,3,3,0,0,0,.63,1.77l.07.09A2.29,2.29,0,0,0,28.88,62.85Z"/><path class="cls-33" d="M29.26,58.85a2,2,0,0,0,.62,1.75,2.63,2.63,0,0,0,2,.38A7.47,7.47,0,0,0,35,59.84a3.21,3.21,0,0,0,1.22-1.26,2.12,2.12,0,0,0-1.15-2.76A3.82,3.82,0,0,0,32.6,56C31.12,56.57,29.51,57.06,29.26,58.85Z"/><path class="cls-34" d="M32.73,56.68a2,2,0,0,0-1.45,1.25.94.94,0,0,0-.05.83.87.87,0,0,0,.53.36,2.49,2.49,0,0,0,1.88-.38,1.55,1.55,0,0,0,.81-.9,1.05,1.05,0,0,0-.5-1.08,1.48,1.48,0,0,0-1.22-.08"/></g></g></svg>