<svg xmlns="http://www.w3.org/2000/svg" viewBox="0 0 121.13 121.76"><defs><style>.cls-1{isolation:isolate;}.cls-2{fill:#bd6706;}.cls-3{fill:#aa5907;}.cls-4{fill:#fcb519;}.cls-5{fill:#a70411;}.cls-6{fill:#f22128;}.cls-7{fill:#fcd147;}.cls-8{fill:#f7cb86;}.cls-9{fill:#f7d9b0;}.cls-10{fill:#f9e5cf;}.cls-11{fill:#407200;}.cls-12{fill:#3a6003;}.cls-13{fill:#406807;}.cls-14{fill:#4f8403;}.cls-15{fill:#6fa200;}.cls-16{fill:#f98030;}.cls-17,.cls-22{fill:#ca9677;}.cls-17,.cls-21{mix-blend-mode:multiply;}.cls-18{fill:#f66c03;}.cls-19{fill:#c76145;opacity:0.7;mix-blend-mode:screen;}.cls-20{fill:#e26107;}.cls-23{fill:#f5e1cd;}.cls-24{fill:#f3d9b8;}.cls-25{fill:#496f00;}.cls-26{fill:#b9de19;}.cls-27{fill:#9ac00d;}.cls-28{fill:#fff;}.cls-29{fill:#2f0b00;}.cls-30{fill:#4f2530;}</style></defs><title>Ресурс 3</title><g class="cls-1"><g id="Слой_2" data-name="Слой 2"><g id="OBJECTS"><path class="cls-2" d="M22.47,16.29C41,.63,57.67-5.12,78,5.18,84.86,8.63,99.87,17,105.11,23.24A58.52,58.52,0,0,1,115,39.94c3.85,10,7.4,26.43,5.65,36.73-2.23,13.18-11.51,19.91-22.52,29.21-24.73,20.9-54.12,23.67-82.63-7C-9.41,72.14-2.27,37.19,22.47,16.29Z"/><path class="cls-3" d="M111.4,51.8c2.75,7.43,3.56,15.73,1.34,23.34a44.05,44.05,0,0,1-4.46,9.9,45.74,45.74,0,0,1-5,7.09c-3.15,3.56-7,6.38-10.89,9.17a102.13,102.13,0,0,1-11,7.24,51,51,0,0,1-25.49,6.1c-2.13-.06-4.58-.14-6,1.41,2,3.16,5.91,4.74,9.66,4.82s7.4-1.11,10.89-2.47a110.14,110.14,0,0,0,34.74-21.76c3.69-3.41,7.18-7.13,9.47-11.6,2.87-5.58,3.68-12,4.1-18.24.56-8.53.29-17.72-4.61-24.72a28.75,28.75,0,0,1-2.89-4.23c-.57-1.23-.45-3.29-1.2-4.34-1.43-2-3.7-1.54-4.31.58C104.25,39.11,109.72,47.27,111.4,51.8Z"/><path class="cls-4" d="M25.4,19.76C42.51,5.32,57.88,0,76.7,9.55c6.3,3.19,20.17,11,25,16.7a54.35,54.35,0,0,1,9.17,15.43c3.56,9.2,6.85,24.42,5.25,33.94C114.07,87.78,105.51,94,95.36,102.57c-22.83,19.28-50,21.83-76.31-6.49C-4,71.32,2.58,39.05,25.4,19.76Z"/><path class="cls-5" d="M28,22.83C43.83,9.45,58.07,4.55,75.49,13.37c5.84,3,18.68,10.16,23.16,15.47a49.93,49.93,0,0,1,8.49,14.29c3.3,8.51,6.35,22.61,4.86,31.42-1.9,11.27-9.83,17-19.23,25-21.14,17.86-46.26,20.21-70.66-6C.77,70.57,6.85,40.68,28,22.83Z"/><path class="cls-6" d="M29.47,24.58c15.11-12.77,28.7-17.45,45.33-9,5.57,2.81,17.82,9.69,22.1,14.76A48,48,0,0,1,105,44c3.14,8.13,6,21.58,4.63,30-1.81,10.75-9.38,16.24-18.35,23.82-20.17,17-44.15,19.29-67.43-5.73C3.49,70.14,9.3,41.62,29.47,24.58Z"/><path class="cls-7" d="M16,65.39c.39,4,1.57,8.2,4.75,10.6,1.08.81,2.58,1.36,3.76.71S26,74.4,26.14,73a34.78,34.78,0,0,0,.24-7.76C25.89,61.12,23.94,57,25.12,53c.73-2.45,2.54-4.38,4-6.49a23.94,23.94,0,0,0,4.16-12.35c.51-10.31-11.27,5.65-12.6,8.14A41.12,41.12,0,0,0,16,65.39Z"/><path class="cls-7" d="M19,27.48c-.82.87-1.67,2-1.39,3.13a4.45,4.45,0,0,0,2.88-1.74c2.91-3.07,5.57-6.43,9-8.86,2.51-1.76,6.09-3,7.9-5.51C33.71,11.62,21.48,24.86,19,27.48Z"/><path class="cls-7" d="M53.59,6.37a1.06,1.06,0,0,0-.57.36c-.27.39.07,1,.53,1.1a2.39,2.39,0,0,0,1.39-.14,21.53,21.53,0,0,1,5.34-.83,10.45,10.45,0,0,1,4.27.6c1.07.44,2,1.13,3,1.64a7.79,7.79,0,0,0,3.62.87C70.53,3.88,57.53,5,53.59,6.37Z"/><path class="cls-8" d="M101,43c-.59-2.22-5.26-10.15-6.87-11.13-1.8-1.08-4.49-.88-5.55-2.7-.49-.85-.46-1.94-1-2.74-.77-1.06-2.34-1.17-3.6-.8s-2.39,1.1-3.66,1.42c-2.43.81-3.56-.8-3.74-2.8a7,7,0,0,0-5.61-6.44c-1.39-.26-2.81-.5-4.29-.71-24.33-3.45-47.6,11.3-53.28,38.54-2,9.74,9.81,5.84,8.32,10.29a34.88,34.88,0,0,1-2.36,4.79A9.87,9.87,0,0,0,18,75.77a4.43,4.43,0,0,0,2.95,4c1.29.34,3,.06,3.66,1.24a2.71,2.71,0,0,1,.25,1.29L25,88.12c0,.31-.37,3.81,3.66,6.84a73.54,73.54,0,0,0,10.76,7.23,2.6,2.6,0,0,0,2.63-.19c.48-.3,1.12-.24,1.9.48a1.82,1.82,0,0,1,.44,1A2.46,2.46,0,0,0,46,105.27,40.9,40.9,0,0,0,51.38,107a2.36,2.36,0,0,0,2.48-.87h0a23.1,23.1,0,0,0,1.27-2.82c1.32-2.56,4.49-3.63,7.36-3.57s5.66,1,8.51,1.41c8.65,1.19,17.08-2.76,24.9-6.71a2,2,0,0,0,.39-.25c3.38-2.55,6.31-5.35,7.85-8.36,2.2-4.3,1.54-10,2.25-15C107.28,64.7,102.5,48.56,101,43Z"/><path class="cls-9" d="M25.39,51.82C23.62,58.34,25.16,66.27,30.8,70c2.14,1.43,4.74,2.17,6.6,4,2.53,2.42,3.33,6.42,6.28,8.3,3.81,2.44,8.82,0,13.33.45,2.56.24,4.92,1.41,7.38,2.12,6.16,1.77,13.26.47,18-3.86S89,69.26,86.32,63.43a14.16,14.16,0,0,1-1.47-3.68c-.37-2.62,1.44-5,2.41-7.44,1.75-4.39.78-9.41-.92-13.82-1.31-3.41-3.3-6.9-6.67-8.28a12.52,12.52,0,0,0-5.61-.66A29.51,29.51,0,0,0,59.17,34.8a8.8,8.8,0,0,1-2.52,1.44c-3.61,1.08-6.86-2.82-10.09-3.8-2.85-.86-6.39-.92-9,.61C31.94,36.33,27,45.87,25.39,51.82Z"/><path class="cls-10" d="M32.77,64a15.25,15.25,0,0,0,2.74,6C39.67,75,47.31,75,53.87,74.54a26.59,26.59,0,0,0,8.18-1.44c6-2.41,9.44-8.78,11.13-15a27.5,27.5,0,0,0,.73-13.41C70.84,31.5,55.72,31.4,45.22,35.47S30.17,53.75,32.77,64Z"/><path class="cls-11" d="M55.37,34c-.56-2.74-.89-5.73.42-8.2,1.64-3.09,5.37-4.48,7.43-7.29a14.2,14.2,0,0,0,3.39,4,8.13,8.13,0,0,1,1.61,7.34A1.67,1.67,0,0,1,67.44,31a.57.57,0,0,1,.55.07,19.06,19.06,0,0,1-2.53,3.76c.18,0,.18.25.11.41a6.76,6.76,0,0,1-5.78,3.83C56.85,39.24,55.87,36.54,55.37,34Z"/><path class="cls-12" d="M60.41,33.7a17.46,17.46,0,0,0,.17-2.16,24.85,24.85,0,0,1,3.05-12.12c-.63,2-1.22,3.89-1.69,5.9-.18.76-.36,1.52-.48,2.3-.29,1.8-.26,3.64-.4,5.46a17,17,0,0,1-.42,2.83c-.14.56-.72,3.31-1.37,3.42-1,.16.36-2.32.5-2.64A10.43,10.43,0,0,0,60.41,33.7Z"/><path class="cls-13" d="M64.52,35.27a23.06,23.06,0,0,0,2.4-3.39h-.45a10.1,10.1,0,0,0,.87-2.19H66.9A7.53,7.53,0,0,0,67.33,27a3.55,3.55,0,0,0-1-2.42L66,25a28,28,0,0,1-1.86-3.82,5.44,5.44,0,0,0-1.39,2,8.77,8.77,0,0,0-.53,1.9c-.53,2.87-.47,5.85-1.21,8.67a13.84,13.84,0,0,0-.46,2c-.11,1,0,2.16,1.22,1.69A7.58,7.58,0,0,0,64.52,35.27Z"/><path class="cls-14" d="M55.71,31.23c-.27-1.11-.51-2.38.14-3.31.16-.22.36-.41.53-.62.67-.84.91-2.06,1.83-2.62a5.31,5.31,0,0,1,.9,2.94c0,1,0,2.08,0,3.11s1.33,6.18-.47,6.25c-.88,0-1.63-1.76-1.91-2.41A19.54,19.54,0,0,1,55.71,31.23Z"/><path class="cls-15" d="M58.69,42.1c.39-.19.84-2.07,1-2.5.4-1,.78-1.94,1.09-2.93a5.92,5.92,0,0,0,1.05-.45,18.43,18.43,0,0,0,2.59-1A5.56,5.56,0,0,0,67,32.17a9.59,9.59,0,0,1-6.08,4h0a13.46,13.46,0,0,0,.38-1.89,11.3,11.3,0,0,0,.08-1.16,10.4,10.4,0,0,0,1.51-1.39,17.68,17.68,0,0,0,3.36-3.5,6,6,0,0,0,1-4.63,7.27,7.27,0,0,1-1.5,4.82A15.43,15.43,0,0,1,62,31.92a3.9,3.9,0,0,0-.6.49c0-.28,0-.55,0-.82a38.58,38.58,0,0,1,.68-6c.23,0,.52-.17.68-.18a3.16,3.16,0,0,0,.69,0,3.16,3.16,0,0,0,.52-.26c.36-.15.78-.12,1.1-.34a1.42,1.42,0,0,0,.43-.57A4.73,4.73,0,0,0,66,22.34l-.77,1.35a3.38,3.38,0,0,1-.55.79,2.94,2.94,0,0,1-2.23.58l-.25,0c.38-1.91.87-3.8,1.41-5.67a24.09,24.09,0,0,0-2.44,7.81l-.06.53c-.24-.19-.63-.35-.83-.53A4.54,4.54,0,0,1,59,25.28a3.73,3.73,0,0,1-.19-1s0,.07,0,.1a4,4,0,0,0,0,1,4.05,4.05,0,0,0,1.53,2.32,5,5,0,0,1,.74.72c-.07.79-.12,1.58-.17,2.38l0,0c-.28-.24-.79-.35-1.1-.57A10.06,10.06,0,0,1,58,28.51,6.1,6.1,0,0,1,57,27,4.3,4.3,0,0,0,58,29c.23.3.47.59.71.89a4.49,4.49,0,0,0,.58.65,4.44,4.44,0,0,0,.62.41l.78.46.13.05A25,25,0,0,1,60.2,36l-.12-.13c-.46-.42-1.22-.62-1.73-1A6.64,6.64,0,0,1,57,33.44a12.72,12.72,0,0,1-1.6-4.17l.66,2.6a6.62,6.62,0,0,0,.33,1.07,6.17,6.17,0,0,0,1.94,2.31A7.38,7.38,0,0,0,60,36.59a10.18,10.18,0,0,1-.85,2,11.84,11.84,0,0,0-1,2C58,41,57.82,42.53,58.69,42.1Z"/><path class="cls-15" d="M58.81,24.33a10.15,10.15,0,0,1,.3-1.63A3,3,0,0,0,58.81,24.33Z"/><path class="cls-11" d="M93.27,65.44c2.78.32,5.73.93,7.67,2.94,2.43,2.51,2.59,6.49,4.63,9.33a13.92,13.92,0,0,0-4.83,2A8.17,8.17,0,0,1,93.26,79a1.73,1.73,0,0,1-.86-1.11.56.56,0,0,1-.23.51,18.56,18.56,0,0,1-2.79-3.57c0,.17-.3.09-.43,0a6.81,6.81,0,0,1-1.85-6.69C87.85,65.24,90.73,65.14,93.27,65.44Z"/><path class="cls-12" d="M92,70.34a15.76,15.76,0,0,0,2,.83,24.79,24.79,0,0,1,10.59,6.65c-1.68-1.2-3.33-2.36-5.09-3.43-.67-.41-1.34-.82-2-1.17-1.62-.83-3.38-1.37-5.07-2.07a17.42,17.42,0,0,1-2.56-1.27c-.49-.31-2.92-1.72-2.83-2.37.16-1,2.1,1.06,2.36,1.29A10.15,10.15,0,0,0,92,70.34Z"/><path class="cls-13" d="M89.26,73.76a22.85,22.85,0,0,0,2.48,3.33l.15-.42a10,10,0,0,0,1.81,1.5l.13-.42A7.49,7.49,0,0,0,96.23,79a3.52,3.52,0,0,0,2.63-.24l-.26-.38a28.25,28.25,0,0,1,4.21-.59,5.72,5.72,0,0,0-1.44-1.93,8.66,8.66,0,0,0-1.64-1.09c-2.57-1.39-5.42-2.25-7.88-3.83a13.47,13.47,0,0,0-1.74-1.06c-.9-.4-2.06-.64-2,.64A7.8,7.8,0,0,0,89.26,73.76Z"/><path class="cls-14" d="M95.83,66.63c1.14.09,2.42.26,3.1,1.17.16.21.28.46.43.69.59.9,1.68,1.5,1.92,2.55A5.27,5.27,0,0,1,98.21,71c-1-.28-2-.69-3-1s-6.28-.65-5.79-2.38c.24-.85,2.18-1,2.89-1.07A19.38,19.38,0,0,1,95.83,66.63Z"/><path class="cls-15" d="M84.57,66.1c.06.43,1.71,1.44,2.07,1.74.79.67,1.59,1.34,2.44,1.94a6,6,0,0,0,.11,1.14,18.16,18.16,0,0,0,.13,2.76,5.55,5.55,0,0,0,2.12,3.41,9.55,9.55,0,0,1-2-7h0a13.31,13.31,0,0,0,1.69,1c.35.16.71.3,1.07.44a10.36,10.36,0,0,0,.85,1.85,18.21,18.21,0,0,0,2.29,4.29A6,6,0,0,0,99.47,80a7.3,7.3,0,0,1-4.11-2.92,15.43,15.43,0,0,1-2.14-4.66,4.28,4.28,0,0,0-.28-.72l.77.27a38.94,38.94,0,0,1,5.46,2.49c0,.22,0,.55,0,.7a3.37,3.37,0,0,0-.19.67c0,.19.07.38.09.58a5.53,5.53,0,0,0,0,1.15,1.38,1.38,0,0,0,.4.59,5,5,0,0,0,1.67,1L100,78a3.31,3.31,0,0,1-.58-.77A3,3,0,0,1,99.6,75a1,1,0,0,0,.05-.24c1.7,1,3.35,2,5,3.09a24.08,24.08,0,0,0-6.67-4.73l-.49-.23c.25-.17.52-.49.76-.62a4.29,4.29,0,0,1,3.22-.53l-.09,0a4.42,4.42,0,0,0-.93-.31,4.09,4.09,0,0,0-2.68.74,4.66,4.66,0,0,1-.91.48c-.73-.31-1.47-.6-2.21-.9l0,0c.31-.18.57-.63.88-.86a10.09,10.09,0,0,1,2.16-1.13,5.64,5.64,0,0,1,1.73-.51,4.2,4.2,0,0,0-2.16.39l-1.07.4a4.09,4.09,0,0,0-.8.36,4.9,4.9,0,0,0-.57.45l-.69.61-.09.1a25,25,0,0,1-4.19-2l.17-.07c.54-.31,1-1,1.5-1.33a6.9,6.9,0,0,1,1.81-.88,12.6,12.6,0,0,1,4.46-.23l-2.67-.18a7,7,0,0,0-1.12,0,6.18,6.18,0,0,0-2.8,1.13,7.61,7.61,0,0,0-1.82,1.26,10.72,10.72,0,0,1-1.66-1.43,12.27,12.27,0,0,0-1.55-1.59C85.85,65.82,84.43,65.14,84.57,66.1Z"/><path class="cls-15" d="M101.43,71.71a11.29,11.29,0,0,1,1.45.79A3,3,0,0,0,101.43,71.71Z"/><path class="cls-16" d="M77.6,90.72A21.11,21.11,0,0,0,74.48,90a9.25,9.25,0,0,0-3.39.47l.06.35,1.12.07a7.23,7.23,0,0,0-1,.36l.08.35-.24,0,.29.52-.29.06.11.26a8.46,8.46,0,0,0,2.4.09l-1.14.53a1.92,1.92,0,0,0,.17.46,26,26,0,0,0,3.24-.79A7.14,7.14,0,0,0,77.72,92a4.56,4.56,0,0,0,0-.64A2.42,2.42,0,0,0,77.6,90.72Z"/><path class="cls-17" d="M71.13,90.69l0,.17,1.12.07a13.29,13.29,0,0,1,3.21-.36A11.67,11.67,0,0,0,71.13,90.69Z"/><path class="cls-17" d="M71.28,91.46l0,.18a21.2,21.2,0,0,1,3.87-.36A13,13,0,0,0,71.28,91.46Z"/><path class="cls-17" d="M71.29,92l.09.17a26.74,26.74,0,0,1,3.49-.6A16.67,16.67,0,0,0,71.29,92Z"/><path class="cls-17" d="M71.17,92.44a10.83,10.83,0,0,0,4.4-.58s-1.26,1.19-4.37.65Z"/><path class="cls-18" d="M77.71,91.37a2.42,2.42,0,0,0-.11-.65s-.62-.19-1.45-.38c.32.08,1.14.3,1.31.64s-.94,1.58-4.9,2.46a1,1,0,0,0,.07.15,26,26,0,0,0,3.24-.79A7.14,7.14,0,0,0,77.72,92,4.56,4.56,0,0,0,77.71,91.37Z"/><path class="cls-19" d="M71.33,92.32a15.76,15.76,0,0,0,4.43-.68c1.48-.63,1.43-1,.54-1.21a10.7,10.7,0,0,0-3.42-.29,19.43,19.43,0,0,1,3.21.48,11.32,11.32,0,0,0-3.76.44,16.17,16.17,0,0,1,4,0,6.18,6.18,0,0,1-1.91.23,9.39,9.39,0,0,0,1.23.09A14.68,14.68,0,0,1,71.33,92.32Z"/><path class="cls-20" d="M78,84.23a5.57,5.57,0,0,1,1.3.68s-.33-.29-1.23.1-.4,1.47-.26,1.75c0,0,.06-1.09.61-1.29a1.55,1.55,0,0,1,1.72.36,2.37,2.37,0,0,0-1.52.18c-.76.38-.37,1.46-.37,1.46s.39-1,.82-1.17a1.15,1.15,0,0,1,1.62,1.06s-1.15-.74-1.86.12c0,0,1.48-.28,1.76.65,0,0-1.6-.64-2.39,0,0,0,1.5,0,1.56.76s-.8.86-.8.86.07-.67-.92-.71c.09,0,1,.74.29,1.39s2,.71,3.12-.73a4,4,0,0,0,.39-4.29C81.34,84.51,79.26,83.4,78,84.23Z"/><g class="cls-21"><path class="cls-22" d="M80.59,87.3l0,0,.1.09.06,0,.07.06.07.07.07.06.07.07.06.07.07.07,0,.06a.75.75,0,0,1,.09.09l0,0v0s0-.07,0-.12,0,0,0-.08l0-.08a.27.27,0,0,0-.07-.08l-.07-.08L81,87.49l-.09-.06-.08-.05-.08,0-.12,0Z"/></g><g class="cls-21"><path class="cls-22" d="M80.52,88.05l.1.21,0,.1,0,.11.06.11s0,.09,0,.13l.06.12,0,.12,0,.11,0,.1a.28.28,0,0,1,0,.15s0,0,0,0v0l0-.05a.25.25,0,0,0,0-.18.43.43,0,0,0,0-.11.35.35,0,0,0,0-.13.56.56,0,0,0,0-.12,1.12,1.12,0,0,1,0-.13c0-.05,0-.09-.07-.13a.75.75,0,0,0-.07-.12l-.07-.1-.07-.09-.12-.12Z"/></g><g class="cls-21"><path class="cls-22" d="M80.07,85.85l.25.09.13,0,.13,0,.15,0,.14.06.15.06.13.06.12.07.11.06.05,0,0,0a.18.18,0,0,1,.07.05l.06,0,0-.06a.35.35,0,0,0,0-.08l0,0,0,0-.1-.09-.12-.09-.14-.08L80.93,86l-.16,0-.15,0-.15,0-.13,0Z"/></g><g class="cls-21"><path class="cls-22" d="M79.16,84.84s.14.06.37.13l.18.06.21.06.22.06.22.06.23.06.22,0,.21.05.19,0,.28,0h.11l-.1,0-.27-.11-.18-.06-.2-.07-.22-.06-.23-.06L80.17,85,80,85l-.21,0-.19,0Z"/></g><path class="cls-18" d="M86,89.08c2.34-2.35.35-5.79.35-5.79a4.19,4.19,0,0,0-2-3.18,8.79,8.79,0,0,0-3.75-1.24c0,.11-.25,0-.25,0a8.19,8.19,0,0,0-5.14.61c-.62.28-.64.64-.86,1.34l1.81,3.07s.63-.14.66-.08.24.36.8.58l.14,0a9.71,9.71,0,0,0,2.64.42,2.65,2.65,0,0,0,.64.73,4.84,4.84,0,0,0,.36,2,2.1,2.1,0,0,0-.51,1.81c-1.24-.09-3.77,1.44-3.77,1.44s-.94.83.87,1.36a7.21,7.21,0,0,0,4.09-.46A5.73,5.73,0,0,0,86,89.08Z"/><path class="cls-23" d="M77.78,84.47s0,0,0,0a5.75,5.75,0,0,0-2.55-5c-2.48,1-.38,3.52.29,4.3a2.19,2.19,0,0,0,1.69.81Z"/><path class="cls-23" d="M86.17,82.43a7.46,7.46,0,0,1-2.65,1.47,3.81,3.81,0,0,0-2.45,1.67,4.73,4.73,0,0,1,2.59-1.27,8.78,8.78,0,0,0,2.84-.69,2.93,2.93,0,0,0-.2-.35A1.68,1.68,0,0,0,86.17,82.43Z"/><path class="cls-23" d="M81.66,79a2.91,2.91,0,0,1-.29,1.53,7.21,7.21,0,0,0-1,4,5.81,5.81,0,0,1-.29-2.88,3.9,3.9,0,0,0,.32-2.8A5.45,5.45,0,0,1,81.66,79Z"/><path class="cls-23" d="M81.42,87.52a5.5,5.5,0,0,1,2.25.17,19.31,19.31,0,0,0,1.76.89,6.89,6.89,0,0,0,1,0,1.91,1.91,0,0,1-.4.45,5.56,5.56,0,0,1-.36.5s-1.11-.16-1.33-.43a3.79,3.79,0,0,0-1.23-1.08,6.35,6.35,0,0,0-1.73-.46Z"/><path class="cls-23" d="M80.92,89.33a2.34,2.34,0,0,1,1.19.75,1.94,1.94,0,0,1,.32,1.55l-.32,0-.18.07a1.6,1.6,0,0,0,.15-1.3A2.7,2.7,0,0,0,80.92,89.33Z"/><path class="cls-16" d="M84.66,83c1-.72.68-1.33-.06-2.1a4,4,0,0,0-2.39-1.11c-.24.08-.47,1-.8,1.55s-.67,2.16-.07,2.52S84.16,83.32,84.66,83Z"/><path class="cls-24" d="M82.88,80.43c.49.26,1.7.72,1.66,1.45s-.89-.09-1.22-.12c-.51-.06-1,.43-.95-.43C82.38,81,82.38,80.25,82.88,80.43Z"/><path class="cls-16" d="M85.78,88.11c.6,0,1.07-1.59,1-2.25s-.38-1.63-1.48-1.51a7.28,7.28,0,0,0-2.92.75c-.26.31.26,1.5.8,1.79A9,9,0,0,0,85.78,88.11Z"/><path class="cls-16" d="M83.83,90.71c.82-.45.93-.92.75-1.08s-.64-.37-.78-.62a1.71,1.71,0,0,0-1.46-.58c-.49.15.15,1.41.26,1.71S82.87,91.24,83.83,90.71Z"/><path class="cls-24" d="M84.06,85.36a2.48,2.48,0,0,1,1.58-.3c.62.18.51.88.42,1.36s-.44,1.52-1.24,1c-.29-.21-.48-.55-.76-.78s-.39-.21-.45-.42S83.72,85.55,84.06,85.36Z"/><path class="cls-24" d="M83.29,89.13l0,.06Z"/><path class="cls-24" d="M82.9,90c-.15-.5,0-1.21.51-.68l-.08-.09c.3.32.83.53.36.93S83,90.41,82.9,90Z"/><path class="cls-16" d="M78.78,91.2c.25,0,.5.16.76.19a2.92,2.92,0,0,0,.72-.06c.26,0,.8,0,.95-.33s0-.22-.09-.44-.17-.4-.13-.49.26-.15.4,0a3.12,3.12,0,0,1,.36.71c.16.53,0,.92-.6,1-1,.15-1.72.44-2.48-.3C78.44,91.29,78.4,91.19,78.78,91.2Z"/><path class="cls-16" d="M78.21,82.85a15.41,15.41,0,0,0-.88-2c-.14-.25-.63-.56-.65-.84-.06-.61,1.69-.55,2.13-.59.65-.07,1.39,0,1.28.75,0,.47-.31.9-.37,1.38a3.79,3.79,0,0,1-.12,1.06C79.38,83.08,78.44,83.32,78.21,82.85Z"/><path class="cls-24" d="M78.87,79.86a.69.69,0,0,1,.47.11.49.49,0,0,1,.13.46,1.92,1.92,0,0,1-.18.45A2.83,2.83,0,0,0,79.08,82c0,.09,0,.19-.06.25a.24.24,0,0,1-.2,0,.67.67,0,0,1-.4-.34,4.4,4.4,0,0,1-.18-.51,3.06,3.06,0,0,0-.33-.71c-.13-.21-.44-.65-.12-.85S78.61,79.87,78.87,79.86Z"/><path class="cls-25" d="M41.25,56.81a5.93,5.93,0,0,0-1.76-4.17,8.53,8.53,0,0,0,4.73-4.09,5.44,5.44,0,0,0-.79-6c-1.5-1.54-3.87-1.8-6-1.6a10,10,0,0,0-5.23,2.27c-1.65-2.15-3.27-4.78-6.46-4.46a4.64,4.64,0,0,0-1.79,8.66,2.84,2.84,0,0,0-2.51,1.31,7.32,7.32,0,0,0-1.56,6A5.76,5.76,0,0,0,24,59.13a4.74,4.74,0,0,0,5.3-2.53c1.39,2.25,3.61,4.19,6.24,4.47S41.1,59.46,41.25,56.81Zm-6.71,1.44a6.69,6.69,0,0,1-4.69-3.36,3.56,3.56,0,0,1-4,1.9,4.31,4.31,0,0,1-3.1-3.3A5.48,5.48,0,0,1,23.94,49a2.1,2.1,0,0,1,1.88-1,3.48,3.48,0,0,1,1.35-6.5c2.39-.24,3.6,1.73,4.84,3.34a7.59,7.59,0,0,1,3.93-1.7,5.52,5.52,0,0,1,4.51,1.2A4.07,4.07,0,0,1,41,48.85a6.37,6.37,0,0,1-3.55,3.07,4.44,4.44,0,0,1,1.32,3.13C38.7,57,36.52,58.46,34.54,58.25Z"/><path class="cls-26" d="M38.73,52.37A7.69,7.69,0,0,0,43,48.66a4.91,4.91,0,0,0-.71-5.4c-1.36-1.39-3.51-1.63-5.44-1.45a9.15,9.15,0,0,0-4.74,2c-1.5-2-3-4.32-5.84-4a4.2,4.2,0,0,0-1.63,7.84,2.55,2.55,0,0,0-2.27,1.19A6.62,6.62,0,0,0,21,54.26a5.2,5.2,0,0,0,3.74,4A4.28,4.28,0,0,0,29.51,56a8.06,8.06,0,0,0,5.66,4c2.39.26,5-1.46,5.16-3.85A5.39,5.39,0,0,0,38.73,52.37Zm-4,6.38a7.06,7.06,0,0,1-5-3.55,3.76,3.76,0,0,1-4.21,2,4.57,4.57,0,0,1-3.29-3.5A5.79,5.79,0,0,1,23.49,49a2.26,2.26,0,0,1,2-1A3.68,3.68,0,0,1,26.91,41c2.53-.26,3.82,1.83,5.13,3.54a8.11,8.11,0,0,1,4.16-1.81c1.7-.15,3.59.06,4.79,1.28a4.33,4.33,0,0,1,.62,4.75,6.78,6.78,0,0,1-3.76,3.25,4.78,4.78,0,0,1,1.4,3.32C39.13,57.47,36.82,59,34.72,58.75Z"/><path class="cls-27" d="M41.25,56.81a5.93,5.93,0,0,0-1.76-4.17,8.53,8.53,0,0,0,4.73-4.09,5.44,5.44,0,0,0-.79-6c-1.5-1.54-3.87-1.8-6-1.6a10,10,0,0,0-5.23,2.27c-1.65-2.15-3.27-4.78-6.46-4.46a4.64,4.64,0,0,0-1.79,8.66,2.84,2.84,0,0,0-2.51,1.31,7.32,7.32,0,0,0-1.56,6A5.76,5.76,0,0,0,24,59.13a4.74,4.74,0,0,0,5.3-2.53c1.39,2.25,3.61,4.19,6.24,4.47S41.1,59.46,41.25,56.81ZM35.17,60a8.06,8.06,0,0,1-5.66-4,4.28,4.28,0,0,1-4.8,2.29,5.2,5.2,0,0,1-3.74-4,6.62,6.62,0,0,1,1.41-5.4,2.55,2.55,0,0,1,2.27-1.19,4.2,4.2,0,0,1,1.63-7.84c2.88-.29,4.34,2.08,5.84,4a9.15,9.15,0,0,1,4.74-2c1.93-.18,4.08.06,5.44,1.45a4.91,4.91,0,0,1,.71,5.4,7.69,7.69,0,0,1-4.28,3.71,5.39,5.39,0,0,1,1.6,3.78C40.19,58.54,37.56,60.26,35.17,60Z"/><path class="cls-28" d="M23.55,40.93a4.29,4.29,0,0,0-.65,3,3.88,3.88,0,0,1,1.69-2.87,6.58,6.58,0,0,1,3.22-1A3.05,3.05,0,0,0,23.55,40.93Z"/><path class="cls-25" d="M88.48,54.09a6,6,0,0,0-1.76-4.18,8.4,8.4,0,0,0,4.72-4.09,5.42,5.42,0,0,0-.78-6c-1.5-1.54-3.88-1.8-6-1.6a10.11,10.11,0,0,0-5.23,2.27c-1.66-2.15-3.27-4.78-6.46-4.45a4.63,4.63,0,0,0-1.79,8.65A2.87,2.87,0,0,0,68.65,46a7.32,7.32,0,0,0-1.55,6,5.74,5.74,0,0,0,4.13,4.4,4.73,4.73,0,0,0,5.3-2.53c1.4,2.26,3.61,4.19,6.25,4.47S88.33,56.74,88.48,54.09Zm-6.72,1.43a6.64,6.64,0,0,1-4.68-3.36,3.56,3.56,0,0,1-4,1.9,4.31,4.31,0,0,1-3.1-3.3,5.52,5.52,0,0,1,1.16-4.48,2.15,2.15,0,0,1,1.89-1,3.48,3.48,0,0,1,1.35-6.5c2.39-.24,3.6,1.73,4.84,3.34a7.67,7.67,0,0,1,3.93-1.7,5.53,5.53,0,0,1,4.51,1.2,4.07,4.07,0,0,1,.58,4.48,6.28,6.28,0,0,1-3.54,3.07A4.47,4.47,0,0,1,86,52.33C85.93,54.31,83.74,55.73,81.76,55.52Z"/><path class="cls-26" d="M86,49.64a7.7,7.7,0,0,0,4.28-3.7,4.92,4.92,0,0,0-.71-5.41c-1.36-1.39-3.51-1.63-5.44-1.45a9.16,9.16,0,0,0-4.74,2.06c-1.5-2-3-4.33-5.84-4a4.19,4.19,0,0,0-1.63,7.83,2.57,2.57,0,0,0-2.27,1.19,6.59,6.59,0,0,0-1.41,5.4,5.2,5.2,0,0,0,3.74,4,4.29,4.29,0,0,0,4.8-2.28,8,8,0,0,0,5.66,4c2.38.26,5-1.45,5.15-3.85A5.39,5.39,0,0,0,86,49.64ZM82,56a7.1,7.1,0,0,1-5-3.56,3.77,3.77,0,0,1-4.22,2A4.56,4.56,0,0,1,69.48,51a5.84,5.84,0,0,1,1.23-4.75,2.26,2.26,0,0,1,2-1,3.69,3.69,0,0,1,1.43-6.89c2.53-.26,3.82,1.83,5.13,3.54a8.06,8.06,0,0,1,4.16-1.8c1.7-.16,3.59.05,4.78,1.27a4.34,4.34,0,0,1,.63,4.75,6.74,6.74,0,0,1-3.76,3.25,4.78,4.78,0,0,1,1.4,3.32C86.36,54.75,84,56.25,82,56Z"/><path class="cls-27" d="M88.48,54.09a6,6,0,0,0-1.76-4.18,8.4,8.4,0,0,0,4.72-4.09,5.42,5.42,0,0,0-.78-6c-1.5-1.54-3.88-1.8-6-1.6a10.11,10.11,0,0,0-5.23,2.27c-1.66-2.15-3.27-4.78-6.46-4.45a4.63,4.63,0,0,0-1.79,8.65A2.87,2.87,0,0,0,68.65,46a7.32,7.32,0,0,0-1.55,6,5.74,5.74,0,0,0,4.13,4.4,4.73,4.73,0,0,0,5.3-2.53c1.4,2.26,3.61,4.19,6.25,4.47S88.33,56.74,88.48,54.09ZM82.4,57.27a8,8,0,0,1-5.66-4,4.29,4.29,0,0,1-4.8,2.28,5.2,5.2,0,0,1-3.74-4,6.59,6.59,0,0,1,1.41-5.4,2.57,2.57,0,0,1,2.27-1.19,4.19,4.19,0,0,1,1.63-7.83c2.88-.3,4.34,2.08,5.84,4a9.16,9.16,0,0,1,4.74-2.06c1.93-.18,4.08.06,5.44,1.45a4.92,4.92,0,0,1,.71,5.41A7.7,7.7,0,0,1,86,49.64a5.39,5.39,0,0,1,1.59,3.78C87.42,55.82,84.78,57.53,82.4,57.27Z"/><path class="cls-28" d="M70.78,38.21a4.23,4.23,0,0,0-.65,3,3.86,3.86,0,0,1,1.69-2.87,6.56,6.56,0,0,1,3.22-1A3.05,3.05,0,0,0,70.78,38.21Z"/><path class="cls-25" d="M45.76,88A6,6,0,0,0,44,83.79a8.44,8.44,0,0,0,4.72-4.09,5.42,5.42,0,0,0-.78-6c-1.5-1.54-3.87-1.8-6-1.6A10.14,10.14,0,0,0,36.7,74.4C35,72.25,33.43,69.62,30.24,70a4.63,4.63,0,0,0-1.79,8.65,2.86,2.86,0,0,0-2.51,1.31,7.32,7.32,0,0,0-1.56,6,5.74,5.74,0,0,0,4.13,4.4,4.75,4.75,0,0,0,5.31-2.53c1.39,2.26,3.6,4.19,6.24,4.47S45.61,90.61,45.76,88ZM39.05,89.4A6.66,6.66,0,0,1,34.36,86a3.56,3.56,0,0,1-4,1.9,4.31,4.31,0,0,1-3.1-3.3,5.49,5.49,0,0,1,1.17-4.48,2.13,2.13,0,0,1,1.88-1,3.48,3.48,0,0,1,1.35-6.5c2.39-.24,3.6,1.73,4.84,3.34a7.67,7.67,0,0,1,3.93-1.7A5.53,5.53,0,0,1,45,75.52,4.09,4.09,0,0,1,45.55,80,6.33,6.33,0,0,1,42,83.07a4.46,4.46,0,0,1,1.32,3.13C43.21,88.19,41,89.61,39.05,89.4Z"/><path class="cls-26" d="M43.24,83.52a7.68,7.68,0,0,0,4.28-3.71,4.91,4.91,0,0,0-.71-5.4C45.45,73,43.3,72.78,41.37,73A9.15,9.15,0,0,0,36.63,75c-1.5-1.94-3-4.32-5.84-4a4.2,4.2,0,0,0-1.63,7.84A2.57,2.57,0,0,0,26.89,80a6.62,6.62,0,0,0-1.41,5.4,5.2,5.2,0,0,0,3.74,4A4.28,4.28,0,0,0,34,87.1a8,8,0,0,0,5.66,4.05c2.38.26,5-1.45,5.16-3.85A5.4,5.4,0,0,0,43.24,83.52Zm-4,6.39a7.1,7.1,0,0,1-5-3.56,3.76,3.76,0,0,1-4.21,2,4.56,4.56,0,0,1-3.29-3.5A5.8,5.8,0,0,1,28,80.12a2.25,2.25,0,0,1,2-1.05,3.69,3.69,0,0,1,1.43-6.88c2.53-.26,3.82,1.83,5.13,3.54a8,8,0,0,1,4.16-1.8c1.7-.16,3.59,0,4.78,1.27A4.31,4.31,0,0,1,46.12,80a6.74,6.74,0,0,1-3.76,3.25,4.78,4.78,0,0,1,1.4,3.32C43.64,88.63,41.33,90.13,39.23,89.91Z"/><path class="cls-27" d="M45.76,88A6,6,0,0,0,44,83.79a8.44,8.44,0,0,0,4.72-4.09,5.42,5.42,0,0,0-.78-6c-1.5-1.54-3.87-1.8-6-1.6A10.14,10.14,0,0,0,36.7,74.4C35,72.25,33.43,69.62,30.24,70a4.63,4.63,0,0,0-1.79,8.65,2.86,2.86,0,0,0-2.51,1.31,7.32,7.32,0,0,0-1.56,6,5.74,5.74,0,0,0,4.13,4.4,4.75,4.75,0,0,0,5.31-2.53c1.39,2.26,3.6,4.19,6.24,4.47S45.61,90.61,45.76,88Zm-6.08,3.18A8,8,0,0,1,34,87.1a4.28,4.28,0,0,1-4.8,2.29,5.2,5.2,0,0,1-3.74-4A6.62,6.62,0,0,1,26.89,80a2.57,2.57,0,0,1,2.27-1.19A4.2,4.2,0,0,1,30.79,71c2.88-.29,4.34,2.09,5.84,4A9.15,9.15,0,0,1,41.37,73c1.93-.18,4.08.06,5.44,1.45a4.91,4.91,0,0,1,.71,5.4,7.68,7.68,0,0,1-4.28,3.71,5.4,5.4,0,0,1,1.6,3.78C44.7,89.7,42.06,91.41,39.68,91.15Z"/><path class="cls-28" d="M28.06,72.09a4.27,4.27,0,0,0-.65,3,3.86,3.86,0,0,1,1.69-2.86,6.56,6.56,0,0,1,3.22-1A3,3,0,0,0,28.06,72.09Z"/><path class="cls-11" d="M46.7,60c-2.79.18-5.8.12-8.07-1.51-2.84-2-3.73-5.91-6.24-8.33a14.1,14.1,0,0,0,4.39-2.84,8.13,8.13,0,0,1,7.48-.62,1.71,1.71,0,0,1,1.05.93.56.56,0,0,1,.14-.54,19.8,19.8,0,0,1,3.39,3c0-.18.28-.15.42-.06a6.79,6.79,0,0,1,3,6.25C52.06,59.18,49.25,59.8,46.7,60Z"/><path class="cls-12" d="M47,54.92a17.24,17.24,0,0,0-2.11-.45,24.84,24.84,0,0,1-11.62-4.63c1.87.89,3.7,1.72,5.63,2.46.73.28,1.46.56,2.21.78,1.75.52,3.58.74,5.37,1.12a16.48,16.48,0,0,1,2.74.79c.54.21,3.19,1.15,3.21,1.81,0,1-2.25-.66-2.55-.84A10.33,10.33,0,0,0,47,54.92Z"/><path class="cls-13" d="M49.15,51.06a23.35,23.35,0,0,0-3-2.83c0,.15-.05.3-.07.45A10.34,10.34,0,0,0,44,47.53l-.06.43a7.63,7.63,0,0,0-2.58-.78,3.57,3.57,0,0,0-2.54.71l.33.34a28.54,28.54,0,0,1-4,1.34,5.87,5.87,0,0,0,1.76,1.64,9.12,9.12,0,0,0,1.82.77c2.77.9,5.73,1.24,8.43,2.35a16.27,16.27,0,0,0,1.91.72c1,.23,2.14.25,1.83-1A7.85,7.85,0,0,0,49.15,51.06Z"/><path class="cls-14" d="M44,59.26c-1.14.12-2.42.19-3.26-.58-.2-.19-.36-.41-.55-.61-.74-.78-1.92-1.17-2.35-2.16a5.23,5.23,0,0,1,3-.5c1,.08,2.06.32,3.09.4s6.3-.5,6.13,1.29c-.09.88-2,1.39-2.64,1.58A20.21,20.21,0,0,1,44,59.26Z"/><path class="cls-11" d="M69.58,56.61c2.69-.76,5.65-1.32,8.21-.21,3.2,1.4,4.87,5,7.84,6.86a14.27,14.27,0,0,0-3.71,3.68,8.12,8.12,0,0,1-7.19,2.17,1.74,1.74,0,0,1-1.22-.69.57.57,0,0,1,0,.55,18.68,18.68,0,0,1-3.94-2.23c0,.17-.24.2-.41.14a6.8,6.8,0,0,1-4.26-5.47C64.5,58.49,67.12,57.31,69.58,56.61Z"/><path class="cls-12" d="M70.3,61.62a17.3,17.3,0,0,0,2.16,0,24.77,24.77,0,0,1,12.32,2.11c-2-.47-4-.91-6-1.23-.77-.12-1.55-.24-2.33-.31-1.82-.14-3.65,0-5.48,0A17,17,0,0,1,68.11,62c-.57-.09-3.36-.46-3.51-1.1-.24-1,2.34.18,2.66.3A10.67,10.67,0,0,0,70.3,61.62Z"/><path class="cls-13" d="M69,65.83A23.43,23.43,0,0,0,72.61,68l0-.46a9.25,9.25,0,0,0,2.24.7l0-.43a7.37,7.37,0,0,0,2.68.22,3.54,3.54,0,0,0,2.34-1.22l-.39-.26a28.16,28.16,0,0,1,3.67-2.15A5.8,5.8,0,0,0,81,63.13a9.13,9.13,0,0,0-1.94-.38c-2.9-.3-5.87,0-8.74-.54a13.73,13.73,0,0,0-2-.3c-1,0-2.15.19-1.59,1.34A7.63,7.63,0,0,0,69,65.83Z"/><path class="cls-14" d="M72.4,56.74c1.09-.35,2.33-.69,3.31-.11.23.14.44.32.66.48.89.6,2.13.74,2.75,1.62a5.25,5.25,0,0,1-2.86,1.12c-1,.14-2.08.12-3.11.25s-6.05,1.8-6.26,0c-.1-.87,1.63-1.76,2.26-2.09A19.77,19.77,0,0,1,72.4,56.74Z"/><path class="cls-15" d="M61.79,60.54c.22.37,2.13.68,2.57.82,1,.32,2,.63,3,.86a6,6,0,0,0,.53,1,19.14,19.14,0,0,0,1.18,2.51,5.62,5.62,0,0,0,3.26,2.34,9.56,9.56,0,0,1-4.48-5.75h0a13.61,13.61,0,0,0,1.92.24c.39,0,.77,0,1.16,0a9.88,9.88,0,0,0,1.5,1.39A17.64,17.64,0,0,0,76.18,67a6,6,0,0,0,4.69.66A7.34,7.34,0,0,1,76,66.58a15.55,15.55,0,0,1-3.75-3.49,4.11,4.11,0,0,0-.54-.57l.82,0a38.67,38.67,0,0,1,6,.22c0,.23.21.51.23.66a3.18,3.18,0,0,0,.09.69,5,5,0,0,0,.29.5c.19.34.19.77.43,1.07a1.42,1.42,0,0,0,.6.39,5,5,0,0,0,1.94.33l-1.4-.66a3.43,3.43,0,0,1-.83-.49A3,3,0,0,1,79.07,63a1.81,1.81,0,0,0,0-.25c1.93.24,3.86.57,5.76,1a24.1,24.1,0,0,0-8-1.83l-.53,0c.16-.26.29-.65.45-.87a4.61,4.61,0,0,1,1.85-1.45,4.28,4.28,0,0,1,.93-.26h-.1a4,4,0,0,0-1,.07,4.06,4.06,0,0,0-2.2,1.71,4.94,4.94,0,0,1-.66.79c-.79,0-1.59,0-2.39,0l0,0c.21-.29.28-.81.48-1.14a9.62,9.62,0,0,1,1.57-1.86,5.47,5.47,0,0,1,1.4-1.14,4.25,4.25,0,0,0-1.85,1.19l-.83.77a4.62,4.62,0,0,0-.61.64,5,5,0,0,0-.36.64l-.4.82a.5.5,0,0,0,0,.13,24.62,24.62,0,0,1-4.65-.3l.12-.13c.38-.49.52-1.26.88-1.8a6.61,6.61,0,0,1,1.34-1.5,12.69,12.69,0,0,1,4-1.92l-2.53.85a7.38,7.38,0,0,0-1.05.41,6.35,6.35,0,0,0-2.16,2.12,7.58,7.58,0,0,0-1.19,1.86,11.37,11.37,0,0,1-2.09-.69,11.75,11.75,0,0,0-2-.88C62.87,59.79,61.29,59.71,61.79,60.54Z"/><path class="cls-15" d="M79.51,59.3a11.39,11.39,0,0,1,1.65.17A3,3,0,0,0,79.51,59.3Z"/><path class="cls-14" d="M53.7,56.54a4.24,4.24,0,0,1,1.42,1.34,10.57,10.57,0,0,1,.56,1.58c.7,1.93,3.29,1.44,2.64-.59S55.65,55.53,53.7,56.54Z"/><path class="cls-15" d="M60.4,67.89a2.65,2.65,0,0,0-.27,1.64,5.87,5.87,0,0,1,.56-2c.08-.17.17-.34.24-.52.14-.41.15-.87.31-1.28,0-.13.12-.25.17-.38a1.89,1.89,0,0,0-.2-1.84c-.12.21,0,.73,0,1a6.34,6.34,0,0,1-.14,1.14A13.12,13.12,0,0,1,60.4,67.89Z"/><path class="cls-14" d="M60.07,52l.27.26a2.31,2.31,0,0,1,.69-1,.69.69,0,0,0,.18.35,4.69,4.69,0,0,1,2.88-2.35l.09.15A19.5,19.5,0,0,1,68.37,48a9.53,9.53,0,0,1-1.21,4l.31.1a15.38,15.38,0,0,1-1.55,3.12,9.31,9.31,0,0,1-2.6,3.19A9.28,9.28,0,0,1,60,59.54a3,3,0,0,1-1.08.09c-1.39-.25-1.1-2.8-.91-3.79A7.14,7.14,0,0,1,60.07,52Z"/><path class="cls-11" d="M59.47,57.5a1.91,1.91,0,0,0-.38.7.74.74,0,0,0,.18.74,1,1,0,0,0,.81.15A4.31,4.31,0,0,0,62.53,58c.2-.2.38-.42.58-.61s.48-.4.71-.61a9.3,9.3,0,0,0,1.59-2.14,24.12,24.12,0,0,0,1.26-2.12c-1.4-.17-2.78.85-3.83,1.63A16.26,16.26,0,0,0,59.47,57.5Z"/><path class="cls-15" d="M66.07,50.52c.53-.44,1.38-1.05,1.46-1.8-.42.1-.9.86-1.21,1.17-.48.48-1,.93-1.48,1.38l-1.08,1h0c.24-.74.61-1.41.9-2.11a4.59,4.59,0,0,0-1.36,2.52c-.45.41-.9.83-1.34,1.27l-.17.19a2.78,2.78,0,0,0,.11-.5c.1-.66.51-1.24.59-1.89a9.12,9.12,0,0,0-1.1,2.77l.06,0a22.13,22.13,0,0,0-1.88,2.34,21.51,21.51,0,0,0,0-2.66,8.61,8.61,0,0,0-.29,1.58,10.32,10.32,0,0,1-.08,1.54l0,0a22.51,22.51,0,0,0-1.94,3.54,1,1,0,0,0,.53-.53,38,38,0,0,1,2.19-3.32,4.58,4.58,0,0,0,1.42-.39,10,10,0,0,0,.92-.48,20.78,20.78,0,0,0,2.29-1.42c.13-.09.27-.23.24-.39.07.38-2.5,1.44-2.83,1.58s-1.07.33-1.62.54c.67-.88,1.39-1.73,2.14-2.55a.32.32,0,0,0,0,.09,8.76,8.76,0,0,0,3-1.33,9.31,9.31,0,0,0,1.2-.89,6.7,6.7,0,0,0-1.8.93c-.36.22-1.53.55-2.07.93A38.07,38.07,0,0,1,66.07,50.52Z"/><path class="cls-13" d="M56.18,58.08a14.8,14.8,0,0,0,.7,1.63.44.44,0,0,0,.14.13.31.31,0,0,0,.36-.08.63.63,0,0,0,.16-.35,2,2,0,0,0-.22-1.35A3.52,3.52,0,0,0,56.41,57c-.24-.18-2-.64-1.53-.37A8,8,0,0,1,56.18,58.08Z"/><path class="cls-14" d="M62.8,60.19a3.81,3.81,0,0,0,1.23.64.21.21,0,0,0,.19,0,.23.23,0,0,0,0-.18A4,4,0,0,0,63,58.82a1.29,1.29,0,0,0-.5-.3,1.48,1.48,0,0,0-.47-.06c-.68,0-4,.09-3.43,1.59.27.78,1.34.12,1.79,0A2.85,2.85,0,0,1,62.8,60.19Z"/><path class="cls-13" d="M60.65,59.46a3,3,0,0,1,2.44.92,2.6,2.6,0,0,0-2-1.51c-.54-.08-1.73,0-1.92.66S60.26,59.52,60.65,59.46Z"/><path class="cls-15" d="M37.55,55.28A12.17,12.17,0,0,1,36,54.76,3.13,3.13,0,0,0,37.55,55.28Z"/><path class="cls-15" d="M56.72,61.44A9,9,0,0,0,54.43,58c-.35-.25-.91-1-1.29-1.2S52,55.73,51.31,55.58c-.42-.22-.84-.44-1.27-.64a5.89,5.89,0,0,0-.31-1.1,17.55,17.55,0,0,0-.64-2.69,5.55,5.55,0,0,0-2.69-3,9.57,9.57,0,0,1,3.18,6.56h0a12.74,12.74,0,0,0-1.83-.63c-.37-.09-.75-.17-1.13-.23a10.42,10.42,0,0,0-1.18-1.68,18,18,0,0,0-3-3.8A6,6,0,0,0,38,46.77a7.34,7.34,0,0,1,4.57,2.13,15.41,15.41,0,0,1,3,4.19,4.23,4.23,0,0,0,.4.67l-.8-.13a38.75,38.75,0,0,1-5.82-1.47c0-.22-.1-.54-.09-.69a3.22,3.22,0,0,0,.06-.69,5.22,5.22,0,0,0-.18-.56,6.84,6.84,0,0,0-.2-1.13,1.36,1.36,0,0,0-.51-.5,4.65,4.65,0,0,0-1.82-.73l1.23.94a3.14,3.14,0,0,1,.71.65,2.92,2.92,0,0,1,.28,2.29,1,1,0,0,0,0,.25c-1.84-.63-3.66-1.36-5.44-2.15a23.81,23.81,0,0,0,7.42,3.45l.52.13c-.22.22-.43.58-.63.76a4.54,4.54,0,0,1-2.11,1,4.44,4.44,0,0,1-1,.07l.09,0a3.54,3.54,0,0,0,1,.13,4,4,0,0,0,2.5-1.21,7.12,7.12,0,0,1,.81-.64c.77.18,1.56.34,2.34.49l0,0c-.27.24-.44.73-.7,1a10.41,10.41,0,0,1-1.93,1.5,5.83,5.83,0,0,1-1.61.82A4.31,4.31,0,0,0,42,56.66l1-.59a4.65,4.65,0,0,0,.73-.49,4.29,4.29,0,0,0,.48-.56c.19-.23.38-.47.56-.71a.37.37,0,0,0,.07-.12,24.4,24.4,0,0,1,4.49,1.26.71.71,0,0,0-.14.1c-.48.4-.78,1.13-1.24,1.58a6.83,6.83,0,0,1-1.63,1.19,12.78,12.78,0,0,1-4.34,1l2.66-.31a7,7,0,0,0,1.11-.19,6.18,6.18,0,0,0,2.55-1.62c.35-.32,1.34-1.06,1.56-1.57a11.88,11.88,0,0,1,1.11.6c.23.2.51.39.63.51.88.81,2,1.33,2.89,2.11a6.3,6.3,0,0,1,2,3.25.3.3,0,0,0,.31-.26A.84.84,0,0,0,56.72,61.44Z"/><path class="cls-14" d="M55.37,62.27a4.1,4.1,0,0,0,.14,2A8.46,8.46,0,0,0,60,70.08a25.75,25.75,0,0,0,2.5.74A12.15,12.15,0,0,1,66.69,73c.94-.58.93-1.93.74-3a23.51,23.51,0,0,0-1.81-5.68,9.08,9.08,0,0,0-2.55-3.51A4.16,4.16,0,0,0,59,60.1C57.78,60.62,55.72,60.84,55.37,62.27Z"/><path class="cls-13" d="M61,63.54c.63,1.83,2.17,3.16,3.66,4.4a8.69,8.69,0,0,0,2,1.38A7.5,7.5,0,0,0,66,66.15,14,14,0,0,0,64.4,62.8c-.5-.71-1.7-2.06-2.7-2S60.75,62.83,61,63.54Z"/><path class="cls-15" d="M66.53,72.66c-.25-1.74-1.48-3.15-2.43-4.64-.57-.9-1-1.87-1.57-2.81A11.93,11.93,0,0,1,64,66.34a8.44,8.44,0,0,1,2,2.49,8.73,8.73,0,0,0-3.25-4.19,6.44,6.44,0,0,0-.86-.63c-.1-.16-.21-.32-.32-.47a12,12,0,0,0-1-1.15h.05a3.61,3.61,0,0,1,1.83.56,7.12,7.12,0,0,1,1.82,1.64,2.09,2.09,0,0,0-.67-1.35,4.88,4.88,0,0,0-2.8-1.51,1.42,1.42,0,0,0-.58,0,.75.75,0,0,0-.2.1c-.83-.75-1.78-1.34-2.41-.93.52.5,1,1,1.55,1.45,0,.25.08.64.07.85a5.55,5.55,0,0,1-.13,1.15,14.11,14.11,0,0,1-.71,2.2,2.56,2.56,0,0,0-.27,1.64,5.87,5.87,0,0,1,.56-2,4.83,4.83,0,0,0,.23-.52c.15-.42.16-.87.32-1.28,0-.13.12-.25.17-.38a2.21,2.21,0,0,0,0-1.44c.63.58,1.25,1.17,1.83,1.79-.25.15-.4.76-.47,1a14.22,14.22,0,0,0-.69,2.88,2.29,2.29,0,0,0,.08,1.22,6.74,6.74,0,0,1,.28-1.35c.14-.41.35-.78.49-1.18a6.2,6.2,0,0,0,.21-.7l.24-.94a3.58,3.58,0,0,0,.13-.59,14.61,14.61,0,0,1,1.52,2c0,.17.06.42,0,.57a3.39,3.39,0,0,1-.09.78,8.7,8.7,0,0,1-.49,1.52,1.87,1.87,0,0,0-.19,1.13,4.46,4.46,0,0,1,.39-1.35,2.83,2.83,0,0,0,.16-.36c.1-.28.11-.6.22-.88,0-.09.08-.17.12-.26a1.63,1.63,0,0,0,.08-.74A43.67,43.67,0,0,0,66.53,72.66Z"/><path class="cls-16" d="M90,56a20.26,20.26,0,0,0-.72-3.11A9.26,9.26,0,0,0,87.41,50l-.29.21.41,1a8.38,8.38,0,0,0-.77-.78l-.28.23-.13-.2L86,51l-.17-.24-.19.21a8.81,8.81,0,0,0,.94,2.21s-.6-.52-1-.8a1.84,1.84,0,0,0-.35.34,25.14,25.14,0,0,0,2.1,2.6,7.67,7.67,0,0,0,1.5,1.34s.24-.1.58-.28A2.51,2.51,0,0,0,90,56Z"/><path class="cls-17" d="M87.25,50.12l-.13.1.41,1A13.47,13.47,0,0,1,89.22,54,11.85,11.85,0,0,0,87.25,50.12Z"/><path class="cls-17" d="M86.63,50.59l-.15.12a20.66,20.66,0,0,1,2,3.35A12.92,12.92,0,0,0,86.63,50.59Z"/><path class="cls-17" d="M86.12,50.83,86,51a27,27,0,0,1,2,2.9A16.85,16.85,0,0,0,86.12,50.83Z"/><path class="cls-17" d="M85.69,50.9a11,11,0,0,0,2.4,3.74S86.47,54,85.64,51Z"/><path class="cls-18" d="M89.45,56.37A2.51,2.51,0,0,0,90,56s-.09-.64-.27-1.46c.06.32.21,1.15,0,1.45s-1.83-.17-4.31-3.38a.63.63,0,0,0-.11.12,25.14,25.14,0,0,0,2.1,2.6,7.67,7.67,0,0,0,1.5,1.34S89.11,56.55,89.45,56.37Z"/><path class="cls-19" d="M85.87,51a15.74,15.74,0,0,0,2.5,3.71c1.2,1.08,1.48.89,1.33,0a10.87,10.87,0,0,0-1.2-3.22,18.6,18.6,0,0,1,.93,3.11,11.08,11.08,0,0,0-2-3.21,16,16,0,0,1,1.67,3.68,6.27,6.27,0,0,1-1-1.63,7.84,7.84,0,0,0,.45,1.15A14.42,14.42,0,0,1,85.87,51Z"/><path class="cls-20" d="M96,53.6A5.67,5.67,0,0,1,96,55.07s.12-.42-.62-1.07-1.51.26-1.69.5c0,0,1-.4,1.42,0a1.54,1.54,0,0,1,.41,1.7,2.36,2.36,0,0,0-.81-1.3c-.67-.53-1.48.29-1.48.29s1.12-.09,1.41.24a1.16,1.16,0,0,1-.27,1.92s.18-1.36-.91-1.63c0,0,.89,1.21.17,1.87,0,0-.1-1.72-1-2.17,0,0,.61,1.37,0,1.73s-1.11-.35-1.11-.35.64-.23.25-1.14c0,.09-.23,1.25-1.13.86s.18,2.06,2,2.51a4,4,0,0,0,4.05-1.47C97.2,56.72,97.31,54.37,96,53.6Z"/><g class="cls-21"><path class="cls-22" d="M94.35,57.23a.18.18,0,0,1,0,.05l0,.12,0,.08,0,.09a.32.32,0,0,1,0,.09l0,.09,0,.1,0,.08a.36.36,0,0,0,0,.09l0,.08s0,.08,0,.11l0,0,0,0,.1-.09a.18.18,0,0,0,0-.07l.06-.08,0-.09a.42.42,0,0,0,0-.1l0-.1s0-.07,0-.11a.28.28,0,0,1,0-.09.28.28,0,0,0,0-.09.44.44,0,0,0,0-.13A.12.12,0,0,0,94.35,57.23Z"/></g><g class="cls-21"><path class="cls-22" d="M93.65,57.49a1.66,1.66,0,0,0-.15.18l-.07.09-.08.09a.39.39,0,0,1-.08.1l-.09.11-.08.1-.09.1-.08.09-.07.08a.38.38,0,0,1-.13.08h-.06s0,0,.06,0a.31.31,0,0,0,.18,0l.09-.07a.39.39,0,0,0,.1-.08.47.47,0,0,0,.1-.1l.1-.1.08-.11a1,1,0,0,1,.08-.11l.06-.11,0-.11a.82.82,0,0,0,.06-.16Z"/></g><g class="cls-21"><path class="cls-22" d="M95.45,56.15a2.41,2.41,0,0,0,0,.27s0,.08,0,.13,0,.09,0,.14,0,.1,0,.15a.86.86,0,0,1,0,.16.76.76,0,0,1,0,.15v.15a.61.61,0,0,1,0,.14.53.53,0,0,1,0,.13v.1s0,.06,0,.09l0,.07,0-.06a.56.56,0,0,0,0-.08l0,0,0,0a.5.5,0,0,0,0-.13.4.4,0,0,0,0-.15.42.42,0,0,0,0-.16.86.86,0,0,0,0-.16.78.78,0,0,0,0-.16l0-.16,0-.14a.93.93,0,0,1,0-.13A2.1,2.1,0,0,0,95.45,56.15Z"/></g><g class="cls-21"><path class="cls-22" d="M96,54.89s0,.16,0,.4c0,.05,0,.12,0,.19s0,.13,0,.21l0,.22,0,.23,0,.23c0,.08,0,.15,0,.22a1.08,1.08,0,0,0,.05.21c0,.07,0,.13,0,.19l.08.28,0,.1v-.11c0-.07,0-.17,0-.29a1.11,1.11,0,0,1,0-.19c0-.06,0-.14,0-.21a1.7,1.7,0,0,0,0-.22l0-.24,0-.23-.06-.22a1.6,1.6,0,0,0,0-.21,1.21,1.21,0,0,0,0-.18Z"/></g><path class="cls-18" d="M95,62.89c3.13,1.11,5.39-2.16,5.39-2.16a4.18,4.18,0,0,0,2-3.13,8.69,8.69,0,0,0-.47-3.92c-.11,0-.1-.23-.1-.23a8.11,8.11,0,0,0-2.75-4.39c-.51-.44-.84-.31-1.57-.2l-2,2.94s.39.51.34.56a1.4,1.4,0,0,0-.17,1s0,.09,0,.14a10.27,10.27,0,0,0,.75,2.57,2.69,2.69,0,0,0-.39.88,5,5,0,0,0-1.61,1.16,2.08,2.08,0,0,0-1.85.31c-.45-1.16-2.91-2.79-2.91-2.79S88.6,55.1,88.89,57a7.14,7.14,0,0,0,2.16,3.5A5.75,5.75,0,0,0,95,62.89Z"/><path class="cls-23" d="M95.72,53.49h0a5.72,5.72,0,0,0,3.39-4.42c-1.91-1.83-3.33,1.16-3.75,2.1a2.16,2.16,0,0,0,0,1.87Z"/><path class="cls-23" d="M101.14,60.22a7.5,7.5,0,0,1-2.47-1.78,3.78,3.78,0,0,0-2.55-1.51,4.82,4.82,0,0,1,2.26,1.81A8.82,8.82,0,0,0,100.21,61s.13-.17.23-.33A1.88,1.88,0,0,0,101.14,60.22Z"/><path class="cls-23" d="M102.29,54.68a2.9,2.9,0,0,1-1.51.39,7.16,7.16,0,0,0-4,.77s1.48-1.42,2.48-1.48a3.91,3.91,0,0,0,2.67-.91A5.43,5.43,0,0,1,102.29,54.68Z"/><path class="cls-23" d="M94.51,58.09a5.32,5.32,0,0,1,.8,2.1c0,.86-.14,1.61,0,2a5.93,5.93,0,0,0,.36.89,2,2,0,0,1-.58-.16,4.64,4.64,0,0,1-.6-.12s-.33-1.07-.18-1.39a3.92,3.92,0,0,0,.46-1.57,6.44,6.44,0,0,0-.33-1.76Z"/><path class="cls-23" d="M92.66,58.4a2.45,2.45,0,0,1-.17,1.4,2,2,0,0,1-1.27,1l-.17-.28-.14-.13a1.54,1.54,0,0,0,1.23-.42A2.61,2.61,0,0,0,92.66,58.4Z"/><path class="cls-16" d="M100,59.08c1.09.64,1.49.05,1.87-.94a4,4,0,0,0,0-2.64c-.18-.19-1.11,0-1.75-.07s-2.23.32-2.31,1S99.47,58.77,100,59.08Z"/><path class="cls-24" d="M101.54,56.38c0,.56.08,1.85-.6,2.13s-.3-.85-.41-1.16c-.16-.49-.8-.7,0-1C100.81,56.18,101.49,55.85,101.54,56.38Z"/><path class="cls-16" d="M95.83,62.28c.27.54,1.9.29,2.48,0a1.37,1.37,0,0,0,.74-2A7.63,7.63,0,0,0,97.13,58c-.39-.1-1.25.88-1.29,1.49A9.59,9.59,0,0,0,95.83,62.28Z"/><path class="cls-16" d="M92.64,61.62c.76.55,1.24.45,1.31.22s0-.73.22-1a1.68,1.68,0,0,0-.09-1.56c-.35-.39-1.22.73-1.44.95S91.76,61,92.64,61.62Z"/><path class="cls-24" d="M97.59,59.55a2.48,2.48,0,0,1,.94,1.3c.11.64-.58.84-1,1s-1.56.25-1.39-.71c.06-.36.3-.67.38-1,0-.2,0-.43.19-.58S97.27,59.33,97.59,59.55Z"/><path class="cls-24" d="M93.84,60.46l0,.06Z"/><path class="cls-24" d="M92.93,60.46c.39-.35,1.1-.49.84.17l0-.11c-.16.41-.12,1-.69.72S92.58,60.78,92.93,60.46Z"/><path class="cls-16" d="M90.06,57.26c.09.23.06.52.15.77a2.53,2.53,0,0,0,.35.62c.15.22.39.7.71.73s.2-.09.36-.27.29-.33.39-.33c.26,0,.25.17.14.37a2.49,2.49,0,0,1-.49.63c-.42.37-.83.39-1.17-.11-.54-.8-1.13-1.37-.78-2.37C89.83,57,89.9,56.91,90.06,57.26Z"/><path class="cls-16" d="M97.36,53.19a14.07,14.07,0,0,0,1.44-1.65c.16-.23.24-.8.47-.94.53-.31,1.22,1.3,1.45,1.68.33.55.61,1.24-.14,1.48-.45.14-.94.1-1.4.24a3.44,3.44,0,0,1-1,.34C97.65,54.35,97,53.6,97.36,53.19Z"/><path class="cls-24" d="M100.35,52.51a.69.69,0,0,1,.1.48.46.46,0,0,1-.36.3,2.52,2.52,0,0,1-.48,0,2.78,2.78,0,0,0-1.13.29.31.31,0,0,1-.26.06.25.25,0,0,1-.12-.16.64.64,0,0,1,.13-.51,3.41,3.41,0,0,1,.39-.37,3.25,3.25,0,0,0,.5-.61c.14-.21.4-.68.72-.47S100.23,52.28,100.35,52.51Z"/><path class="cls-11" d="M62.49,85.13c.4,2.77.57,5.77-.87,8.17-1.81,3-5.61,4.17-7.83,6.87A14.12,14.12,0,0,0,50.63,96a8.12,8.12,0,0,1-1.21-7.41,1.72,1.72,0,0,1,.85-1.12.57.57,0,0,1-.55-.09,18.89,18.89,0,0,1,2.73-3.62c-.17,0-.17-.26-.09-.42a6.78,6.78,0,0,1,6-3.5C61.29,79.85,62.12,82.6,62.49,85.13Z"/><path class="cls-12" d="M57.43,85.19a15.48,15.48,0,0,0-.28,2.14,24.78,24.78,0,0,1-3.72,11.94c.74-1.93,1.43-3.82,2-5.8.22-.75.44-1.5.6-2.27.39-1.79.46-3.62.7-5.43a16.55,16.55,0,0,1,.57-2.8c.17-.55.91-3.27,1.56-3.34,1-.11-.49,2.29-.64,2.6A10.74,10.74,0,0,0,57.43,85.19Z"/><path class="cls-13" d="M53.42,83.39a23.83,23.83,0,0,0-2.59,3.25l.45,0a9.86,9.86,0,0,0-1,2.14l.43,0a7.48,7.48,0,0,0-.57,2.63A3.56,3.56,0,0,0,51.07,94l.3-.35A27.54,27.54,0,0,1,53,97.52a5.64,5.64,0,0,0,1.5-1.89,8.68,8.68,0,0,0,.63-1.86c.68-2.85.79-5.82,1.68-8.6a13.56,13.56,0,0,0,.57-2c.16-1,.09-2.16-1.12-1.76A7.75,7.75,0,0,0,53.42,83.39Z"/><path class="cls-14" d="M62,87.91c.21,1.12.38,2.4-.32,3.3-.17.21-.38.39-.56.59-.72.8-1,2-2,2.51a5.22,5.22,0,0,1-.74-3c0-1,.16-2.07.16-3.11s-1-6.24.81-6.21c.88,0,1.53,1.85,1.78,2.51A19.76,19.76,0,0,1,62,87.91Z"/><path class="cls-15" d="M59.61,76.89c-.4.17-1,2-1.15,2.45-.44.93-.88,1.88-1.24,2.86a5.39,5.39,0,0,0-1.07.39,18.43,18.43,0,0,0-2.64.84,5.56,5.56,0,0,0-2.75,2.92,9.57,9.57,0,0,1,6.29-3.68h0a13.15,13.15,0,0,0-.48,1.87c-.07.38-.11.76-.15,1.15A11.08,11.08,0,0,0,54.84,87a18.31,18.31,0,0,0-3.55,3.31A6,6,0,0,0,50,94.87a7.35,7.35,0,0,1,1.76-4.73,15.57,15.57,0,0,1,4-3.26,5,5,0,0,0,.63-.46c0,.27,0,.54-.07.81a38.35,38.35,0,0,1-1,5.92c-.22,0-.52.14-.68.14a3.28,3.28,0,0,0-.7,0,5,5,0,0,0-.53.23c-.36.14-.79.09-1.12.29a1.43,1.43,0,0,0-.46.54,4.79,4.79,0,0,0-.58,1.88l.84-1.31a3.31,3.31,0,0,1,.59-.75,3,3,0,0,1,2.26-.46,1.24,1.24,0,0,0,.25,0c-.48,1.89-1.07,3.75-1.72,5.59A24,24,0,0,0,56.3,91.6l.09-.52c.23.2.6.38.8.57a4.57,4.57,0,0,1,1.19,2,3.43,3.43,0,0,1,.14,1,.44.44,0,0,0,0-.1,3.27,3.27,0,0,0-1.34-3.38,4.94,4.94,0,0,1-.7-.75c.11-.79.2-1.58.3-2.37l0,0c.26.25.76.39,1.06.63a9.67,9.67,0,0,1,1.64,1.8,5.72,5.72,0,0,1,1,1.54,4.31,4.31,0,0,0-.94-2l-.66-.93a4.54,4.54,0,0,0-.55-.68,4.31,4.31,0,0,0-.59-.44L57,87.49l-.12-.06a25.49,25.49,0,0,1,.9-4.57l.12.14c.43.44,1.18.69,1.67,1.11a6.4,6.4,0,0,1,1.31,1.53,12.49,12.49,0,0,1,1.37,4.24l-.51-2.62a6.68,6.68,0,0,0-.27-1.09,6.3,6.3,0,0,0-1.81-2.42A7.58,7.58,0,0,0,58,82.32a10.24,10.24,0,0,1,1-2,13.2,13.2,0,0,0,1.14-1.91C60.21,78.06,60.5,76.51,59.61,76.89Z"/><path class="cls-15" d="M58.52,94.63a11.43,11.43,0,0,1-.39,1.61A3,3,0,0,0,58.52,94.63Z"/><path class="cls-16" d="M37.68,92.15A21,21,0,0,0,37,89a9.31,9.31,0,0,0-1.87-2.87l-.29.21.41,1a7.46,7.46,0,0,0-.77-.77l-.28.22-.13-.2-.35.48-.17-.23-.19.21a8.65,8.65,0,0,0,.94,2.2s-.6-.51-1-.8a2,2,0,0,0-.34.34,24.36,24.36,0,0,0,2.09,2.6,7.43,7.43,0,0,0,1.51,1.34,5.15,5.15,0,0,0,.57-.28A2.7,2.7,0,0,0,37.68,92.15Z"/><path class="cls-17" d="M34.94,86.28l-.13.1.41,1a14.15,14.15,0,0,1,1.7,2.75A11.75,11.75,0,0,0,34.94,86.28Z"/><path class="cls-17" d="M34.32,86.75l-.15.12a21.75,21.75,0,0,1,2,3.35A13.12,13.12,0,0,0,34.32,86.75Z"/><path class="cls-17" d="M33.81,87l-.12.16a27,27,0,0,1,2,2.9A17.22,17.22,0,0,0,33.81,87Z"/><path class="cls-17" d="M33.38,87.06a11,11,0,0,0,2.4,3.74s-1.61-.63-2.45-3.67Z"/><path class="cls-18" d="M37.14,92.53a2.7,2.7,0,0,0,.54-.38s-.09-.64-.27-1.47c.06.32.21,1.16,0,1.46s-1.83-.18-4.31-3.39l-.1.12a24.36,24.36,0,0,0,2.09,2.6,7.43,7.43,0,0,0,1.51,1.34A5.15,5.15,0,0,0,37.14,92.53Z"/><path class="cls-19" d="M33.56,87.16a16.06,16.06,0,0,0,2.5,3.72c1.2,1.07,1.48.88,1.33,0a11,11,0,0,0-1.2-3.22,18.93,18.93,0,0,1,.93,3.11,11.22,11.22,0,0,0-2-3.21,16,16,0,0,1,1.67,3.68,6.08,6.08,0,0,1-1-1.63,7.84,7.84,0,0,0,.45,1.15A14.42,14.42,0,0,1,33.56,87.16Z"/><path class="cls-20" d="M43.73,89.77a5.59,5.59,0,0,1-.06,1.46s.12-.42-.61-1.07-1.51.27-1.7.51c0,0,1-.41,1.43,0a1.53,1.53,0,0,1,.4,1.7,2.36,2.36,0,0,0-.81-1.29c-.67-.53-1.48.28-1.48.28s1.12-.09,1.41.25A1.16,1.16,0,0,1,42,93.54s.19-1.36-.9-1.63c0,0,.88,1.21.16,1.86,0,0-.1-1.72-1-2.17,0,0,.61,1.37,0,1.74S39.15,93,39.15,93s.64-.23.25-1.14c0,.09-.23,1.25-1.13.86s.18,2.06,2,2.51a4,4,0,0,0,4.05-1.48C44.89,92.89,45,90.54,43.73,89.77Z"/><g class="cls-21"><path class="cls-22" d="M42,93.4a.18.18,0,0,1,0,0l0,.12,0,.08,0,.08a.29.29,0,0,1,0,.09.42.42,0,0,1,0,.1l0,.09,0,.09,0,.08,0,.08,0,.12v0l0,0,.09-.09.05-.07.06-.08a1,1,0,0,0,0-.1.3.3,0,0,0,0-.1l0-.1s0-.07,0-.1,0-.07,0-.1v-.09a.74.74,0,0,1,0-.12Z"/></g><g class="cls-21"><path class="cls-22" d="M41.34,93.65l-.15.18-.07.09a.86.86,0,0,0-.07.1l-.09.1-.08.1-.09.1-.09.1-.08.09-.07.08a.31.31,0,0,1-.13.09h-.06a.14.14,0,0,0,.06,0,.33.33,0,0,0,.18,0l.1-.07.09-.08.1-.09a.52.52,0,0,0,.1-.11.44.44,0,0,0,.08-.11.44.44,0,0,0,.08-.11l.06-.11a.93.93,0,0,0,0-.1,1.16,1.16,0,0,0,.06-.16Z"/></g><g class="cls-21"><path class="cls-22" d="M43.14,92.31a2.41,2.41,0,0,0,0,.27s0,.09,0,.13,0,.1,0,.15,0,.1,0,.15,0,.1,0,.15v.45s0,.08,0,.12v.11s0,.06,0,.08l0,.07.05-.06,0-.07,0,0,0-.06a.84.84,0,0,1,0-.12.77.77,0,0,0,0-.15.88.88,0,0,0,0-.16c0-.06,0-.11,0-.17a.88.88,0,0,0,0-.16.9.9,0,0,0,0-.16l0-.14,0-.12A1.92,1.92,0,0,0,43.14,92.31Z"/></g><g class="cls-21"><path class="cls-22" d="M43.66,91.06s0,.16,0,.39l0,.19,0,.21,0,.22,0,.24,0,.23c0,.07,0,.15,0,.22s0,.14,0,.21,0,.13,0,.18.06.21.08.28l0,.1v-.1c0-.07,0-.17,0-.29s0-.12,0-.19l0-.21,0-.23L44,92.28l0-.23,0-.23-.06-.2a1.05,1.05,0,0,0,0-.19A3.77,3.77,0,0,0,43.66,91.06Z"/></g><path class="cls-18" d="M42.73,99.05c3.13,1.12,5.39-2.15,5.39-2.15a4.24,4.24,0,0,0,2.05-3.14,8.72,8.72,0,0,0-.48-3.91c-.11,0-.1-.24-.1-.24a8.09,8.09,0,0,0-2.74-4.38c-.52-.45-.85-.32-1.58-.21l-2,2.94s.39.52.35.57a1.28,1.28,0,0,0-.18,1s0,.09,0,.14a10.6,10.6,0,0,0,.75,2.57,2.8,2.8,0,0,0-.39.89,5,5,0,0,0-1.61,1.15,2.12,2.12,0,0,0-1.85.31c-.45-1.15-2.91-2.79-2.91-2.79s-1.15-.5-.85,1.36a7.13,7.13,0,0,0,2.15,3.51A5.72,5.72,0,0,0,42.73,99.05Z"/><path class="cls-23" d="M43.41,89.66l0,0a5.74,5.74,0,0,0,3.4-4.41c-1.92-1.84-3.34,1.15-3.76,2.09a2.18,2.18,0,0,0,0,1.88Z"/><path class="cls-23" d="M48.83,96.38a7.4,7.4,0,0,1-2.46-1.78,3.8,3.8,0,0,0-2.56-1.5,4.77,4.77,0,0,1,2.26,1.8,8.82,8.82,0,0,0,1.83,2.28l.24-.33A1.89,1.89,0,0,0,48.83,96.38Z"/><path class="cls-23" d="M50,90.84a2.84,2.84,0,0,1-1.5.4,7.24,7.24,0,0,0-4,.76s1.48-1.42,2.48-1.47a3.92,3.92,0,0,0,2.67-.92A5.43,5.43,0,0,1,50,90.84Z"/><path class="cls-23" d="M42.2,94.25a5.32,5.32,0,0,1,.8,2.1c0,.86-.14,1.61,0,2a5.48,5.48,0,0,0,.36.89,2,2,0,0,1-.58-.16s-.31,0-.6-.11c0,0-.33-1.08-.18-1.4A3.92,3.92,0,0,0,42.41,96a6.53,6.53,0,0,0-.33-1.76Z"/><path class="cls-23" d="M40.35,94.56a2.36,2.36,0,0,1-.17,1.4,1.94,1.94,0,0,1-1.26,1l-.18-.27-.14-.13a1.61,1.61,0,0,0,1.24-.42A2.69,2.69,0,0,0,40.35,94.56Z"/><path class="cls-16" d="M47.69,95.24c1.09.64,1.49.05,1.87-.94a4,4,0,0,0,0-2.64c-.18-.18-1.11,0-1.74-.07s-2.24.32-2.31,1S47.17,94.94,47.69,95.24Z"/><path class="cls-24" d="M49.23,92.55c0,.55.08,1.84-.6,2.12s-.3-.85-.41-1.16c-.16-.48-.8-.7,0-1C48.5,92.34,49.19,92,49.23,92.55Z"/><path class="cls-16" d="M43.52,98.44c.27.54,1.9.3,2.49,0a1.37,1.37,0,0,0,.73-2,7.63,7.63,0,0,0-1.92-2.33c-.39-.09-1.25.89-1.28,1.5A9.21,9.21,0,0,0,43.52,98.44Z"/><path class="cls-16" d="M40.34,97.78c.76.55,1.23.46,1.3.22a3.87,3.87,0,0,1,.22-1,1.68,1.68,0,0,0-.09-1.56c-.35-.38-1.22.73-1.44,1S39.45,97.14,40.34,97.78Z"/><path class="cls-24" d="M45.28,95.71A2.58,2.58,0,0,1,46.23,97c.1.63-.59.83-1.06,1s-1.56.25-1.39-.71c.06-.35.3-.67.38-1s0-.44.19-.59A.72.72,0,0,1,45.28,95.71Z"/><path class="cls-24" d="M41.53,96.62l0,.07A.14.14,0,0,1,41.53,96.62Z"/><path class="cls-24" d="M40.63,96.63c.39-.35,1.09-.5.83.16l0-.1c-.17.41-.13,1-.7.71S40.27,97,40.63,96.63Z"/><path class="cls-16" d="M37.75,93.42c.1.23.06.53.15.77a2.63,2.63,0,0,0,.36.63c.14.22.38.7.7.72s.2-.09.36-.27.29-.33.39-.33c.26,0,.25.17.14.37a2.79,2.79,0,0,1-.49.64.7.7,0,0,1-1.17-.11c-.54-.8-1.13-1.38-.77-2.38C37.52,93.16,37.6,93.07,37.75,93.42Z"/><path class="cls-16" d="M45.06,89.35a15.84,15.84,0,0,0,1.43-1.64c.16-.24.24-.81.47-.95.53-.31,1.22,1.3,1.45,1.68.34.56.61,1.24-.14,1.48-.44.15-.94.1-1.4.25a3.65,3.65,0,0,1-1,.34C45.35,90.51,44.73,89.76,45.06,89.35Z"/><path class="cls-24" d="M48,88.68a.62.62,0,0,1,.1.47.48.48,0,0,1-.35.31,2.7,2.7,0,0,1-.49,0,2.63,2.63,0,0,0-1.13.29.31.31,0,0,1-.26,0,.23.23,0,0,1-.12-.15.66.66,0,0,1,.13-.51,2.79,2.79,0,0,1,.39-.38,3.19,3.19,0,0,0,.5-.6c.14-.22.41-.69.72-.48S47.93,88.45,48,88.68Z"/><path class="cls-16" d="M51.27,68a20.84,20.84,0,0,0,2.46-2,9.35,9.35,0,0,0,1.73-3l-.32-.17-.74.84a7.71,7.71,0,0,0,.34-1l-.32-.15.12-.2-.59-.1.14-.26-.28-.08a8.81,8.81,0,0,0-1.55,1.83s.19-.77.29-1.22a1.92,1.92,0,0,0-.46-.15,24.5,24.5,0,0,0-1.39,3,6.83,6.83,0,0,0-.52,1.94s.19.16.5.39A3.31,3.31,0,0,0,51.27,68Z"/><path class="cls-17" d="M55.29,62.89l-.15-.08-.74.84a13.54,13.54,0,0,1-1.71,2.74A11.78,11.78,0,0,0,55.29,62.89Z"/><path class="cls-17" d="M54.59,62.54l-.17-.08a20.21,20.21,0,0,1-2.12,3.26A12.56,12.56,0,0,0,54.59,62.54Z"/><path class="cls-17" d="M54.15,62.19l-.2,0a27.22,27.22,0,0,1-1.68,3.11A17,17,0,0,0,54.15,62.19Z"/><path class="cls-17" d="M53.89,61.84a10.91,10.91,0,0,0-2.27,3.82s-.15-1.73,2.19-3.84Z"/><path class="cls-18" d="M50.68,67.65a3.31,3.31,0,0,0,.59.31s.53-.37,1.19-.9c-.26.2-.94.7-1.32.63s-.66-1.72,1.1-5.38l-.15,0a24.5,24.5,0,0,0-1.39,3,6.83,6.83,0,0,0-.52,1.94S50.37,67.42,50.68,67.65Z"/><path class="cls-19" d="M53.88,62a15.83,15.83,0,0,0-2.2,3.9c-.42,1.56-.13,1.72.61,1.18a10.92,10.92,0,0,0,2.35-2.51,19.18,19.18,0,0,1-2.36,2.22,11.4,11.4,0,0,0,2-3.22,16.14,16.14,0,0,1-2.55,3.15,6.14,6.14,0,0,1,1-1.65,8.52,8.52,0,0,0-.83.92A15,15,0,0,1,53.88,62Z"/><path class="cls-20" d="M56.1,72.31a5.83,5.83,0,0,1-1.33.6s.42-.09.68-1-.91-1.23-1.21-1.29c0,0,.81.71.63,1.28A1.55,1.55,0,0,1,53.52,73a2.34,2.34,0,0,0,.8-1.3c.17-.84-.92-1.2-.92-1.2s.59,1,.41,1.37a1.15,1.15,0,0,1-1.83.62S53.27,72,53,70.94c0,0-.69,1.34-1.6,1,0,0,1.5-.86,1.49-1.87,0,0-1,1.16-1.56.75s-.18-1.15-.18-1.15.49.47,1.12-.29c-.06.07-1.21.35-1.27-.62s-1.76,1.08-1.36,2.9a4,4,0,0,0,3.14,3C53.83,74.74,56,73.79,56.1,72.31Z"/><g class="cls-21"><path class="cls-22" d="M52.1,72.42h-.05l-.12,0h-.08l-.09,0h-.1l-.09,0H51l0,0,.13,0,.08,0h.1a.34.34,0,0,0,.1,0h.11l.1,0a.29.29,0,0,0,.1,0l.09,0,.08,0,.1-.08Z"/></g><g class="cls-21"><path class="cls-22" d="M51.56,71.9l-.23-.05-.11,0-.12,0-.13,0-.13,0-.13,0-.12,0-.12,0-.1,0a.3.3,0,0,1-.14-.08.08.08,0,0,1,0,0h0s0,0,0,.07a.24.24,0,0,0,.12.13l.1.06a.43.43,0,0,0,.12,0l.12,0,.14,0,.14,0,.13,0h.41Z"/></g><g class="cls-21"><path class="cls-22" d="M53.56,72.91a2.1,2.1,0,0,0-.23.14l-.11.07-.12.08a.57.57,0,0,1-.13.08l-.13.08-.14.08-.13.07-.13,0-.12,0,0,0-.05,0-.08,0-.08,0h.28l.13,0,.15,0,.15-.06.14-.08.14-.09.12-.1.12-.09.09-.09A1.55,1.55,0,0,0,53.56,72.91Z"/></g><g class="cls-21"><path class="cls-22" d="M54.92,72.82l-.33.21-.16.11-.18.12-.18.14-.19.14-.18.14-.18.14-.17.14-.14.12-.22.19-.08.08.1-.06.25-.14.16-.1.18-.12.18-.13.19-.15.19-.14.17-.15.17-.14.14-.12Z"/></g><path class="cls-18" d="M47.35,75.56c.41,3.3,4.34,3.86,4.34,3.86a4.2,4.2,0,0,0,3.72.43,8.79,8.79,0,0,0,3.29-2.18c-.08-.08.17-.19.17-.19a8.2,8.2,0,0,0,2.69-4.42c.17-.66-.1-.9-.52-1.5l-3.53-.48s-.28.58-.35.57a1.29,1.29,0,0,0-.95.27l-.12.08a10.55,10.55,0,0,0-2,1.82,2.92,2.92,0,0,0-1,0,5,5,0,0,0-1.75-.92,2.14,2.14,0,0,0-1.11-1.52c.83-.91,1.2-3.84,1.2-3.84s-.07-1.26-1.6-.16a7.12,7.12,0,0,0-2.17,3.49A5.74,5.74,0,0,0,47.35,75.56Z"/><path class="cls-23" d="M56.06,72l0,0a5.74,5.74,0,0,0,5.47,1.06c.78-2.54-2.53-2.47-3.56-2.42a2.18,2.18,0,0,0-1.68.82Z"/><path class="cls-23" d="M52.47,79.82a7.52,7.52,0,0,1,.49-3,3.84,3.84,0,0,0,.2-3,4.77,4.77,0,0,1-.6,2.83,8.92,8.92,0,0,0-1.22,2.66l.4.06A1.71,1.71,0,0,0,52.47,79.82Z"/><path class="cls-23" d="M57.94,78.38a2.87,2.87,0,0,1-1-1.18,7.22,7.22,0,0,0-2.49-3.26s1.93.68,2.43,1.56a3.94,3.94,0,0,0,2,2A5.75,5.75,0,0,1,57.94,78.38Z"/><path class="cls-23" d="M51.41,72.94a5.46,5.46,0,0,1-1.52,1.66c-.76.4-1.51.59-1.78.83a5.54,5.54,0,0,0-.64.73,2.22,2.22,0,0,1-.12-.6s-.1-.3-.16-.58c0,0,.81-.78,1.16-.79A3.77,3.77,0,0,0,50,73.9a6.46,6.46,0,0,0,1.43-1.08Z"/><path class="cls-23" d="M50.3,71.42A2.35,2.35,0,0,1,49,71.9a2,2,0,0,1-1.41-.71l.17-.28.05-.18a1.59,1.59,0,0,0,.93.92A2.63,2.63,0,0,0,50.3,71.42Z"/><path class="cls-16" d="M53,78.29c-.09,1.27.62,1.36,1.68,1.26A4,4,0,0,0,57,78.36c.09-.25-.5-1-.72-1.59S55,74.9,54.35,75.16,53,77.69,53,78.29Z"/><path class="cls-24" d="M56.08,78.47c-.51.23-1.61.89-2.17.41s.63-.65.86-.88.26-1,.92-.49C55.94,77.72,56.53,78.19,56.08,78.47Z"/><path class="cls-16" d="M48.25,76c-.36.48.59,1.83,1.12,2.22a1.38,1.38,0,0,0,2.1-.23,7.63,7.63,0,0,0,1.23-2.76c-.09-.4-1.35-.72-1.91-.48A9.12,9.12,0,0,0,48.25,76Z"/><path class="cls-16" d="M47.42,72.85c-.16.93.14,1.31.38,1.27s.68-.28,1-.23a1.71,1.71,0,0,0,1.36-.79c.18-.48-1.2-.76-1.51-.86S47.59,71.78,47.42,72.85Z"/><path class="cls-24" d="M51.48,76.35a2.56,2.56,0,0,1-.74,1.43c-.52.37-1-.15-1.33-.51s-.92-1.29,0-1.57c.35-.1.74,0,1.09-.12s.4-.17.61-.09S51.53,76,51.48,76.35Z"/><path class="cls-24" d="M49,73.41h0Z"/><path class="cls-24" d="M48.58,72.6c.49.19.93.75.22.82h.12c-.44,0-.93.32-1-.3S48.14,72.42,48.58,72.6Z"/><path class="cls-16" d="M50.16,68.59c-.16.19-.44.29-.62.48a2.73,2.73,0,0,0-.4.6c-.13.23-.46.66-.34,1s.18.14.41.2.42.12.47.2c.12.23,0,.3-.27.3a3.15,3.15,0,0,1-.79-.16c-.51-.21-.72-.57-.42-1.09.47-.85.72-1.63,1.77-1.76C50.29,68.27,50.4,68.3,50.16,68.59Z"/><path class="cls-16" d="M57.07,73.3a13.92,13.92,0,0,0,2.11.55c.28,0,.83-.15,1,0,.52.34-.61,1.67-.85,2.05-.34.54-.83,1.1-1.38.54-.33-.34-.51-.8-.85-1.15s-.6-.44-.76-.75C56.16,74.08,56.55,73.19,57.07,73.3Z"/><path class="cls-24" d="M59,75.67a.72.72,0,0,1-.38.31.49.49,0,0,1-.43-.19,2,2,0,0,1-.26-.42,2.64,2.64,0,0,0-.76-.87c-.08-.06-.16-.12-.17-.21a.26.26,0,0,1,.09-.18.61.61,0,0,1,.51-.11,2.38,2.38,0,0,1,.51.18,3.45,3.45,0,0,0,.77.18c.25,0,.79,0,.74.43S59.16,75.47,59,75.67Z"/><path class="cls-16" d="M69.67,33.83a22.05,22.05,0,0,0,2.46-2,9.35,9.35,0,0,0,1.73-2.95l-.31-.17-.75.83a9.22,9.22,0,0,0,.35-1l-.33-.15.12-.2-.58-.1.13-.26-.27-.08a9,9,0,0,0-1.56,1.83s.19-.77.29-1.22a1.75,1.75,0,0,0-.46-.15,24.8,24.8,0,0,0-1.39,3,7.47,7.47,0,0,0-.52,2s.19.16.51.39A3.06,3.06,0,0,0,69.67,33.83Z"/><path class="cls-17" d="M73.69,28.76l-.14-.08-.75.83a13.78,13.78,0,0,1-1.7,2.75A11.83,11.83,0,0,0,73.69,28.76Z"/><path class="cls-17" d="M73,28.41l-.18-.08a20.65,20.65,0,0,1-2.11,3.26A13.07,13.07,0,0,0,73,28.41Z"/><path class="cls-17" d="M72.55,28.06l-.19,0a26.28,26.28,0,0,1-1.69,3.11A17,17,0,0,0,72.55,28.06Z"/><path class="cls-17" d="M72.3,27.71A10.75,10.75,0,0,0,70,31.53s-.16-1.73,2.19-3.84Z"/><path class="cls-18" d="M69.09,33.52a3.06,3.06,0,0,0,.58.31s.53-.37,1.19-.9c-.26.2-.94.7-1.31.63s-.67-1.72,1.1-5.38l-.16,0a24.8,24.8,0,0,0-1.39,3,7.47,7.47,0,0,0-.52,2S68.77,33.29,69.09,33.52Z"/><path class="cls-19" d="M72.28,27.91a16.17,16.17,0,0,0-2.2,3.9c-.42,1.55-.13,1.72.62,1.18A10.76,10.76,0,0,0,73,30.48a19.18,19.18,0,0,1-2.36,2.22,11.15,11.15,0,0,0,2-3.22,16.39,16.39,0,0,1-2.54,3.15,5.86,5.86,0,0,1,1-1.65,8.52,8.52,0,0,0-.83.92A14.76,14.76,0,0,1,72.28,27.91Z"/><path class="cls-20" d="M74.51,38.17a5.54,5.54,0,0,1-1.34.6s.43-.08.68-1-.91-1.23-1.21-1.29c0,0,.82.71.63,1.28a1.54,1.54,0,0,1-1.34,1.12,2.35,2.35,0,0,0,.79-1.3c.18-.84-.91-1.2-.91-1.2s.58,1,.41,1.37a1.16,1.16,0,0,1-1.84.62s1.3-.44,1.06-1.54c0,0-.69,1.34-1.6,1,0,0,1.49-.86,1.49-1.87,0,0-1,1.16-1.57.75s-.18-1.15-.18-1.15.49.47,1.13-.29c-.06.07-1.22.35-1.27-.63s-1.76,1.09-1.36,2.91a4,4,0,0,0,3.13,3C72.24,40.61,74.39,39.66,74.51,38.17Z"/><g class="cls-21"><path class="cls-22" d="M70.51,38.29h-.05l-.13,0h-.08l-.09,0h-.09l-.1,0h-.54l0,0,.12,0,.08,0H70l.11,0,.1,0,.09,0,.07,0,.11-.08Z"/></g><g class="cls-21"><path class="cls-22" d="M70,37.77l-.23-.05-.1,0-.12,0-.13,0-.13,0-.13,0-.13,0-.12,0-.1,0a.26.26,0,0,1-.13-.08s0,0,0,0h0a.12.12,0,0,0,0,.07.29.29,0,0,0,.12.13l.1.06.12.05.13,0,.13,0,.14,0,.14,0h.24l.17,0Z"/></g><g class="cls-21"><path class="cls-22" d="M72,38.78l-.23.14-.11.07-.12.08a3008086743796.13,3008086743796.13,0,0,1-.26.16l-.13.08-.14.06-.13.06-.11,0-.06,0,0,0-.08,0-.07,0h.27l.14,0,.14,0,.15-.06.15-.08.13-.09.13-.1.11-.09.09-.09A1.55,1.55,0,0,0,72,38.78Z"/></g><g class="cls-21"><path class="cls-22" d="M73.32,38.69,73,38.9l-.16.11-.17.12-.19.14-.18.14-.19.14-.18.14-.16.14-.15.12-.21.19-.08.07.09-.05.25-.14.16-.1L72,39.8l.19-.14.19-.14.18-.14.18-.15.16-.14A.86.86,0,0,0,73,39C73.22,38.8,73.32,38.69,73.32,38.69Z"/></g><path class="cls-18" d="M65.76,41.43c.4,3.3,4.34,3.86,4.34,3.86a4.22,4.22,0,0,0,3.71.43,8.82,8.82,0,0,0,3.29-2.18c-.07-.08.17-.19.17-.19A8.14,8.14,0,0,0,80,38.93c.17-.66-.1-.9-.52-1.5L75.91,37s-.28.58-.34.57-.43,0-.95.27l-.12.08a9.89,9.89,0,0,0-2,1.82,3,3,0,0,0-1,0,4.93,4.93,0,0,0-1.75-.92,2.11,2.11,0,0,0-1.1-1.52c.83-.91,1.19-3.84,1.19-3.84s-.06-1.26-1.6-.16a7.12,7.12,0,0,0-2.17,3.49A5.76,5.76,0,0,0,65.76,41.43Z"/><path class="cls-23" d="M74.46,37.84l0,0A5.72,5.72,0,0,0,80,38.93c.78-2.54-2.52-2.47-3.55-2.42a2.15,2.15,0,0,0-1.68.82Z"/><path class="cls-23" d="M70.87,45.69a7.58,7.58,0,0,1,.49-3,3.77,3.77,0,0,0,.2-3,4.77,4.77,0,0,1-.6,2.83,8.92,8.92,0,0,0-1.22,2.66l.4.06A1.79,1.79,0,0,0,70.87,45.69Z"/><path class="cls-23" d="M76.34,44.25a2.88,2.88,0,0,1-1-1.18,7.22,7.22,0,0,0-2.49-3.26s1.93.68,2.43,1.56a3.92,3.92,0,0,0,2,2A5.75,5.75,0,0,1,76.34,44.25Z"/><path class="cls-23" d="M69.81,38.81a5.46,5.46,0,0,1-1.52,1.66c-.76.4-1.5.59-1.78.83a5.54,5.54,0,0,0-.64.73,2,2,0,0,1-.11-.6,5,5,0,0,1-.17-.58s.81-.78,1.17-.79a3.79,3.79,0,0,0,1.61-.29,6.74,6.74,0,0,0,1.43-1.08Z"/><path class="cls-23" d="M68.71,37.29a2.38,2.38,0,0,1-1.33.48A1.94,1.94,0,0,1,66,37.06l.16-.28.05-.18a1.59,1.59,0,0,0,.93.92A2.67,2.67,0,0,0,68.71,37.29Z"/><path class="cls-16" d="M71.38,44.16c-.08,1.27.63,1.36,1.68,1.26a4.07,4.07,0,0,0,2.36-1.19c.08-.25-.5-1-.72-1.6s-1.29-1.86-2-1.61S71.42,43.56,71.38,44.16Z"/><path class="cls-24" d="M74.48,44.34c-.5.23-1.61.89-2.17.41s.63-.65.86-.88.26-1,.92-.49C74.34,43.59,74.94,44.06,74.48,44.34Z"/><path class="cls-16" d="M66.66,41.87c-.37.48.58,1.83,1.11,2.22a1.38,1.38,0,0,0,2.1-.23A7.46,7.46,0,0,0,71.1,41.1c-.09-.4-1.35-.72-1.91-.49A9.35,9.35,0,0,0,66.66,41.87Z"/><path class="cls-16" d="M65.82,38.72c-.15.93.15,1.31.38,1.27a3.83,3.83,0,0,1,1-.24A1.69,1.69,0,0,0,68.53,39c.19-.48-1.2-.76-1.5-.86S66,37.64,65.82,38.72Z"/><path class="cls-24" d="M69.88,42.22a2.5,2.5,0,0,1-.74,1.43c-.52.37-1-.15-1.33-.52s-.92-1.28,0-1.56c.34-.1.73,0,1.08-.12s.4-.17.61-.09S69.94,41.83,69.88,42.22Z"/><path class="cls-24" d="M67.39,39.28h0Z"/><path class="cls-24" d="M67,38.47c.49.19.94.75.23.81h.11c-.44,0-.92.32-.95-.3S66.54,38.29,67,38.47Z"/><path class="cls-16" d="M68.56,34.46c-.16.19-.44.29-.62.48a2.73,2.73,0,0,0-.4.6c-.13.23-.45.66-.33,1s.17.14.4.2.43.11.47.2,0,.3-.27.3A3,3,0,0,1,67,37c-.52-.21-.72-.57-.43-1.09.48-.85.73-1.63,1.78-1.76C68.7,34.14,68.81,34.17,68.56,34.46Z"/><path class="cls-16" d="M75.47,39.17a14.24,14.24,0,0,0,2.11.55c.28,0,.83-.15,1.06,0,.52.34-.62,1.67-.85,2.05-.35.54-.84,1.1-1.39.54-.33-.34-.51-.8-.85-1.15s-.6-.44-.75-.75S75,39.06,75.47,39.17Z"/><path class="cls-24" d="M77.41,41.54a.72.72,0,0,1-.38.31.52.52,0,0,1-.43-.19,1.94,1.94,0,0,1-.25-.42,2.67,2.67,0,0,0-.77-.87c-.07-.06-.16-.12-.16-.21A.22.22,0,0,1,75.5,40a.64.64,0,0,1,.52-.11,2.59,2.59,0,0,1,.51.18,3.24,3.24,0,0,0,.76.18c.25,0,.79.05.75.43S77.56,41.34,77.41,41.54Z"/><path class="cls-16" d="M26.91,37.47a20.84,20.84,0,0,0,2.46-2,9.35,9.35,0,0,0,1.73-2.95l-.32-.17-.74.84a8.89,8.89,0,0,0,.35-1L30.06,32l.12-.2-.59-.1.14-.26-.28-.08a9.15,9.15,0,0,0-1.55,1.83s.19-.77.29-1.22a1.75,1.75,0,0,0-.46-.15,24.5,24.5,0,0,0-1.39,3,7.37,7.37,0,0,0-.52,1.94,5.57,5.57,0,0,0,.51.39A2.5,2.5,0,0,0,26.91,37.47Z"/><path class="cls-17" d="M30.93,32.4l-.15-.08-.74.84a13.81,13.81,0,0,1-1.7,2.74A11.83,11.83,0,0,0,30.93,32.4Z"/><path class="cls-17" d="M30.23,32.05,30.06,32A20.65,20.65,0,0,1,28,35.23,12.66,12.66,0,0,0,30.23,32.05Z"/><path class="cls-17" d="M29.79,31.7l-.2,0a27.22,27.22,0,0,1-1.68,3.11A17,17,0,0,0,29.79,31.7Z"/><path class="cls-17" d="M29.53,31.35a11,11,0,0,0-2.27,3.82s-.15-1.73,2.19-3.84Z"/><path class="cls-18" d="M26.33,37.16a2.5,2.5,0,0,0,.58.31s.53-.37,1.19-.9c-.26.2-.94.7-1.32.63s-.66-1.72,1.1-5.38l-.15,0a24.5,24.5,0,0,0-1.39,3,7.37,7.37,0,0,0-.52,1.94A5.57,5.57,0,0,0,26.33,37.16Z"/><path class="cls-19" d="M29.52,31.55a15.83,15.83,0,0,0-2.2,3.9c-.42,1.56-.13,1.72.62,1.18a11,11,0,0,0,2.34-2.51,19.18,19.18,0,0,1-2.36,2.22,11.4,11.4,0,0,0,2-3.22,16.14,16.14,0,0,1-2.55,3.15,6.31,6.31,0,0,1,1-1.65,8.52,8.52,0,0,0-.83.92A15,15,0,0,1,29.52,31.55Z"/><path class="cls-20" d="M31.75,41.82a6,6,0,0,1-1.34.6s.43-.09.68-1-.91-1.23-1.21-1.29c0,0,.81.72.63,1.28a1.55,1.55,0,0,1-1.35,1.12,2.34,2.34,0,0,0,.8-1.3C30.13,40.36,29,40,29,40s.59,1,.42,1.37a1.16,1.16,0,0,1-1.84.62s1.3-.44,1.05-1.54c0,0-.69,1.34-1.59,1,0,0,1.49-.86,1.48-1.87,0,0-.95,1.16-1.56.75s-.18-1.15-.18-1.15.49.47,1.13-.29c-.07.07-1.22.35-1.28-.62s-1.76,1.08-1.35,2.9a4,4,0,0,0,3.13,3C29.47,44.25,31.63,43.3,31.75,41.82Z"/><g class="cls-21"><path class="cls-22" d="M27.74,41.93h0l-.12,0h-.08l-.09,0-.09,0h-.64l0,0,.13,0,.08,0h.31l.1,0a.29.29,0,0,0,.1,0l.09,0,.08,0,.11-.08Z"/></g><g class="cls-21"><path class="cls-22" d="M27.2,41.41l-.23,0-.11,0-.12,0-.12,0-.13,0-.13,0-.13,0-.12,0-.1,0a.26.26,0,0,1-.13-.08l0,0v0a.12.12,0,0,0,0,.07.29.29,0,0,0,.12.13.53.53,0,0,0,.1.06l.12.05.13,0,.13,0,.14,0,.13,0h.42Z"/></g><g class="cls-21"><path class="cls-22" d="M29.2,42.42l-.23.14-.11.07-.12.08a.57.57,0,0,1-.13.08l-.13.08-.14.08-.13.07-.13,0-.12,0-.05,0-.05,0-.08,0-.07,0H28l.13,0,.15,0,.15-.06.14-.08.14-.09.13-.1.11-.09.09-.09A1.55,1.55,0,0,0,29.2,42.42Z"/></g><g class="cls-21"><path class="cls-22" d="M30.56,42.33l-.33.21-.16.11-.17.12-.19.14-.19.14-.18.14-.18.14-.17.14-.14.12-.22.19-.08.08.1-.06.25-.14.16-.1.18-.12.18-.13.19-.15L29.8,43l.18-.15.16-.14.14-.12Z"/></g><path class="cls-18" d="M23,45.08c.4,3.29,4.33,3.85,4.33,3.85a4.2,4.2,0,0,0,3.72.43,8.79,8.79,0,0,0,3.29-2.18c-.08-.08.17-.19.17-.19a8.14,8.14,0,0,0,2.69-4.42c.17-.66-.1-.9-.52-1.5l-3.53-.48s-.28.58-.35.57-.42,0-.95.28l-.11.07a10.22,10.22,0,0,0-2,1.82,2.92,2.92,0,0,0-1,0,4.93,4.93,0,0,0-1.75-.92A2.13,2.13,0,0,0,26,40.93c.83-.91,1.19-3.84,1.19-3.84s-.07-1.26-1.6-.16a7.12,7.12,0,0,0-2.17,3.49A5.74,5.74,0,0,0,23,45.08Z"/><path class="cls-23" d="M31.7,41.48l0,0a5.72,5.72,0,0,0,5.46,1.06C38,40,34.68,40.1,33.64,40.15A2.18,2.18,0,0,0,32,41Z"/><path class="cls-23" d="M28.11,49.33a7.52,7.52,0,0,1,.49-3,3.8,3.8,0,0,0,.2-3,4.77,4.77,0,0,1-.6,2.83A8.92,8.92,0,0,0,27,48.86l.4.06A1.71,1.71,0,0,0,28.11,49.33Z"/><path class="cls-23" d="M33.58,47.89a2.87,2.87,0,0,1-1-1.18,7.15,7.15,0,0,0-2.49-3.26S32,44.13,32.49,45a3.94,3.94,0,0,0,2,2A5.75,5.75,0,0,1,33.58,47.89Z"/><path class="cls-23" d="M27.05,42.45a5.46,5.46,0,0,1-1.52,1.66c-.76.4-1.51.59-1.78.83a5.54,5.54,0,0,0-.64.73,2,2,0,0,1-.11-.59,5.56,5.56,0,0,1-.17-.59s.81-.78,1.16-.79a3.81,3.81,0,0,0,1.62-.29A6.74,6.74,0,0,0,27,42.33Z"/><path class="cls-23" d="M26,40.93a2.38,2.38,0,0,1-1.33.48,2,2,0,0,1-1.42-.71l.17-.28.05-.18a1.59,1.59,0,0,0,.93.92A2.67,2.67,0,0,0,26,40.93Z"/><path class="cls-16" d="M28.62,47.8c-.08,1.27.62,1.36,1.68,1.26a4.07,4.07,0,0,0,2.36-1.19c.08-.25-.51-1-.72-1.59s-1.29-1.87-2-1.61S28.66,47.2,28.62,47.8Z"/><path class="cls-24" d="M31.72,48c-.5.23-1.61.89-2.17.41s.63-.65.86-.88.26-1,.92-.49C31.58,47.23,32.18,47.7,31.72,48Z"/><path class="cls-16" d="M23.89,45.51c-.36.48.59,1.83,1.12,2.22a1.38,1.38,0,0,0,2.1-.23,7.46,7.46,0,0,0,1.23-2.76c-.09-.39-1.35-.72-1.91-.48A9.26,9.26,0,0,0,23.89,45.51Z"/><path class="cls-16" d="M23.06,42.36c-.15.93.14,1.31.38,1.27s.68-.28,1-.23a1.71,1.71,0,0,0,1.36-.79c.18-.48-1.2-.76-1.5-.86S23.23,41.29,23.06,42.36Z"/><path class="cls-24" d="M27.12,45.86a2.5,2.5,0,0,1-.74,1.43c-.52.37-1-.15-1.33-.51s-.92-1.29,0-1.57c.35-.1.74,0,1.09-.12s.4-.17.61-.09S27.18,45.47,27.12,45.86Z"/><path class="cls-24" d="M24.63,42.92h0Z"/><path class="cls-24" d="M24.22,42.11c.49.19.94.75.22.82h.12c-.44,0-.93.32-.95-.3S23.78,41.93,24.22,42.11Z"/><path class="cls-16" d="M25.8,38.1c-.16.19-.44.29-.62.48a2.73,2.73,0,0,0-.4.6c-.13.23-.45.66-.34,1s.18.14.41.2.42.12.47.2,0,.3-.27.3a2.59,2.59,0,0,1-.78-.16c-.52-.21-.73-.57-.43-1.09.48-.84.72-1.63,1.77-1.76C25.94,37.78,26,37.81,25.8,38.1Z"/><path class="cls-16" d="M32.71,42.81a14.24,14.24,0,0,0,2.11.55c.28,0,.83-.15,1.06,0,.51.34-.62,1.67-.85,2-.35.54-.84,1.1-1.39.54-.33-.34-.51-.8-.85-1.15s-.6-.44-.76-.75S32.19,42.7,32.71,42.81Z"/><path class="cls-24" d="M34.65,45.18a.72.72,0,0,1-.38.31.47.47,0,0,1-.43-.19,1.61,1.61,0,0,1-.25-.42,2.79,2.79,0,0,0-.77-.87c-.08-.06-.16-.12-.17-.21a.26.26,0,0,1,.09-.18.62.62,0,0,1,.51-.11,4.56,4.56,0,0,1,.52.18,3.24,3.24,0,0,0,.76.18c.25,0,.79.05.75.43S34.8,45,34.65,45.18Z"/><path class="cls-16" d="M21.94,67.18a22,22,0,0,0-.79-3.09,9.35,9.35,0,0,0-1.94-2.82l-.29.21.44,1a8.63,8.63,0,0,0-.78-.75L18.3,62l-.13-.2-.34.49-.18-.23-.18.22a8.77,8.77,0,0,0,1,2.18l-1-.78a2.19,2.19,0,0,0-.34.35,25.23,25.23,0,0,0,2.16,2.55,7.26,7.26,0,0,0,1.54,1.3s.23-.1.57-.29A2.87,2.87,0,0,0,21.94,67.18Z"/><path class="cls-17" d="M19.06,61.38l-.14.1.44,1a13.88,13.88,0,0,1,1.76,2.71A11.72,11.72,0,0,0,19.06,61.38Z"/><path class="cls-17" d="M18.45,61.87,18.3,62a21,21,0,0,1,2.05,3.3A12.8,12.8,0,0,0,18.45,61.87Z"/><path class="cls-17" d="M17.94,62.12l-.11.16a26.55,26.55,0,0,1,2.1,2.85A16.73,16.73,0,0,0,17.94,62.12Z"/><path class="cls-17" d="M17.52,62.2A10.85,10.85,0,0,0,20,65.88s-1.64-.6-2.54-3.61Z"/><path class="cls-18" d="M21.41,67.58a2.87,2.87,0,0,0,.53-.4s-.11-.64-.31-1.46c.07.32.24,1.15,0,1.46s-1.84-.13-4.4-3.28l-.1.12a25.23,25.23,0,0,0,2.16,2.55,7.26,7.26,0,0,0,1.54,1.3S21.07,67.77,21.41,67.58Z"/><path class="cls-19" d="M17.69,62.3A15.74,15.74,0,0,0,20.29,66c1.22,1,1.49.85,1.32-.06a11,11,0,0,0-1.27-3.19,19.2,19.2,0,0,1,1,3.09,11.09,11.09,0,0,0-2.07-3.16A16.09,16.09,0,0,1,21,66.27,6.08,6.08,0,0,1,20,64.66a8.89,8.89,0,0,0,.48,1.14A14.85,14.85,0,0,1,17.69,62.3Z"/><path class="cls-20" d="M27.93,64.65a5.63,5.63,0,0,1,0,1.47s.11-.42-.64-1.06-1.5.31-1.68.55c0,0,1-.43,1.42,0a1.53,1.53,0,0,1,.45,1.69A2.36,2.36,0,0,0,26.61,66c-.68-.52-1.47.32-1.47.32s1.12-.12,1.41.21a1.15,1.15,0,0,1-.22,1.92s.15-1.36-.94-1.61c0,0,.91,1.2.2,1.87,0,0-.14-1.72-1.06-2.15,0,0,.65,1.36,0,1.74S23.43,68,23.43,68s.63-.24.21-1.14c0,.09-.19,1.25-1.1.88s.23,2.06,2.05,2.47a4,4,0,0,0,4-1.58C29.16,67.74,29.22,65.39,27.93,64.65Z"/><g class="cls-21"><path class="cls-22" d="M26.33,68.32l0,.05,0,.12,0,.08s0,.06,0,.09l0,.09,0,.1,0,.09,0,.09,0,.09,0,.07s0,.09,0,.12v0l0,0,.09-.09.05-.07,0-.09.05-.09,0-.1,0-.1s0-.07,0-.11a.41.41,0,0,0,0-.18.44.44,0,0,0,0-.13A.18.18,0,0,1,26.33,68.32Z"/></g><g class="cls-21"><path class="cls-22" d="M25.63,68.6l-.14.18-.07.09a.86.86,0,0,0-.07.1l-.09.1-.08.1a.76.76,0,0,0-.08.11l-.09.1-.08.09-.07.08a.24.24,0,0,1-.12.09h-.06s0,0,.06,0a.28.28,0,0,0,.18,0l.09-.07.1-.08.09-.1.1-.1.08-.12.07-.11.06-.11a1.17,1.17,0,0,1,0-.11.71.71,0,0,0,.05-.16Z"/></g><g class="cls-21"><path class="cls-22" d="M27.4,67.21a2.41,2.41,0,0,0,0,.27s0,.09,0,.13,0,.09,0,.14,0,.1,0,.15,0,.11,0,.16,0,.1,0,.15v.29s0,.09,0,.13v.11s0,.06,0,.08v.07l0-.06a.2.2,0,0,0,0-.08l0,0,0,0s0-.08,0-.13a.77.77,0,0,0,0-.15.81.81,0,0,0,0-.16s0-.11,0-.16,0-.11,0-.17l0-.15a1,1,0,0,1,0-.14s0-.09-.05-.13A2.1,2.1,0,0,0,27.4,67.21Z"/></g><g class="cls-21"><path class="cls-22" d="M27.89,65.94s0,.16.05.4l0,.18a1.55,1.55,0,0,0,0,.21l0,.23.05.23,0,.23a1.74,1.74,0,0,0,.05.22c0,.07,0,.14.05.21s0,.12.05.18l.08.28,0,.1V68.3c0-.07,0-.17,0-.29l0-.19,0-.21c0-.07,0-.15,0-.22l-.05-.23,0-.23-.06-.22c0-.08,0-.14-.06-.21a.78.78,0,0,0-.05-.18C28,66.09,27.89,65.94,27.89,65.94Z"/></g><path class="cls-18" d="M27.15,74c3.16,1,5.34-2.29,5.34-2.29a4.21,4.21,0,0,0,2-3.18,8.59,8.59,0,0,0-.58-3.9c-.1,0-.1-.24-.1-.24A8.13,8.13,0,0,0,30.93,60c-.52-.43-.85-.29-1.58-.17l-1.93,3s.4.5.36.55a1.4,1.4,0,0,0-.15,1,.68.68,0,0,0,0,.14,10.08,10.08,0,0,0,.81,2.56,2.8,2.8,0,0,0-.37.89,4.89,4.89,0,0,0-1.58,1.19,2.12,2.12,0,0,0-1.85.36c-.47-1.14-3-2.72-3-2.72s-1.16-.47-.82,1.38a7.14,7.14,0,0,0,2.23,3.45A5.76,5.76,0,0,0,27.15,74Z"/><path class="cls-23" d="M27.61,64.55l0,0A5.73,5.73,0,0,0,30.93,60c-2-1.79-3.31,1.23-3.71,2.18a2.16,2.16,0,0,0,0,1.88Z"/><path class="cls-23" d="M33.18,71.14a7.5,7.5,0,0,1-2.5-1.72A3.83,3.83,0,0,0,28.09,68a4.74,4.74,0,0,1,2.3,1.75A8.93,8.93,0,0,0,32.28,72s.12-.17.22-.33A1.8,1.8,0,0,0,33.18,71.14Z"/><path class="cls-23" d="M34.2,65.58a2.89,2.89,0,0,1-1.49.43,7.12,7.12,0,0,0-4,.86s1.44-1.46,2.44-1.54a3.88,3.88,0,0,0,2.65-1A5.13,5.13,0,0,1,34.2,65.58Z"/><path class="cls-23" d="M26.51,69.17a5.55,5.55,0,0,1,.85,2.08c0,.86-.11,1.62,0,2a6.25,6.25,0,0,0,.39.88,2,2,0,0,1-.58-.14,5,5,0,0,1-.61-.1s-.36-1.07-.22-1.39a3.87,3.87,0,0,0,.43-1.58,6.68,6.68,0,0,0-.37-1.76Z"/><path class="cls-23" d="M24.66,69.53a2.37,2.37,0,0,1-.13,1.4,2,2,0,0,1-1.24,1l-.19-.27L23,71.52a1.6,1.6,0,0,0,1.23-.46A2.61,2.61,0,0,0,24.66,69.53Z"/><path class="cls-16" d="M32,70c1.11.61,1.49,0,1.85-1a4,4,0,0,0-.08-2.64c-.18-.17-1.11,0-1.75,0s-2.23.37-2.28,1.07S31.49,69.74,32,70Z"/><path class="cls-24" d="M33.5,67.3c0,.55.12,1.84-.55,2.14s-.33-.85-.44-1.15c-.17-.49-.82-.68,0-1C32.76,67.11,33.43,66.77,33.5,67.3Z"/><path class="cls-16" d="M27.93,73.33c.28.53,1.9.25,2.48-.07a1.37,1.37,0,0,0,.69-2c-.6-.93-1.58-2.19-2-2.28s-1.22.91-1.25,1.52A9.49,9.49,0,0,0,27.93,73.33Z"/><path class="cls-16" d="M24.73,72.75c.77.53,1.24.42,1.31.19s0-.74.2-1a1.7,1.7,0,0,0-.14-1.56c-.35-.37-1.19.76-1.41,1S23.83,72.13,24.73,72.75Z"/><path class="cls-24" d="M29.62,70.56a2.56,2.56,0,0,1,1,1.28c.11.63-.57.85-1,1s-1.56.29-1.41-.67c.05-.36.28-.68.35-1,0-.21,0-.43.18-.59S29.29,70.35,29.62,70.56Z"/><path class="cls-24" d="M25.9,71.56l0,.06Z"/><path class="cls-24" d="M25,71.59c.38-.36,1.08-.53.84.14l0-.11c-.15.42-.1,1-.67.74S24.64,71.91,25,71.59Z"/><path class="cls-16" d="M22,68.45c.11.23.08.53.17.77a2.87,2.87,0,0,0,.38.62c.15.21.4.69.72.7s.2-.09.35-.27.28-.34.38-.35c.26,0,.25.17.16.37a2.92,2.92,0,0,1-.48.65c-.41.37-.82.41-1.17-.08-.56-.79-1.16-1.35-.84-2.36C21.8,68.19,21.87,68.11,22,68.45Z"/><path class="cls-16" d="M29.24,64.21a14.75,14.75,0,0,0,1.39-1.68c.16-.24.22-.81.45-1,.53-.32,1.26,1.27,1.49,1.64.35.55.65,1.23-.1,1.49-.44.15-.94.12-1.39.28a3.82,3.82,0,0,1-1,.36C29.56,65.36,28.92,64.62,29.24,64.21Z"/><path class="cls-24" d="M32.21,63.46a.62.62,0,0,1,.11.47.46.46,0,0,1-.35.31,1.91,1.91,0,0,1-.48.05,2.74,2.74,0,0,0-1.12.33.35.35,0,0,1-.26.06.25.25,0,0,1-.12-.16.6.6,0,0,1,.12-.51,2.72,2.72,0,0,1,.37-.39A3.2,3.2,0,0,0,31,63c.13-.22.38-.69.71-.5S32.09,63.23,32.21,63.46Z"/><path class="cls-29" d="M41.45,65c-2.14-2.49-5.63,1-4,3.53S43.33,67.23,41.45,65Zm-3.57,3.14c-1.27-2,1.47-4.71,3.14-2.76C42.49,67.13,39.16,70.13,37.88,68.18Z"/><path class="cls-30" d="M41.06,65.38c-1.72-2-4.53.84-3.22,2.84S42.57,67.14,41.06,65.38ZM38.43,67.7c-.83-1.27,1-3.08,2-1.81S39.26,69,38.43,67.7Z"/><path class="cls-29" d="M95,85.61c-3.4-4-9,1.66-6.38,5.61S97.94,89.1,95,85.61Zm-5.68,5c-2-3.1,2.33-7.5,5-4.4C96.61,88.94,91.3,93.71,89.27,90.61Z"/><path class="cls-30" d="M94.33,86.16c-2.73-3.18-7.2,1.33-5.12,4.51S96.73,89,94.33,86.16Zm-4.18,3.68c-1.33-2,1.52-4.9,3.26-2.87C94.94,88.75,91.47,91.87,90.15,89.84Z"/><path class="cls-29" d="M57.14,44.66c-.17-4.33-6.68-3.54-7,.36S57.29,48.46,57.14,44.66ZM50.88,45c.28-3.06,5.38-3.67,5.51-.28C56.51,47.68,50.6,48.05,50.88,45Z"/><path class="cls-30" d="M56.46,44.7c-.14-3.48-5.37-2.85-5.65.29S56.58,47.75,56.46,44.7Zm-4.62.24c.18-2,3.52-2.4,3.61-.19C55.52,46.7,51.66,46.94,51.84,44.94Z"/><path class="cls-29" d="M71.64,80.66c-.16-4.16-6.43-3.41-6.77.35S71.78,84.32,71.64,80.66Zm-6,.31c.27-2.94,5.18-3.54,5.3-.27C71,83.57,65.34,83.92,65.61,81Z"/><path class="cls-30" d="M71,80.69c-.13-3.34-5.16-2.73-5.44.29S71.1,83.64,71,80.69Zm-4.44.24c.17-1.93,3.38-2.32,3.46-.18C70.08,82.62,66.36,82.85,66.54,80.93Z"/><path class="cls-29" d="M85.46,35.86c2.27-2.37-1.59-5.5-3.9-3.64S83.47,38,85.46,35.86ZM82,32.62c1.81-1.46,4.83,1,3.05,2.85C83.48,37.11,80.17,34.08,82,32.62Z"/><path class="cls-30" d="M85.08,35.51c1.82-1.9-1.27-4.42-3.13-2.92S83.48,37.18,85.08,35.51Zm-2.56-2.39c1.19-.95,3.16.65,2,1.87C83.5,36.05,81.34,34.08,82.52,33.12Z"/><path class="cls-16" d="M49.77,34.62a21.79,21.79,0,0,0-1.62,2.74,9.22,9.22,0,0,0-.62,3.36l.35.06.42-1a8.58,8.58,0,0,0,0,1.09l.36,0,0,.23.59-.11,0,.29.29,0A9.09,9.09,0,0,0,50.31,39s.08.79.14,1.24a1.93,1.93,0,0,0,.48,0,24.84,24.84,0,0,0,.28-3.33,7.38,7.38,0,0,0-.17-2s-.24-.09-.61-.19A3,3,0,0,0,49.77,34.62Z"/><path class="cls-17" d="M47.72,40.75l.16,0,.42-1A13.48,13.48,0,0,1,49,36.58,11.71,11.71,0,0,0,47.72,40.75Z"/><path class="cls-17" d="M48.49,40.84l.19,0a20.73,20.73,0,0,1,.88-3.79A13,13,0,0,0,48.49,40.84Z"/><path class="cls-17" d="M49,41l.19,0a26.08,26.08,0,0,1,.53-3.5A16.61,16.61,0,0,0,49,41Z"/><path class="cls-17" d="M49.38,41.26a10.79,10.79,0,0,0,.84-4.36s.73,1.58-.75,4.35Z"/><path class="cls-18" d="M50.43,34.71a3,3,0,0,0-.66-.09s-.37.53-.81,1.25c.18-.28.65-1,1-1s1.2,1.39.79,5.43l.15,0a24.84,24.84,0,0,0,.28-3.33,7.38,7.38,0,0,0-.17-2S50.8,34.81,50.43,34.71Z"/><path class="cls-19" d="M49.33,41.07a16,16,0,0,0,.74-4.42c-.13-1.6-.46-1.66-1-.89a10.7,10.7,0,0,0-1.36,3.15A18.55,18.55,0,0,1,49.21,36a11.23,11.23,0,0,0-.77,3.7,15.8,15.8,0,0,1,1.33-3.82,6.35,6.35,0,0,1-.39,1.89,7.72,7.72,0,0,0,.47-1.15A14.69,14.69,0,0,1,49.33,41.07Z"/><path class="cls-20" d="M43.75,32.17a5.74,5.74,0,0,1,1.06-1s-.38.22-.3,1.2,1.28.85,1.58.8c0,0-1-.4-1-1A1.54,1.54,0,0,1,46,30.65a2.35,2.35,0,0,0-.31,1.5c.12.84,1.27.81,1.27.81s-.88-.71-.85-1.15.28-1.55,1.51-1.2c0,0-1.07.85-.47,1.8,0,0,.2-1.49,1.17-1.46,0,0-1.11,1.31-.76,2.26,0,0,.5-1.41,1.21-1.24s.57,1,.57,1-.62-.27-1,.66c0-.09,1-.75,1.4.16S51,32.19,50,30.62a4,4,0,0,0-4-1.73C45.06,29.11,43.36,30.73,43.75,32.17Z"/><g class="cls-21"><path class="cls-22" d="M47.48,30.7l0,0,.11-.06.07,0,.08,0,.08-.05.09,0,.09-.05.08,0,.08,0,.08,0,.11-.06,0,0h-.17l-.09,0-.1,0-.09,0-.1,0-.09.05-.09.06-.07.07-.06.06a.49.49,0,0,0-.07.11Z"/></g><g class="cls-21"><path class="cls-22" d="M48.16,31l.23,0,.11,0,.13,0h.12l.14,0h.49l.15,0,0,0h0a.12.12,0,0,0,0-.06.31.31,0,0,0-.16-.09h-.24a.66.66,0,0,0-.14,0h-.14l-.14,0-.13,0-.12,0-.11,0-.15.07Z"/></g><g class="cls-21"><path class="cls-22" d="M45.94,30.74l.17-.21a5035226979580.31,5035226979580.31,0,0,1,.16-.22l.1-.12.09-.12.11-.12.1-.11.1-.1.1-.08,0,0,0,0,.07-.05.06,0H47l-.08,0h-.06l0,0-.12.07-.12.08-.12.11-.11.12a1.47,1.47,0,0,1-.1.13,1,1,0,0,0-.08.14l-.08.12-.05.12A1.81,1.81,0,0,0,45.94,30.74Z"/></g><g class="cls-21"><path class="cls-22" d="M44.69,31.29l.24-.32.11-.15.12-.18.13-.19.13-.19.13-.2.12-.19.11-.19.09-.16.14-.25.05-.1-.07.08-.19.22-.12.15-.12.17a2.14,2.14,0,0,0-.13.19l-.13.2-.13.2-.11.19-.11.19-.09.17C44.75,31.14,44.69,31.29,44.69,31.29Z"/></g><path class="cls-18" d="M50.87,26.13c-1.49-3-5.39-2.15-5.39-2.15a4.19,4.19,0,0,0-3.64.86A8.62,8.62,0,0,0,39.49,28c.1,0-.09.23-.09.23a8.19,8.19,0,0,0-1,5.08c.07.67.4.8,1,1.23l3.48-.75s.07-.64.14-.65.41-.11.8-.59a1,1,0,0,0,.08-.11,9.86,9.86,0,0,0,1.23-2.38,2.75,2.75,0,0,0,.9-.37A5,5,0,0,0,48,30,2.1,2.1,0,0,0,49.5,31c-.46,1.14.19,4,.19,4s.49,1.16,1.56-.39a7.18,7.18,0,0,0,.85-4A5.77,5.77,0,0,0,50.87,26.13Z"/><path class="cls-23" d="M43.9,32.47l0,0a5.74,5.74,0,0,0-5.5.87c.13,2.64,3.22,1.46,4.17,1.07A2.17,2.17,0,0,0,43.83,33Z"/><path class="cls-23" d="M44.62,23.87a7.35,7.35,0,0,1,.55,3A3.79,3.79,0,0,0,46,29.7a4.78,4.78,0,0,1-.39-2.86,8.88,8.88,0,0,0,.24-2.91l-.4.07A1.78,1.78,0,0,0,44.62,23.87Z"/><path class="cls-23" d="M40,27.08a3,3,0,0,1,1.37.76,7.12,7.12,0,0,0,3.45,2.22A5.79,5.79,0,0,1,42,29.42a3.91,3.91,0,0,0-2.56-1.18A5.58,5.58,0,0,1,40,27.08Z"/><path class="cls-23" d="M48,30a5.51,5.51,0,0,1,.87-2.08,19.51,19.51,0,0,0,1.39-1.39,5.57,5.57,0,0,0,.35-.89,1.92,1.92,0,0,1,.31.51,4.55,4.55,0,0,1,.36.5s-.5,1-.83,1.14a3.84,3.84,0,0,0-1.42.82,6.6,6.6,0,0,0-1,1.5Z"/><path class="cls-23" d="M49.5,31a2.4,2.4,0,0,1,1.09-.9,2,2,0,0,1,1.57.19l-.06.31v.19a1.58,1.58,0,0,0-1.18-.54A2.68,2.68,0,0,0,49.5,31Z"/><path class="cls-16" d="M44.66,25.48c-.35-1.22-1-1.07-2-.61a3.94,3.94,0,0,0-1.81,1.92c0,.25.81.76,1.22,1.25s1.84,1.31,2.37.85S44.83,26.06,44.66,25.48Z"/><path class="cls-24" d="M41.68,26.36c.4-.38,1.21-1.38,1.9-1.12s-.37.83-.5,1.12c-.22.47.1,1.06-.71.77C42.07,27,41.35,26.78,41.68,26.36Z"/><path class="cls-16" d="M49.88,26c.18-.58-1.17-1.52-1.8-1.71a1.38,1.38,0,0,0-1.9.93,7.68,7.68,0,0,0-.22,3c.22.34,1.52.22,2-.19S49.72,26.55,49.88,26Z"/><path class="cls-16" d="M51.74,28.7c-.18-.92-.59-1.18-.8-1.05s-.54.49-.83.54a1.74,1.74,0,0,0-1,1.2c0,.52,1.39.31,1.71.3S51.94,29.78,51.74,28.7Z"/><path class="cls-24" d="M46.73,26.79a2.47,2.47,0,0,1,.21-1.59c.36-.53,1-.2,1.42,0s1.31.9.52,1.48c-.29.21-.68.28-1,.48s-.32.29-.55.29S46.81,27.18,46.73,26.79Z"/><path class="cls-24" d="M50.07,28.72l.06,0Z"/><path class="cls-24" d="M50.73,29.34c-.53,0-1.14-.39-.49-.69l-.11,0c.4-.18.76-.62,1,0S51.2,29.36,50.73,29.34Z"/><path class="cls-16" d="M50.61,33.65c.08-.24.31-.43.42-.66a2.86,2.86,0,0,0,.17-.7c0-.26.2-.78,0-1s-.21-.08-.45-.06-.44,0-.51,0-.06-.29.15-.36a3,3,0,0,1,.79-.13c.56,0,.88.3.78.89-.16.95-.13,1.77-1.08,2.26C50.59,34,50.47,34,50.61,33.65Z"/><path class="cls-16" d="M42.5,31.56a14.35,14.35,0,0,0-2.17.2c-.27.06-.72.42-1,.36-.6-.14,0-1.78.11-2.21.14-.64.41-1.32,1.12-1,.42.2.75.58,1.18.79a3.31,3.31,0,0,1,1,.45C43.09,30.52,43,31.49,42.5,31.56Z"/><path class="cls-24" d="M39.88,30a.68.68,0,0,1,.25-.42.49.49,0,0,1,.47,0,2.72,2.72,0,0,1,.38.31,2.61,2.61,0,0,0,1,.56c.08,0,.18.06.22.14a.24.24,0,0,1,0,.2.62.62,0,0,1-.44.28,2.53,2.53,0,0,1-.55,0,3.31,3.31,0,0,0-.77.09c-.25.07-.77.22-.85-.15S39.8,30.24,39.88,30Z"/></g></g></g></svg>