<svg xmlns="http://www.w3.org/2000/svg" viewBox="0 0 117.3 117.35"><defs><style>.cls-1{fill:#bd6706;}.cls-2{fill:#aa5907;}.cls-3{fill:#fcb519;}.cls-4{fill:#a70411;}.cls-5{fill:#f22128;}.cls-6{fill:#f9b63b;}.cls-7{fill:#fcd147;}.cls-8{fill:#ffa329;}.cls-9{fill:#fc9317;}.cls-10{fill:#a4030b;}.cls-11{fill:#c81018;}.cls-12{fill:none;stroke:#ff6540;stroke-miterlimit:10;stroke-width:1.09px;}.cls-13{fill:#ff7957;}.cls-14{fill:#ff9280;}.cls-15{fill:#f9aea1;}.cls-16{fill:#ff6540;}.cls-17{fill:#407200;}.cls-18{fill:#3a6003;}.cls-19{fill:#406807;}.cls-20{fill:#4f8403;}.cls-21{fill:#6fa200;}.cls-22{fill:#ffe3a2;}.cls-23{fill:#ffedb1;}</style></defs><title>Ресурс 4</title><g id="Слой_2" data-name="Слой 2"><g id="OBJECTS"><path class="cls-1" d="M0,58.64C0,34.37,6.36,17.94,27.37,9c7-3,23.15-9,31.27-9A58.65,58.65,0,0,1,77.79,3.2c10.09,3.48,25,11.4,31.71,19.39,8.62,10.21,7.78,21.64,7.78,36.05,0,32.38-16.85,56.63-58.64,58.64C22.09,119,0,91,0,58.64Z"/><path class="cls-2" d="M84.51,13.62c7.46,2.7,14.32,7.44,18.71,14a44.1,44.1,0,0,1,4.67,9.8,45.24,45.24,0,0,1,2.19,8.39,64.48,64.48,0,0,1,0,14.23,102.17,102.17,0,0,1-1.56,13.08,51.07,51.07,0,0,1-11.79,23.4c-1.43,1.6-3.06,3.41-2.83,5.54,3.72.49,7.44-1.46,9.92-4.27s3.92-6.37,5.14-9.91a110.18,110.18,0,0,0,5.8-40.59c-.23-5-.82-10.09-2.75-14.72-2.42-5.79-6.78-10.54-11.3-14.9C94.54,11.78,87.35,6.06,78.83,5.28a29.88,29.88,0,0,1-5.09-.52c-1.31-.37-2.8-1.78-4.09-1.88-2.43-.19-3.56,1.83-2.34,3.66C70.21,10.89,80,12,84.51,13.62Z"/><path class="cls-3" d="M4.55,58.64c0-22.39,5.88-37.55,25.3-45.78,6.5-2.75,21.39-8.32,28.9-8.32a54.27,54.27,0,0,1,17.7,3C85.77,10.71,99.52,18,105.76,25.38c8,9.42,7.19,20,7.19,33.26,0,29.88-15.57,52.25-54.2,54.1C25,114.36,4.55,88.52,4.55,58.64Z"/><path class="cls-4" d="M8.56,58.64C8.56,37.91,14,23.87,32,16.25,38,13.7,51.8,8.54,58.75,8.54a50.23,50.23,0,0,1,16.39,2.74c8.63,3,21.37,9.74,27.14,16.56,7.38,8.73,6.66,18.49,6.66,30.8,0,27.67-14.42,48.39-50.19,50.1C27.46,110.25,8.56,86.31,8.56,58.64Z"/><path class="cls-5" d="M10.85,58.65c0-19.79,5.19-33.19,22.36-40.46,5.74-2.43,18.91-7.36,25.54-7.36a47.87,47.87,0,0,1,15.64,2.61c8.24,2.84,20.4,9.3,25.9,15.81,7,8.33,6.36,17.65,6.36,29.4,0,26.4-13.76,46.17-47.9,47.81C28.89,107.89,10.85,85.05,10.85,58.65Z"/><path class="cls-6" d="M29.1,25.38C42.84,13.12,55.37,8.43,71.05,15.85,76.3,18.33,91.71,25.1,95.82,29.7c3.4,3.81,8.16,7,10,11.42,3.13,7.48.19,20.32-.92,28.18-1.42,10-6.31,16.53-14.47,23.81-18.34,16.36-46,18.59-66.31-2.16C4.67,71.08,10.76,41.74,29.1,25.38Z"/><path class="cls-7" d="M33.31,95.29c3.28,2.27,7.28,4.1,11.16,3.21,1.32-.3,2.71-1.09,3-2.41s-.78-2.64-1.75-3.65a34.34,34.34,0,0,0-5.78-5.2C36.45,85,32,83.77,29.74,80.3c-1.39-2.14-1.7-4.77-2.38-7.23a24.09,24.09,0,0,0-6.75-11.15c-7.56-7-3,12.26-1.92,14.88A41.14,41.14,0,0,0,33.31,95.29Z"/><path class="cls-7" d="M6.33,68.48c.14,1.19.43,2.55,1.5,3.09a4.54,4.54,0,0,0,.53-3.33C7.89,64,7,59.84,7.41,55.63,7.68,52.58,9,49,8.3,46,3.68,47,5.91,64.93,6.33,68.48Z"/><path class="cls-7" d="M12.5,28.47a1.12,1.12,0,0,0-.09.67c.12.45.78.56,1.18.3a2.5,2.5,0,0,0,.8-1.15,21.37,21.37,0,0,1,2.81-4.62,10.48,10.48,0,0,1,3.21-2.87c1-.54,2.16-.81,3.22-1.27a8,8,0,0,0,3-2.21C21.53,13.92,14,24.55,12.5,28.47Z"/><path class="cls-8" d="M24.31,48.79c-1.77,6.53-.23,14.45,5.41,18.19,2.14,1.42,4.75,2.17,6.61,3.94,2.52,2.42,3.32,6.42,6.27,8.3,3.81,2.44,8.82,0,13.33.45,2.56.24,4.92,1.41,7.39,2.12,6.15,1.77,13.25.47,18-3.85s6.59-11.71,3.95-17.54a14.13,14.13,0,0,1-1.46-3.68c-.38-2.61,1.43-5,2.41-7.43,1.74-4.4.77-9.42-.92-13.83C84,32.05,82,28.57,78.59,27.18A12.52,12.52,0,0,0,73,26.52,29.44,29.44,0,0,0,58.1,31.77a9.13,9.13,0,0,1-2.53,1.45c-3.61,1.07-6.86-2.83-10.09-3.81-2.84-.86-6.38-.91-9,.62C30.86,33.31,25.92,42.85,24.31,48.79Z"/><path class="cls-9" d="M31.69,60.94a15.08,15.08,0,0,0,2.75,6C38.59,72,46.24,72,52.79,71.51A26.83,26.83,0,0,0,61,70.08c6-2.41,9.44-8.79,11.13-15,1.19-4.36,1.77-9,.74-13.4-3.08-13.18-18.2-13.27-28.7-9.21S29.09,50.73,31.69,60.94Z"/><path class="cls-10" d="M90,66.3c1.65-3.76,5.65-5.65,8.94-4.21s4.62,5.66,3,9.42S96.29,77.16,93,75.72,88.38,70.06,90,66.3Z"/><path class="cls-11" d="M89.78,65.92c1.64-3.76,5.4-5.75,8.4-4.44s4.08,5.42,2.44,9.18-5.41,5.76-8.4,4.45S88.13,69.68,89.78,65.92Z"/><path class="cls-12" d="M99.37,65.62a2.74,2.74,0,0,0-.78-2.1,3.54,3.54,0,0,0-3.91,0,6.62,6.62,0,0,0-2.33,2.94,9.07,9.07,0,0,0-1.15,4.35,2.14,2.14,0,0,0,1.06,1.9,3.58,3.58,0,0,0,2.44,0C98.7,71.61,99.44,68.73,99.37,65.62Z"/><path class="cls-13" d="M96.65,68.27a2.51,2.51,0,0,0,.44.35c.18.11.45.17.58,0a.33.33,0,0,0-.09-.44.65.65,0,0,0-.49-.1,1.05,1.05,0,0,0-.44.18"/><path class="cls-14" d="M97.16,68.23a.46.46,0,0,1,.3.07.2.2,0,0,1,.1.15.17.17,0,0,1-.17.14.46.46,0,0,1-.23-.06,1.49,1.49,0,0,1-.29-.2C96.92,68.25,97.07,68.24,97.16,68.23Z"/><path class="cls-15" d="M97.23,68.29v0a.18.18,0,0,0,0,.07l.09.09c.1.09.22,0,.14-.12S97.26,68.23,97.23,68.29Z"/><path class="cls-13" d="M95.71,69.78a1.83,1.83,0,0,0-.26.5c-.07.2-.08.48.11.57a.33.33,0,0,0,.42-.18.75.75,0,0,0,0-.49,1.23,1.23,0,0,0-.27-.4"/><path class="cls-14" d="M95.85,70.27a.47.47,0,0,1,0,.31.19.19,0,0,1-.13.13.17.17,0,0,1-.17-.14.37.37,0,0,1,0-.23,1.13,1.13,0,0,1,.13-.32C95.78,70,95.82,70.19,95.85,70.27Z"/><path class="cls-15" d="M95.81,70.36h0s0,0-.06.06l-.06.11c-.08.12.06.21.14.11S95.87,70.37,95.81,70.36Z"/><path class="cls-13" d="M94.92,66.58a2.09,2.09,0,0,0,0-.56c0-.21-.18-.45-.39-.43a.32.32,0,0,0-.26.37.67.67,0,0,0,.26.42,1,1,0,0,0,.44.2"/><path class="cls-14" d="M94.54,66.23a.48.48,0,0,1-.16-.26.2.2,0,0,1,.05-.18.18.18,0,0,1,.22,0,.44.44,0,0,1,.1.22,1,1,0,0,1,.06.34C94.72,66.4,94.61,66.29,94.54,66.23Z"/><path class="cls-15" d="M94.53,66.14a0,0,0,0,0,0,0,.11.11,0,0,0,0-.08v-.12a.1.1,0,1,0-.19,0C94.38,66,94.47,66.16,94.53,66.14Z"/><path class="cls-13" d="M96.61,65.16a2.59,2.59,0,0,0,.55-.13c.2-.08.42-.25.37-.45a.33.33,0,0,0-.4-.21.71.71,0,0,0-.38.32.93.93,0,0,0-.14.47"/><path class="cls-14" d="M96.9,64.73a.52.52,0,0,1,.24-.2.19.19,0,0,1,.18,0,.15.15,0,0,1,0,.21.41.41,0,0,1-.2.14,1.21,1.21,0,0,1-.32.11C96.77,64.93,96.85,64.8,96.9,64.73Z"/><path class="cls-15" d="M97,64.71h0s.06,0,.09,0l.12,0c.14,0,.12-.18,0-.18S97,64.65,97,64.71Z"/><path class="cls-13" d="M94.16,67.2a2.07,2.07,0,0,0-.34-.44c-.15-.15-.39-.29-.56-.16a.32.32,0,0,0,0,.45.69.69,0,0,0,.44.22,1,1,0,0,0,.48-.07"/><path class="cls-14" d="M93.65,67.11a.42.42,0,0,1-.27-.14.16.16,0,0,1-.06-.17.18.18,0,0,1,.2-.1.44.44,0,0,1,.2.13.9.9,0,0,1,.23.25C93.89,67.15,93.74,67.13,93.65,67.11Z"/><path class="cls-15" d="M93.59,67a0,0,0,0,0,0,0,.11.11,0,0,0,0-.07l-.06-.11c-.08-.12-.22,0-.17.08S93.55,67.09,93.59,67Z"/><path class="cls-13" d="M94.07,69.05a2.13,2.13,0,0,0-.47-.31c-.19-.09-.46-.14-.58,0a.32.32,0,0,0,.13.43.68.68,0,0,0,.49.06c.2,0,.25-.11.43-.22"/><path class="cls-14" d="M93.56,69.13a.48.48,0,0,1-.31,0,.18.18,0,0,1-.1-.15.16.16,0,0,1,.15-.15.46.46,0,0,1,.23,0,.94.94,0,0,1,.31.17C93.8,69.09,93.65,69.12,93.56,69.13Z"/><path class="cls-15" d="M93.48,69.08v0a.18.18,0,0,0,0-.07l-.1-.08c-.11-.09-.22,0-.13.14S93.46,69.14,93.48,69.08Z"/><path class="cls-13" d="M93.85,70.27a2.6,2.6,0,0,0-.56.06c-.21,0-.44.19-.42.4a.31.31,0,0,0,.37.25.67.67,0,0,0,.42-.26,1.14,1.14,0,0,0,.19-.45"/><path class="cls-14" d="M93.51,70.66a.48.48,0,0,1-.26.16.19.19,0,0,1-.18,0,.18.18,0,0,1,0-.22.39.39,0,0,1,.21-.11,1,1,0,0,1,.34-.06C93.67,70.47,93.57,70.59,93.51,70.66Z"/><path class="cls-15" d="M93.42,70.67l0,0a.13.13,0,0,0-.08,0h-.13a.09.09,0,1,0,0,.18S93.44,70.73,93.42,70.67Z"/><path class="cls-13" d="M94.51,70.26a2.36,2.36,0,0,0-.33.45c-.11.19-.17.45,0,.58a.33.33,0,0,0,.44-.1.67.67,0,0,0,.09-.48,1.13,1.13,0,0,0-.2-.45"/><path class="cls-14" d="M94.56,70.77a.47.47,0,0,1-.06.31.18.18,0,0,1-.15.1.17.17,0,0,1-.14-.17.35.35,0,0,1,.06-.22,1.26,1.26,0,0,1,.18-.3C94.54,70.53,94.55,70.69,94.56,70.77Z"/><path class="cls-15" d="M94.51,70.85h0l-.07.05-.08.09a.1.1,0,1,0,.13.14S94.57,70.88,94.51,70.85Z"/><path class="cls-13" d="M96.16,69.15a2,2,0,0,0,.14.54c.08.2.25.41.46.36a.33.33,0,0,0,.19-.41.72.72,0,0,0-.32-.37,1,1,0,0,0-.47-.12"/><path class="cls-14" d="M96.59,69.42a.47.47,0,0,1,.2.24.19.19,0,0,1,0,.18.15.15,0,0,1-.21,0,.38.38,0,0,1-.14-.19,1.24,1.24,0,0,1-.12-.32C96.38,69.29,96.51,69.38,96.59,69.42Z"/><path class="cls-15" d="M96.62,69.51l0,0a.14.14,0,0,0,0,.09l0,.12c0,.14.19.12.18,0S96.67,69.48,96.62,69.51Z"/><path class="cls-13" d="M95.38,65.67a2,2,0,0,0,.14-.54c0-.21,0-.48-.23-.54a.32.32,0,0,0-.36.27.69.69,0,0,0,.1.48c.1.18.19.2.35.33"/><path class="cls-14" d="M95.14,65.22a.46.46,0,0,1-.06-.3.17.17,0,0,1,.1-.15.17.17,0,0,1,.2.09.63.63,0,0,1,0,.24,1.35,1.35,0,0,1-.06.34C95.25,65.43,95.18,65.3,95.14,65.22Z"/><path class="cls-15" d="M95.16,65.13h0a.15.15,0,0,0,0-.07l0-.12a.09.09,0,1,0-.17-.08C95.07,64.9,95.09,65.13,95.16,65.13Z"/><path class="cls-13" d="M97.29,67.11a2.09,2.09,0,0,0,.56,0c.21,0,.47-.13.47-.35a.32.32,0,0,0-.34-.3.65.65,0,0,0-.44.22c-.16.14-.16.23-.25.41"/><path class="cls-14" d="M97.68,66.77a.46.46,0,0,1,.28-.13.22.22,0,0,1,.17.07.17.17,0,0,1,0,.21.43.43,0,0,1-.22.09,2.11,2.11,0,0,1-.35,0C97.49,66.93,97.61,66.83,97.68,66.77Z"/><path class="cls-15" d="M97.77,66.77a0,0,0,0,0,0,0l.08,0,.12,0c.15,0,.17-.15,0-.19S97.76,66.71,97.77,66.77Z"/><path class="cls-16" d="M93.91,68.31c.14.22.48.25.58.49a1.42,1.42,0,0,1,0,.36c.07.77,1.29.6,1.67.2a.78.78,0,0,0,.13-.79,1,1,0,0,0,0-.67l0,0,.26-.06a1.4,1.4,0,0,0,1-1.21,1,1,0,0,0-1-1.08,1,1,0,0,1-.41,0,1.86,1.86,0,0,1-.2-.1c-.33-.12-.63.29-.67.65a5.71,5.71,0,0,1-.06,1.1.94.94,0,0,1-.1.23l-.34-.09a.8.8,0,0,0-.91.67A.47.47,0,0,0,93.91,68.31Z"/><ellipse class="cls-10" cx="76.37" cy="90.42" rx="6.5" ry="7.44" transform="translate(-37.33 123.29) rotate(-65.94)"/><path class="cls-11" d="M79.4,84.24c3.75,1.67,5.71,5.45,4.38,8.43s-5.45,4-9.2,2.38-5.71-5.46-4.38-8.44S75.65,82.56,79.4,84.24Z"/><path class="cls-12" d="M79.64,93.83a2.74,2.74,0,0,0,2.1-.75,3.59,3.59,0,0,0,0-3.92,6.6,6.6,0,0,0-2.93-2.35,9.06,9.06,0,0,0-4.34-1.19,2.12,2.12,0,0,0-1.9,1.06,3.49,3.49,0,0,0,0,2.43C73.65,93.12,76.52,93.89,79.64,93.83Z"/><path class="cls-13" d="M77,91.09a2.51,2.51,0,0,0-.35.44c-.11.18-.18.45,0,.58a.31.31,0,0,0,.44-.09.66.66,0,0,0,.1-.48.91.91,0,0,0-.18-.45"/><path class="cls-14" d="M77,91.6a.48.48,0,0,1-.07.31.2.2,0,0,1-.16.09c-.08,0-.13-.09-.14-.17a.44.44,0,0,1,.07-.22,1.49,1.49,0,0,1,.2-.29C77,91.36,77,91.52,77,91.6Z"/><path class="cls-15" d="M77,91.68h0a.1.1,0,0,0-.07,0l-.08.08c-.1.11,0,.23.12.14S77,91.71,77,91.68Z"/><path class="cls-13" d="M75.5,90.14a2.16,2.16,0,0,0-.5-.26c-.2-.07-.47-.08-.57.11a.32.32,0,0,0,.17.41.72.72,0,0,0,.5,0c.2-.06.24-.14.4-.27"/><path class="cls-14" d="M75,90.28a.47.47,0,0,1-.31,0,.19.19,0,0,1-.13-.13.18.18,0,0,1,.14-.18.36.36,0,0,1,.23,0,1.13,1.13,0,0,1,.32.13C75.24,90.21,75.09,90.25,75,90.28Z"/><path class="cls-15" d="M74.92,90.24v0s0,0-.06-.06l-.11-.06c-.12-.08-.21.06-.11.14S74.9,90.3,74.92,90.24Z"/><path class="cls-13" d="M78.71,89.38a2.69,2.69,0,0,0,.56,0c.2,0,.45-.18.43-.39a.34.34,0,0,0-.37-.27.67.67,0,0,0-.42.26,1,1,0,0,0-.2.44"/><path class="cls-14" d="M79.06,89a.46.46,0,0,1,.26-.15.22.22,0,0,1,.18,0,.17.17,0,0,1,0,.22.39.39,0,0,1-.21.11,1,1,0,0,1-.34,0C78.89,89.18,79,89.07,79.06,89Z"/><path class="cls-15" d="M79.15,89a0,0,0,0,0,0,0,.11.11,0,0,0,.08,0h.12c.14,0,.15-.16,0-.18S79.13,88.93,79.15,89Z"/><path class="cls-13" d="M80.12,91.08a2.08,2.08,0,0,0,.12.55c.08.2.24.42.45.37a.33.33,0,0,0,.21-.4.74.74,0,0,0-.32-.38,1.18,1.18,0,0,0-.46-.14"/><path class="cls-14" d="M80.54,91.37a.45.45,0,0,1,.19.24.19.19,0,0,1,0,.18.17.17,0,0,1-.22,0,.43.43,0,0,1-.13-.19,1,1,0,0,1-.1-.33C80.34,91.24,80.47,91.32,80.54,91.37Z"/><path class="cls-15" d="M80.56,91.46a0,0,0,0,1,0,0s0,.06,0,.09l0,.12c0,.14.18.12.18,0S80.62,91.44,80.56,91.46Z"/><path class="cls-13" d="M78.09,88.61a2.36,2.36,0,0,0,.45-.33c.15-.15.28-.39.16-.56a.33.33,0,0,0-.45,0,.63.63,0,0,0-.22.44,1,1,0,0,0,.06.48"/><path class="cls-14" d="M78.18,88.11a.53.53,0,0,1,.14-.28.2.2,0,0,1,.18,0,.17.17,0,0,1,.09.2.41.41,0,0,1-.12.2,1.43,1.43,0,0,1-.26.23C78.14,88.35,78.17,88.19,78.18,88.11Z"/><path class="cls-15" d="M78.26,88.05h0a.19.19,0,0,0,.08,0l.1-.07c.13-.07,0-.22-.08-.16S78.21,88,78.26,88.05Z"/><path class="cls-13" d="M76.24,88.51a2.32,2.32,0,0,0,.31-.46c.1-.19.15-.47,0-.59a.32.32,0,0,0-.43.13.72.72,0,0,0-.07.48,1.08,1.08,0,0,0,.22.44"/><path class="cls-14" d="M76.16,88a.57.57,0,0,1,0-.31.18.18,0,0,1,.15-.1.16.16,0,0,1,.15.15.52.52,0,0,1-.05.24,1.78,1.78,0,0,1-.17.3C76.2,88.24,76.18,88.09,76.16,88Z"/><path class="cls-15" d="M76.22,87.92h0a.18.18,0,0,0,.07,0l.07-.1c.1-.11,0-.22-.13-.13S76.15,87.9,76.22,87.92Z"/><path class="cls-13" d="M75,88.28a2.09,2.09,0,0,0,0-.56c0-.21-.19-.45-.4-.43a.34.34,0,0,0-.26.38.74.74,0,0,0,.27.41,1,1,0,0,0,.44.2"/><path class="cls-14" d="M74.64,87.94a.47.47,0,0,1-.16-.27.15.15,0,0,1,0-.17.16.16,0,0,1,.22,0,.39.39,0,0,1,.11.21,1.35,1.35,0,0,1,.06.34C74.82,88.1,74.71,88,74.64,87.94Z"/><path class="cls-15" d="M74.63,87.84h0a.28.28,0,0,0,0-.09v-.12c0-.14-.17-.15-.18,0S74.56,87.86,74.63,87.84Z"/><path class="cls-13" d="M75,89a2.48,2.48,0,0,0-.45-.35c-.18-.1-.45-.17-.58,0a.33.33,0,0,0,.1.44.66.66,0,0,0,.48.09A1.09,1.09,0,0,0,75,89"/><path class="cls-14" d="M74.51,89a.46.46,0,0,1-.3-.06.2.2,0,0,1-.1-.15.19.19,0,0,1,.17-.15.41.41,0,0,1,.23.07,1.08,1.08,0,0,1,.29.18C74.76,89,74.6,89,74.51,89Z"/><path class="cls-15" d="M74.44,88.94v0a.18.18,0,0,0,0-.07l-.09-.08c-.1-.1-.22,0-.14.12S74.41,89,74.44,88.94Z"/><path class="cls-13" d="M76.13,90.6a1.94,1.94,0,0,0-.54.13c-.2.08-.42.25-.36.46a.33.33,0,0,0,.4.2.7.7,0,0,0,.37-.33,1,1,0,0,0,.13-.46"/><path class="cls-14" d="M75.85,91a.59.59,0,0,1-.24.2.19.19,0,0,1-.18,0,.18.18,0,0,1,0-.22.43.43,0,0,1,.19-.14,1.07,1.07,0,0,1,.33-.11C76,90.82,75.9,91,75.85,91Z"/><path class="cls-15" d="M75.76,91.05l0,0a.21.21,0,0,0-.08,0l-.12,0a.1.1,0,1,0,0,.19S75.79,91.11,75.76,91.05Z"/><path class="cls-13" d="M79.61,89.85a2,2,0,0,0,.54.14c.21,0,.49,0,.54-.22a.33.33,0,0,0-.26-.37.69.69,0,0,0-.48.1c-.18.1-.21.19-.34.35"/><path class="cls-14" d="M80.07,89.61a.46.46,0,0,1,.3-.06.2.2,0,0,1,.15.1c0,.07,0,.16-.1.2a.58.58,0,0,1-.23,0,.94.94,0,0,1-.34-.07C79.85,89.72,80,89.65,80.07,89.61Z"/><path class="cls-15" d="M80.16,89.63v0a.14.14,0,0,0,.08,0l.11,0a.09.09,0,1,0,.08-.17C80.38,89.54,80.16,89.56,80.16,89.63Z"/><path class="cls-13" d="M78.16,91.74a2.12,2.12,0,0,0,0,.56c0,.22.12.47.34.48a.33.33,0,0,0,.3-.34.68.68,0,0,0-.21-.44c-.14-.16-.23-.16-.41-.26"/><path class="cls-14" d="M78.49,92.13a.52.52,0,0,1,.13.28.19.19,0,0,1-.07.17.16.16,0,0,1-.21,0,.49.49,0,0,1-.08-.23,1,1,0,0,1,0-.34C78.33,92,78.43,92.07,78.49,92.13Z"/><path class="cls-15" d="M78.49,92.23h0s0,.05,0,.08v.12c0,.14.15.17.18,0S78.56,92.21,78.49,92.23Z"/><path class="cls-16" d="M77,88.36c-.21.13-.25.48-.49.57a1.08,1.08,0,0,1-.36,0c-.77.06-.61,1.29-.21,1.67a.77.77,0,0,0,.79.13.88.88,0,0,0,.66,0l0,0c0,.09,0,.17,0,.26a1.4,1.4,0,0,0,1.2,1,1,1,0,0,0,1.09-1,.9.9,0,0,1,0-.4c0-.07.07-.13.09-.2.13-.33-.27-.64-.64-.68a5.71,5.71,0,0,1-1.1-.06l-.22-.11c0-.11.07-.23.09-.34a.81.81,0,0,0-.67-.91A.48.48,0,0,0,77,88.36Z"/><path class="cls-10" d="M44.39,85.43c3.75,1.67,5.6,5.69,4.14,9S42.84,99,39.09,97.3s-5.61-5.69-4.14-9S40.64,83.75,44.39,85.43Z"/><path class="cls-11" d="M44.77,85.18c3.75,1.68,5.71,5.45,4.38,8.44S43.7,97.66,40,96s-5.71-5.45-4.38-8.44S41,83.51,44.77,85.18Z"/><path class="cls-12" d="M45,94.77A2.71,2.71,0,0,0,47.1,94a3.57,3.57,0,0,0,0-3.92,6.65,6.65,0,0,0-2.93-2.35,9,9,0,0,0-4.34-1.18,2.09,2.09,0,0,0-1.9,1.05,3.49,3.49,0,0,0,0,2.43C39,94.06,41.89,94.83,45,94.77Z"/><path class="cls-13" d="M42.37,92a2.12,2.12,0,0,0-.35.44c-.11.18-.18.45,0,.58a.32.32,0,0,0,.44-.08.7.7,0,0,0,.1-.49,1.15,1.15,0,0,0-.18-.45"/><path class="cls-14" d="M42.41,92.55a.53.53,0,0,1-.07.3.18.18,0,0,1-.16.09.15.15,0,0,1-.14-.16.48.48,0,0,1,.07-.23,1.12,1.12,0,0,1,.19-.29C42.39,92.3,42.4,92.46,42.41,92.55Z"/><path class="cls-15" d="M42.35,92.62h0a.18.18,0,0,0-.07,0l-.08.08c-.1.11,0,.23.12.15S42.41,92.65,42.35,92.62Z"/><path class="cls-13" d="M40.87,91.08a2.34,2.34,0,0,0-.5-.25c-.2-.08-.48-.09-.57.1a.33.33,0,0,0,.17.42.69.69,0,0,0,.49,0,1,1,0,0,0,.41-.27"/><path class="cls-14" d="M40.37,91.22a.47.47,0,0,1-.31,0,.2.2,0,0,1-.12-.13.17.17,0,0,1,.14-.17.45.45,0,0,1,.23,0,1.13,1.13,0,0,1,.32.13C40.61,91.15,40.46,91.19,40.37,91.22Z"/><path class="cls-15" d="M40.29,91.18v0l-.07-.06-.1-.06c-.12-.08-.21.06-.11.14S40.27,91.24,40.29,91.18Z"/><path class="cls-13" d="M44.07,90.32a2.09,2.09,0,0,0,.56,0c.21,0,.45-.18.44-.39a.33.33,0,0,0-.37-.26.66.66,0,0,0-.42.25,1.19,1.19,0,0,0-.21.44"/><path class="cls-14" d="M44.42,90a.5.5,0,0,1,.27-.16.18.18,0,0,1,.17,0,.15.15,0,0,1,0,.21.39.39,0,0,1-.21.11,1,1,0,0,1-.34,0C44.26,90.13,44.36,90,44.42,90Z"/><path class="cls-15" d="M44.52,89.94v0h.21a.09.09,0,1,0,0-.18C44.7,89.78,44.5,89.87,44.52,89.94Z"/><path class="cls-13" d="M45.49,92a1.69,1.69,0,0,0,.12.55c.07.2.24.42.45.37a.31.31,0,0,0,.2-.4.72.72,0,0,0-.31-.38,1.18,1.18,0,0,0-.46-.14"/><path class="cls-14" d="M45.91,92.32a.45.45,0,0,1,.19.24.19.19,0,0,1,0,.18.17.17,0,0,1-.22,0,.43.43,0,0,1-.13-.19,1.07,1.07,0,0,1-.11-.33C45.71,92.18,45.84,92.27,45.91,92.32Z"/><path class="cls-15" d="M45.93,92.41s0,0,0,0a.11.11,0,0,0,0,.08v.12c0,.14.19.13.19,0S46,92.38,45.93,92.41Z"/><path class="cls-13" d="M43.46,89.55a2.36,2.36,0,0,0,.45-.33c.15-.15.28-.39.15-.56a.33.33,0,0,0-.45,0,.74.74,0,0,0-.22.44,1,1,0,0,0,.07.48"/><path class="cls-14" d="M43.55,89.05a.5.5,0,0,1,.14-.28.18.18,0,0,1,.17,0,.17.17,0,0,1,.1.2.51.51,0,0,1-.12.2,1.43,1.43,0,0,1-.26.23C43.51,89.29,43.53,89.14,43.55,89.05Z"/><path class="cls-15" d="M43.62,89h0a.13.13,0,0,0,.08,0l.1-.06c.12-.08,0-.22-.08-.17S43.57,89,43.62,89Z"/><path class="cls-13" d="M41.61,89.45a2.06,2.06,0,0,0,.31-.46c.1-.19.15-.46,0-.58a.32.32,0,0,0-.43.12.69.69,0,0,0-.07.49,1.1,1.1,0,0,0,.22.43"/><path class="cls-14" d="M41.53,88.94a.45.45,0,0,1,0-.3.17.17,0,0,1,.14-.11.18.18,0,0,1,.16.16.48.48,0,0,1-.05.23,1.33,1.33,0,0,1-.18.3C41.57,89.18,41.55,89,41.53,88.94Z"/><path class="cls-15" d="M41.58,88.86a0,0,0,0,0,0,0s0,0,.07,0l.07-.09c.09-.11,0-.22-.13-.14S41.52,88.84,41.58,88.86Z"/><path class="cls-13" d="M40.39,89.22a1.75,1.75,0,0,0-.06-.56c0-.2-.18-.44-.39-.42a.32.32,0,0,0-.26.37A.69.69,0,0,0,40,89a1,1,0,0,0,.44.19"/><path class="cls-14" d="M40,88.88a.5.5,0,0,1-.17-.26.19.19,0,0,1,0-.18.18.18,0,0,1,.22,0,.47.47,0,0,1,.11.21,1.35,1.35,0,0,1,.06.34C40.19,89,40.07,88.94,40,88.88Z"/><path class="cls-15" d="M40,88.79s0,0,0,0a.12.12,0,0,0,0-.08v-.13c0-.14-.17-.14-.19,0S39.93,88.81,40,88.79Z"/><path class="cls-13" d="M40.39,89.89a1.79,1.79,0,0,0-.44-.34c-.19-.11-.45-.17-.58,0a.33.33,0,0,0,.09.45.75.75,0,0,0,.49.09,1.23,1.23,0,0,0,.44-.19"/><path class="cls-14" d="M39.88,89.93a.46.46,0,0,1-.3-.06.2.2,0,0,1-.1-.15c0-.08.09-.14.17-.15a.44.44,0,0,1,.22.07,1.12,1.12,0,0,1,.29.19C40.12,89.91,40,89.92,39.88,89.93Z"/><path class="cls-15" d="M39.81,89.88v0a.18.18,0,0,0-.05-.07l-.09-.08c-.11-.1-.22,0-.14.12S39.78,89.94,39.81,89.88Z"/><path class="cls-13" d="M41.5,91.54a2.12,2.12,0,0,0-.55.14c-.19.08-.41.25-.36.45a.32.32,0,0,0,.41.2.72.72,0,0,0,.37-.32,1.1,1.1,0,0,0,.13-.47"/><path class="cls-14" d="M41.22,92a.52.52,0,0,1-.24.2.19.19,0,0,1-.18,0,.17.17,0,0,1,0-.22.55.55,0,0,1,.19-.14,1.28,1.28,0,0,1,.33-.11C41.35,91.76,41.27,91.89,41.22,92Z"/><path class="cls-15" d="M41.13,92h0s-.06,0-.09,0l-.12,0a.1.1,0,1,0,0,.19C41,92.18,41.16,92.05,41.13,92Z"/><path class="cls-13" d="M45,90.79a2,2,0,0,0,.54.14c.21,0,.48,0,.54-.22a.34.34,0,0,0-.26-.37.67.67,0,0,0-.48.1c-.19.1-.21.19-.34.35"/><path class="cls-14" d="M45.43,90.55a.48.48,0,0,1,.31-.06.17.17,0,0,1,.14.1.17.17,0,0,1-.09.2.48.48,0,0,1-.24,0,1.35,1.35,0,0,1-.34-.06C45.22,90.66,45.35,90.59,45.43,90.55Z"/><path class="cls-15" d="M45.52,90.57s0,0,0,0l.07,0,.12,0a.09.09,0,1,0,.08-.17S45.53,90.5,45.52,90.57Z"/><path class="cls-13" d="M43.52,92.69a2.09,2.09,0,0,0,0,.56c0,.21.12.46.33.47a.33.33,0,0,0,.31-.34.7.7,0,0,0-.21-.44c-.14-.16-.23-.16-.42-.25"/><path class="cls-14" d="M43.86,93.08a.46.46,0,0,1,.13.28.22.22,0,0,1-.07.17.17.17,0,0,1-.21,0,.38.38,0,0,1-.08-.23,1,1,0,0,1,0-.34C43.7,92.89,43.8,93,43.86,93.08Z"/><path class="cls-15" d="M43.86,93.17h0a.13.13,0,0,0,0,.08v.12c0,.15.14.17.18.05S43.93,93.16,43.86,93.17Z"/><path class="cls-16" d="M42.35,89.3c-.22.13-.25.48-.49.57a1.08,1.08,0,0,1-.36,0c-.78.06-.61,1.29-.22,1.67a.78.78,0,0,0,.79.13.91.91,0,0,0,.67,0l0,0c0,.09,0,.18.05.26a1.4,1.4,0,0,0,1.2,1,1,1,0,0,0,1.09-1,.91.91,0,0,1,0-.4,1.86,1.86,0,0,0,.1-.2c.13-.33-.28-.64-.64-.68a5.71,5.71,0,0,1-1.1-.06l-.23-.1c0-.12.07-.23.1-.35a.81.81,0,0,0-.67-.91A.47.47,0,0,0,42.35,89.3Z"/><path class="cls-10" d="M48.94,62.7c.05,4.1-2.82,7.47-6.41,7.51S36,67,35.94,62.85s2.82-7.47,6.41-7.51S48.89,58.59,48.94,62.7Z"/><path class="cls-11" d="M49.32,62.94c0,4.11-2.56,7.47-5.83,7.51s-6-3.26-6-7.37,2.56-7.47,5.83-7.51S49.27,58.83,49.32,62.94Z"/><path class="cls-12" d="M40.71,67.17a2.72,2.72,0,0,0,1.56,1.59c1.22.37,2.8-.52,3.56-1.65a6.65,6.65,0,0,0,.91-3.64A9.15,9.15,0,0,0,46,59a2.14,2.14,0,0,0-1.76-1.29,3.53,3.53,0,0,0-2.22,1C38.85,61.43,39.35,64.36,40.71,67.17Z"/><path class="cls-13" d="M42.09,63.63a2,2,0,0,0-.54-.14c-.21,0-.48,0-.54.23a.33.33,0,0,0,.27.37.76.76,0,0,0,.48-.11c.18-.1.2-.19.33-.35"/><path class="cls-14" d="M41.64,63.87a.53.53,0,0,1-.3.07.21.21,0,0,1-.15-.1.16.16,0,0,1,.09-.2.39.39,0,0,1,.24,0,1,1,0,0,1,.34,0C41.85,63.76,41.72,63.83,41.64,63.87Z"/><path class="cls-15" d="M41.55,63.85v0a.18.18,0,0,0-.07,0l-.12,0c-.13,0-.19.1-.08.16S41.55,63.92,41.55,63.85Z"/><path class="cls-13" d="M42.33,61.86a2.09,2.09,0,0,0,0-.56c0-.21-.12-.46-.33-.47a.33.33,0,0,0-.31.33.73.73,0,0,0,.21.45c.13.16.22.16.41.25"/><path class="cls-14" d="M42,61.47a.52.52,0,0,1-.13-.28.22.22,0,0,1,.07-.17.19.19,0,0,1,.22,0,.45.45,0,0,1,.07.23,1,1,0,0,1,0,.34C42.16,61.66,42.06,61.54,42,61.47Z"/><path class="cls-15" d="M42,61.38l0,0a.11.11,0,0,0,0-.08l0-.12c0-.14-.15-.17-.19,0S41.93,61.39,42,61.38Z"/><path class="cls-13" d="M44.36,64.46a2,2,0,0,0,.28.49c.12.17.34.33.53.23a.33.33,0,0,0,.08-.45.67.67,0,0,0-.4-.27,1,1,0,0,0-.49,0"/><path class="cls-14" d="M44.85,64.62a.49.49,0,0,1,.25.17.17.17,0,0,1,0,.18.16.16,0,0,1-.2.07.4.4,0,0,1-.19-.15,1.07,1.07,0,0,1-.19-.28C44.62,64.54,44.76,64.59,44.85,64.62Z"/><path class="cls-15" d="M44.9,64.7s0,0,0,0a.11.11,0,0,0,0,.08l.05.11c.06.14.22.07.18,0S45,64.65,44.9,64.7Z"/><path class="cls-13" d="M43.41,66.45a2.22,2.22,0,0,0-.45.34c-.15.15-.28.4-.15.57a.34.34,0,0,0,.45,0,.68.68,0,0,0,.21-.45,1,1,0,0,0-.06-.48"/><path class="cls-14" d="M43.32,67a.47.47,0,0,1-.14.27.17.17,0,0,1-.17.06.17.17,0,0,1-.1-.2.47.47,0,0,1,.12-.2,1.43,1.43,0,0,1,.26-.23C43.36,66.72,43.33,66.87,43.32,67Z"/><path class="cls-15" d="M43.24,67h0a.11.11,0,0,0-.08,0l-.1.06c-.12.08,0,.23.08.17S43.3,67.06,43.24,67Z"/><path class="cls-13" d="M44.8,63.58a1.93,1.93,0,0,0,.49.26c.2.08.48.1.58-.09a.33.33,0,0,0-.17-.42.69.69,0,0,0-.49,0c-.2,0-.24.13-.41.26"/><path class="cls-14" d="M45.3,63.45a.47.47,0,0,1,.31,0,.24.24,0,0,1,.12.14.17.17,0,0,1-.14.17.5.5,0,0,1-.24,0A1.09,1.09,0,0,1,45,63.6C45.06,63.51,45.21,63.47,45.3,63.45Z"/><path class="cls-15" d="M45.38,63.49v0l.06.06.1.07c.12.07.22-.06.12-.15S45.4,63.43,45.38,63.49Z"/><path class="cls-13" d="M44.12,61.85a2.05,2.05,0,0,0,.55.1c.21,0,.48-.07.52-.28a.33.33,0,0,0-.29-.34.75.75,0,0,0-.48.14c-.17.12-.18.21-.3.38"/><path class="cls-14" d="M44.55,61.57a.53.53,0,0,1,.3-.09.2.2,0,0,1,.15.09.16.16,0,0,1-.07.21.46.46,0,0,1-.23,0,1.34,1.34,0,0,1-.35,0C44.35,61.71,44.48,61.62,44.55,61.57Z"/><path class="cls-15" d="M44.64,61.59v0l.08,0,.12,0a.09.09,0,1,0,.06-.18S44.64,61.52,44.64,61.59Z"/><path class="cls-13" d="M43.82,60.65a2.08,2.08,0,0,0,.48-.28c.17-.13.33-.36.22-.54a.32.32,0,0,0-.44-.08.72.72,0,0,0-.27.42,1,1,0,0,0,0,.48"/><path class="cls-14" d="M44,60.16a.46.46,0,0,1,.17-.26.19.19,0,0,1,.18,0,.17.17,0,0,1,.07.21.4.4,0,0,1-.14.18.94.94,0,0,1-.29.2C43.9,60.39,43.94,60.24,44,60.16Z"/><path class="cls-15" d="M44.05,60.11h0s.06,0,.09,0l.1-.05c.13-.06.07-.22-.06-.18S44,60.06,44.05,60.11Z"/><path class="cls-13" d="M43.22,60.93a2.48,2.48,0,0,0,.12-.54c0-.22,0-.49-.24-.53a.32.32,0,0,0-.36.27.66.66,0,0,0,.12.48c.1.18.19.2.36.32"/><path class="cls-14" d="M43,60.49a.46.46,0,0,1-.07-.3A.2.2,0,0,1,43,60a.17.17,0,0,1,.2.09.39.39,0,0,1,0,.24,1.32,1.32,0,0,1,0,.34C43.08,60.7,43,60.56,43,60.49Z"/><path class="cls-15" d="M43,60.4h0a.09.09,0,0,0,0-.08l0-.11c.05-.14-.11-.2-.17-.08S42.91,60.4,43,60.4Z"/><path class="cls-13" d="M42.18,62.63a2.17,2.17,0,0,0-.36-.44c-.15-.14-.4-.27-.56-.14a.34.34,0,0,0,0,.46.72.72,0,0,0,.45.2,1.13,1.13,0,0,0,.48-.08"/><path class="cls-14" d="M41.67,62.55a.43.43,0,0,1-.28-.13.18.18,0,0,1-.06-.17.15.15,0,0,1,.19-.1.43.43,0,0,1,.21.11,1.41,1.41,0,0,1,.24.25C41.91,62.59,41.76,62.56,41.67,62.55Z"/><path class="cls-15" d="M41.61,62.48v0a.12.12,0,0,0,0-.08l-.06-.1c-.08-.12-.23,0-.17.08S41.57,62.53,41.61,62.48Z"/><path class="cls-13" d="M44.32,65.47a2.11,2.11,0,0,0,.09.56c.07.2.22.43.43.39a.33.33,0,0,0,.23-.39.72.72,0,0,0-.3-.39c-.16-.13-.25-.11-.45-.17"/><path class="cls-14" d="M44.72,65.79a.41.41,0,0,1,.18.25.15.15,0,0,1,0,.17.17.17,0,0,1-.22,0,.51.51,0,0,1-.12-.2,1.31,1.31,0,0,1-.09-.34C44.53,65.64,44.65,65.73,44.72,65.79Z"/><path class="cls-15" d="M44.74,65.88s0,0,0,0a.19.19,0,0,0,0,.08v.12c0,.14.18.14.19,0S44.8,65.85,44.74,65.88Z"/><path class="cls-13" d="M42,65a1.92,1.92,0,0,0-.51.22c-.19.1-.37.31-.29.5a.32.32,0,0,0,.43.13.69.69,0,0,0,.32-.37A1,1,0,0,0,42,65"/><path class="cls-14" d="M41.77,65.42a.5.5,0,0,1-.2.23.19.19,0,0,1-.18,0,.18.18,0,0,1,0-.22.38.38,0,0,1,.17-.16,1.14,1.14,0,0,1,.31-.16C41.87,65.19,41.81,65.33,41.77,65.42Z"/><path class="cls-15" d="M41.68,65.45h0a.12.12,0,0,0-.08,0l-.12,0a.09.09,0,1,0,0,.18C41.56,65.66,41.72,65.51,41.68,65.45Z"/><path class="cls-16" d="M44.57,62.46c-.21-.14-.54,0-.73-.2s-.11-.21-.17-.32c-.39-.68-1.43,0-1.61.51a.77.77,0,0,0,.21.77.88.88,0,0,0,.31.59l.05,0-.21.15A1.41,1.41,0,0,0,42,65.52a1,1,0,0,0,1.35.58.88.88,0,0,1,.35-.2,1.77,1.77,0,0,1,.23,0c.35,0,.46-.52.35-.87a5.67,5.67,0,0,1-.41-1,1,1,0,0,1,0-.24c.11,0,.24,0,.35-.06a.81.81,0,0,0,.55-1A.53.53,0,0,0,44.57,62.46Z"/><path class="cls-10" d="M22.46,70.41c-2.94,2.86-7.35,3.11-9.86.54s-2.16-7,.78-9.85,7.36-3.11,9.86-.54S25.4,67.54,22.46,70.41Z"/><path class="cls-11" d="M22.55,70.85c-2.94,2.87-7.17,3.3-9.45,1s-1.75-6.56,1.18-9.43,7.18-3.3,9.46-1S25.49,68,22.55,70.85Z"/><path class="cls-12" d="M13.55,67.53a2.71,2.71,0,0,0-.07,2.23,3.55,3.55,0,0,0,3.64,1.44,6.56,6.56,0,0,0,3.26-1.86,9.07,9.07,0,0,0,2.71-3.6,2.13,2.13,0,0,0-.28-2.15,3.53,3.53,0,0,0-2.26-.92C16.42,62.23,14.65,64.61,13.55,67.53Z"/><path class="cls-13" d="M17.07,66.09a2.39,2.39,0,0,0-.28-.49c-.13-.16-.35-.33-.54-.22a.33.33,0,0,0-.08.44.64.64,0,0,0,.41.27,1,1,0,0,0,.49,0"/><path class="cls-14" d="M16.58,65.94a.53.53,0,0,1-.26-.18.19.19,0,0,1,0-.18.18.18,0,0,1,.21-.07.52.52,0,0,1,.18.15,1.15,1.15,0,0,1,.2.29C16.81,66,16.66,66,16.58,65.94Z"/><path class="cls-15" d="M16.53,65.86s0,0,0,0a.24.24,0,0,0,0-.08l-.05-.11c-.06-.13-.21-.07-.18.06S16.48,65.9,16.53,65.86Z"/><path class="cls-13" d="M18.5,65.05a2.54,2.54,0,0,0,.43-.37c.14-.16.25-.41.11-.57a.32.32,0,0,0-.45,0,.67.67,0,0,0-.18.45,1.14,1.14,0,0,0,.09.48"/><path class="cls-14" d="M18.56,64.54a.5.5,0,0,1,.12-.29.18.18,0,0,1,.17-.06c.08,0,.12.11.11.19a.47.47,0,0,1-.11.21,1.09,1.09,0,0,1-.24.24C18.54,64.78,18.55,64.63,18.56,64.54Z"/><path class="cls-15" d="M18.63,64.47h0a.12.12,0,0,0,.08,0l.1-.07c.11-.08,0-.22-.09-.16S18.57,64.43,18.63,64.47Z"/><path class="cls-13" d="M18,68.31a2,2,0,0,0-.17.53c0,.21,0,.49.21.55a.33.33,0,0,0,.38-.25.69.69,0,0,0-.09-.48c-.09-.19-.18-.21-.33-.35"/><path class="cls-14" d="M18.25,68.77a.48.48,0,0,1,.05.31.18.18,0,0,1-.11.14.16.16,0,0,1-.19-.1.39.39,0,0,1,0-.24,1.37,1.37,0,0,1,.07-.34C18.14,68.55,18.21,68.69,18.25,68.77Z"/><path class="cls-15" d="M18.22,68.86h0a.18.18,0,0,0-.05.07l0,.11c-.06.13.1.2.16.09S18.29,68.87,18.22,68.86Z"/><path class="cls-13" d="M15.93,69a2.1,2.1,0,0,0-.56-.08c-.21,0-.48.06-.51.27a.32.32,0,0,0,.3.34.65.65,0,0,0,.47-.15c.17-.12.18-.21.3-.38"/><path class="cls-14" d="M15.5,69.28a.46.46,0,0,1-.3.09c-.06,0-.13,0-.15-.09a.15.15,0,0,1,.07-.2.38.38,0,0,1,.23-.06,1.38,1.38,0,0,1,.35,0C15.7,69.14,15.57,69.23,15.5,69.28Z"/><path class="cls-15" d="M15.41,69.27s0,0,0,0a.11.11,0,0,0-.08,0l-.12,0c-.14,0-.18.12-.06.17S15.41,69.33,15.41,69.27Z"/><path class="cls-13" d="M19,68a2.18,2.18,0,0,0,.15.54c.08.19.25.41.46.35a.33.33,0,0,0,.19-.41.68.68,0,0,0-.33-.36A.94.94,0,0,0,19,68"/><path class="cls-14" d="M19.41,68.29a.56.56,0,0,1,.2.23.19.19,0,0,1,0,.18.17.17,0,0,1-.21,0,.47.47,0,0,1-.15-.19.92.92,0,0,1-.11-.33C19.2,68.16,19.33,68.24,19.41,68.29Z"/><path class="cls-15" d="M19.43,68.38s0,0,0,0a.21.21,0,0,0,0,.08l0,.12c0,.14.19.12.19,0S19.49,68.35,19.43,68.38Z"/><path class="cls-13" d="M19.75,66.33a2.13,2.13,0,0,0,.31.47c.14.16.38.3.55.19a.33.33,0,0,0,.05-.45.65.65,0,0,0-.43-.24,1,1,0,0,0-.48,0"/><path class="cls-14" d="M20.25,66.45a.57.57,0,0,1,.27.16.18.18,0,0,1,0,.17.16.16,0,0,1-.2.09.53.53,0,0,1-.2-.13,1.31,1.31,0,0,1-.21-.27C20,66.4,20.16,66.43,20.25,66.45Z"/><path class="cls-15" d="M20.3,66.53a0,0,0,0,1,0,0,.19.19,0,0,0,0,.08l.06.11c.07.13.22.05.17-.07S20.35,66.48,20.3,66.53Z"/><path class="cls-13" d="M20.41,65.29a2.07,2.07,0,0,0,.54.15c.21,0,.48,0,.54-.21a.32.32,0,0,0-.25-.37.64.64,0,0,0-.48.09c-.19.1-.21.18-.35.34"/><path class="cls-14" d="M20.87,65.06a.47.47,0,0,1,.31-.06.2.2,0,0,1,.14.11.16.16,0,0,1-.1.2.44.44,0,0,1-.23,0,.94.94,0,0,1-.34-.07C20.65,65.17,20.79,65.1,20.87,65.06Z"/><path class="cls-15" d="M21,65.08a0,0,0,0,0,0,0l.07,0,.11,0c.14,0,.2-.11.09-.17S21,65,21,65.08Z"/><path class="cls-13" d="M19.79,65.05a2.36,2.36,0,0,0,.48-.29c.17-.13.33-.36.22-.54a.33.33,0,0,0-.45-.07.67.67,0,0,0-.26.41,1,1,0,0,0,0,.49"/><path class="cls-14" d="M19.94,64.55a.44.44,0,0,1,.17-.25.18.18,0,0,1,.17,0,.17.17,0,0,1,.08.21.52.52,0,0,1-.15.18,1,1,0,0,1-.28.21C19.87,64.79,19.91,64.64,19.94,64.55Z"/><path class="cls-15" d="M20,64.5s0,0,0,0a.08.08,0,0,0,.08,0l.11,0c.13-.06.06-.21-.06-.17S20,64.46,20,64.5Z"/><path class="cls-13" d="M17.85,65.46a2,2,0,0,0,.07-.55c0-.21-.08-.48-.29-.51a.32.32,0,0,0-.33.31.65.65,0,0,0,.16.46c.12.17.21.18.39.29"/><path class="cls-14" d="M17.55,65.05a.54.54,0,0,1-.1-.3.2.2,0,0,1,.09-.16.15.15,0,0,1,.2.07.38.38,0,0,1,.06.23,1.37,1.37,0,0,1,0,.35C17.69,65.24,17.6,65.12,17.55,65.05Z"/><path class="cls-15" d="M17.56,65s0,0,0,0,0,0,0-.08l0-.12a.09.09,0,1,0-.18,0S17.49,65,17.56,65Z"/><path class="cls-13" d="M17.26,69a1.87,1.87,0,0,0-.33.45c-.1.18-.16.45,0,.58a.33.33,0,0,0,.44-.11.71.71,0,0,0,.08-.48,1,1,0,0,0-.2-.44"/><path class="cls-14" d="M17.32,69.49a.46.46,0,0,1-.06.3.2.2,0,0,1-.15.1.17.17,0,0,1-.15-.16A.46.46,0,0,1,17,69.5a1.12,1.12,0,0,1,.19-.29C17.29,69.24,17.31,69.4,17.32,69.49Z"/><path class="cls-15" d="M17.26,69.56h0a.18.18,0,0,0-.07,0l-.08.09c-.1.11,0,.23.12.14S17.33,69.59,17.26,69.56Z"/><path class="cls-13" d="M16,66.92a2.31,2.31,0,0,0-.51-.22c-.21-.06-.48,0-.57.14a.34.34,0,0,0,.21.41.7.7,0,0,0,.49,0c.19-.07.23-.16.38-.3"/><path class="cls-14" d="M15.55,67.09a.47.47,0,0,1-.31,0,.19.19,0,0,1-.13-.13c0-.08.05-.15.12-.18a.49.49,0,0,1,.24,0,1.28,1.28,0,0,1,.33.11C15.78,67,15.63,67.06,15.55,67.09Z"/><path class="cls-15" d="M15.46,67.06v0a.18.18,0,0,0-.07,0l-.1-.06c-.13-.07-.22.08-.11.15S15.45,67.12,15.46,67.06Z"/><path class="cls-16" d="M19.62,67.08c-.05-.25-.36-.41-.36-.66a1.57,1.57,0,0,1,.11-.35c.23-.75-1-1-1.47-.82a.8.8,0,0,0-.42.69.91.91,0,0,0-.21.63s0,0,0,.06l-.25,0a1.37,1.37,0,0,0-1.41.72,1,1,0,0,0,.51,1.38,1.27,1.27,0,0,1,.39.12c.05,0,.09.12.15.17.26.24.69,0,.87-.35a6,6,0,0,1,.46-1,1,1,0,0,1,.18-.17,2.92,2.92,0,0,0,.28.21.8.8,0,0,0,1.09-.28A.55.55,0,0,0,19.62,67.08Z"/><ellipse class="cls-10" cx="72.9" cy="43.06" rx="7.44" ry="6.5" transform="translate(-11.76 42.02) rotate(-29.87)"/><path class="cls-11" d="M69.69,37c3.56-2,7.77-1.41,9.4,1.42s.06,6.79-3.5,8.84-7.77,1.4-9.4-1.43S66.13,39,69.69,37Z"/><path class="cls-12" d="M77.58,42.42a2.74,2.74,0,0,0,.63-2.14A3.6,3.6,0,0,0,75,38a6.68,6.68,0,0,0-3.63,1,9.08,9.08,0,0,0-3.51,2.82,2.13,2.13,0,0,0-.27,2.15,3.47,3.47,0,0,0,2,1.46C73.48,46.85,75.79,45,77.58,42.42Z"/><path class="cls-13" d="M73.82,42.94a2,2,0,0,0,.14.54c.09.2.26.41.47.36a.34.34,0,0,0,.19-.41.74.74,0,0,0-.33-.37,1.09,1.09,0,0,0-.47-.12"/><path class="cls-14" d="M74.25,43.21a.54.54,0,0,1,.21.24.19.19,0,0,1,0,.18.17.17,0,0,1-.22,0,.34.34,0,0,1-.14-.19,1.24,1.24,0,0,1-.12-.32C74,43.09,74.18,43.17,74.25,43.21Z"/><path class="cls-15" d="M74.28,43.3l0,0a.14.14,0,0,0,0,.09l0,.12c0,.14.19.12.19,0S74.34,43.27,74.28,43.3Z"/><path class="cls-13" d="M72.16,43.59a2.65,2.65,0,0,0-.5.26c-.17.12-.35.33-.25.52a.33.33,0,0,0,.44.1.68.68,0,0,0,.29-.39,1,1,0,0,0,0-.49"/><path class="cls-14" d="M72,44.07a.44.44,0,0,1-.19.25.17.17,0,0,1-.17,0c-.08,0-.09-.13-.07-.21a.55.55,0,0,1,.16-.18,1.49,1.49,0,0,1,.3-.18C72.07,43.85,72,44,72,44.07Z"/><path class="cls-15" d="M71.9,44.12h0a.14.14,0,0,0-.09,0l-.11.05c-.13,0-.08.21,0,.17S71.94,44.17,71.9,44.12Z"/><path class="cls-13" d="M73.44,40.56a2.36,2.36,0,0,0,.29-.48c.09-.2.12-.47-.06-.58a.33.33,0,0,0-.43.14.75.75,0,0,0,0,.49,1.08,1.08,0,0,0,.24.43"/><path class="cls-14" d="M73.34,40.05a.48.48,0,0,1,0-.31.22.22,0,0,1,.14-.11.16.16,0,0,1,.16.15.45.45,0,0,1,0,.23,1.14,1.14,0,0,1-.16.31C73.39,40.29,73.36,40.14,73.34,40.05Z"/><path class="cls-15" d="M73.38,40h0a.09.09,0,0,0,.06-.06l.08-.1a.09.09,0,1,0-.14-.12S73.32,40,73.38,40Z"/><path class="cls-13" d="M75.64,40.42a2.39,2.39,0,0,0,.52.22c.2.06.48,0,.56-.14a.33.33,0,0,0-.2-.41.69.69,0,0,0-.49,0c-.2.08-.23.16-.39.3"/><path class="cls-14" d="M76.13,40.25a.47.47,0,0,1,.31,0,.19.19,0,0,1,.13.13c0,.07,0,.15-.12.18a.49.49,0,0,1-.24,0,1,1,0,0,1-.33-.11C75.9,40.33,76,40.28,76.13,40.25Z"/><path class="cls-15" d="M76.21,40.28s0,0,0,0a.15.15,0,0,0,.06,0l.11.06c.13.07.21-.08.11-.15S76.23,40.22,76.21,40.28Z"/><path class="cls-13" d="M72.45,40.6a2.11,2.11,0,0,0,0-.56c0-.21-.14-.46-.35-.46a.34.34,0,0,0-.29.35.7.7,0,0,0,.23.44c.14.15.23.15.42.23"/><path class="cls-14" d="M72.1,40.23A.5.5,0,0,1,72,40a.18.18,0,0,1,.06-.17.17.17,0,0,1,.22,0,.54.54,0,0,1,.09.22,1.34,1.34,0,0,1,0,.35C72.27,40.41,72.16,40.29,72.1,40.23Z"/><path class="cls-15" d="M72.1,40.14l0,0a.11.11,0,0,0,0-.08v-.12c0-.14-.16-.16-.18,0S72,40.15,72.1,40.14Z"/><path class="cls-13" d="M71.28,42a2,2,0,0,0-.19-.53c-.1-.19-.29-.39-.49-.32a.33.33,0,0,0-.16.42.67.67,0,0,0,.36.34,1,1,0,0,0,.48.09"/><path class="cls-14" d="M70.82,41.8a.52.52,0,0,1-.22-.22.23.23,0,0,1,0-.18.17.17,0,0,1,.22,0,.46.46,0,0,1,.16.18,1.46,1.46,0,0,1,.14.31C71,41.91,70.9,41.84,70.82,41.8Z"/><path class="cls-15" d="M70.79,41.71l0,0a.14.14,0,0,0,0-.09l0-.11c0-.14-.2-.11-.18,0S70.73,41.75,70.79,41.71Z"/><path class="cls-13" d="M70.38,42.88a2.15,2.15,0,0,0-.49-.28c-.19-.08-.47-.11-.58.07a.34.34,0,0,0,.16.43.68.68,0,0,0,.49,0,1.07,1.07,0,0,0,.42-.25"/><path class="cls-14" d="M69.87,43a.39.39,0,0,1-.3,0,.21.21,0,0,1-.12-.14.16.16,0,0,1,.14-.16.4.4,0,0,1,.24,0,1.11,1.11,0,0,1,.31.15C70.11,42.94,70,43,69.87,43Z"/><path class="cls-15" d="M69.79,43v0s0,0-.06-.06l-.1-.07a.09.09,0,1,0-.12.14S69.77,43,69.79,43Z"/><path class="cls-13" d="M70.92,43.27a2.41,2.41,0,0,0-.54.16c-.19.09-.4.27-.34.47a.31.31,0,0,0,.41.18.72.72,0,0,0,.36-.33,1.09,1.09,0,0,0,.11-.48"/><path class="cls-14" d="M70.65,43.72a.43.43,0,0,1-.22.2.18.18,0,0,1-.19,0,.18.18,0,0,1,0-.22.52.52,0,0,1,.19-.14,1.27,1.27,0,0,1,.32-.13C70.78,43.51,70.7,43.64,70.65,43.72Z"/><path class="cls-15" d="M70.56,43.74h-.1l-.12,0c-.14,0-.11.19,0,.19S70.6,43.8,70.56,43.74Z"/><path class="cls-13" d="M72.9,43.35a2.57,2.57,0,0,0-.21.52c0,.21,0,.49.16.57a.33.33,0,0,0,.4-.22.7.7,0,0,0,0-.49c-.08-.19-.17-.23-.31-.38"/><path class="cls-14" d="M73.08,43.83a.48.48,0,0,1,0,.31.21.21,0,0,1-.12.14.18.18,0,0,1-.19-.12.65.65,0,0,1,0-.24,1.28,1.28,0,0,1,.11-.33C73,43.61,73.05,43.75,73.08,43.83Z"/><path class="cls-15" d="M73.05,43.92h0s0,0-.06.06l0,.11c-.07.13.08.21.16.1S73.12,43.93,73.05,43.92Z"/><path class="cls-13" d="M74.34,40.1a2.51,2.51,0,0,0,.44-.35c.15-.16.27-.4.14-.57a.33.33,0,0,0-.45,0,.68.68,0,0,0-.21.45,1.13,1.13,0,0,0,.08.48"/><path class="cls-14" d="M74.42,39.59a.43.43,0,0,1,.13-.28.18.18,0,0,1,.17-.06.16.16,0,0,1,.1.19.43.43,0,0,1-.11.21,1.41,1.41,0,0,1-.25.24C74.39,39.83,74.41,39.68,74.42,39.59Z"/><path class="cls-15" d="M74.49,39.53h0l.07,0,.1-.07c.12-.08,0-.22-.08-.17S74.44,39.49,74.49,39.53Z"/><path class="cls-13" d="M75,42.39a1.94,1.94,0,0,0,.45.35c.18.1.45.17.58,0a.33.33,0,0,0-.1-.44.66.66,0,0,0-.48-.09,1.09,1.09,0,0,0-.45.18"/><path class="cls-14" d="M75.54,42.35a.52.52,0,0,1,.3.06.18.18,0,0,1,.09.16.15.15,0,0,1-.16.14.39.39,0,0,1-.23-.07,1.12,1.12,0,0,1-.29-.19C75.29,42.37,75.45,42.36,75.54,42.35Z"/><path class="cls-15" d="M75.61,42.41v0a.18.18,0,0,0,0,.07l.09.08c.1.1.22,0,.14-.12S75.64,42.34,75.61,42.41Z"/><path class="cls-16" d="M71.59,41.35c0,.25.24.48.18.73s-.13.2-.19.31c-.41.66.68,1.25,1.22,1.16a.78.78,0,0,0,.57-.57.87.87,0,0,0,.37-.55v-.06l.24.1a1.38,1.38,0,0,0,1.54-.35,1,1,0,0,0-.15-1.46,1,1,0,0,1-.34-.22,1.28,1.28,0,0,1-.11-.2c-.19-.29-.68-.15-.93.12a5.91,5.91,0,0,1-.69.86l-.22.12c-.07-.09-.14-.19-.22-.28a.8.8,0,0,0-1.13,0A.53.53,0,0,0,71.59,41.35Z"/><ellipse class="cls-10" cx="93.75" cy="37.34" rx="6.5" ry="7.44" transform="translate(-6.39 24.85) rotate(-14.61)"/><ellipse class="cls-11" cx="92.76" cy="37.35" rx="5.92" ry="7.44" transform="matrix(0.97, -0.25, 0.25, 0.97, -6.42, 24.6)"/><path class="cls-12" d="M94.38,32.66a2.73,2.73,0,0,0-1.91-1.16,3.56,3.56,0,0,0-3,2.45,6.65,6.65,0,0,0,0,3.75,9,9,0,0,0,1.79,4.13,2.14,2.14,0,0,0,2,.83,3.55,3.55,0,0,0,1.92-1.5C97.56,37.78,96.37,35.06,94.38,32.66Z"/><path class="cls-13" d="M93.88,36.43a1.75,1.75,0,0,0,.56,0c.21,0,.47-.14.47-.35a.32.32,0,0,0-.35-.29.65.65,0,0,0-.44.22c-.15.14-.15.23-.24.42"/><path class="cls-14" d="M94.26,36.08a.49.49,0,0,1,.28-.13.18.18,0,0,1,.17.06.17.17,0,0,1,0,.22.42.42,0,0,1-.22.08,1.38,1.38,0,0,1-.35,0C94.08,36.25,94.2,36.14,94.26,36.08Z"/><path class="cls-15" d="M94.35,36.08l0,0s0,0,.08,0h.12c.14,0,.17-.15,0-.18S94.34,36,94.35,36.08Z"/><path class="cls-13" d="M94.08,38.2a2.15,2.15,0,0,0,.11.55c.07.2.23.42.44.38a.33.33,0,0,0,.21-.4.63.63,0,0,0-.3-.38,1,1,0,0,0-.46-.15"/><path class="cls-14" d="M94.49,38.5a.45.45,0,0,1,.19.24.16.16,0,0,1,0,.18.17.17,0,0,1-.21,0,.44.44,0,0,1-.13-.2,1,1,0,0,1-.1-.34C94.29,38.36,94.42,38.45,94.49,38.5Z"/><path class="cls-15" d="M94.51,38.59v0s0,.06,0,.08v.12c0,.15.18.13.19,0S94.58,38.56,94.51,38.59Z"/><path class="cls-13" d="M91.48,36.17a2.46,2.46,0,0,0-.38-.41c-.17-.13-.42-.24-.58-.09a.33.33,0,0,0,0,.45.69.69,0,0,0,.46.17,1.13,1.13,0,0,0,.47-.12"/><path class="cls-14" d="M91,36.13a.44.44,0,0,1-.29-.11.17.17,0,0,1-.07-.16.16.16,0,0,1,.18-.12.49.49,0,0,1,.22.1,1.1,1.1,0,0,1,.25.23C91.21,36.15,91.06,36.14,91,36.13Z"/><path class="cls-15" d="M90.9,36.07a0,0,0,0,0,0,0s0,0,0-.08l-.07-.09c-.09-.11-.23,0-.16.1S90.86,36.12,90.9,36.07Z"/><path class="cls-13" d="M91.93,34a2.44,2.44,0,0,0,.35-.43c.11-.19.18-.45,0-.59a.33.33,0,0,0-.44.09.7.7,0,0,0-.1.49,1.05,1.05,0,0,0,.18.44"/><path class="cls-14" d="M91.89,33.49a.46.46,0,0,1,.07-.3.16.16,0,0,1,.15-.09.17.17,0,0,1,.15.16.62.62,0,0,1-.07.23,1.49,1.49,0,0,1-.2.29C91.91,33.74,91.9,33.58,91.89,33.49Z"/><path class="cls-15" d="M92,33.42h0a.18.18,0,0,0,.07-.05l.09-.09c.1-.1,0-.22-.12-.14S91.89,33.39,92,33.42Z"/><path class="cls-13" d="M91.27,37.13a2.12,2.12,0,0,0-.55-.14c-.21,0-.48,0-.53.23a.34.34,0,0,0,.26.37.76.76,0,0,0,.48-.11c.18-.1.21-.19.34-.35"/><path class="cls-14" d="M90.81,37.37a.51.51,0,0,1-.3.07.21.21,0,0,1-.15-.11.15.15,0,0,1,.1-.19.36.36,0,0,1,.23,0,.79.79,0,0,1,.34.06C91,37.26,90.89,37.33,90.81,37.37Z"/><path class="cls-15" d="M90.72,37.35v0s0,0-.07,0l-.11,0c-.14,0-.2.11-.08.17S90.72,37.42,90.72,37.35Z"/><path class="cls-13" d="M92.34,38.64a2.69,2.69,0,0,0-.56,0c-.2,0-.45.18-.43.39a.34.34,0,0,0,.37.27.73.73,0,0,0,.42-.26c.14-.15.13-.24.2-.44"/><path class="cls-14" d="M92,39a.46.46,0,0,1-.26.15.19.19,0,0,1-.18-.05.16.16,0,0,1,0-.21.39.39,0,0,1,.21-.11,1,1,0,0,1,.34,0C92.16,38.84,92.05,39,92,39Z"/><path class="cls-15" d="M91.9,39l0,0a.11.11,0,0,0-.08,0h-.12a.09.09,0,1,0,0,.18S91.92,39.09,91.9,39Z"/><path class="cls-13" d="M92.92,39.73a2.52,2.52,0,0,0-.4.4c-.13.16-.23.42-.08.57a.33.33,0,0,0,.45,0,.71.71,0,0,0,.16-.47,1.19,1.19,0,0,0-.13-.47"/><path class="cls-14" d="M92.9,40.25a.52.52,0,0,1-.11.29.17.17,0,0,1-.16.07.16.16,0,0,1-.12-.18.47.47,0,0,1,.09-.22,1.43,1.43,0,0,1,.23-.26C92.91,40,92.9,40.16,92.9,40.25Z"/><path class="cls-15" d="M92.83,40.32h0a.13.13,0,0,0-.07,0l-.09.08c-.12.09,0,.22.1.15S92.89,40.35,92.83,40.32Z"/><path class="cls-13" d="M93.44,39.32a2.11,2.11,0,0,0,0,.56c0,.21.15.46.37.45A.32.32,0,0,0,94.1,40a.7.7,0,0,0-.23-.44,1.1,1.1,0,0,0-.43-.22"/><path class="cls-14" d="M93.8,39.69a.47.47,0,0,1,.14.27.21.21,0,0,1-.06.17.18.18,0,0,1-.22,0,.54.54,0,0,1-.09-.22,1.34,1.34,0,0,1,0-.35C93.63,39.51,93.73,39.62,93.8,39.69Z"/><path class="cls-15" d="M93.8,39.78l0,0a.11.11,0,0,0,0,.08V40c0,.14.15.16.18,0S93.87,39.76,93.8,39.78Z"/><path class="cls-13" d="M94,37.42a1.9,1.9,0,0,0,.45.34c.18.1.45.17.58,0a.32.32,0,0,0-.1-.44.69.69,0,0,0-.49-.09,1,1,0,0,0-.44.19"/><path class="cls-14" d="M94.55,37.37a.43.43,0,0,1,.3.06.18.18,0,0,1,.1.15.17.17,0,0,1-.16.15.46.46,0,0,1-.23-.06,1.12,1.12,0,0,1-.29-.19C94.31,37.4,94.46,37.38,94.55,37.37Z"/><path class="cls-15" d="M94.63,37.43s0,0,0,0,0,0,.05.07l.09.08c.1.1.22,0,.13-.12S94.66,37.36,94.63,37.43Z"/><path class="cls-13" d="M91.28,35.17a2,2,0,0,0-.23-.51c-.11-.18-.31-.37-.51-.28a.33.33,0,0,0-.12.43.71.71,0,0,0,.38.32,1,1,0,0,0,.48,0"/><path class="cls-14" d="M90.81,35a.48.48,0,0,1-.24-.2.19.19,0,0,1,0-.18.17.17,0,0,1,.21-.05.35.35,0,0,1,.17.17.9.9,0,0,1,.17.3C91,35.06,90.89,35,90.81,35Z"/><path class="cls-15" d="M90.77,34.88s0,0,0,0a.11.11,0,0,0,0-.08l0-.12a.09.09,0,1,0-.18,0C90.56,34.76,90.71,34.92,90.77,34.88Z"/><path class="cls-13" d="M93.67,35.12a2.09,2.09,0,0,0,.45-.33c.15-.15.28-.39.16-.56a.33.33,0,0,0-.45,0,.67.67,0,0,0-.22.44,1,1,0,0,0,.06.48"/><path class="cls-14" d="M93.76,34.62a.48.48,0,0,1,.15-.28.18.18,0,0,1,.17-.05.16.16,0,0,1,.09.2.39.39,0,0,1-.12.2,1.43,1.43,0,0,1-.26.23C93.72,34.86,93.75,34.7,93.76,34.62Z"/><path class="cls-15" d="M93.84,34.56h0a.19.19,0,0,0,.08,0l.11-.07c.12-.07,0-.22-.09-.16S93.79,34.52,93.84,34.56Z"/><path class="cls-16" d="M91.76,38.16c.24.08.53-.11.75,0s.17.18.25.26c.54.57,1.39-.33,1.44-.87a.77.77,0,0,0-.39-.7.94.94,0,0,0-.44-.5l-.06,0a1.56,1.56,0,0,0,.16-.2,1.39,1.39,0,0,0,.07-1.58,1,1,0,0,0-1.45-.24c-.1.1-.17.23-.3.27a1.74,1.74,0,0,1-.22,0c-.33.11-.32.62-.13.93a5.08,5.08,0,0,1,.64.9,1.05,1.05,0,0,1,.06.24l-.32.14a.8.8,0,0,0-.3,1.09A.54.54,0,0,0,91.76,38.16Z"/><path class="cls-17" d="M30.38,41.29c-2.49,1.26-5.29,2.37-8,1.76-3.41-.76-5.73-4-9-5.24a14,14,0,0,0,2.94-4.32A8.14,8.14,0,0,1,23,30a1.66,1.66,0,0,1,1.33.45.59.59,0,0,1-.08-.56,19.2,19.2,0,0,1,4.29,1.45c-.06-.16.2-.24.37-.22a6.8,6.8,0,0,1,5.22,4.57C35,38.48,32.67,40.14,30.38,41.29Z"/><path class="cls-18" d="M28.72,36.51a17.24,17.24,0,0,0-2.12.41,24.7,24.7,0,0,1-12.49.26c2.06.09,4.07.15,6.13.07.78,0,1.57,0,2.34-.14,1.82-.2,3.59-.71,5.38-1.06a16.94,16.94,0,0,1,2.84-.34c.57,0,3.38-.18,3.66.41.42.91-2.33.27-2.68.22A10.53,10.53,0,0,0,28.72,36.51Z"/><path class="cls-19" d="M29.16,32.13a24.33,24.33,0,0,0-3.91-1.42l.11.45A9.71,9.71,0,0,0,23,30.9l.12.42a7.35,7.35,0,0,0-2.68.29,3.52,3.52,0,0,0-2.06,1.64l.43.18a27.41,27.41,0,0,1-3.19,2.81,5.66,5.66,0,0,0,2.25.82,9.36,9.36,0,0,0,2,0c2.91-.25,5.76-1.1,8.68-1.13a13.87,13.87,0,0,0,2-.08c1-.16,2.07-.6,1.3-1.62A7.73,7.73,0,0,0,29.16,32.13Z"/><path class="cls-20" d="M27.59,41.7c-1,.55-2.16,1.12-3.23.74-.26-.1-.49-.24-.74-.35-1-.42-2.23-.32-3-1.07a5.28,5.28,0,0,1,2.6-1.64c1-.33,2-.51,3-.84s5.6-2.91,6.14-1.2c.27.84-1.26,2-1.81,2.49A20.12,20.12,0,0,1,27.59,41.7Z"/><path class="cls-21" d="M37.28,36c-.28-.32-2.21-.26-2.68-.32-1-.12-2.07-.24-3.1-.27a5.94,5.94,0,0,0-.72-.89,18.83,18.83,0,0,0-1.63-2.24,5.65,5.65,0,0,0-3.64-1.68A9.59,9.59,0,0,1,31,35.35h0a12.44,12.44,0,0,0-1.93.14c-.39.06-.76.14-1.14.22a10.5,10.5,0,0,0-1.74-1.08,17.82,17.82,0,0,0-4.26-2.32,6,6,0,0,0-4.74.23,7.35,7.35,0,0,1,5,.18,15.26,15.26,0,0,1,4.35,2.71,4.25,4.25,0,0,0,.63.46l-.79.19a39.53,39.53,0,0,1-5.93.92c-.07-.21-.3-.46-.35-.61a3,3,0,0,0-.21-.66,3.89,3.89,0,0,0-.39-.43c-.24-.3-.33-.72-.62-1a1.47,1.47,0,0,0-.66-.27,4.84,4.84,0,0,0-2,0l1.51.38a3.44,3.44,0,0,1,.9.32,3,3,0,0,1,1.15,2A1.33,1.33,0,0,0,20,37c-1.95.14-3.9.17-5.84.14a23.86,23.86,0,0,0,8.17.29l.53-.08c-.12.28-.17.7-.29.94A4.54,4.54,0,0,1,21,40.1a3.88,3.88,0,0,1-.86.44h.1a4.37,4.37,0,0,0,.94-.26A4,4,0,0,0,23,38.18a5.61,5.61,0,0,1,.5-.9c.78-.14,1.56-.31,2.34-.47l0,0c-.15.33-.12.85-.25,1.21a10.1,10.1,0,0,1-1.19,2.13,5.71,5.71,0,0,1-1.16,1.38,4.21,4.21,0,0,0,1.59-1.52c.22-.3.44-.61.67-.91a4.85,4.85,0,0,0,.47-.74,4.41,4.41,0,0,0,.23-.7l.24-.88a.68.68,0,0,0,0-.14A24.56,24.56,0,0,1,31,36.1a1.19,1.19,0,0,0-.09.15c-.28.55-.28,1.34-.53,1.94a6.6,6.6,0,0,1-1,1.73,12.77,12.77,0,0,1-3.59,2.65l2.33-1.32a7.19,7.19,0,0,0,.94-.61,6.27,6.27,0,0,0,1.72-2.48,7.34,7.34,0,0,0,.82-2.06,10.78,10.78,0,0,1,2.18.29,13.7,13.7,0,0,0,2.16.48C36.37,36.89,37.93,36.67,37.28,36Z"/><path class="cls-21" d="M20.12,40.54a11.48,11.48,0,0,1-1.65.14A3,3,0,0,0,20.12,40.54Z"/><path class="cls-17" d="M34.14,77.56c-1.18,2.54-2.68,5.15-5.2,6.36-3.15,1.51-7,.42-10.31,1.46a14.08,14.08,0,0,0-.38-5.21,8.17,8.17,0,0,1,3.06-6.87,1.72,1.72,0,0,1,1.32-.47.56.56,0,0,1-.41-.38,19.06,19.06,0,0,1,4.27-1.52c-.15-.1,0-.32.16-.4a6.79,6.79,0,0,1,6.93.34C36,72.48,35.22,75.24,34.14,77.56Z"/><path class="cls-18" d="M29.88,74.84a16.63,16.63,0,0,0-1.41,1.63,24.81,24.81,0,0,1-9.65,8c1.67-1.21,3.29-2.42,4.86-3.75.6-.51,1.19-1,1.75-1.57C26.73,77.83,27.8,76.33,29,75a17.52,17.52,0,0,1,2-2c.45-.37,2.55-2.24,3.14-1.94.89.46-1.67,1.66-2,1.83A10.27,10.27,0,0,0,29.88,74.84Z"/><path class="cls-19" d="M27.51,71.13a24.06,24.06,0,0,0-4,1.31l.36.28a10.1,10.1,0,0,0-2,1.24l.35.26a7.5,7.5,0,0,0-1.92,1.89,3.58,3.58,0,0,0-.6,2.57l.45-.12a28.42,28.42,0,0,1-.76,4.18A5.81,5.81,0,0,0,21.72,82a8.25,8.25,0,0,0,1.55-1.22c2.13-2,3.85-4.43,6.12-6.27a12.92,12.92,0,0,0,1.54-1.32c.67-.72,1.26-1.75,0-2.08A7.88,7.88,0,0,0,27.51,71.13Z"/><path class="cls-20" d="M32.2,79.62c-.44,1-1,2.21-2.08,2.57-.25.09-.53.12-.79.19-1,.28-1.95,1.13-3,1a5.22,5.22,0,0,1,1-2.9c.57-.87,1.27-1.65,1.84-2.52s2.59-5.76,4.08-4.75c.73.5.27,2.39.12,3.08A20.52,20.52,0,0,1,32.2,79.62Z"/><path class="cls-21" d="M36.25,69.09c-.43-.07-1.9,1.17-2.3,1.42-.89.54-1.77,1.09-2.61,1.71A6.1,6.1,0,0,0,30.23,72a19.22,19.22,0,0,0-2.67-.74,5.61,5.61,0,0,0-3.9.94,9.53,9.53,0,0,1,7.28.36h0a12.71,12.71,0,0,0-1.44,1.3c-.26.29-.51.58-.75.88a10.63,10.63,0,0,0-2,.23,17.94,17.94,0,0,0-4.79.82,6,6,0,0,0-3.57,3.12,7.39,7.39,0,0,1,4.06-3,15.36,15.36,0,0,1,5.1-.56,5.1,5.1,0,0,0,.77,0c-.16.22-.33.43-.5.65a40.33,40.33,0,0,1-4.08,4.39c-.19-.12-.52-.17-.65-.26a3.62,3.62,0,0,0-.58-.38,5.22,5.22,0,0,0-.57-.11c-.38-.08-.71-.36-1.09-.37a1.57,1.57,0,0,0-.69.2,4.82,4.82,0,0,0-1.51,1.26L20.05,80a3.24,3.24,0,0,1,.91-.3,3,3,0,0,1,2.14.85.86.86,0,0,0,.22.12c-1.44,1.32-2.95,2.55-4.5,3.74a23.82,23.82,0,0,0,6.59-4.85c.13-.12.25-.25.37-.38.08.29.3.64.36.91A4.64,4.64,0,0,1,26,82.45a3.93,3.93,0,0,1-.41.88l.07-.07a4,4,0,0,0,.58-.78,4.08,4.08,0,0,0,.14-2.78,5.87,5.87,0,0,1-.17-1c.53-.59,1-1.2,1.56-1.81v.06c.08.35.43.74.55,1.1a10.28,10.28,0,0,1,.39,2.41,5.71,5.71,0,0,1-.06,1.8A4.3,4.3,0,0,0,29,80.07c0-.38,0-.76,0-1.14a4.21,4.21,0,0,0-.09-.87,5.13,5.13,0,0,0-.25-.69l-.36-.84a.75.75,0,0,0-.07-.12,25.07,25.07,0,0,1,3.26-3.33,1.1,1.1,0,0,0,0,.18c.12.61.61,1.22.79,1.84a6.79,6.79,0,0,1,.26,2,12.64,12.64,0,0,1-1.18,4.31c.34-.83.68-1.66,1-2.49a6.55,6.55,0,0,0,.37-1,6.33,6.33,0,0,0-.19-3,7.57,7.57,0,0,0-.63-2.12,10.86,10.86,0,0,1,1.89-1.13,11.78,11.78,0,0,0,2-1C36.11,70.4,37.2,69.26,36.25,69.09Z"/><path class="cls-21" d="M25.62,83.33a9.94,9.94,0,0,1-1.21,1.13A2.93,2.93,0,0,0,25.62,83.33Z"/><path class="cls-20" d="M50.93,87.16a4.24,4.24,0,0,1,1.42,1.34,9.27,9.27,0,0,1,.57,1.58c.69,1.93,3.28,1.44,2.63-.59S52.88,86.15,50.93,87.16Z"/><path class="cls-21" d="M57.63,98.51a2.62,2.62,0,0,0-.27,1.64,6.3,6.3,0,0,1,.56-2c.08-.17.17-.34.24-.52.14-.42.15-.87.31-1.28.05-.13.12-.25.17-.39a1.89,1.89,0,0,0-.19-1.83c-.13.21,0,.73,0,1a6.33,6.33,0,0,1-.13,1.15A14.5,14.5,0,0,1,57.63,98.51Z"/><path class="cls-20" d="M57.3,82.6l.27.25a2.34,2.34,0,0,1,.69-1,.78.78,0,0,0,.18.35,4.66,4.66,0,0,1,2.88-2.35l.09.15a19.4,19.4,0,0,1,4.2-1.41,9.67,9.67,0,0,1-1.21,4l.3.1a15.8,15.8,0,0,1-1.54,3.11A9.28,9.28,0,0,1,60.55,89a9.28,9.28,0,0,1-3.35,1.16,2.81,2.81,0,0,1-1.08.08c-1.39-.24-1.1-2.79-.91-3.78A7.14,7.14,0,0,1,57.3,82.6Z"/><path class="cls-17" d="M56.7,88.11a2,2,0,0,0-.38.7.76.76,0,0,0,.18.75,1.07,1.07,0,0,0,.81.15,4.31,4.31,0,0,0,2.45-1.1c.2-.2.38-.42.58-.62s.48-.4.71-.61a9.09,9.09,0,0,0,1.59-2.14,22.74,22.74,0,0,0,1.26-2.12c-1.4-.16-2.78.85-3.83,1.64A16.46,16.46,0,0,0,56.7,88.11Z"/><path class="cls-21" d="M63.3,81.14c.53-.45,1.38-1,1.46-1.8-.41.09-.89.86-1.21,1.17-.48.47-1,.93-1.48,1.38l-1.08,1h0c.24-.73.62-1.4.91-2.11a4.6,4.6,0,0,0-1.37,2.53c-.45.41-.9.83-1.34,1.27l-.17.19a2.78,2.78,0,0,0,.11-.5c.1-.66.51-1.25.59-1.89a9.12,9.12,0,0,0-1.1,2.77l.06,0a22.38,22.38,0,0,0-1.88,2.34,18.22,18.22,0,0,0,0-2.66,7.82,7.82,0,0,0-.28,1.58,10.08,10.08,0,0,1-.09,1.53h0a21.58,21.58,0,0,0-1.93,3.53c.24-.06.39-.3.52-.52a38.83,38.83,0,0,1,2.19-3.32,4.58,4.58,0,0,0,1.42-.39,10,10,0,0,0,.92-.48,22.41,22.41,0,0,0,2.29-1.42c.13-.1.27-.23.24-.39.07.37-2.5,1.44-2.83,1.58s-1.07.33-1.62.54c.67-.88,1.39-1.73,2.14-2.55l0,.08A10.86,10.86,0,0,0,64,82.31a6.7,6.7,0,0,0-1.8.93c-.36.22-1.53.55-2.07.93A36.51,36.51,0,0,1,63.3,81.14Z"/><path class="cls-19" d="M53.41,88.7a15.68,15.68,0,0,0,.7,1.63.44.44,0,0,0,.14.13.31.31,0,0,0,.36-.08.63.63,0,0,0,.16-.35,2,2,0,0,0-.22-1.35,3.28,3.28,0,0,0-.91-1.05c-.23-.19-2-.64-1.53-.37A7.37,7.37,0,0,1,53.41,88.7Z"/><path class="cls-20" d="M60,90.81a3.91,3.91,0,0,0,1.23.64.18.18,0,0,0,.19,0,.2.2,0,0,0,0-.17,3.94,3.94,0,0,0-1.18-1.79,1.45,1.45,0,0,0-.5-.31,1.83,1.83,0,0,0-.47,0c-.67,0-3.94.08-3.43,1.59.27.78,1.34.12,1.79,0A2.85,2.85,0,0,1,60,90.81Z"/><path class="cls-19" d="M57.89,90.07a3,3,0,0,1,2.43.92,2.61,2.61,0,0,0-2-1.5c-.54-.09-1.74,0-1.93.66S57.5,90.14,57.89,90.07Z"/><path class="cls-20" d="M52.6,92.88a4,4,0,0,0,.15,2.06,8.45,8.45,0,0,0,4.51,5.76,23.18,23.18,0,0,0,2.5.73,12.51,12.51,0,0,1,4.16,2.16c.94-.57.93-1.92.74-3a23.73,23.73,0,0,0-1.81-5.69,9.12,9.12,0,0,0-2.55-3.5,4.16,4.16,0,0,0-4.12-.69C55,91.24,53,91.45,52.6,92.88Z"/><path class="cls-19" d="M58.22,94.15c.63,1.83,2.18,3.17,3.66,4.41a9.26,9.26,0,0,0,2,1.38,7.64,7.64,0,0,0-.66-3.17,14.44,14.44,0,0,0-1.57-3.35c-.5-.72-1.7-2.07-2.69-2S58,93.45,58.22,94.15Z"/><path class="cls-21" d="M63.77,103.27c-.26-1.74-1.49-3.14-2.43-4.63-.58-.91-1.06-1.87-1.58-2.81A11.11,11.11,0,0,1,61.18,97a8.48,8.48,0,0,1,2,2.5,8.8,8.8,0,0,0-3.25-4.2,7.6,7.6,0,0,0-.86-.62c-.1-.16-.21-.32-.32-.48a11.71,11.71,0,0,0-1-1.15h0a3.61,3.61,0,0,1,1.83.56,7.12,7.12,0,0,1,1.82,1.64,2.06,2.06,0,0,0-.67-1.35A4.82,4.82,0,0,0,58,92.34a1.26,1.26,0,0,0-.58,0,.75.75,0,0,0-.2.1c-.82-.75-1.77-1.34-2.41-.93.52.5,1,1,1.55,1.45a7.44,7.44,0,0,0,.08.85A6.34,6.34,0,0,1,56.3,95a14.46,14.46,0,0,1-.71,2.2,2.54,2.54,0,0,0-.27,1.63,5.82,5.82,0,0,1,.56-2c.08-.18.17-.35.23-.53.15-.41.16-.86.32-1.27,0-.13.12-.26.17-.39a2.18,2.18,0,0,0,0-1.43c.63.58,1.25,1.17,1.83,1.79-.25.15-.4.75-.47,1a14.92,14.92,0,0,0-.69,2.88,2.35,2.35,0,0,0,.08,1.21,7,7,0,0,1,.28-1.35c.14-.4.35-.78.5-1.18.08-.23.14-.46.2-.69l.24-.94a3.58,3.58,0,0,0,.13-.59,14.85,14.85,0,0,1,1.53,2,4.66,4.66,0,0,0,0,.56,4.17,4.17,0,0,1-.1.79,9.28,9.28,0,0,1-.49,1.52,1.77,1.77,0,0,0-.18,1.12,4.2,4.2,0,0,1,.38-1.34,2.83,2.83,0,0,0,.16-.36c.11-.29.11-.6.22-.88l.12-.27a1.46,1.46,0,0,0,.08-.73A42.46,42.46,0,0,0,63.77,103.27Z"/><path class="cls-20" d="M71.28,28.3a4.24,4.24,0,0,1,1.42,1.34,9.59,9.59,0,0,1,.57,1.58c.69,1.93,3.28,1.45,2.63-.58S73.23,27.3,71.28,28.3Z"/><path class="cls-21" d="M78,39.65a2.65,2.65,0,0,0-.27,1.64,6.38,6.38,0,0,1,.56-2c.08-.17.17-.34.24-.52.14-.41.15-.87.31-1.27.05-.13.12-.26.17-.39a1.91,1.91,0,0,0-.19-1.84c-.13.21,0,.73,0,1a7.24,7.24,0,0,1-.13,1.14A13.81,13.81,0,0,1,78,39.65Z"/><path class="cls-20" d="M77.65,23.74l.27.26a2.28,2.28,0,0,1,.69-1,.8.8,0,0,0,.18.34A4.68,4.68,0,0,1,81.67,21l.09.14A20.06,20.06,0,0,1,86,19.77a9.6,9.6,0,0,1-1.2,4l.3.1A16.07,16.07,0,0,1,83.51,27a9.33,9.33,0,0,1-2.61,3.19,9.09,9.09,0,0,1-3.35,1.16,2.82,2.82,0,0,1-1.08.09c-1.39-.25-1.1-2.79-.91-3.79A7.14,7.14,0,0,1,77.65,23.74Z"/><path class="cls-17" d="M77.05,29.26a1.91,1.91,0,0,0-.38.7.74.74,0,0,0,.18.74,1,1,0,0,0,.81.15,4.31,4.31,0,0,0,2.45-1.1c.2-.2.38-.42.58-.61s.48-.4.71-.61A9.3,9.3,0,0,0,83,26.39a24.12,24.12,0,0,0,1.26-2.12c-1.4-.17-2.78.85-3.83,1.63A16.26,16.26,0,0,0,77.05,29.26Z"/><path class="cls-21" d="M83.65,22.29c.53-.45,1.38-1.06,1.46-1.81-.41.1-.89.86-1.21,1.17-.48.48-1,.94-1.48,1.39l-1.08,1h0c.24-.74.62-1.41.91-2.11a4.54,4.54,0,0,0-1.37,2.52c-.45.41-.9.84-1.34,1.27l-.17.19a2.78,2.78,0,0,0,.11-.5c.1-.66.51-1.24.59-1.89A9.22,9.22,0,0,0,79,26.24l.06,0a23.48,23.48,0,0,0-1.88,2.34,18.08,18.08,0,0,0,0-2.65,8.31,8.31,0,0,0-.29,1.58A9,9,0,0,1,76.82,29l0,0a21.67,21.67,0,0,0-1.93,3.54c.24-.06.39-.3.52-.52a37.32,37.32,0,0,1,2.19-3.32,4.59,4.59,0,0,0,1.42-.4,8,8,0,0,0,.92-.47,22.49,22.49,0,0,0,2.29-1.43c.13-.09.27-.23.24-.39.07.38-2.5,1.45-2.83,1.58s-1.07.33-1.62.54c.67-.88,1.39-1.73,2.14-2.55l0,.09a8.94,8.94,0,0,0,3-1.32,9.63,9.63,0,0,0,1.2-.9,6.7,6.7,0,0,0-1.8.93c-.36.22-1.53.55-2.07.93A36.39,36.39,0,0,1,83.65,22.29Z"/><path class="cls-19" d="M73.76,29.84a14.8,14.8,0,0,0,.7,1.63.47.47,0,0,0,.14.14.33.33,0,0,0,.36-.08.69.69,0,0,0,.16-.36,2,2,0,0,0-.22-1.35A3.39,3.39,0,0,0,74,28.77c-.23-.18-2-.64-1.53-.37A7.67,7.67,0,0,1,73.76,29.84Z"/><path class="cls-20" d="M80.38,32a3.91,3.91,0,0,0,1.23.64.21.21,0,0,0,.19,0,.2.2,0,0,0,0-.17,3.94,3.94,0,0,0-1.18-1.79,1.45,1.45,0,0,0-.5-.31,1.48,1.48,0,0,0-.47-.06c-.67,0-3.94.09-3.43,1.59.27.79,1.34.13,1.79,0A2.89,2.89,0,0,1,80.38,32Z"/><path class="cls-19" d="M78.24,31.22a3,3,0,0,1,2.43.92,2.6,2.6,0,0,0-2-1.51c-.54-.08-1.74,0-1.93.67S77.85,31.28,78.24,31.22Z"/><path class="cls-20" d="M73,34a4.1,4.1,0,0,0,.14,2,8.49,8.49,0,0,0,4.52,5.76,23.22,23.22,0,0,0,2.5.74,12.15,12.15,0,0,1,4.16,2.16c.94-.57.93-1.93.74-3a23.51,23.51,0,0,0-1.81-5.68,9.15,9.15,0,0,0-2.55-3.51,4.18,4.18,0,0,0-4.12-.68C75.36,32.39,73.31,32.6,73,34Z"/><path class="cls-19" d="M78.57,35.3c.63,1.83,2.18,3.16,3.66,4.41a9.63,9.63,0,0,0,2,1.38,7.69,7.69,0,0,0-.66-3.18A14.44,14.44,0,0,0,82,34.56c-.5-.71-1.7-2.06-2.69-2S78.33,34.59,78.57,35.3Z"/><path class="cls-21" d="M84.12,44.42c-.26-1.74-1.49-3.15-2.43-4.64-.58-.9-1.06-1.87-1.58-2.8a11.11,11.11,0,0,1,1.42,1.12,8.48,8.48,0,0,1,2,2.5,8.71,8.71,0,0,0-3.25-4.2,6.44,6.44,0,0,0-.86-.63c-.1-.16-.21-.32-.32-.47a10.64,10.64,0,0,0-1-1.15h0A3.61,3.61,0,0,1,80,34.7a7.12,7.12,0,0,1,1.82,1.64A2.11,2.11,0,0,0,81.15,35a4.86,4.86,0,0,0-2.8-1.5,1.42,1.42,0,0,0-.58,0,.56.56,0,0,0-.2.11c-.82-.76-1.77-1.35-2.41-.94.52.51,1,1,1.55,1.46a7.66,7.66,0,0,0,.08.85,6.34,6.34,0,0,1-.14,1.14,13.77,13.77,0,0,1-.71,2.2A2.58,2.58,0,0,0,75.67,40a5.87,5.87,0,0,1,.56-2,4.83,4.83,0,0,0,.23-.52c.15-.41.16-.87.32-1.27,0-.14.12-.26.17-.39a2.21,2.21,0,0,0,0-1.44c.63.59,1.25,1.17,1.83,1.8-.25.14-.4.75-.47,1A15,15,0,0,0,77.66,40a2.36,2.36,0,0,0,.08,1.21A6.74,6.74,0,0,1,78,39.88c.14-.41.35-.78.5-1.18.08-.23.14-.47.2-.7l.24-.94a3.58,3.58,0,0,0,.13-.59,15.51,15.51,0,0,1,1.53,2,4.65,4.65,0,0,0,0,.57,4.27,4.27,0,0,1-.1.79,8.87,8.87,0,0,1-.49,1.51,1.79,1.79,0,0,0-.18,1.13,4.18,4.18,0,0,1,.38-1.35,2.32,2.32,0,0,0,.16-.36c.11-.28.11-.59.22-.87l.12-.27a1.5,1.5,0,0,0,.08-.74A42.57,42.57,0,0,0,84.12,44.42Z"/><path class="cls-10" d="M18.85,45.88c1.65-3.76,5.65-5.65,8.94-4.21s4.62,5.66,3,9.42-5.65,5.65-8.94,4.21S17.21,49.64,18.85,45.88Z"/><path class="cls-11" d="M18.61,45.5c1.64-3.76,5.4-5.75,8.4-4.44s4.08,5.42,2.44,9.18S24,56,21.05,54.68,17,49.26,18.61,45.5Z"/><path class="cls-12" d="M28.2,45.19a2.73,2.73,0,0,0-.78-2.09,3.56,3.56,0,0,0-3.91,0,6.64,6.64,0,0,0-2.33,2.95A9.07,9.07,0,0,0,20,50.43a2.14,2.14,0,0,0,1.06,1.9,3.53,3.53,0,0,0,2.44,0C27.53,51.19,28.28,48.31,28.2,45.19Z"/><path class="cls-13" d="M25.48,47.85a2.51,2.51,0,0,0,.44.35c.18.1.45.17.58,0a.33.33,0,0,0-.09-.44.74.74,0,0,0-.48-.1,1,1,0,0,0-.45.19"/><path class="cls-14" d="M26,47.81a.52.52,0,0,1,.3.06.23.23,0,0,1,.1.16.17.17,0,0,1-.17.14A.39.39,0,0,1,26,48.1a1.07,1.07,0,0,1-.28-.19C25.75,47.83,25.9,47.82,26,47.81Z"/><path class="cls-15" d="M26.06,47.87v0a.18.18,0,0,0,.05.07l.09.08c.1.1.22,0,.14-.12S26.09,47.8,26.06,47.87Z"/><path class="cls-13" d="M24.54,49.36a2.16,2.16,0,0,0-.26.5c-.07.2-.08.47.11.57a.34.34,0,0,0,.42-.18.69.69,0,0,0,0-.49c-.06-.2-.14-.24-.27-.4"/><path class="cls-14" d="M24.68,49.85a.47.47,0,0,1,0,.31.18.18,0,0,1-.13.12.15.15,0,0,1-.17-.13.49.49,0,0,1,0-.24,1.44,1.44,0,0,1,.13-.32C24.61,49.62,24.65,49.77,24.68,49.85Z"/><path class="cls-15" d="M24.64,49.94h0s0,0-.06.06l-.06.1c-.08.12.06.22.15.12S24.7,50,24.64,49.94Z"/><path class="cls-13" d="M23.75,46.16a2.09,2.09,0,0,0-.05-.56c0-.21-.18-.45-.39-.43a.32.32,0,0,0-.26.37.75.75,0,0,0,.26.42,1.17,1.17,0,0,0,.44.2"/><path class="cls-14" d="M23.37,45.81a.48.48,0,0,1-.16-.26.19.19,0,0,1,.05-.18.18.18,0,0,1,.22,0,.45.45,0,0,1,.1.21,1,1,0,0,1,.06.35C23.55,46,23.44,45.87,23.37,45.81Z"/><path class="cls-15" d="M23.36,45.72l0,0a.11.11,0,0,0,0-.08V45.5c0-.15-.17-.15-.18,0S23.3,45.74,23.36,45.72Z"/><path class="cls-13" d="M25.44,44.73A2.1,2.1,0,0,0,26,44.6c.2-.07.42-.24.37-.45A.33.33,0,0,0,26,44a.67.67,0,0,0-.38.32,1.18,1.18,0,0,0-.14.46"/><path class="cls-14" d="M25.73,44.31a.47.47,0,0,1,.24-.2.19.19,0,0,1,.18,0,.17.17,0,0,1,0,.22.43.43,0,0,1-.19.14,1.39,1.39,0,0,1-.33.1C25.6,44.51,25.68,44.38,25.73,44.31Z"/><path class="cls-15" d="M25.82,44.28l0,0h.09l.12,0a.1.1,0,1,0,0-.19C26,44.1,25.79,44.22,25.82,44.28Z"/><path class="cls-13" d="M23,46.78a2.42,2.42,0,0,0-.34-.45c-.15-.15-.39-.28-.56-.15a.32.32,0,0,0,0,.45.69.69,0,0,0,.44.22,1,1,0,0,0,.48-.07"/><path class="cls-14" d="M22.48,46.69a.47.47,0,0,1-.27-.14.22.22,0,0,1-.06-.17.18.18,0,0,1,.2-.1.51.51,0,0,1,.2.12.94.94,0,0,1,.23.26C22.72,46.73,22.57,46.7,22.48,46.69Z"/><path class="cls-15" d="M22.43,46.62v0a.13.13,0,0,0,0-.08l-.06-.1c-.08-.12-.22,0-.17.08S22.38,46.67,22.43,46.62Z"/><path class="cls-13" d="M22.9,48.63a2.13,2.13,0,0,0-.47-.31c-.19-.1-.46-.14-.58,0a.34.34,0,0,0,.13.44.68.68,0,0,0,.49.06,1.1,1.1,0,0,0,.43-.22"/><path class="cls-14" d="M22.39,48.71a.45.45,0,0,1-.3,0,.19.19,0,0,1-.11-.15.18.18,0,0,1,.15-.16.38.38,0,0,1,.23.06,1.14,1.14,0,0,1,.31.16C22.63,48.67,22.48,48.7,22.39,48.71Z"/><path class="cls-15" d="M22.31,48.66s0,0,0,0l0-.06-.1-.08c-.11-.09-.22,0-.13.13S22.29,48.72,22.31,48.66Z"/><path class="cls-13" d="M22.68,49.85a1.75,1.75,0,0,0-.56.06c-.21.05-.44.19-.42.4a.33.33,0,0,0,.37.25.69.69,0,0,0,.42-.27,1,1,0,0,0,.19-.44"/><path class="cls-14" d="M22.34,50.24a.54.54,0,0,1-.26.16.22.22,0,0,1-.18,0,.18.18,0,0,1,0-.22.39.39,0,0,1,.21-.11,1.37,1.37,0,0,1,.34-.07C22.5,50.05,22.4,50.17,22.34,50.24Z"/><path class="cls-15" d="M22.25,50.25l0,0a.11.11,0,0,0-.08,0H22c-.15,0-.15.17,0,.19S22.27,50.31,22.25,50.25Z"/><path class="cls-13" d="M23.35,49.84a1.67,1.67,0,0,0-.34.45c-.11.18-.17.45,0,.58a.33.33,0,0,0,.44-.1.69.69,0,0,0,.09-.49,1.23,1.23,0,0,0-.19-.44"/><path class="cls-14" d="M23.39,50.35a.47.47,0,0,1-.05.31.2.2,0,0,1-.16.09.15.15,0,0,1-.14-.16.38.38,0,0,1,.06-.23,1.12,1.12,0,0,1,.19-.29C23.37,50.11,23.39,50.26,23.39,50.35Z"/><path class="cls-15" d="M23.34,50.43h0s0,0-.06,0l-.09.09c-.09.1,0,.22.13.13S23.4,50.46,23.34,50.43Z"/><path class="cls-13" d="M25,48.72a2.12,2.12,0,0,0,.14.55c.08.19.25.41.46.35a.32.32,0,0,0,.19-.4.62.62,0,0,0-.32-.37,1.1,1.1,0,0,0-.47-.13"/><path class="cls-14" d="M25.42,49a.49.49,0,0,1,.2.23c0,.06,0,.14,0,.18a.17.17,0,0,1-.22,0,.38.38,0,0,1-.14-.19,1.31,1.31,0,0,1-.12-.33C25.21,48.87,25.35,49,25.42,49Z"/><path class="cls-15" d="M25.45,49.09l0,0a.14.14,0,0,0,0,.09l0,.11c0,.15.19.12.18,0S25.51,49.06,25.45,49.09Z"/><path class="cls-13" d="M24.21,45.25a2,2,0,0,0,.14-.54c0-.22,0-.49-.23-.54a.32.32,0,0,0-.36.26.67.67,0,0,0,.1.48c.1.18.19.21.35.34"/><path class="cls-14" d="M24,44.8a.48.48,0,0,1-.06-.31.2.2,0,0,1,.1-.15.19.19,0,0,1,.2.1.58.58,0,0,1,0,.23,1.21,1.21,0,0,1-.06.34C24.09,45,24,44.87,24,44.8Z"/><path class="cls-15" d="M24,44.7h0a.14.14,0,0,0,0-.08l0-.11a.09.09,0,1,0-.17-.08S23.92,44.7,24,44.7Z"/><path class="cls-13" d="M26.12,46.69a2.1,2.1,0,0,0,.56,0c.21,0,.47-.13.47-.34a.32.32,0,0,0-.34-.3.7.7,0,0,0-.44.21,1,1,0,0,0-.25.42"/><path class="cls-14" d="M26.51,46.35a.49.49,0,0,1,.28-.13.22.22,0,0,1,.17.07.17.17,0,0,1-.05.21.42.42,0,0,1-.22.08,1,1,0,0,1-.35,0C26.32,46.51,26.44,46.41,26.51,46.35Z"/><path class="cls-15" d="M26.6,46.35v0a.16.16,0,0,0,.09,0h.12a.09.09,0,1,0,0-.18C26.8,46.22,26.59,46.28,26.6,46.35Z"/><path class="cls-16" d="M22.74,47.89c.14.21.48.25.58.48a1.08,1.08,0,0,1,0,.36c.07.78,1.3.61,1.67.21a.78.78,0,0,0,.13-.79,1,1,0,0,0,0-.67l0,0,.26,0a1.4,1.4,0,0,0,1-1.21,1,1,0,0,0-1-1.08,1,1,0,0,1-.41,0,1.86,1.86,0,0,1-.2-.1c-.33-.12-.63.28-.67.65a5.71,5.71,0,0,1-.06,1.1,1.15,1.15,0,0,1-.1.23l-.34-.09a.8.8,0,0,0-.91.67A.54.54,0,0,0,22.74,47.89Z"/><path class="cls-22" d="M33.54,78A7.19,7.19,0,0,0,36,81.4a7.77,7.77,0,0,0,2.45,1.47,10.73,10.73,0,0,0,3.62.36c2.78,0,5.66-.12,8.18-1.3s4.6-3.77,4.26-6.53C53.3,65.84,31,69.31,33.54,78Z"/><path class="cls-23" d="M39.68,72.31a5.52,5.52,0,0,0-2.48,1c-1.78,1.47-1,4.59,1,5.86s4.39,1.2,6.69,1.06c.68,0,1.51-.19,1.74-.84.28-.81-.67-1.79-.18-2.5a3.06,3.06,0,0,1,.65-.54,1.92,1.92,0,0,0-.31-2.82,5.52,5.52,0,0,0-3.07-.92c-1.67-.16-2.2-.65-4-.25"/><path class="cls-22" d="M48.4,20.06a7.19,7.19,0,0,0,2.43,3.36,7.69,7.69,0,0,0,2.45,1.48,10.71,10.71,0,0,0,3.62.35c2.78-.05,5.65-.12,8.18-1.29s4.6-3.78,4.26-6.54C68.16,7.86,45.87,11.33,48.4,20.06Z"/><path class="cls-23" d="M54.54,14.33a5.57,5.57,0,0,0-2.49,1c-1.77,1.46-1,4.59,1,5.85s4.4,1.21,6.69,1.07c.69-.05,1.52-.2,1.74-.84.29-.82-.67-1.8-.17-2.51a3.07,3.07,0,0,1,.65-.53,1.94,1.94,0,0,0-.32-2.83,5.52,5.52,0,0,0-3.07-.92c-1.66-.16-2.2-.64-4-.25"/><path class="cls-22" d="M78.09,71.79a7.17,7.17,0,0,0-1.32,3.93A7.59,7.59,0,0,0,77,78.57a10.48,10.48,0,0,0,1.82,3.15c1.66,2.24,3.38,4.53,5.81,5.9s5.75,1.55,7.79-.34C99.5,80.77,83.72,64.66,78.09,71.79Z"/><path class="cls-23" d="M80.46,75.08a6.83,6.83,0,0,0,2.79,7.32c1.14.73,2.86,1,3.68-.07a8.46,8.46,0,0,0,1.51-3.8c.13-2.38-1.75-4.38-3.71-5.73a5.26,5.26,0,0,0-2.58-1.08A2.08,2.08,0,0,0,80,73.16c-.2,1,.51,2,.11,2.89"/><path class="cls-22" d="M86.15,43.94a7.17,7.17,0,0,0-1.32,3.93,7.59,7.59,0,0,0,.23,2.85,10.67,10.67,0,0,0,1.81,3.15c1.66,2.24,3.39,4.53,5.81,5.9s5.75,1.55,7.8-.34C107.57,52.92,91.78,36.81,86.15,43.94Z"/><path class="cls-23" d="M91.3,55.59c1.11,1.47,2.71,2.8,4.55,2.73,2.33-.09,4.05-2.52,4.06-4.85S98.66,49,97.19,47.18a7.51,7.51,0,0,0-4.22-3C86.51,43.1,89.41,53.09,91.3,55.59Z"/><path class="cls-22" d="M46,31.37a7.17,7.17,0,0,0-1.32,3.93A7.82,7.82,0,0,0,45,38.15a10.79,10.79,0,0,0,1.81,3.15c1.66,2.23,3.39,4.53,5.81,5.9s5.75,1.54,7.8-.34C67.46,40.34,51.67,24.23,46,31.37Z"/><path class="cls-23" d="M51.19,43c1.11,1.47,2.71,2.8,4.55,2.73,2.33-.09,4-2.53,4.06-4.86s-1.25-4.48-2.72-6.28a7.51,7.51,0,0,0-4.22-3C46.41,30.53,49.3,40.52,51.19,43Z"/><path class="cls-22" d="M18.44,53.77a7.23,7.23,0,0,0-1.32,3.93,7.58,7.58,0,0,0,.22,2.85,10.36,10.36,0,0,0,1.82,3.15c1.66,2.24,3.39,4.54,5.81,5.9s5.75,1.55,7.79-.33C39.85,62.75,24.07,46.64,18.44,53.77Z"/><path class="cls-23" d="M23.59,65.43c1.11,1.46,2.71,2.79,4.55,2.72,2.33-.09,4-2.52,4.06-4.85A10.2,10.2,0,0,0,29.47,57a7.37,7.37,0,0,0-4.21-3C18.8,52.94,21.7,62.93,23.59,65.43Z"/><path class="cls-22" d="M71.67,73.56a5.36,5.36,0,0,0-.6-4.93A7.51,7.51,0,0,0,68.88,67a16.14,16.14,0,0,0-6.09-2.49c-2.3-.29-5.07.47-6.34,2.3C52.06,73.11,68.62,80,71.67,73.56Z"/><path class="cls-23" d="M64.85,67a5.3,5.3,0,0,0-4.35-.65,3.68,3.68,0,0,0-2.27,4.4c.51,1.6,2,2.74,3.64,3.58a6.54,6.54,0,0,0,4.13.91C71.56,74.23,67,68.16,64.85,67Z"/><path class="cls-17" d="M47.39,57c-2.79.19-5.8.13-8.07-1.5-2.84-2-3.73-5.91-6.24-8.33a14.24,14.24,0,0,0,4.38-2.84A8.15,8.15,0,0,1,45,43.72a1.71,1.71,0,0,1,1,.93.56.56,0,0,1,.14-.54,19.33,19.33,0,0,1,3.39,3c0-.17.28-.14.42,0a6.76,6.76,0,0,1,3,6.24C52.75,56.23,49.94,56.85,47.39,57Z"/><path class="cls-18" d="M47.73,52a15.69,15.69,0,0,0-2.12-.45A24.81,24.81,0,0,1,34,46.89c1.87.88,3.7,1.72,5.63,2.45.73.28,1.46.56,2.21.79,1.75.52,3.58.73,5.37,1.11A17.49,17.49,0,0,1,50,52c.54.22,3.19,1.16,3.21,1.82,0,1-2.25-.67-2.55-.85A10.64,10.64,0,0,0,47.73,52Z"/><path class="cls-19" d="M49.83,48.11a22.65,22.65,0,0,0-3-2.83c0,.14,0,.29-.07.44a10.34,10.34,0,0,0-2-1.15l-.06.44A7.41,7.41,0,0,0,42,44.23a3.57,3.57,0,0,0-2.54.71l.32.33a26.82,26.82,0,0,1-4,1.34,5.62,5.62,0,0,0,1.76,1.64,9.33,9.33,0,0,0,1.81.78c2.78.9,5.74,1.23,8.44,2.34a13.35,13.35,0,0,0,1.91.72c.95.24,2.14.26,1.83-1A7.6,7.6,0,0,0,49.83,48.11Z"/><path class="cls-20" d="M44.66,56.3c-1.14.12-2.42.19-3.26-.58-.2-.18-.36-.4-.55-.6C40.11,54.34,38.93,54,38.5,53a5.31,5.31,0,0,1,3-.51c1,.09,2,.33,3.09.4s6.3-.49,6.13,1.3c-.09.87-2,1.38-2.65,1.58A20.08,20.08,0,0,1,44.66,56.3Z"/><path class="cls-17" d="M70.27,53.66c2.69-.76,5.65-1.33,8.21-.21,3.2,1.4,4.87,5,7.84,6.85A14.46,14.46,0,0,0,82.61,64a8.12,8.12,0,0,1-7.19,2.16,1.66,1.66,0,0,1-1.22-.69.58.58,0,0,1,0,.56,19.6,19.6,0,0,1-3.94-2.23c0,.17-.24.2-.41.14a6.8,6.8,0,0,1-4.26-5.48C65.19,55.54,67.81,54.35,70.27,53.66Z"/><path class="cls-18" d="M71,58.66a15.57,15.57,0,0,0,2.16,0,24.78,24.78,0,0,1,12.32,2.12c-2-.48-4-.92-6-1.23-.78-.13-1.55-.25-2.33-.31-1.82-.15-3.65,0-5.48,0a17,17,0,0,1-2.85-.2c-.57-.1-3.36-.47-3.51-1.1-.24-1,2.34.18,2.66.29A10.33,10.33,0,0,0,71,58.66Z"/><path class="cls-19" d="M69.73,62.88A23.37,23.37,0,0,0,73.3,65l0-.45a9.71,9.71,0,0,0,2.24.7l0-.44a7.38,7.38,0,0,0,2.68.23,3.57,3.57,0,0,0,2.34-1.23l-.39-.26a28.56,28.56,0,0,1,3.67-2.14,5.66,5.66,0,0,0-2.06-1.24,9.13,9.13,0,0,0-1.94-.38c-2.91-.31-5.87,0-8.74-.54A13.76,13.76,0,0,0,69,59c-1,0-2.15.2-1.6,1.34A7.8,7.8,0,0,0,69.73,62.88Z"/><path class="cls-20" d="M73.09,53.78c1.09-.35,2.33-.69,3.31-.1.23.13.44.32.66.47.89.61,2.12.75,2.75,1.62A5.26,5.26,0,0,1,77,56.9c-1,.13-2.08.11-3.11.25s-6,1.8-6.26,0c-.1-.88,1.63-1.76,2.26-2.1A20.7,20.7,0,0,1,73.09,53.78Z"/><path class="cls-21" d="M62.48,57.59c.22.37,2.13.67,2.57.82,1,.32,2,.63,3,.85a6.51,6.51,0,0,0,.53,1,19,19,0,0,0,1.18,2.5A5.63,5.63,0,0,0,73,65.13a9.55,9.55,0,0,1-4.48-5.76h0a12.28,12.28,0,0,0,1.92.23c.38,0,.77,0,1.16,0A10.42,10.42,0,0,0,73.12,61a17.64,17.64,0,0,0,3.75,3.09,6,6,0,0,0,4.69.67,7.35,7.35,0,0,1-4.92-1.13,15.58,15.58,0,0,1-3.76-3.49,4,4,0,0,0-.53-.57l.82,0a38.68,38.68,0,0,1,6,.23c0,.22.21.5.23.66a3.18,3.18,0,0,0,.09.69,3.6,3.6,0,0,0,.29.5c.18.34.19.77.43,1.07a1.4,1.4,0,0,0,.6.38,4.62,4.62,0,0,0,1.94.33l-1.41-.66a2.42,2.42,0,0,1-1.58-2.67.9.9,0,0,0,0-.24c1.93.23,3.85.57,5.76,1a23.85,23.85,0,0,0-8-1.83l-.53,0c.16-.25.29-.65.45-.86a4.53,4.53,0,0,1,1.85-1.45,3.81,3.81,0,0,1,.93-.27h-.1a3.93,3.93,0,0,0-1,.07,4.05,4.05,0,0,0-2.2,1.7,5.11,5.11,0,0,1-.66.8c-.79,0-1.59,0-2.39,0,0,0,0,0,0-.05a11.62,11.62,0,0,0,.48-1.13A10,10,0,0,1,76,55.87a5.69,5.69,0,0,1,1.4-1.14,4.37,4.37,0,0,0-1.85,1.19l-.84.78a5.09,5.09,0,0,0-.6.63,5,5,0,0,0-.36.64c-.13.28-.26.55-.4.82a.33.33,0,0,0,0,.13,25.66,25.66,0,0,1-4.66-.29,1.59,1.59,0,0,0,.13-.13c.38-.49.52-1.27.88-1.81A6.56,6.56,0,0,1,71,55.2a12.51,12.51,0,0,1,4-1.93l-2.54.86a7.75,7.75,0,0,0-1,.41,6.41,6.41,0,0,0-2.16,2.11,7.18,7.18,0,0,0-1.19,1.87,11.16,11.16,0,0,1-2.09-.7,11.75,11.75,0,0,0-2-.88C63.55,56.84,62,56.76,62.48,57.59Z"/><path class="cls-21" d="M80.2,56.34a11.56,11.56,0,0,1,1.65.18A3.09,3.09,0,0,0,80.2,56.34Z"/><path class="cls-20" d="M54.39,53.59a4.09,4.09,0,0,1,1.41,1.33,9.93,9.93,0,0,1,.57,1.58c.7,1.94,3.29,1.45,2.64-.58S56.33,52.58,54.39,53.59Z"/><path class="cls-21" d="M61.09,64.94a2.54,2.54,0,0,0-.27,1.63,5.82,5.82,0,0,1,.56-1.95c.08-.18.17-.35.23-.53.15-.41.16-.86.32-1.27,0-.13.12-.26.17-.39a1.92,1.92,0,0,0-.2-1.84c-.12.21,0,.74,0,1a6.34,6.34,0,0,1-.14,1.15A14.46,14.46,0,0,1,61.09,64.94Z"/><path class="cls-20" d="M60.76,49l.27.25a2.34,2.34,0,0,1,.68-1,.9.9,0,0,0,.18.35,4.71,4.71,0,0,1,2.89-2.35l.08.15a19.77,19.77,0,0,1,4.2-1.41,9.57,9.57,0,0,1-1.21,4l.31.1a16.12,16.12,0,0,1-1.55,3.11,9.34,9.34,0,0,1-2.6,3.2,9.54,9.54,0,0,1-3.35,1.16,3,3,0,0,1-1.08.08c-1.4-.24-1.1-2.79-.91-3.79A7,7,0,0,1,60.76,49Z"/><path class="cls-17" d="M60.16,54.54a2.2,2.2,0,0,0-.39.7A.76.76,0,0,0,60,56a1,1,0,0,0,.81.16A4.2,4.2,0,0,0,63.21,55c.21-.19.39-.41.59-.61s.48-.4.71-.61a9.09,9.09,0,0,0,1.59-2.14,22.74,22.74,0,0,0,1.26-2.12c-1.4-.17-2.78.85-3.83,1.63A16.51,16.51,0,0,0,60.16,54.54Z"/><path class="cls-21" d="M66.76,47.57c.53-.45,1.38-1.06,1.46-1.8-.42.09-.9.86-1.21,1.17-.48.47-1,.93-1.48,1.38l-1.08,1h0c.25-.73.62-1.4.91-2.11A4.66,4.66,0,0,0,64,49.68c-.45.42-.91.84-1.34,1.28l-.17.19a2.11,2.11,0,0,0,.1-.5c.11-.66.52-1.25.6-1.89a8.78,8.78,0,0,0-1.1,2.77l.06,0a22.13,22.13,0,0,0-1.88,2.34,19.55,19.55,0,0,0,0-2.65A9.34,9.34,0,0,0,60,52.77a10.18,10.18,0,0,1-.08,1.53l0,0A23.78,23.78,0,0,0,58,57.82c.25-.06.4-.3.53-.52A36.59,36.59,0,0,1,60.75,54a4.58,4.58,0,0,0,1.42-.39,10,10,0,0,0,.92-.48,23.55,23.55,0,0,0,2.29-1.42c.13-.1.27-.23.24-.39.07.37-2.5,1.44-2.83,1.58s-1.07.32-1.62.54c.67-.88,1.39-1.74,2.14-2.55a.11.11,0,0,0,0,.08,8.94,8.94,0,0,0,3-1.32,9.31,9.31,0,0,0,1.2-.89,6.7,6.7,0,0,0-1.8.93,18.88,18.88,0,0,0-2.07.93A35.14,35.14,0,0,1,66.76,47.57Z"/><path class="cls-19" d="M56.87,55.13a14.59,14.59,0,0,0,.69,1.62.4.4,0,0,0,.15.14.33.33,0,0,0,.36-.08.71.71,0,0,0,.16-.35A2.08,2.08,0,0,0,58,55.1a3.37,3.37,0,0,0-.91-1c-.24-.19-2-.64-1.53-.37A7.7,7.7,0,0,1,56.87,55.13Z"/><path class="cls-20" d="M63.49,57.24a3.81,3.81,0,0,0,1.23.64.18.18,0,0,0,.19-.05.2.2,0,0,0,0-.17,3.94,3.94,0,0,0-1.18-1.79,1.45,1.45,0,0,0-.5-.31,1.51,1.51,0,0,0-.47-.05c-.68,0-3.95.08-3.43,1.58.26.79,1.34.13,1.79,0A2.85,2.85,0,0,1,63.49,57.24Z"/><path class="cls-19" d="M61.34,56.5a3,3,0,0,1,2.44.92,2.61,2.61,0,0,0-2-1.5c-.54-.09-1.73,0-1.92.66S61,56.57,61.34,56.5Z"/><path class="cls-21" d="M38.23,52.32a11.06,11.06,0,0,1-1.57-.51A3,3,0,0,0,38.23,52.32Z"/><path class="cls-21" d="M57.41,58.49a9,9,0,0,0-2.29-3.44,16.09,16.09,0,0,0-1.29-1.2c-.43-.21-1.18-1.08-1.83-1.22-.42-.23-.84-.44-1.27-.64a5.89,5.89,0,0,0-.31-1.1,18,18,0,0,0-.64-2.7,5.6,5.6,0,0,0-2.69-3,9.55,9.55,0,0,1,3.18,6.55h0a12.74,12.74,0,0,0-1.83-.63c-.37-.1-.75-.17-1.13-.24a10.76,10.76,0,0,0-1.18-1.67,17.73,17.73,0,0,0-3-3.8,6,6,0,0,0-4.45-1.63,7.32,7.32,0,0,1,4.57,2.12,15.31,15.31,0,0,1,3,4.2,4.65,4.65,0,0,0,.4.66l-.8-.13A40,40,0,0,1,40,49.21c0-.23-.1-.54-.09-.7a3.22,3.22,0,0,0,.06-.69c0-.19-.13-.36-.18-.55a7.15,7.15,0,0,0-.2-1.14,1.44,1.44,0,0,0-.51-.5,4.84,4.84,0,0,0-1.83-.72l1.24.94a3.14,3.14,0,0,1,.71.65,2.94,2.94,0,0,1,.28,2.28,1,1,0,0,0,0,.25c-1.85-.63-3.66-1.36-5.44-2.14a24.17,24.17,0,0,0,7.42,3.45l.51.13c-.21.22-.42.58-.62.75a4.56,4.56,0,0,1-2.11,1,3.93,3.93,0,0,1-1,.06l.1,0a4,4,0,0,0,1,.13,4,4,0,0,0,2.5-1.21,5.42,5.42,0,0,1,.81-.64c.77.18,1.56.33,2.34.49l-.05,0c-.27.24-.45.73-.71,1a9.64,9.64,0,0,1-1.92,1.5,5.7,5.7,0,0,1-1.61.82,4.24,4.24,0,0,0,2.05-.78l1-.58a4,4,0,0,0,.72-.5,3.64,3.64,0,0,0,.49-.55l.56-.72a.26.26,0,0,0,.07-.11A24.38,24.38,0,0,1,50,52.49l-.14.11c-.48.4-.78,1.12-1.24,1.58A6.79,6.79,0,0,1,47,55.36a12.55,12.55,0,0,1-4.34,1l2.66-.31a6.94,6.94,0,0,0,1.11-.18A6.28,6.28,0,0,0,49,54.29c.34-.32,1.34-1.06,1.56-1.57a9.85,9.85,0,0,1,1.11.59c.23.2.5.4.63.52.88.81,2,1.32,2.89,2.11a6.23,6.23,0,0,1,2,3.24.31.31,0,0,0,.31-.25A.82.82,0,0,0,57.41,58.49Z"/><path class="cls-20" d="M56.06,59.31a4.13,4.13,0,0,0,.14,2.06,8.48,8.48,0,0,0,4.52,5.76,23.18,23.18,0,0,0,2.5.73A12.33,12.33,0,0,1,67.38,70c.94-.57.93-1.92.74-3a23.59,23.59,0,0,0-1.81-5.69,9.23,9.23,0,0,0-2.55-3.51,4.19,4.19,0,0,0-4.12-.68C58.47,57.67,56.41,57.88,56.06,59.31Z"/><path class="cls-19" d="M61.68,60.58c.63,1.83,2.17,3.17,3.66,4.41a8.79,8.79,0,0,0,2,1.38,7.62,7.62,0,0,0-.67-3.17,14.08,14.08,0,0,0-1.56-3.36c-.5-.71-1.7-2.06-2.7-2S61.44,59.87,61.68,60.58Z"/><path class="cls-21" d="M67.22,69.7C67,68,65.74,66.55,64.79,65.07c-.57-.91-1.05-1.87-1.57-2.81a11.85,11.85,0,0,1,1.42,1.12,8.48,8.48,0,0,1,2,2.5,8.86,8.86,0,0,0-3.25-4.2,8.66,8.66,0,0,0-.86-.62l-.32-.48a13.37,13.37,0,0,0-1-1.15h.05a3.63,3.63,0,0,1,1.83.56,6.77,6.77,0,0,1,1.82,1.64,2.11,2.11,0,0,0-.67-1.36,4.89,4.89,0,0,0-2.8-1.5,1.26,1.26,0,0,0-.58,0,.47.47,0,0,0-.2.1c-.83-.75-1.78-1.34-2.41-.94.52.51,1,1,1.55,1.46a7.49,7.49,0,0,0,.07.85,5.46,5.46,0,0,1-.13,1.14A13.27,13.27,0,0,1,59,63.61a2.68,2.68,0,0,0-.27,1.63,6.32,6.32,0,0,1,.56-1.95,4.13,4.13,0,0,0,.24-.53c.15-.41.16-.86.32-1.27,0-.13.11-.26.17-.39a2.18,2.18,0,0,0,0-1.43c.63.58,1.25,1.16,1.83,1.79-.25.15-.4.75-.47.95a14.48,14.48,0,0,0-.69,2.89,2.25,2.25,0,0,0,.08,1.21,7,7,0,0,1,.28-1.35c.14-.4.35-.78.49-1.18a5.64,5.64,0,0,0,.21-.7l.24-.93a3.84,3.84,0,0,0,.13-.59,14.8,14.8,0,0,1,1.52,2c0,.17.05.42.05.56a3.48,3.48,0,0,1-.09.79,10.35,10.35,0,0,1-.49,1.52A1.85,1.85,0,0,0,63,67.75a4.64,4.64,0,0,1,.39-1.35,3.73,3.73,0,0,0,.16-.35c.1-.29.11-.6.22-.88,0-.09.08-.18.12-.27a1.61,1.61,0,0,0,.08-.74A43,43,0,0,0,67.22,69.7Z"/><path class="cls-10" d="M64.92,21.06c3.75,1.68,5.6,5.69,4.14,9s-5.69,4.58-9.44,2.9-5.6-5.69-4.14-9S61.17,19.39,64.92,21.06Z"/><path class="cls-11" d="M65.3,20.82c3.75,1.67,5.71,5.45,4.38,8.43s-5.45,4-9.2,2.37-5.71-5.45-4.38-8.43S61.55,19.14,65.3,20.82Z"/><path class="cls-12" d="M65.54,30.41a2.71,2.71,0,0,0,2.1-.76,3.59,3.59,0,0,0,0-3.92,6.57,6.57,0,0,0-2.93-2.34,9,9,0,0,0-4.34-1.19,2.13,2.13,0,0,0-1.9,1.05,3.52,3.52,0,0,0,0,2.44C59.55,29.7,62.42,30.46,65.54,30.41Z"/><path class="cls-13" d="M62.9,27.67a2.51,2.51,0,0,0-.35.44c-.11.18-.18.45,0,.58A.31.31,0,0,0,63,28.6a.66.66,0,0,0,.1-.48,1.09,1.09,0,0,0-.18-.45"/><path class="cls-14" d="M62.94,28.18a.5.5,0,0,1-.07.3.19.19,0,0,1-.16.1.18.18,0,0,1-.14-.17.51.51,0,0,1,.07-.23,1.79,1.79,0,0,1,.2-.28C62.92,27.94,62.93,28.09,62.94,28.18Z"/><path class="cls-15" d="M62.88,28.26a0,0,0,0,0,0,0,.13.13,0,0,0-.07,0l-.08.09c-.1.1,0,.22.12.14S62.94,28.29,62.88,28.26Z"/><path class="cls-13" d="M61.4,26.72a1.83,1.83,0,0,0-.5-.26c-.2-.07-.47-.08-.57.1a.33.33,0,0,0,.17.42.72.72,0,0,0,.5,0c.19-.05.24-.13.4-.26"/><path class="cls-14" d="M60.9,26.85a.44.44,0,0,1-.3,0c-.06,0-.12-.07-.13-.13a.18.18,0,0,1,.14-.18.36.36,0,0,1,.23,0,1.13,1.13,0,0,1,.32.13C61.14,26.79,61,26.83,60.9,26.85Z"/><path class="cls-15" d="M60.82,26.81v0a.12.12,0,0,0-.06-.06l-.11-.07c-.12-.07-.21.07-.11.15S60.8,26.88,60.82,26.81Z"/><path class="cls-13" d="M64.61,26a2.16,2.16,0,0,0,.56-.05c.2,0,.44-.17.43-.39a.33.33,0,0,0-.37-.26.67.67,0,0,0-.42.26c-.14.15-.13.24-.2.44"/><path class="cls-14" d="M65,25.58a.48.48,0,0,1,.26-.16.2.2,0,0,1,.18,0,.17.17,0,0,1,0,.22.38.38,0,0,1-.21.1,1.35,1.35,0,0,1-.34.06C64.79,25.76,64.9,25.65,65,25.58Z"/><path class="cls-15" d="M65.05,25.57l0,0a.11.11,0,0,0,.08,0h.12c.14,0,.15-.17,0-.18S65,25.51,65.05,25.57Z"/><path class="cls-13" d="M66,27.66a2.08,2.08,0,0,0,.12.55c.08.2.24.42.45.37a.34.34,0,0,0,.21-.4.74.74,0,0,0-.32-.38.92.92,0,0,0-.46-.14"/><path class="cls-14" d="M66.44,28a.45.45,0,0,1,.19.24.19.19,0,0,1,0,.18.17.17,0,0,1-.22,0,.46.46,0,0,1-.13-.2,1.17,1.17,0,0,1-.11-.33C66.24,27.81,66.37,27.9,66.44,28Z"/><path class="cls-15" d="M66.46,28s0,0,0,0,0,.06,0,.09l0,.12c0,.14.18.12.18,0S66.52,28,66.46,28Z"/><path class="cls-13" d="M64,25.19a2.05,2.05,0,0,0,.45-.34c.15-.14.28-.39.16-.56a.34.34,0,0,0-.46,0,.64.64,0,0,0-.21.44.89.89,0,0,0,.06.48"/><path class="cls-14" d="M64.08,24.69a.47.47,0,0,1,.14-.28.2.2,0,0,1,.18-.05.16.16,0,0,1,.09.19.45.45,0,0,1-.12.21,1.43,1.43,0,0,1-.26.23C64,24.93,64.07,24.77,64.08,24.69Z"/><path class="cls-15" d="M64.16,24.63h0a.19.19,0,0,0,.08,0l.1-.07c.12-.07,0-.22-.08-.16S64.1,24.58,64.16,24.63Z"/><path class="cls-13" d="M62.14,25.09a2.13,2.13,0,0,0,.31-.47c.1-.19.15-.46,0-.58a.33.33,0,0,0-.43.12.75.75,0,0,0-.07.49,1.08,1.08,0,0,0,.22.44"/><path class="cls-14" d="M62.06,24.58a.54.54,0,0,1,0-.31.18.18,0,0,1,.15-.1c.08,0,.14.07.15.15a.46.46,0,0,1,0,.23,1.24,1.24,0,0,1-.17.3C62.1,24.82,62.08,24.67,62.06,24.58Z"/><path class="cls-15" d="M62.11,24.5h0a.18.18,0,0,0,.07-.05l.07-.1c.09-.11,0-.22-.13-.13S62.05,24.47,62.11,24.5Z"/><path class="cls-13" d="M60.92,24.86a2.09,2.09,0,0,0-.05-.56c0-.21-.19-.45-.4-.43a.34.34,0,0,0-.26.38.69.69,0,0,0,.27.41,1,1,0,0,0,.44.2"/><path class="cls-14" d="M60.54,24.51a.43.43,0,0,1-.16-.26.15.15,0,0,1,0-.17.16.16,0,0,1,.22,0,.39.39,0,0,1,.11.21,1.28,1.28,0,0,1,.06.34C60.72,24.68,60.6,24.57,60.54,24.51Z"/><path class="cls-15" d="M60.53,24.42l0,0a.19.19,0,0,0,0-.08V24.2c0-.14-.17-.15-.18,0S60.46,24.44,60.53,24.42Z"/><path class="cls-13" d="M60.93,25.52a3,3,0,0,0-.45-.34c-.18-.1-.45-.17-.58,0a.33.33,0,0,0,.1.44.66.66,0,0,0,.48.09,1,1,0,0,0,.45-.19"/><path class="cls-14" d="M60.41,25.57a.52.52,0,0,1-.3-.06.22.22,0,0,1-.1-.15.17.17,0,0,1,.17-.15.49.49,0,0,1,.23.06,1.45,1.45,0,0,1,.29.19C60.66,25.55,60.5,25.56,60.41,25.57Z"/><path class="cls-15" d="M60.34,25.51v0a.18.18,0,0,0-.05-.07l-.09-.08c-.1-.1-.22,0-.14.12S60.31,25.57,60.34,25.51Z"/><path class="cls-13" d="M62,27.17a2.38,2.38,0,0,0-.54.14c-.2.08-.42.25-.36.46a.33.33,0,0,0,.4.2.74.74,0,0,0,.37-.33,1,1,0,0,0,.13-.47"/><path class="cls-14" d="M61.75,27.6a.47.47,0,0,1-.24.2.19.19,0,0,1-.18,0,.18.18,0,0,1,0-.22.38.38,0,0,1,.19-.14,1.07,1.07,0,0,1,.33-.11C61.88,27.4,61.8,27.53,61.75,27.6Z"/><path class="cls-15" d="M61.66,27.63l0,0h-.09l-.11,0c-.15,0-.13.19,0,.18S61.69,27.69,61.66,27.63Z"/><path class="cls-13" d="M65.51,26.42a2.07,2.07,0,0,0,.54.15c.21,0,.48,0,.54-.23a.32.32,0,0,0-.26-.36.69.69,0,0,0-.48.1c-.18.1-.21.18-.34.34"/><path class="cls-14" d="M66,26.18a.56.56,0,0,1,.31-.06.24.24,0,0,1,.15.11.19.19,0,0,1-.1.2.44.44,0,0,1-.23,0,1.35,1.35,0,0,1-.35-.06C65.75,26.3,65.89,26.23,66,26.18Z"/><path class="cls-15" d="M66.06,26.21v0l.08.05.11,0a.09.09,0,1,0,.08-.17S66.06,26.14,66.06,26.21Z"/><path class="cls-13" d="M64.06,28.32a2.12,2.12,0,0,0,0,.56c0,.21.12.47.34.48a.34.34,0,0,0,.3-.34.73.73,0,0,0-.21-.45c-.14-.15-.23-.15-.41-.25"/><path class="cls-14" d="M64.39,28.71a.52.52,0,0,1,.13.28.19.19,0,0,1-.07.17.16.16,0,0,1-.21-.05.42.42,0,0,1-.08-.22,1,1,0,0,1,0-.35C64.23,28.53,64.33,28.64,64.39,28.71Z"/><path class="cls-15" d="M64.39,28.81s0,0,0,0,0,.05,0,.08V29c0,.14.15.17.18,0S64.46,28.79,64.39,28.81Z"/><path class="cls-16" d="M62.88,24.93c-.21.14-.25.49-.49.58a1.42,1.42,0,0,1-.36,0c-.78.06-.61,1.29-.21,1.67a.79.79,0,0,0,.79.13.88.88,0,0,0,.66,0l0,0c0,.09,0,.17,0,.25a1.41,1.41,0,0,0,1.2,1.05,1,1,0,0,0,1.09-1,1.08,1.08,0,0,1,0-.4,2,2,0,0,0,.1-.21c.13-.32-.27-.63-.64-.67a5.71,5.71,0,0,1-1.1-.07.88.88,0,0,1-.22-.1c0-.11.07-.23.09-.34a.81.81,0,0,0-.67-.91A.54.54,0,0,0,62.88,24.93Z"/><path class="cls-10" d="M35.84,25.59c1.64-3.77,5.48-5.72,8.57-4.37s4.25,5.49,2.61,9.25-5.49,5.72-8.57,4.37S34.19,29.35,35.84,25.59Z"/><path class="cls-11" d="M35.59,25.21c1.65-3.77,5.41-5.76,8.4-4.45s4.09,5.43,2.44,9.19S41,35.7,38,34.39,33.94,29,35.59,25.21Z"/><path class="cls-12" d="M45.18,24.9a2.72,2.72,0,0,0-.77-2.09,3.57,3.57,0,0,0-3.92,0,6.66,6.66,0,0,0-2.33,2.95A9.07,9.07,0,0,0,37,30.14,2.13,2.13,0,0,0,38.08,32a3.53,3.53,0,0,0,2.44,0C44.51,30.89,45.26,28,45.18,24.9Z"/><path class="cls-13" d="M42.46,27.55a1.83,1.83,0,0,0,.44.35c.18.11.45.18.58,0a.31.31,0,0,0-.09-.44.66.66,0,0,0-.48-.1,1.09,1.09,0,0,0-.45.18"/><path class="cls-14" d="M43,27.52a.47.47,0,0,1,.31.06.2.2,0,0,1,.09.16c0,.08-.08.13-.16.14a.48.48,0,0,1-.23-.07,1.12,1.12,0,0,1-.29-.19C42.73,27.54,42.89,27.52,43,27.52Z"/><path class="cls-15" d="M43.05,27.57v0s0,0,.05.07l.08.08c.11.1.23,0,.14-.12S43.08,27.51,43.05,27.57Z"/><path class="cls-13" d="M41.52,29.06a2.13,2.13,0,0,0-.25.5c-.07.2-.08.48.11.58a.33.33,0,0,0,.41-.18.69.69,0,0,0,0-.49c-.06-.2-.14-.24-.27-.41"/><path class="cls-14" d="M41.66,29.56a.47.47,0,0,1,0,.31c0,.05-.07.11-.13.12a.18.18,0,0,1-.18-.13.49.49,0,0,1,0-.24,1.53,1.53,0,0,1,.13-.32C41.59,29.32,41.64,29.47,41.66,29.56Z"/><path class="cls-15" d="M41.62,29.64h0a.09.09,0,0,0-.06.06l-.07.1c-.07.12.07.21.15.11S41.69,29.66,41.62,29.64Z"/><path class="cls-13" d="M40.74,25.86a2.16,2.16,0,0,0-.05-.56c0-.2-.18-.44-.4-.43a.33.33,0,0,0-.25.37.63.63,0,0,0,.26.42c.15.14.24.13.44.2"/><path class="cls-14" d="M40.36,25.52a.47.47,0,0,1-.16-.27.2.2,0,0,1,0-.17.16.16,0,0,1,.22,0,.39.39,0,0,1,.11.21,1.35,1.35,0,0,1,.06.34C40.54,25.68,40.42,25.58,40.36,25.52Z"/><path class="cls-15" d="M40.35,25.42h0a.28.28,0,0,0,0-.09V25.2c0-.14-.16-.15-.18,0S40.28,25.44,40.35,25.42Z"/><path class="cls-13" d="M42.43,24.44a2,2,0,0,0,.54-.13c.2-.07.42-.24.37-.45a.32.32,0,0,0-.4-.2.68.68,0,0,0-.38.31,1.1,1.1,0,0,0-.13.47"/><path class="cls-14" d="M42.72,24a.46.46,0,0,1,.24-.19.19.19,0,0,1,.18,0,.17.17,0,0,1,0,.22.43.43,0,0,1-.19.13,1,1,0,0,1-.33.11C42.58,24.22,42.67,24.09,42.72,24Z"/><path class="cls-15" d="M42.81,24s0,0,0,0H43c.14,0,.13-.19,0-.19S42.78,23.93,42.81,24Z"/><path class="cls-13" d="M40,26.49a1.67,1.67,0,0,0-.34-.45c-.15-.15-.39-.28-.56-.15a.34.34,0,0,0,0,.45.68.68,0,0,0,.44.21,1,1,0,0,0,.48-.06"/><path class="cls-14" d="M39.47,26.4a.47.47,0,0,1-.28-.14.18.18,0,0,1,0-.17.16.16,0,0,1,.19-.1.45.45,0,0,1,.21.12,1.43,1.43,0,0,1,.23.26C39.71,26.44,39.56,26.41,39.47,26.4Z"/><path class="cls-15" d="M39.41,26.32v0a.19.19,0,0,0,0-.08l-.07-.1c-.07-.12-.22,0-.16.08S39.37,26.38,39.41,26.32Z"/><path class="cls-13" d="M39.88,28.34a1.77,1.77,0,0,0-.46-.31c-.19-.1-.46-.15-.58,0a.32.32,0,0,0,.12.43.74.74,0,0,0,.49.07,1,1,0,0,0,.43-.22"/><path class="cls-14" d="M39.38,28.42a.54.54,0,0,1-.31-.05.19.19,0,0,1-.11-.14.18.18,0,0,1,.16-.16.46.46,0,0,1,.23.05,1.46,1.46,0,0,1,.3.17C39.62,28.38,39.46,28.4,39.38,28.42Z"/><path class="cls-15" d="M39.3,28.37v0a.13.13,0,0,0-.06-.07l-.09-.07c-.11-.09-.22,0-.13.13S39.27,28.43,39.3,28.37Z"/><path class="cls-13" d="M39.66,29.56a1.81,1.81,0,0,0-.56.06c-.2.05-.44.18-.42.4a.34.34,0,0,0,.38.25.69.69,0,0,0,.41-.27,1,1,0,0,0,.19-.44"/><path class="cls-14" d="M39.32,29.94a.5.5,0,0,1-.26.17.18.18,0,0,1-.17-.05.17.17,0,0,1,0-.22.84.84,0,0,1,.21-.11,1.35,1.35,0,0,1,.34-.06C39.48,29.76,39.38,29.88,39.32,29.94Z"/><path class="cls-15" d="M39.23,30l0,0H39a.1.1,0,1,0,0,.19C39.05,30.11,39.25,30,39.23,30Z"/><path class="cls-13" d="M40.33,29.55A2.07,2.07,0,0,0,40,30c-.1.19-.16.46,0,.59a.33.33,0,0,0,.44-.1.69.69,0,0,0,.09-.49,1,1,0,0,0-.19-.44"/><path class="cls-14" d="M40.38,30.06a.46.46,0,0,1-.06.3.18.18,0,0,1-.15.1A.17.17,0,0,1,40,30.3a.46.46,0,0,1,.06-.23,1.45,1.45,0,0,1,.19-.29C40.35,29.82,40.37,30,40.38,30.06Z"/><path class="cls-15" d="M40.32,30.13h0a.18.18,0,0,0-.07.05l-.08.09c-.1.11,0,.23.12.14S40.39,30.16,40.32,30.13Z"/><path class="cls-13" d="M42,28.43a2,2,0,0,0,.14.54c.08.2.26.41.46.36a.33.33,0,0,0,.2-.41.74.74,0,0,0-.33-.37,1.06,1.06,0,0,0-.47-.12"/><path class="cls-14" d="M42.4,28.71a.47.47,0,0,1,.21.23.19.19,0,0,1,0,.18.18.18,0,0,1-.22,0,.43.43,0,0,1-.14-.19,1.07,1.07,0,0,1-.11-.33C42.2,28.58,42.33,28.66,42.4,28.71Z"/><path class="cls-15" d="M42.43,28.8l0,0s0,.05,0,.08l0,.12a.1.1,0,1,0,.19,0C42.61,29,42.49,28.77,42.43,28.8Z"/><path class="cls-13" d="M41.2,25a2.61,2.61,0,0,0,.14-.55c0-.21,0-.48-.23-.53a.33.33,0,0,0-.37.26.65.65,0,0,0,.11.48c.1.18.18.2.35.34"/><path class="cls-14" d="M41,24.5a.46.46,0,0,1-.06-.3.18.18,0,0,1,.1-.15.17.17,0,0,1,.2.09.4.4,0,0,1,0,.24,1.28,1.28,0,0,1-.06.34C41.07,24.72,41,24.58,41,24.5Z"/><path class="cls-15" d="M41,24.41h0s0,0,0-.07l0-.11c.05-.14-.1-.2-.17-.08S40.91,24.41,41,24.41Z"/><path class="cls-13" d="M43.1,26.4a2.72,2.72,0,0,0,.57,0c.21,0,.46-.13.47-.34a.33.33,0,0,0-.34-.3.73.73,0,0,0-.45.21c-.15.14-.15.23-.25.42"/><path class="cls-14" d="M43.49,26.06a.45.45,0,0,1,.28-.13.18.18,0,0,1,.17.06.16.16,0,0,1,0,.22.42.42,0,0,1-.22.08,1,1,0,0,1-.34,0C43.31,26.22,43.42,26.12,43.49,26.06Z"/><path class="cls-15" d="M43.59,26.06s0,0,0,0,0,0,.08,0h.12c.14,0,.17-.15,0-.18S43.57,26,43.59,26.06Z"/><path class="cls-16" d="M39.73,27.59c.13.22.48.25.57.49a1.08,1.08,0,0,1,0,.36c.07.78,1.3.6,1.68.2a.79.79,0,0,0,.12-.79.84.84,0,0,0,0-.66s0,0,0-.05a2.27,2.27,0,0,0,.25-.06,1.38,1.38,0,0,0,1-1.2,1,1,0,0,0-1-1.09.91.91,0,0,1-.4,0,2,2,0,0,0-.21-.1c-.32-.12-.63.28-.67.65a5.76,5.76,0,0,1,0,1.1,1.47,1.47,0,0,1-.1.22c-.12,0-.23-.07-.35-.09a.8.8,0,0,0-.9.68A.44.44,0,0,0,39.73,27.59Z"/></g></g></svg>